<?xml version="1.0" encoding="UTF-8" standalone="no"?>
<!-- Created with Inkscape (http://www.inkscape.org/) -->

<svg
   xmlns:dc="http://purl.org/dc/elements/1.1/"
   xmlns:cc="http://creativecommons.org/ns#"
   xmlns:rdf="http://www.w3.org/1999/02/22-rdf-syntax-ns#"
   xmlns:svg="http://www.w3.org/2000/svg"
   xmlns="http://www.w3.org/2000/svg"
   xmlns:sodipodi="http://sodipodi.sourceforge.net/DTD/sodipodi-0.dtd"
   xmlns:inkscape="http://www.inkscape.org/namespaces/inkscape"
   width="210mm"
   height="297mm"
   viewBox="0 0 744.09448819 1052.3622047"
   id="svg2"
   version="1.1"
   inkscape:version="0.91 r13725"
   sodipodi:docname="maxDelay.svg">
  <sodipodi:namedview
     id="base"
     pagecolor="#ffffff"
     bordercolor="#666666"
     borderopacity="1.0"
     inkscape:pageopacity="0.0"
     inkscape:pageshadow="2"
     inkscape:zoom="0.98994949"
     inkscape:cx="338.3852"
     inkscape:cy="433.83598"
     inkscape:document-units="px"
     inkscape:current-layer="layer1"
     showgrid="false"
     inkscape:window-width="1366"
     inkscape:window-height="705"
     inkscape:window-x="-8"
     inkscape:window-y="-8"
     inkscape:window-maximized="1" />
  <defs
     id="defs4" />
  <metadata
     id="metadata7">
    <rdf:RDF>
      <cc:Work
         rdf:about="">
        <dc:format>image/svg+xml</dc:format>
        <dc:type
           rdf:resource="http://purl.org/dc/dcmitype/StillImage" />
        <dc:title />
      </cc:Work>
    </rdf:RDF>
  </metadata>
  <g
     inkscape:label="Layer 1"
     inkscape:groupmode="layer"
     id="layer1">
    <path
       style="fill:none;fill-rule:evenodd;stroke:#b4b4b4;stroke-width:3;stroke-linecap:butt;stroke-linejoin:miter;stroke-miterlimit:4;stroke-dasharray:none;stroke-opacity:1"
       d="m 251.78685,498.96935 511.92687,0"
       id="path4136-3-2-3"
       inkscape:connector-curvature="0"
       sodipodi:nodetypes="cc" />
    <path
       style="fill:none;fill-rule:evenodd;stroke:#000000;stroke-width:3;stroke-linecap:butt;stroke-linejoin:miter;stroke-miterlimit:4;stroke-dasharray:none;stroke-opacity:1"
       d="m 337.14474,499.10319 433.35544,0"
       id="path4136-3"
       inkscape:connector-curvature="0" />
    <path
       style="fill:none;fill-rule:evenodd;stroke:#000000;stroke-width:3;stroke-linecap:butt;stroke-linejoin:miter;stroke-miterlimit:4;stroke-dasharray:none;stroke-opacity:1"
       d="m 338.59477,486.8887 0,23.23351"
       id="path4136-3-3"
       inkscape:connector-curvature="0" />
    <path
       style="fill:none;fill-rule:evenodd;stroke:#000000;stroke-width:3;stroke-linecap:butt;stroke-linejoin:miter;stroke-miterlimit:4;stroke-dasharray:none;stroke-opacity:1"
       d="m 769.38618,487.03251 0,23.23351"
       id="path4136-3-3-4"
       inkscape:connector-curvature="0" />
    <path
       style="fill:none;fill-rule:evenodd;stroke:#b4b4b4;stroke-width:3;stroke-linecap:butt;stroke-linejoin:miter;stroke-miterlimit:4;stroke-dasharray:none;stroke-opacity:1"
       d="m 251.78685,540.7407 518.99794,0"
       id="path4136-3-2"
       inkscape:connector-curvature="0"
       sodipodi:nodetypes="cc" />
    <path
       style="fill:none;fill-rule:evenodd;stroke:#b4b4b4;stroke-width:3;stroke-linecap:butt;stroke-linejoin:miter;stroke-miterlimit:4;stroke-dasharray:none;stroke-opacity:1"
       d="m 251.78685,578.09603 518.46079,0"
       id="path4136-3-20"
       inkscape:connector-curvature="0"
       sodipodi:nodetypes="cc" />
    <path
       style="fill:none;fill-rule:evenodd;stroke:#b4b4b4;stroke-width:3;stroke-linecap:butt;stroke-linejoin:miter;stroke-miterlimit:4;stroke-dasharray:none;stroke-opacity:1"
       d="m 251.78685,662.64427 518.71333,0"
       id="path4136-3-20-9"
       inkscape:connector-curvature="0"
       sodipodi:nodetypes="cc" />
    <path
       style="fill:none;fill-rule:evenodd;stroke:#000000;stroke-width:3;stroke-linecap:butt;stroke-linejoin:miter;stroke-miterlimit:4;stroke-dasharray:none;stroke-opacity:1"
       d="m 338.59477,528.09303 0,23.23351"
       id="path4136-3-3-7"
       inkscape:connector-curvature="0" />
    <path
       style="fill:none;fill-rule:evenodd;stroke:#000000;stroke-width:3;stroke-linecap:butt;stroke-linejoin:miter;stroke-miterlimit:4;stroke-dasharray:none;stroke-opacity:1"
       d="m 507.74577,528.74604 0,23.23351"
       id="path4136-3-3-7-6"
       inkscape:connector-curvature="0" />
    <path
       style="fill:none;fill-rule:evenodd;stroke:#000000;stroke-width:3;stroke-linecap:butt;stroke-linejoin:miter;stroke-miterlimit:4;stroke-dasharray:none;stroke-opacity:1"
       d="m 338.33506,540.75506 170.58436,0"
       id="path4136-3-0"
       inkscape:connector-curvature="0"
       sodipodi:nodetypes="cc" />
    <path
       style="fill:none;fill-rule:evenodd;stroke:#000000;stroke-width:3;stroke-linecap:butt;stroke-linejoin:miter;stroke-miterlimit:4;stroke-dasharray:none;stroke-opacity:1"
       d="m 303.34655,565.71481 0,23.23351"
       id="path4136-3-3-7-3"
       inkscape:connector-curvature="0" />
    <path
       style="fill:none;fill-rule:evenodd;stroke:#000000;stroke-width:3;stroke-linecap:butt;stroke-linejoin:miter;stroke-miterlimit:4;stroke-dasharray:none;stroke-opacity:1"
       d="m 507.8255,565.71481 0,23.23351"
       id="path4136-3-3-7-6-7"
       inkscape:connector-curvature="0" />
    <path
       style="fill:none;fill-rule:evenodd;stroke:#000000;stroke-width:3.00000024;stroke-linecap:butt;stroke-linejoin:miter;stroke-miterlimit:4;stroke-dasharray:none;stroke-opacity:1"
       d="m 303.98852,662.52901 c 34.27556,0.014 430.60481,0.36079 464.81856,0"
       id="path4136-3-0-1"
       inkscape:connector-curvature="0"
       sodipodi:nodetypes="cc" />
    <g
       transform="matrix(0.57993277,0,0,0.59187472,-115.46987,297.09353)"
       id="g4369">
      <g
         style="font-style:normal;font-variant:normal;font-weight:normal;font-stretch:normal;letter-spacing:normal;word-spacing:normal;text-anchor:start;fill:none;fill-opacity:1;fill-rule:evenodd;stroke:#000000;stroke-linecap:butt;stroke-linejoin:miter;stroke-miterlimit:10.43299961;stroke-dasharray:none;stroke-dashoffset:0;stroke-opacity:1"
         id="content"
         transform="matrix(1.0629921,0,0,-1.0629921,-186.02362,789.27165)"
         xml:space="preserve"
         stroke-miterlimit="10.433"
         font-style="normal"
         font-variant="normal"
         font-weight="normal"
         font-stretch="normal"
         font-size-adjust="none"
         letter-spacing="normal"
         word-spacing="normal"><path
           style="fill:#000000;stroke-width:0"
           inkscape:connector-curvature="0"
           d="m 458.32,423.23 0.02,-0.96 0.07,-0.94 0.11,-0.93 0.16,-0.91 0.2,-0.89 0.24,-0.87 0.28,-0.85 0.32,-0.83 0.36,-0.81 0.39,-0.78 0.43,-0.76 0.46,-0.74 0.49,-0.7 0.52,-0.68 0.55,-0.66 0.59,-0.62 0.6,-0.59 0.64,-0.56 0.66,-0.53 0.68,-0.5 0.7,-0.46 0.73,-0.43 0.74,-0.39 0.77,-0.35 0.78,-0.32 0.79,-0.28 0.82,-0.23 0.82,-0.2 0.84,-0.15 0.84,-0.11 0.86,-0.07 0.86,-0.02 c 8.13,0 13,6.92 13,12.7 0,0.5 0,0.84 -0.64,0.84 -0.54,0 -0.54,-0.29 -0.59,-0.79 -0.41,-7.13 -5.73,-11.21 -11.17,-11.21 -3.03,0 -12.8,1.69 -12.8,16.53 0,14.91 9.72,16.6 12.75,16.6 5.44,0 9.88,-4.53 10.86,-11.82 0.11,-0.68 0.11,-0.84 0.8,-0.84 0.79,0 0.79,0.16 0.79,1.2 l 0,11.8 c 0,0.86 0,1.2 -0.54,1.2 -0.19,0 -0.39,0 -0.8,-0.59 l -2.48,-3.69 c -1.85,1.8 -4.39,4.28 -9.18,4.28 -9.31,0 -17.32,-7.92 -17.32,-18.09 z"
           id="path4372" /><path
           style="fill:#000000;stroke-width:0"
           inkscape:connector-curvature="0"
           d="m 514.99,416.86 -0.02,0.59 -0.04,0.59 -0.07,0.58 -0.1,0.57 -0.12,0.56 -0.15,0.55 -0.18,0.54 -0.2,0.53 -0.22,0.51 -0.24,0.5 -0.27,0.49 -0.29,0.47 -0.31,0.46 -0.32,0.44 -0.35,0.43 -0.37,0.4 -0.38,0.39 -0.4,0.37 -0.42,0.35 -0.43,0.32 -0.45,0.31 -0.46,0.28 -0.47,0.26 -0.49,0.24 -0.5,0.21 -0.51,0.18 -0.52,0.16 -0.53,0.13 -0.54,0.11 -0.55,0.07 -0.55,0.05 -0.57,0.01 -0.04,-1.09 c 2.18,0 4.32,-1.1 5.62,-3.24 1.3,-2.14 1.3,-5.03 1.3,-6.92 0,-1.8 0,-4.48 -1.1,-6.67 -1.09,-2.25 -3.28,-3.69 -5.78,-3.69 l 0,0 c -2.14,0 -4.33,1.05 -5.67,3.33 -1.25,2.2 -1.25,5.23 -1.25,7.03 0,1.94 0,4.63 1.19,6.83 1.36,2.28 3.69,3.33 5.69,3.33 l 0.04,1.09 c -6.22,0 -11.06,-5.42 -11.06,-11.65 0,-6.43 5.19,-11.21 11.02,-11.21 6.03,0 11.06,4.88 11.06,11.21 z"
           id="path4374" /><path
           style="fill:#000000;stroke-width:0"
           inkscape:connector-curvature="0"
           d="m 521.96,423.34 0,-13.36 c 0,-2.23 -0.55,-2.23 -3.89,-2.23 l 0,-1.55 c 1.75,0.05 4.28,0.16 5.63,0.16 1.29,0 3.89,-0.11 5.57,-0.16 l 0,1.55 c -3.32,0 -3.87,0 -3.87,2.23 l 0,9.17 c 0,5.19 3.53,7.97 6.72,7.97 3.14,0 3.68,-2.69 3.68,-5.53 l 0,-11.61 c 0,-2.23 -0.54,-2.23 -3.89,-2.23 l 0,-1.55 c 1.75,0.05 4.3,0.16 5.64,0.16 1.3,0 3.88,-0.11 5.58,-0.16 l 0,1.55 c -2.59,0 -3.84,0 -3.89,1.5 l 0,9.51 c 0,4.28 0,5.83 -1.54,7.61 -0.69,0.86 -2.35,1.84 -5.22,1.84 -3.64,0 -5.99,-2.14 -7.38,-5.21 l 0,5.21 -7.03,-0.54 0,-1.55 c 3.48,0 3.89,-0.34 3.89,-2.78 z"
           id="path4376" /><path
           style="fill:#000000;stroke-width:0"
           inkscape:connector-curvature="0"
           d="m 551.38,426.12 7.12,0 0,1.55 -7.12,0 0,9.17 -1.25,0 c -0.05,-4.08 -1.55,-9.42 -6.42,-9.61 l 0,-1.11 4.23,0 0,-13.75 c 0,-6.12 4.63,-6.72 6.42,-6.72 3.54,0 4.94,3.53 4.94,6.72 l 0,2.84 -1.25,0 0,-2.73 c 0,-3.69 -1.5,-5.58 -3.34,-5.58 -3.33,0 -3.33,4.53 -3.33,5.38 z"
           id="path4378" /><path
           style="fill:#000000;stroke-width:0"
           inkscape:connector-curvature="0"
           d="m 570.38,422.75 0,5.46 -6.92,-0.54 0,-1.55 c 3.49,0 3.89,-0.34 3.89,-2.78 l 0,-13.36 c 0,-2.23 -0.55,-2.23 -3.89,-2.23 l 0,-1.55 c 1.95,0.05 4.28,0.16 5.69,0.16 1.98,0 4.33,0 6.33,-0.16 l 0,1.55 -1.05,0 c -3.69,0 -3.8,0.54 -3.8,2.34 l 0,7.67 c 0,4.92 2.1,9.36 5.89,9.36 0.35,0 0.44,0 0.55,-0.05 -0.16,-0.04 -1.16,-0.64 -1.16,-1.93 0,-1.41 1.05,-2.14 2.16,-2.14 0.89,0 2.14,0.59 2.14,2.18 0,1.6 -1.55,3.03 -3.69,3.03 -3.64,0 -5.43,-3.32 -6.14,-5.46 z"
           id="path4380" /><path
           style="fill:#000000;stroke-width:0"
           inkscape:connector-curvature="0"
           d="m 605.1,416.86 -0.02,0.59 -0.04,0.59 -0.07,0.58 -0.1,0.57 -0.12,0.56 -0.15,0.55 -0.18,0.54 -0.2,0.53 -0.22,0.51 -0.24,0.5 -0.27,0.49 -0.29,0.47 -0.31,0.46 -0.32,0.44 -0.35,0.43 -0.37,0.4 -0.38,0.39 -0.4,0.37 -0.42,0.35 -0.43,0.32 -0.45,0.31 -0.46,0.28 -0.48,0.26 -0.48,0.24 -0.5,0.21 -0.51,0.18 -0.52,0.16 -0.53,0.13 -0.54,0.11 -0.55,0.07 -0.56,0.05 -0.56,0.01 -0.05,-1.09 c 2.19,0 4.33,-1.1 5.63,-3.24 1.3,-2.14 1.3,-5.03 1.3,-6.92 0,-1.8 0,-4.48 -1.1,-6.67 -1.09,-2.25 -3.28,-3.69 -5.78,-3.69 l 0,0 c -2.14,0 -4.33,1.05 -5.67,3.33 -1.25,2.2 -1.25,5.23 -1.25,7.03 0,1.94 0,4.63 1.19,6.83 1.36,2.28 3.68,3.33 5.68,3.33 l 0.05,1.09 c -6.22,0 -11.06,-5.42 -11.06,-11.65 0,-6.43 5.19,-11.21 11.01,-11.21 6.04,0 11.07,4.88 11.07,11.21 z"
           id="path4382" /><path
           style="fill:#000000;stroke-width:0"
           inkscape:connector-curvature="0"
           d="m 615.4,440.78 -7.17,-0.55 0,-1.55 c 3.48,0 3.89,-0.34 3.89,-2.79 l 0,-25.91 c 0,-2.23 -0.55,-2.23 -3.89,-2.23 l 0,-1.55 c 1.64,0.05 4.28,0.16 5.53,0.16 1.25,0 3.69,-0.11 5.53,-0.16 l 0,1.55 c -3.34,0 -3.89,0 -3.89,2.23 z"
           id="path4384" /><path
           style="fill:#000000;stroke-width:0"
           inkscape:connector-curvature="0"
           d="m 665.95,419.06 -1.25,0 c -0.55,-5.1 -1.25,-11.31 -10.02,-11.31 l -4.08,0 c -2.34,0 -2.45,0.34 -2.45,1.98 l 0,26.56 c 0,1.69 0,2.39 4.73,2.39 l 1.66,0 0,1.55 c -1.8,-0.16 -6.33,-0.16 -8.38,-0.16 -1.93,0 -5.82,0 -7.57,0.16 l 0,-1.55 1.2,0 c 3.83,0 3.94,-0.54 3.94,-2.34 l 0,-26.25 c 0,-1.8 -0.11,-2.34 -3.94,-2.34 l -1.2,0 0,-1.55 25.95,0 z"
           id="path4386" /><path
           style="fill:#000000;stroke-width:0"
           inkscape:connector-curvature="0"
           d="m 691.49,416.86 -0.01,0.59 -0.05,0.59 -0.07,0.58 -0.09,0.57 -0.13,0.56 -0.15,0.55 -0.17,0.54 -0.2,0.53 -0.22,0.51 -0.25,0.5 -0.26,0.49 -0.29,0.47 -0.31,0.46 -0.33,0.44 -0.35,0.43 -0.36,0.4 -0.39,0.39 -0.4,0.37 -0.42,0.35 -0.43,0.32 -0.44,0.31 -0.47,0.28 -0.47,0.26 -0.49,0.24 -0.5,0.21 -0.51,0.18 -0.52,0.16 -0.53,0.13 -0.54,0.11 -0.55,0.07 -0.55,0.05 -0.56,0.01 -0.05,-1.09 c 2.19,0 4.33,-1.1 5.62,-3.24 1.3,-2.14 1.3,-5.03 1.3,-6.92 0,-1.8 0,-4.48 -1.09,-6.67 -1.1,-2.25 -3.28,-3.69 -5.78,-3.69 l 0,0 c -2.14,0 -4.33,1.05 -5.68,3.33 -1.25,2.2 -1.25,5.23 -1.25,7.03 0,1.94 0,4.63 1.19,6.83 1.36,2.28 3.69,3.33 5.69,3.33 l 0.05,1.09 c -6.22,0 -11.07,-5.42 -11.07,-11.65 0,-6.43 5.19,-11.21 11.02,-11.21 6.03,0 11.06,4.88 11.06,11.21 z"
           id="path4388" /><path
           style="fill:#000000;stroke-width:0"
           inkscape:connector-curvature="0"
           d="m 717.89,416.86 -0.02,0.59 -0.04,0.59 -0.07,0.58 -0.1,0.57 -0.12,0.56 -0.15,0.55 -0.18,0.54 -0.2,0.53 -0.22,0.51 -0.24,0.5 -0.27,0.49 -0.29,0.47 -0.31,0.46 -0.33,0.44 -0.34,0.43 -0.37,0.4 -0.38,0.39 -0.4,0.37 -0.42,0.35 -0.43,0.32 -0.45,0.31 -0.46,0.28 -0.48,0.26 -0.48,0.24 -0.5,0.21 -0.51,0.18 -0.52,0.16 -0.53,0.13 -0.54,0.11 -0.55,0.07 -0.56,0.05 -0.56,0.01 -0.05,-1.09 c 2.19,0 4.33,-1.1 5.63,-3.24 1.3,-2.14 1.3,-5.03 1.3,-6.92 0,-1.8 0,-4.48 -1.1,-6.67 -1.09,-2.25 -3.28,-3.69 -5.78,-3.69 l 0,0 c -2.14,0 -4.33,1.05 -5.67,3.33 -1.25,2.2 -1.25,5.23 -1.25,7.03 0,1.94 0,4.63 1.19,6.83 1.36,2.28 3.68,3.33 5.68,3.33 l 0.05,1.09 c -6.22,0 -11.06,-5.42 -11.06,-11.65 0,-6.43 5.19,-11.21 11.01,-11.21 6.03,0 11.07,4.88 11.07,11.21 z"
           id="path4390" /><path
           style="fill:#000000;stroke-width:0"
           inkscape:connector-curvature="0"
           d="m 727.94,424.93 0,3.28 -7.17,-0.54 0,-1.55 c 3.54,0 3.89,-0.3 3.89,-2.48 l 0,-23.32 c 0,-2.25 -0.55,-2.25 -3.89,-2.25 l 0,-1.54 c 1.7,0.06 4.28,0.15 5.57,0.15 1.35,0 3.89,-0.09 5.64,-0.15 l 0,1.54 c -3.34,0 -3.89,0 -3.89,2.25 l 0,8.36 0,0.46 0.71,0.65 c -0.71,1.05 -0.71,1.1 -0.71,2.08 l 0,0 0,11.13 c 1.44,2.53 3.89,3.98 6.43,3.98 3.64,0 6.68,-4.39 6.68,-10.02 0,-6.03 -3.5,-10.21 -7.18,-10.21 -1.99,0 -3.88,1 -5.22,3.04 l -0.71,-0.65 c 0.25,-0.8 2.35,-3.49 6.13,-3.49 5.94,0 11.11,4.88 11.11,11.31 0,6.33 -4.83,11.25 -10.41,11.25 -3.89,0 -5.98,-2.18 -6.98,-3.28 z"
           id="path4392" /></g>    </g>
    <g
       id="g4452"
       transform="matrix(0.57623569,0,0,0.57623569,-154.68175,377.33868)" />
    <path
       style="fill:none;fill-rule:evenodd;stroke:#000000;stroke-width:3;stroke-linecap:butt;stroke-linejoin:miter;stroke-miterlimit:4;stroke-dasharray:none;stroke-opacity:1"
       d="m 303.04441,651.03116 0,23.23351"
       id="path4136-3-3-7-3-6"
       inkscape:connector-curvature="0" />
    <path
       style="fill:none;fill-rule:evenodd;stroke:#000000;stroke-width:3;stroke-linecap:butt;stroke-linejoin:miter;stroke-miterlimit:4;stroke-dasharray:none;stroke-opacity:1"
       d="m 769.66805,651.03116 0,23.23351"
       id="path4136-3-3-7-6-7-3"
       inkscape:connector-curvature="0" />
    <path
       style="fill:none;fill-rule:evenodd;stroke:#000000;stroke-width:3;stroke-linecap:butt;stroke-linejoin:miter;stroke-miterlimit:4;stroke-dasharray:none;stroke-opacity:1"
       d="m 304.64542,578.27843 c 29.43133,0.0119 172.64274,0.30655 202.021,0"
       id="path4136-3-0-1-0"
       inkscape:connector-curvature="0"
       sodipodi:nodetypes="cc" />
    <g
       style="font-style:normal;font-variant:normal;font-weight:normal;font-stretch:normal;letter-spacing:normal;word-spacing:normal;text-anchor:start;fill:none;fill-opacity:1;fill-rule:evenodd;stroke:#000000;stroke-linecap:butt;stroke-linejoin:miter;stroke-miterlimit:10.43299961;stroke-dasharray:none;stroke-dashoffset:0;stroke-opacity:1"
       transform="matrix(0.62788598,0,0,-0.62901771,-229.59603,868.11017)"
       id="g4320">
      <path
         id="path4247"
         d="m 394.34754,350.76287 -0.02,0.05 -0.02,0.05 -0.02,0.04 -0.02,0.05 -0.04,0.09 -0.03,0.08 -0.04,0.07 -0.03,0.07 -0.04,0.07 -0.04,0.06 -0.03,0.05 -0.04,0.05 -0.03,0.05 -0.04,0.04 -0.04,0.04 -0.04,0.04 -0.04,0.03 -0.04,0.02 -0.05,0.03 -0.05,0.02 -0.05,0.02 -0.05,0.01 -0.06,0.02 -0.06,0.01 -0.06,0.01 -0.06,0 -0.07,0.01 -0.08,0 -0.08,0.01 -0.08,0 -0.09,0 -0.09,0 -0.1,0 -0.1,0 -8.43,0 0,-1.55 1.21,0 c 3.82,0 3.92,-0.54 3.92,-2.34 l 0,-24.91 c 0,-1.34 0,-3.68 -5.13,-3.68 l 0,-1.55 c 1.75,0.05 4.19,0.16 5.83,0.16 1.64,0 4.1,-0.11 5.83,-0.16 l 0,1.55 c -5.13,0 -5.13,2.34 -5.13,3.68 l 0,26.85 0.05,0 12,-30.99 c 0.25,-0.64 0.5,-1.09 1,-1.09 0.55,0 0.7,0.41 0.89,0.95 l 12.27,31.53 0.04,0 0,-28.59 c 0,-1.8 -0.09,-2.34 -3.93,-2.34 l -1.19,0 0,-1.55 c 1.84,0.16 5.22,0.16 7.17,0.16 1.94,0 5.28,0 7.13,-0.16 l 0,1.55 -1.21,0 c -3.82,0 -3.93,0.54 -3.93,2.34 l 0,26.25 c 0,1.8 0.11,2.34 3.93,2.34 l 1.21,0 0,1.55 -8.43,0 c -1.29,0 -1.29,-0.05 -1.64,-0.95 l -10.92,-28.05 z"
         inkscape:connector-curvature="0"
         style="fill:#000000;stroke-width:0" />
      <path
         id="path4249"
         d="m 444.65754,321.60287 0.02,-0.19 0.03,-0.18 0.04,-0.19 0.04,-0.18 0.05,-0.19 0.06,-0.18 0.06,-0.18 0.07,-0.18 0.07,-0.18 0.08,-0.17 0.09,-0.18 0.09,-0.16 0.1,-0.16 0.11,-0.16 0.12,-0.16 0.11,-0.14 0.13,-0.14 0.13,-0.14 0.14,-0.13 0.15,-0.12 0.15,-0.12 0.15,-0.1 0.17,-0.1 0.16,-0.09 0.18,-0.08 0.18,-0.07 0.19,-0.06 0.19,-0.05 0.2,-0.04 0.21,-0.03 0.21,-0.02 0.21,-0.01 c 1.03,0 4.08,0.71 4.08,4.74 l 0,2.78 -1.25,0 0,-2.78 c 0,-2.89 -1.23,-3.19 -1.8,-3.19 -1.64,0 -1.84,2.23 -1.84,2.48 l 0,9.97 c 0,2.1 0,4.03 -1.78,5.88 -1.95,1.93 -4.44,2.73 -6.83,2.73 -4.09,0 -7.53,-2.33 -7.53,-5.62 0,-1.49 1,-2.35 2.3,-2.35 1.39,0 2.29,1 2.29,2.3 0,0.59 -0.25,2.23 -2.54,2.3 1.34,1.73 3.78,2.28 5.37,2.28 2.46,0 5.28,-1.94 5.28,-6.38 l 0,-1.84 0,-1.05 0,-4.98 c 0,-4.74 -3.57,-6.42 -5.83,-6.42 -2.43,0 -4.48,1.75 -4.48,4.23 0,2.73 2.09,6.88 10.31,7.17 l 0,0 0,1.05 c -2.53,-0.14 -6.01,-0.3 -9.15,-1.8 -3.74,-1.69 -4.99,-4.28 -4.99,-6.47 0,-4.03 4.83,-5.28 7.97,-5.28 3.3,0 5.58,1.99 6.53,4.33 z"
         inkscape:connector-curvature="0"
         style="fill:#000000;stroke-width:0" />
      <path
         id="path4251"
         d="m 467.31754,329.52287 0.29,0.36 0.29,0.37 0.3,0.38 0.3,0.39 0.62,0.78 0.3,0.38 0.31,0.39 0.3,0.37 0.3,0.37 0.28,0.35 0.28,0.34 0.14,0.16 0.14,0.16 0.13,0.16 0.12,0.15 0.13,0.14 0.12,0.14 0.12,0.13 0.11,0.12 c 1.55,1.78 3.59,2.53 5.94,2.58 l 0,1.55 c -1.3,-0.1 -2.8,-0.14 -4.1,-0.14 -1.48,0 -4.12,0.09 -4.78,0.14 l 0,-1.55 c 1.05,-0.09 1.46,-0.73 1.46,-1.53 0,-0.8 -0.5,-1.45 -0.75,-1.75 l -3.1,-3.89 -3.87,5.03 c -0.46,0.5 -0.46,0.61 -0.46,0.91 0,0.75 0.75,1.18 1.74,1.23 l 0,1.55 c -1.28,-0.05 -4.58,-0.14 -5.38,-0.14 -1.04,0 -3.39,0.04 -4.73,0.14 l 0,-1.55 c 3.48,0 3.55,-0.05 5.87,-3.03 l 4.94,-6.42 -4.69,-5.94 c -2.39,-2.89 -5.32,-2.98 -6.37,-2.98 l 0,-1.55 c 1.3,0.09 2.84,0.16 4.14,0.16 1.44,0 3.53,-0.11 4.73,-0.16 l 0,1.55 c -1.09,0.14 -1.45,0.79 -1.45,1.54 0,1.1 1.45,2.74 4.49,6.33 l 3.79,-4.98 c 0.39,-0.55 1.05,-1.35 1.05,-1.64 0,-0.46 -0.45,-1.21 -1.8,-1.25 l 0,-1.55 c 1.49,0.05 4.28,0.16 5.38,0.16 1.34,0 3.29,-0.07 4.78,-0.16 l 0,1.55 c -2.69,0 -3.58,0.09 -4.74,1.54 z"
         inkscape:connector-curvature="0"
         style="fill:#000000;stroke-width:0" />
      <path
         id="path4253"
         d="m 488.10754,339.83287 -6.96,-0.54 0,-1.55 c 3.23,0 3.68,-0.3 3.68,-2.73 l 0,-13.41 c 0,-2.23 -0.54,-2.23 -3.89,-2.23 l 0,-1.55 c 1.6,0.05 4.29,0.16 5.49,0.16 1.75,0 3.48,-0.11 5.18,-0.16 l 0,1.55 c -3.29,0 -3.5,0.25 -3.5,2.18 z"
         inkscape:connector-curvature="0"
         style="fill:#000000;stroke-width:0" />
      <path
         id="path4255"
         d="m 488.31754,348.51287 -0.01,0.14 -0.01,0.15 -0.01,0.14 -0.03,0.14 -0.03,0.13 -0.04,0.13 -0.04,0.13 -0.05,0.12 -0.05,0.12 -0.06,0.12 -0.07,0.11 -0.07,0.1 -0.08,0.1 -0.08,0.1 -0.08,0.1 -0.09,0.08 -0.09,0.09 -0.1,0.08 -0.1,0.07 -0.11,0.07 -0.1,0.07 -0.11,0.06 -0.12,0.05 -0.11,0.05 -0.12,0.04 -0.12,0.04 -0.12,0.03 -0.13,0.03 -0.13,0.02 -0.12,0.01 -0.13,0.01 -0.13,0.01 c -1.55,0 -2.64,-1.35 -2.64,-2.64 0,-1.35 1.09,-2.64 2.64,-2.64 1.39,0 2.64,1.04 2.64,2.64 z"
         inkscape:connector-curvature="0"
         style="fill:#000000;stroke-width:0" />
      <path
         id="path4257"
         d="m 498.57754,334.96287 0,-13.36 c 0,-2.23 -0.54,-2.23 -3.89,-2.23 l 0,-1.55 c 1.75,0.05 4.29,0.16 5.63,0.16 1.29,0 3.89,-0.11 5.58,-0.16 l 0,1.55 c -3.33,0 -3.88,0 -3.88,2.23 l 0,9.17 c 0,5.19 3.53,7.97 6.72,7.97 3.14,0 3.69,-2.69 3.69,-5.53 l 0,-11.61 c 0,-2.23 -0.55,-2.23 -3.89,-2.23 l 0,-1.55 c 1.75,0.05 4.29,0.16 5.64,0.16 1.3,0 3.87,-0.11 5.58,-0.16 l 0,1.55 c -3.35,0 -3.9,0 -3.9,2.23 l 0,9.17 c 0,5.19 3.55,7.97 6.74,7.97 3.14,0 3.69,-2.69 3.69,-5.53 l 0,-11.61 c 0,-2.23 -0.55,-2.23 -3.89,-2.23 l 0,-1.55 c 1.73,0.05 4.28,0.16 5.62,0.16 1.3,0 3.89,-0.11 5.58,-0.16 l 0,1.55 c -2.58,0 -3.83,0 -3.87,1.5 l 0,9.51 c 0,4.28 0,5.83 -1.55,7.61 -0.7,0.86 -2.35,1.84 -5.24,1.84 -4.18,0 -6.37,-2.98 -7.21,-4.87 -0.71,4.33 -4.4,4.87 -6.63,4.87 -3.64,0 -5.99,-2.14 -7.37,-5.21 l 0,5.21 -7.04,-0.54 0,-1.55 c 3.49,0 3.89,-0.34 3.89,-2.78 z"
         inkscape:connector-curvature="0"
         style="fill:#000000;stroke-width:0" />
      <path
         id="path4259"
         d="m 552.65754,321.76287 0,-4.49 7.17,0.55 0,1.55 c -3.48,0 -3.89,0.34 -3.89,2.78 l 0,17.68 -7.33,-0.54 0,-1.55 c 3.5,0 3.9,-0.34 3.9,-2.78 l 0,-8.88 c 0,-4.32 -2.4,-7.71 -6.03,-7.71 -4.18,0 -4.38,2.34 -4.38,4.93 l 0,16.53 -7.33,-0.54 0,-1.55 c 3.89,0 3.89,-0.14 3.89,-4.58 l 0,-7.47 c 0,-3.89 0,-8.42 7.57,-8.42 2.79,0 4.98,1.39 6.43,4.49 z"
         inkscape:connector-curvature="0"
         style="fill:#000000;stroke-width:0" />
      <path
         id="path4261"
         d="m 566.37754,334.96287 0,-13.36 c 0,-2.23 -0.55,-2.23 -3.89,-2.23 l 0,-1.55 c 1.75,0.05 4.28,0.16 5.62,0.16 1.3,0 3.9,-0.11 5.58,-0.16 l 0,1.55 c -3.33,0 -3.87,0 -3.87,2.23 l 0,9.17 c 0,5.19 3.53,7.97 6.72,7.97 3.14,0 3.69,-2.69 3.69,-5.53 l 0,-11.61 c 0,-2.23 -0.55,-2.23 -3.9,-2.23 l 0,-1.55 c 1.75,0.05 4.3,0.16 5.65,0.16 1.29,0 3.87,-0.11 5.57,-0.16 l 0,1.55 c -3.34,0 -3.89,0 -3.89,2.23 l 0,9.17 c 0,5.19 3.55,7.97 6.74,7.97 3.14,0 3.68,-2.69 3.68,-5.53 l 0,-11.61 c 0,-2.23 -0.54,-2.23 -3.89,-2.23 l 0,-1.55 c 1.74,0.05 4.29,0.16 5.63,0.16 1.29,0 3.89,-0.11 5.58,-0.16 l 0,1.55 c -2.58,0 -3.83,0 -3.88,1.5 l 0,9.51 c 0,4.28 0,5.83 -1.54,7.61 -0.71,0.86 -2.35,1.84 -5.24,1.84 -4.19,0 -6.38,-2.98 -7.22,-4.87 -0.7,4.33 -4.39,4.87 -6.62,4.87 -3.64,0 -5.99,-2.14 -7.38,-5.21 l 0,5.21 -7.03,-0.54 0,-1.55 c 3.49,0 3.89,-0.34 3.89,-2.78 z"
         inkscape:connector-curvature="0"
         style="fill:#000000;stroke-width:0" />
      <path
         id="path4263"
         d="m 620.72754,351.85287 0,-1.55 1.19,0 c 3.84,0 3.93,-0.54 3.93,-2.34 l 0,-26.25 c 0,-1.8 -0.09,-2.34 -3.93,-2.34 l -1.19,0 0,-1.55 18.23,0 -1.34,1.55 -5.05,0 c -2.33,0 -2.44,0.34 -2.44,1.98 l 0,26.95 c 0,1.66 0.11,2 2.44,2 l 4.99,0 c 3.09,0 6.53,-1.09 9.07,-4.64 2.15,-2.93 2.58,-7.22 2.58,-11.11 0,-5.53 -0.93,-8.51 -2.73,-10.95 -1,-1.34 -3.83,-4.23 -8.86,-4.23 l 1.34,-1.55 c 8.36,0 15.24,7.37 15.24,16.73 0,9.47 -6.72,17.3 -15.24,17.3 z"
         inkscape:connector-curvature="0"
         style="fill:#000000;stroke-width:0" />
      <path
         id="path4265"
         d="m 662.54754,329.33287 0.05,1.05 c 0.29,7.42 4.48,8.66 6.18,8.66 5.13,0 5.63,-6.72 5.63,-8.66 l -11.81,0 -0.05,-1.05 13.91,0 c 1.09,0 1.23,0 1.23,1.05 0,4.92 -2.69,9.75 -8.91,9.75 -5.78,0 -10.37,-5.12 -10.37,-11.36 0,-6.67 5.23,-11.5 10.97,-11.5 6.08,0 8.31,5.53 8.31,6.47 0,0.5 -0.39,0.61 -0.64,0.61 -0.45,0 -0.55,-0.3 -0.66,-0.7 -1.73,-5.13 -6.22,-5.13 -6.72,-5.13 -2.5,0 -4.48,1.49 -5.62,3.33 -1.5,2.39 -1.5,5.69 -1.5,7.48 z"
         inkscape:connector-curvature="0"
         style="fill:#000000;stroke-width:0" />
      <path
         id="path4267"
         d="m 687.90754,352.40287 -7.17,-0.55 0,-1.55 c 3.48,0 3.89,-0.34 3.89,-2.79 l 0,-25.91 c 0,-2.23 -0.55,-2.23 -3.89,-2.23 l 0,-1.55 c 1.64,0.05 4.28,0.16 5.53,0.16 1.25,0 3.69,-0.11 5.53,-0.16 l 0,1.55 c -3.34,0 -3.89,0 -3.89,2.23 z"
         inkscape:connector-curvature="0"
         style="fill:#000000;stroke-width:0" />
      <path
         id="path4269"
         d="m 709.48754,321.60287 0.02,-0.19 0.03,-0.18 0.03,-0.19 0.05,-0.18 0.04,-0.19 0.06,-0.18 0.06,-0.18 0.07,-0.18 0.07,-0.18 0.09,-0.17 0.08,-0.18 0.1,-0.16 0.1,-0.16 0.11,-0.16 0.11,-0.16 0.12,-0.14 0.12,-0.14 0.14,-0.14 0.13,-0.13 0.15,-0.12 0.15,-0.12 0.16,-0.1 0.16,-0.1 0.17,-0.09 0.17,-0.08 0.18,-0.07 0.19,-0.06 0.2,-0.05 0.19,-0.04 0.21,-0.03 0.21,-0.02 0.22,-0.01 c 1.03,0 4.08,0.71 4.08,4.74 l 0,2.78 -1.25,0 0,-2.78 c 0,-2.89 -1.24,-3.19 -1.8,-3.19 -1.64,0 -1.85,2.23 -1.85,2.48 l 0,9.97 c 0,2.1 0,4.03 -1.78,5.88 -1.95,1.93 -4.43,2.73 -6.82,2.73 -4.1,0 -7.54,-2.33 -7.54,-5.62 0,-1.49 1,-2.35 2.3,-2.35 1.39,0 2.3,1 2.3,2.3 0,0.59 -0.25,2.23 -2.55,2.3 1.34,1.73 3.78,2.28 5.38,2.28 2.45,0 5.28,-1.94 5.28,-6.38 l 0,-1.84 0,-1.05 0,-4.98 c 0,-4.74 -3.58,-6.42 -5.83,-6.42 -2.44,0 -4.49,1.75 -4.49,4.23 0,2.73 2.1,6.88 10.32,7.17 l 0,0 0,1.05 c -2.53,-0.14 -6.02,-0.3 -9.16,-1.8 -3.73,-1.69 -4.98,-4.28 -4.98,-6.47 0,-4.03 4.82,-5.28 7.97,-5.28 3.29,0 5.57,1.99 6.53,4.33 z"
         inkscape:connector-curvature="0"
         style="fill:#000000;stroke-width:0" />
      <path
         id="path4271"
         d="m 737.07754,334.55287 0.06,0.15 0.07,0.14 0.06,0.14 0.07,0.13 0.07,0.12 0.07,0.13 0.07,0.12 0.07,0.11 0.15,0.22 0.15,0.2 0.16,0.19 0.16,0.18 0.16,0.16 0.17,0.14 0.17,0.14 0.17,0.12 0.17,0.11 0.17,0.1 0.17,0.09 0.17,0.09 0.17,0.07 0.16,0.06 0.16,0.05 0.16,0.05 0.16,0.04 0.15,0.03 0.15,0.03 0.14,0.02 0.14,0.02 0.13,0.02 0.12,0.01 0.12,0 0.1,0.01 0.1,0 0.09,0 0.08,0 0,1.55 c -1.16,-0.1 -2.59,-0.14 -3.73,-0.14 -0.91,0 -3.25,0.09 -4.35,0.14 l 0,-1.55 c 1.55,-0.05 2.35,-0.89 2.35,-2.14 0,-0.5 -0.05,-0.59 -0.3,-1.19 l -5.03,-12.26 -5.53,13.4 c -0.21,0.5 -0.3,0.71 -0.3,0.91 0,1.28 1.84,1.28 2.78,1.28 l 0,1.55 c -1.28,-0.05 -4.58,-0.14 -5.42,-0.14 -1.34,0 -3.34,0.04 -4.83,0.14 l 0,-1.55 c 2.39,0 3.33,0 4.03,-1.73 l 7.47,-18.19 c -0.25,-0.64 -0.94,-2.3 -1.25,-2.94 -1.09,-2.73 -2.48,-6.19 -5.67,-6.19 -0.25,0 -1.39,0 -2.34,0.91 1.54,0.2 1.93,1.3 1.93,2.09 0,1.3 -0.93,2.1 -2.07,2.1 -1,0 -2.1,-0.66 -2.1,-2.14 0,-2.25 2.1,-4.05 4.58,-4.05 3.14,0 5.19,2.84 6.37,5.69 z"
         inkscape:connector-curvature="0"
         style="fill:#000000;stroke-width:0" />
    </g>
    <g
       style="font-style:normal;font-variant:normal;font-weight:normal;font-stretch:normal;letter-spacing:normal;word-spacing:normal;text-anchor:start;fill:none;fill-opacity:1;fill-rule:evenodd;stroke:#000000;stroke-linecap:butt;stroke-linejoin:miter;stroke-miterlimit:10.43299961;stroke-dasharray:none;stroke-dashoffset:0;stroke-opacity:1"
       id="g4385"
       transform="matrix(0.5703213,0,0,0.5703213,-179.09452,380.53795)">
      <g
         word-spacing="normal"
         letter-spacing="normal"
         font-size-adjust="none"
         font-stretch="normal"
         font-weight="normal"
         font-variant="normal"
         font-style="normal"
         stroke-miterlimit="10.433"
         xml:space="preserve"
         transform="matrix(1.0629921,0,0,-1.0629921,-186.02362,789.27165)"
         id="g4387"
         style="font-style:normal;font-variant:normal;font-weight:normal;font-stretch:normal;letter-spacing:normal;word-spacing:normal;text-anchor:start;fill:none;fill-opacity:1;fill-rule:evenodd;stroke:#000000;stroke-linecap:butt;stroke-linejoin:miter;stroke-miterlimit:10.43299961;stroke-dasharray:none;stroke-dashoffset:0;stroke-opacity:1"><path
           id="path4389"
           d="m 488.71,439.93 -30.46,0 -0.93,-11.22 1.25,0 c 0.68,8.04 1.43,9.68 8.95,9.68 0.91,0 2.2,0 2.7,-0.11 1.05,-0.19 1.05,-0.74 1.05,-1.89 l 0,-26.25 c 0,-1.71 0,-2.39 -5.23,-2.39 l -2,0 0,-1.55 c 2.04,0.16 7.12,0.16 9.42,0.16 2.29,0 7.42,0 9.47,-0.16 l 0,1.55 -2,0 c -5.24,0 -5.24,0.68 -5.24,2.39 l 0,26.25 c 0,1 0,1.7 0.91,1.89 0.54,0.11 1.89,0.11 2.84,0.11 7.52,0 8.27,-1.64 8.95,-9.68 l 1.25,0 z"
           inkscape:connector-curvature="0"
           style="fill:#000000;stroke-width:0" /><path
           id="path4391"
           d="m 495.63,422.75 0,5.46 -6.92,-0.54 0,-1.55 c 3.49,0 3.89,-0.34 3.89,-2.78 l 0,-13.36 c 0,-2.23 -0.55,-2.23 -3.89,-2.23 l 0,-1.55 c 1.95,0.05 4.28,0.16 5.69,0.16 1.98,0 4.33,0 6.33,-0.16 l 0,1.55 -1.05,0 c -3.69,0 -3.8,0.54 -3.8,2.34 l 0,7.67 c 0,4.92 2.1,9.36 5.89,9.36 0.35,0 0.44,0 0.55,-0.05 -0.16,-0.04 -1.16,-0.64 -1.16,-1.93 0,-1.41 1.05,-2.14 2.16,-2.14 0.89,0 2.14,0.59 2.14,2.18 0,1.6 -1.55,3.03 -3.69,3.03 -3.64,0 -5.43,-3.32 -6.14,-5.46 z"
           inkscape:connector-curvature="0"
           style="fill:#000000;stroke-width:0" /><path
           id="path4393"
           d="m 523.47,409.98 0.03,-0.19 0.02,-0.18 0.04,-0.19 0.04,-0.18 0.05,-0.19 0.06,-0.18 0.06,-0.18 0.07,-0.18 0.07,-0.18 0.08,-0.17 0.09,-0.18 0.1,-0.16 0.1,-0.16 0.1,-0.16 0.12,-0.16 0.12,-0.14 0.12,-0.14 0.13,-0.14 0.14,-0.13 0.15,-0.12 0.15,-0.12 0.15,-0.1 0.17,-0.1 0.17,-0.09 0.17,-0.08 0.18,-0.07 0.19,-0.06 0.19,-0.05 0.2,-0.04 0.21,-0.03 0.21,-0.02 0.21,-0.01 c 1.04,0 4.08,0.71 4.08,4.74 l 0,2.78 -1.25,0 0,-2.78 c 0,-2.89 -1.23,-3.19 -1.79,-3.19 -1.65,0 -1.85,2.23 -1.85,2.48 l 0,9.97 c 0,2.1 0,4.03 -1.78,5.88 -1.95,1.93 -4.44,2.73 -6.83,2.73 -4.09,0 -7.53,-2.33 -7.53,-5.62 0,-1.49 1,-2.35 2.3,-2.35 1.39,0 2.29,1 2.29,2.3 0,0.59 -0.25,2.23 -2.54,2.3 1.34,1.73 3.78,2.28 5.37,2.28 2.45,0 5.28,-1.94 5.28,-6.38 l 0,-1.84 0,-1.05 0,-4.98 c 0,-4.74 -3.58,-6.42 -5.83,-6.42 -2.43,0 -4.48,1.75 -4.48,4.23 0,2.73 2.1,6.88 10.31,7.17 l 0,0 0,1.05 c -2.53,-0.14 -6.01,-0.3 -9.15,-1.8 -3.74,-1.69 -4.99,-4.28 -4.99,-6.47 0,-4.03 4.83,-5.28 7.97,-5.28 3.3,0 5.58,1.99 6.53,4.33 z"
           inkscape:connector-curvature="0"
           style="fill:#000000;stroke-width:0" /><path
           id="path4395"
           d="m 537.32,423.34 0,-13.36 c 0,-2.23 -0.55,-2.23 -3.89,-2.23 l 0,-1.55 c 1.75,0.05 4.28,0.16 5.62,0.16 1.3,0 3.9,-0.11 5.58,-0.16 l 0,1.55 c -3.33,0 -3.87,0 -3.87,2.23 l 0,9.17 c 0,5.19 3.53,7.97 6.72,7.97 3.14,0 3.68,-2.69 3.68,-5.53 l 0,-11.61 c 0,-2.23 -0.54,-2.23 -3.89,-2.23 l 0,-1.55 c 1.75,0.05 4.3,0.16 5.64,0.16 1.3,0 3.88,-0.11 5.58,-0.16 l 0,1.55 c -2.59,0 -3.84,0 -3.89,1.5 l 0,9.51 c 0,4.28 0,5.83 -1.55,7.61 -0.68,0.86 -2.34,1.84 -5.21,1.84 -3.64,0 -5.99,-2.14 -7.38,-5.21 l 0,5.21 -7.03,-0.54 0,-1.55 c 3.48,0 3.89,-0.34 3.89,-2.78 z"
           inkscape:connector-curvature="0"
           style="fill:#000000;stroke-width:0" /><path
           id="path4397"
           d="m 569.91,415.87 0.12,-0.02 0.12,-0.02 0.14,-0.03 0.16,-0.04 0.17,-0.04 0.18,-0.04 0.19,-0.05 0.2,-0.06 0.2,-0.06 0.21,-0.07 0.22,-0.08 0.22,-0.08 0.22,-0.1 0.22,-0.1 0.22,-0.11 0.22,-0.12 0.21,-0.14 0.22,-0.14 0.2,-0.15 0.2,-0.16 0.19,-0.18 0.18,-0.19 0.17,-0.2 0.16,-0.21 0.14,-0.22 0.06,-0.12 0.07,-0.12 0.06,-0.13 0.05,-0.12 0.05,-0.14 0.04,-0.13 0.04,-0.14 0.04,-0.14 0.03,-0.15 0.03,-0.15 0.02,-0.16 0.01,-0.15 0.01,-0.17 0,-0.16 c 0,-2.53 -1.75,-4.53 -5.62,-4.53 -4.19,0 -5.99,2.84 -6.94,7.07 -0.14,0.64 -0.19,0.85 -0.69,0.85 -0.65,0 -0.65,-0.35 -0.65,-1.25 l 0,-6.58 c 0,-0.84 0,-1.19 0.54,-1.19 0.25,0 0.3,0.05 1.25,1 0.1,0.1 0.1,0.19 1,1.14 2.19,-2.09 4.44,-2.14 5.49,-2.14 5.72,0 8.01,3.35 8.01,6.92 0,2.64 -1.5,4.14 -2.09,4.74 -1.64,1.59 -3.6,2 -5.69,2.39 -2.78,0.55 -6.12,1.2 -6.12,4.09 0,1.74 1.29,3.78 5.57,3.78 5.49,0 5.74,-4.48 5.83,-6.03 0.06,-0.45 0.5,-0.45 0.61,-0.45 0.64,0 0.64,0.25 0.64,1.2 l 0,5.03 c 0,0.85 0,1.19 -0.54,1.19 -0.25,0 -0.35,0 -1,-0.59 -0.15,-0.21 -0.65,-0.64 -0.85,-0.8 -1.89,1.39 -3.94,1.39 -4.69,1.39 -6.07,0 -7.96,-3.33 -7.96,-6.12 0,-1.74 0.79,-3.14 2.14,-4.24 1.59,-1.29 3,-1.59 6.57,-2.28 z"
           inkscape:connector-curvature="0"
           style="fill:#000000;stroke-width:0" /><path
           id="path4399"
           d="m 584.72,423.34 0,-13.36 c 0,-2.23 -0.55,-2.23 -3.89,-2.23 l 0,-1.55 c 1.75,0.05 4.28,0.16 5.62,0.16 1.3,0 3.89,-0.11 5.58,-0.16 l 0,1.55 c -3.33,0 -3.87,0 -3.87,2.23 l 0,9.17 c 0,5.19 3.53,7.97 6.72,7.97 3.14,0 3.68,-2.69 3.68,-5.53 l 0,-11.61 c 0,-2.23 -0.54,-2.23 -3.89,-2.23 l 0,-1.55 c 1.75,0.05 4.3,0.16 5.64,0.16 1.3,0 3.88,-0.11 5.58,-0.16 l 0,1.55 c -3.34,0 -3.89,0 -3.89,2.23 l 0,9.17 c 0,5.19 3.55,7.97 6.73,7.97 3.15,0 3.69,-2.69 3.69,-5.53 l 0,-11.61 c 0,-2.23 -0.54,-2.23 -3.89,-2.23 l 0,-1.55 c 1.74,0.05 4.28,0.16 5.63,0.16 1.29,0 3.89,-0.11 5.57,-0.16 l 0,1.55 c -2.57,0 -3.82,0 -3.87,1.5 l 0,9.51 c 0,4.28 0,5.83 -1.55,7.61 -0.7,0.86 -2.34,1.84 -5.23,1.84 -4.19,0 -6.38,-2.98 -7.22,-4.87 -0.7,4.33 -4.39,4.87 -6.63,4.87 -3.64,0 -5.98,-2.14 -7.37,-5.21 l 0,5.21 -7.03,-0.54 0,-1.55 c 3.48,0 3.89,-0.34 3.89,-2.78 z"
           inkscape:connector-curvature="0"
           style="fill:#000000;stroke-width:0" /><path
           id="path4401"
           d="m 629.57,428.21 -6.97,-0.54 0,-1.55 c 3.23,0 3.68,-0.3 3.68,-2.73 l 0,-13.41 c 0,-2.23 -0.54,-2.23 -3.88,-2.23 l 0,-1.55 c 1.59,0.05 4.28,0.16 5.48,0.16 1.75,0 3.48,-0.11 5.19,-0.16 l 0,1.55 c -3.3,0 -3.5,0.25 -3.5,2.18 z"
           inkscape:connector-curvature="0"
           style="fill:#000000;stroke-width:0" /><path
           id="path4403"
           d="m 629.77,436.89 0,0.14 -0.01,0.15 -0.02,0.14 -0.03,0.14 -0.03,0.13 -0.03,0.13 -0.05,0.13 -0.05,0.12 -0.05,0.12 -0.06,0.12 -0.07,0.11 -0.07,0.1 -0.07,0.1 -0.08,0.1 -0.09,0.1 -0.09,0.08 -0.09,0.09 -0.1,0.08 -0.1,0.07 -0.1,0.07 -0.11,0.07 -0.11,0.06 -0.12,0.05 -0.11,0.05 -0.12,0.04 -0.12,0.04 -0.12,0.03 -0.13,0.03 -0.12,0.02 -0.13,0.01 -0.13,0.01 -0.13,0.01 c -1.55,0 -2.64,-1.35 -2.64,-2.64 0,-1.35 1.09,-2.64 2.64,-2.64 1.39,0 2.64,1.04 2.64,2.64 z"
           inkscape:connector-curvature="0"
           style="fill:#000000;stroke-width:0" /><path
           id="path4405"
           d="m 644.91,415.87 0.11,-0.02 0.13,-0.02 0.14,-0.03 0.16,-0.04 0.17,-0.04 0.18,-0.04 0.18,-0.05 0.2,-0.06 0.21,-0.06 0.21,-0.07 0.21,-0.08 0.22,-0.08 0.22,-0.1 0.22,-0.1 0.23,-0.11 0.21,-0.12 0.22,-0.14 0.21,-0.14 0.21,-0.15 0.19,-0.16 0.19,-0.18 0.19,-0.19 0.16,-0.2 0.16,-0.21 0.14,-0.22 0.07,-0.12 0.06,-0.12 0.06,-0.13 0.06,-0.12 0.04,-0.14 0.05,-0.13 0.04,-0.14 0.04,-0.14 0.03,-0.15 0.02,-0.15 0.02,-0.16 0.02,-0.15 0.01,-0.17 0,-0.16 c 0,-2.53 -1.75,-4.53 -5.63,-4.53 -4.19,0 -5.98,2.84 -6.94,7.07 -0.13,0.64 -0.18,0.85 -0.68,0.85 -0.66,0 -0.66,-0.35 -0.66,-1.25 l 0,-6.58 c 0,-0.84 0,-1.19 0.55,-1.19 0.25,0 0.29,0.05 1.25,1 0.09,0.1 0.09,0.19 1,1.14 2.19,-2.09 4.44,-2.14 5.48,-2.14 5.72,0 8.02,3.35 8.02,6.92 0,2.64 -1.5,4.14 -2.09,4.74 -1.65,1.59 -3.6,2 -5.69,2.39 -2.78,0.55 -6.13,1.2 -6.13,4.09 0,1.74 1.3,3.78 5.58,3.78 5.49,0 5.74,-4.48 5.83,-6.03 0.06,-0.45 0.5,-0.45 0.61,-0.45 0.64,0 0.64,0.25 0.64,1.2 l 0,5.03 c 0,0.85 0,1.19 -0.55,1.19 -0.25,0 -0.34,0 -1,-0.59 -0.14,-0.21 -0.64,-0.64 -0.84,-0.8 -1.89,1.39 -3.94,1.39 -4.69,1.39 -6.08,0 -7.97,-3.33 -7.97,-6.12 0,-1.74 0.8,-3.14 2.14,-4.24 1.6,-1.29 3,-1.59 6.58,-2.28 z"
           inkscape:connector-curvature="0"
           style="fill:#000000;stroke-width:0" /><path
           id="path4407"
           d="m 663.04,428.21 -6.97,-0.54 0,-1.55 c 3.24,0 3.69,-0.3 3.69,-2.73 l 0,-13.41 c 0,-2.23 -0.54,-2.23 -3.89,-2.23 l 0,-1.55 c 1.6,0.05 4.28,0.16 5.48,0.16 1.75,0 3.49,-0.11 5.19,-0.16 l 0,1.55 c -3.29,0 -3.5,0.25 -3.5,2.18 z"
           inkscape:connector-curvature="0"
           style="fill:#000000;stroke-width:0" /><path
           id="path4409"
           d="m 663.25,436.89 -0.01,0.14 -0.01,0.15 -0.02,0.14 -0.02,0.14 -0.03,0.13 -0.04,0.13 -0.04,0.13 -0.05,0.12 -0.06,0.12 -0.06,0.12 -0.06,0.11 -0.07,0.1 -0.08,0.1 -0.08,0.1 -0.08,0.1 -0.09,0.08 -0.1,0.09 -0.09,0.08 -0.1,0.07 -0.11,0.07 -0.11,0.07 -0.11,0.06 -0.11,0.05 -0.12,0.05 -0.11,0.04 -0.12,0.04 -0.13,0.03 -0.12,0.03 -0.13,0.02 -0.13,0.01 -0.13,0.01 -0.13,0.01 c -1.54,0 -2.63,-1.35 -2.63,-2.64 0,-1.35 1.09,-2.64 2.63,-2.64 1.4,0 2.65,1.04 2.65,2.64 z"
           inkscape:connector-curvature="0"
           style="fill:#000000;stroke-width:0" /><path
           id="path4411"
           d="m 691.5,416.86 -0.02,0.59 -0.04,0.59 -0.07,0.58 -0.1,0.57 -0.12,0.56 -0.15,0.55 -0.18,0.54 -0.2,0.53 -0.22,0.51 -0.24,0.5 -0.27,0.49 -0.29,0.47 -0.31,0.46 -0.33,0.44 -0.34,0.43 -0.37,0.4 -0.38,0.39 -0.4,0.37 -0.42,0.35 -0.43,0.32 -0.45,0.31 -0.46,0.28 -0.48,0.26 -0.48,0.24 -0.5,0.21 -0.51,0.18 -0.52,0.16 -0.53,0.13 -0.54,0.11 -0.55,0.07 -0.56,0.05 -0.56,0.01 -0.05,-1.09 c 2.19,0 4.33,-1.1 5.63,-3.24 1.29,-2.14 1.29,-5.03 1.29,-6.92 0,-1.8 0,-4.48 -1.09,-6.67 -1.09,-2.25 -3.28,-3.69 -5.78,-3.69 l 0,0 c -2.14,0 -4.33,1.05 -5.67,3.33 -1.25,2.2 -1.25,5.23 -1.25,7.03 0,1.94 0,4.63 1.19,6.83 1.35,2.28 3.68,3.33 5.68,3.33 l 0.05,1.09 c -6.22,0 -11.06,-5.42 -11.06,-11.65 0,-6.43 5.18,-11.21 11.01,-11.21 6.04,0 11.07,4.88 11.07,11.21 z"
           inkscape:connector-curvature="0"
           style="fill:#000000;stroke-width:0" /><path
           id="path4413"
           d="m 698.47,423.34 0,-13.36 c 0,-2.23 -0.55,-2.23 -3.89,-2.23 l 0,-1.55 c 1.75,0.05 4.28,0.16 5.62,0.16 1.3,0 3.89,-0.11 5.58,-0.16 l 0,1.55 c -3.33,0 -3.87,0 -3.87,2.23 l 0,9.17 c 0,5.19 3.53,7.97 6.72,7.97 3.14,0 3.68,-2.69 3.68,-5.53 l 0,-11.61 c 0,-2.23 -0.54,-2.23 -3.89,-2.23 l 0,-1.55 c 1.75,0.05 4.3,0.16 5.64,0.16 1.3,0 3.88,-0.11 5.58,-0.16 l 0,1.55 c -2.59,0 -3.84,0 -3.89,1.5 l 0,9.51 c 0,4.28 0,5.83 -1.55,7.61 -0.68,0.86 -2.34,1.84 -5.22,1.84 -3.64,0 -5.98,-2.14 -7.37,-5.21 l 0,5.21 -7.03,-0.54 0,-1.55 c 3.48,0 3.89,-0.34 3.89,-2.78 z"
           inkscape:connector-curvature="0"
           style="fill:#000000;stroke-width:0" /><path
           id="path4415"
           d="m 738.9,440.23 0,-1.55 1.18,0 c 3.85,0 3.94,-0.54 3.94,-2.34 l 0,-26.25 c 0,-1.8 -0.09,-2.34 -3.94,-2.34 l -1.18,0 0,-1.55 18.23,0 -1.35,1.55 -5.04,0 c -2.33,0 -2.44,0.34 -2.44,1.98 l 0,26.95 c 0,1.66 0.11,2 2.44,2 l 4.98,0 c 3.1,0 6.53,-1.09 9.08,-4.64 2.14,-2.93 2.58,-7.22 2.58,-11.11 0,-5.53 -0.94,-8.51 -2.73,-10.95 -1,-1.34 -3.83,-4.23 -8.87,-4.23 l 1.35,-1.55 c 8.36,0 15.23,7.37 15.23,16.73 0,9.47 -6.71,17.3 -15.23,17.3 z"
           inkscape:connector-curvature="0"
           style="fill:#000000;stroke-width:0" /><path
           id="path4417"
           d="m 780.72,417.71 0.04,1.05 c 0.3,7.42 4.49,8.66 6.19,8.66 5.12,0 5.62,-6.72 5.62,-8.66 l -11.81,0 -0.04,-1.05 13.9,0 c 1.1,0 1.23,0 1.23,1.05 0,4.92 -2.68,9.75 -8.9,9.75 -5.78,0 -10.38,-5.12 -10.38,-11.36 0,-6.67 5.24,-11.5 10.97,-11.5 6.08,0 8.31,5.53 8.31,6.47 0,0.5 -0.38,0.61 -0.63,0.61 -0.46,0 -0.55,-0.3 -0.66,-0.7 -1.74,-5.13 -6.22,-5.13 -6.72,-5.13 -2.5,0 -4.49,1.49 -5.62,3.33 -1.5,2.39 -1.5,5.69 -1.5,7.48 z"
           inkscape:connector-curvature="0"
           style="fill:#000000;stroke-width:0" /><path
           id="path4419"
           d="m 806.07,440.78 -7.17,-0.55 0,-1.55 c 3.49,0 3.89,-0.34 3.89,-2.79 l 0,-25.91 c 0,-2.23 -0.54,-2.23 -3.89,-2.23 l 0,-1.55 c 1.64,0.05 4.28,0.16 5.53,0.16 1.25,0 3.69,-0.11 5.54,-0.16 l 0,1.55 c -3.35,0 -3.9,0 -3.9,2.23 z"
           inkscape:connector-curvature="0"
           style="fill:#000000;stroke-width:0" /><path
           id="path4421"
           d="m 827.65,409.98 0.02,-0.19 0.03,-0.18 0.04,-0.19 0.04,-0.18 0.05,-0.19 0.06,-0.18 0.06,-0.18 0.07,-0.18 0.07,-0.18 0.08,-0.17 0.09,-0.18 0.09,-0.16 0.1,-0.16 0.11,-0.16 0.12,-0.16 0.11,-0.14 0.13,-0.14 0.13,-0.14 0.14,-0.13 0.15,-0.12 0.15,-0.12 0.15,-0.1 0.17,-0.1 0.16,-0.09 0.18,-0.08 0.18,-0.07 0.19,-0.06 0.19,-0.05 0.2,-0.04 0.21,-0.03 0.21,-0.02 0.21,-0.01 c 1.03,0 4.08,0.71 4.08,4.74 l 0,2.78 -1.25,0 0,-2.78 c 0,-2.89 -1.23,-3.19 -1.8,-3.19 -1.64,0 -1.84,2.23 -1.84,2.48 l 0,9.97 c 0,2.1 0,4.03 -1.78,5.88 -1.95,1.93 -4.44,2.73 -6.83,2.73 -4.09,0 -7.53,-2.33 -7.53,-5.62 0,-1.49 1,-2.35 2.3,-2.35 1.39,0 2.29,1 2.29,2.3 0,0.59 -0.25,2.23 -2.54,2.3 1.34,1.73 3.78,2.28 5.37,2.28 2.46,0 5.28,-1.94 5.28,-6.38 l 0,-1.84 0,-1.05 0,-4.98 c 0,-4.74 -3.57,-6.42 -5.82,-6.42 -2.44,0 -4.49,1.75 -4.49,4.23 0,2.73 2.09,6.88 10.31,7.17 l 0,0 0,1.05 c -2.53,-0.14 -6.01,-0.3 -9.15,-1.8 -3.74,-1.69 -4.99,-4.28 -4.99,-6.47 0,-4.03 4.83,-5.28 7.97,-5.28 3.3,0 5.58,1.99 6.53,4.33 z"
           inkscape:connector-curvature="0"
           style="fill:#000000;stroke-width:0" /><path
           id="path4423"
           d="m 855.25,422.93 0.06,0.15 0.06,0.14 0.07,0.14 0.06,0.13 0.07,0.12 0.07,0.13 0.07,0.12 0.08,0.11 0.14,0.22 0.16,0.2 0.16,0.19 0.16,0.18 0.16,0.16 0.17,0.14 0.16,0.14 0.17,0.12 0.17,0.11 0.17,0.1 0.17,0.09 0.17,0.09 0.17,0.07 0.17,0.06 0.16,0.05 0.16,0.05 0.16,0.04 0.15,0.03 0.15,0.03 0.14,0.02 0.13,0.02 0.13,0.02 0.13,0.01 0.11,0 0.11,0.01 0.1,0 0.09,0 0.08,0 0,1.55 c -1.16,-0.1 -2.6,-0.14 -3.74,-0.14 -0.9,0 -3.25,0.09 -4.34,0.14 l 0,-1.55 c 1.54,-0.05 2.34,-0.89 2.34,-2.14 0,-0.5 -0.05,-0.59 -0.3,-1.19 l -5.03,-12.26 -5.53,13.4 c -0.2,0.5 -0.29,0.71 -0.29,0.91 0,1.28 1.84,1.28 2.78,1.28 l 0,1.55 c -1.28,-0.05 -4.58,-0.14 -5.43,-0.14 -1.34,0 -3.34,0.04 -4.82,0.14 l 0,-1.55 c 2.39,0 3.32,0 4.03,-1.73 l 7.47,-18.19 c -0.25,-0.64 -0.94,-2.3 -1.25,-2.94 -1.1,-2.73 -2.49,-6.19 -5.68,-6.19 -0.25,0 -1.38,0 -2.34,0.91 1.55,0.2 1.94,1.3 1.94,2.09 0,1.3 -0.94,2.1 -2.08,2.1 -1,0 -2.09,-0.66 -2.09,-2.14 0,-2.25 2.09,-4.05 4.57,-4.05 3.15,0 5.19,2.84 6.38,5.69 z"
           inkscape:connector-curvature="0"
           style="fill:#000000;stroke-width:0" /></g>    </g>
    <g
       transform="matrix(0.5684531,0,0,0.5684531,-251.76849,345.84591)"
       id="g4630">
      <g
         style="font-style:normal;font-variant:normal;font-weight:normal;font-stretch:normal;letter-spacing:normal;word-spacing:normal;text-anchor:start;fill:none;fill-opacity:1;fill-rule:evenodd;stroke:#000000;stroke-linecap:butt;stroke-linejoin:miter;stroke-miterlimit:10.43299961;stroke-dasharray:none;stroke-dashoffset:0;stroke-opacity:1"
         id="g4632"
         transform="matrix(1.0629921,0,0,-1.0629921,-186.02362,789.27165)"
         xml:space="preserve"
         stroke-miterlimit="10.433"
         font-style="normal"
         font-variant="normal"
         font-weight="normal"
         font-stretch="normal"
         font-size-adjust="none"
         letter-spacing="normal"
         word-spacing="normal"><path
           style="fill:#000000;stroke-width:0"
           inkscape:connector-curvature="0"
           d="m 458.32,423.23 0.02,-0.96 0.07,-0.94 0.11,-0.93 0.16,-0.91 0.2,-0.89 0.24,-0.87 0.28,-0.85 0.32,-0.83 0.36,-0.81 0.39,-0.78 0.43,-0.76 0.46,-0.74 0.49,-0.7 0.52,-0.68 0.55,-0.66 0.59,-0.62 0.6,-0.59 0.64,-0.56 0.66,-0.53 0.68,-0.5 0.7,-0.46 0.73,-0.43 0.74,-0.39 0.77,-0.35 0.78,-0.32 0.79,-0.28 0.82,-0.23 0.82,-0.2 0.84,-0.15 0.84,-0.11 0.86,-0.07 0.86,-0.02 c 8.13,0 13,6.92 13,12.7 0,0.5 0,0.84 -0.64,0.84 -0.54,0 -0.54,-0.29 -0.59,-0.79 -0.41,-7.13 -5.73,-11.21 -11.17,-11.21 -3.03,0 -12.8,1.69 -12.8,16.53 0,14.91 9.72,16.6 12.75,16.6 5.44,0 9.88,-4.53 10.86,-11.82 0.11,-0.68 0.11,-0.84 0.8,-0.84 0.79,0 0.79,0.16 0.79,1.2 l 0,11.8 c 0,0.86 0,1.2 -0.54,1.2 -0.19,0 -0.39,0 -0.8,-0.59 l -2.48,-3.69 c -1.85,1.8 -4.39,4.28 -9.18,4.28 -9.31,0 -17.32,-7.92 -17.32,-18.09 z"
           id="path4634" /><path
           style="fill:#000000;stroke-width:0"
           inkscape:connector-curvature="0"
           d="m 514.99,416.86 -0.02,0.59 -0.04,0.59 -0.07,0.58 -0.1,0.57 -0.12,0.56 -0.15,0.55 -0.18,0.54 -0.2,0.53 -0.22,0.51 -0.24,0.5 -0.27,0.49 -0.29,0.47 -0.31,0.46 -0.32,0.44 -0.35,0.43 -0.37,0.4 -0.38,0.39 -0.4,0.37 -0.42,0.35 -0.43,0.32 -0.45,0.31 -0.46,0.28 -0.47,0.26 -0.49,0.24 -0.5,0.21 -0.51,0.18 -0.52,0.16 -0.53,0.13 -0.54,0.11 -0.55,0.07 -0.55,0.05 -0.57,0.01 -0.04,-1.09 c 2.18,0 4.32,-1.1 5.62,-3.24 1.3,-2.14 1.3,-5.03 1.3,-6.92 0,-1.8 0,-4.48 -1.1,-6.67 -1.09,-2.25 -3.28,-3.69 -5.78,-3.69 l 0,0 c -2.14,0 -4.33,1.05 -5.67,3.33 -1.25,2.2 -1.25,5.23 -1.25,7.03 0,1.94 0,4.63 1.19,6.83 1.36,2.28 3.69,3.33 5.69,3.33 l 0.04,1.09 c -6.22,0 -11.06,-5.42 -11.06,-11.65 0,-6.43 5.19,-11.21 11.02,-11.21 6.03,0 11.06,4.88 11.06,11.21 z"
           id="path4636" /><path
           style="fill:#000000;stroke-width:0"
           inkscape:connector-curvature="0"
           d="m 521.96,423.34 0,-13.36 c 0,-2.23 -0.55,-2.23 -3.89,-2.23 l 0,-1.55 c 1.75,0.05 4.28,0.16 5.63,0.16 1.29,0 3.89,-0.11 5.57,-0.16 l 0,1.55 c -3.32,0 -3.87,0 -3.87,2.23 l 0,9.17 c 0,5.19 3.53,7.97 6.72,7.97 3.14,0 3.68,-2.69 3.68,-5.53 l 0,-11.61 c 0,-2.23 -0.54,-2.23 -3.89,-2.23 l 0,-1.55 c 1.75,0.05 4.3,0.16 5.64,0.16 1.3,0 3.88,-0.11 5.58,-0.16 l 0,1.55 c -2.59,0 -3.84,0 -3.89,1.5 l 0,9.51 c 0,4.28 0,5.83 -1.54,7.61 -0.69,0.86 -2.35,1.84 -5.22,1.84 -3.64,0 -5.99,-2.14 -7.38,-5.21 l 0,5.21 -7.03,-0.54 0,-1.55 c 3.48,0 3.89,-0.34 3.89,-2.78 z"
           id="path4638" /><path
           style="fill:#000000;stroke-width:0"
           inkscape:connector-curvature="0"
           d="m 551.38,426.12 7.12,0 0,1.55 -7.12,0 0,9.17 -1.25,0 c -0.05,-4.08 -1.55,-9.42 -6.42,-9.61 l 0,-1.11 4.23,0 0,-13.75 c 0,-6.12 4.63,-6.72 6.42,-6.72 3.54,0 4.94,3.53 4.94,6.72 l 0,2.84 -1.25,0 0,-2.73 c 0,-3.69 -1.5,-5.58 -3.34,-5.58 -3.33,0 -3.33,4.53 -3.33,5.38 z"
           id="path4640" /><path
           style="fill:#000000;stroke-width:0"
           inkscape:connector-curvature="0"
           d="m 570.38,422.75 0,5.46 -6.92,-0.54 0,-1.55 c 3.49,0 3.89,-0.34 3.89,-2.78 l 0,-13.36 c 0,-2.23 -0.55,-2.23 -3.89,-2.23 l 0,-1.55 c 1.95,0.05 4.28,0.16 5.69,0.16 1.98,0 4.33,0 6.33,-0.16 l 0,1.55 -1.05,0 c -3.69,0 -3.8,0.54 -3.8,2.34 l 0,7.67 c 0,4.92 2.1,9.36 5.89,9.36 0.35,0 0.44,0 0.55,-0.05 -0.16,-0.04 -1.16,-0.64 -1.16,-1.93 0,-1.41 1.05,-2.14 2.16,-2.14 0.89,0 2.14,0.59 2.14,2.18 0,1.6 -1.55,3.03 -3.69,3.03 -3.64,0 -5.43,-3.32 -6.14,-5.46 z"
           id="path4642" /><path
           style="fill:#000000;stroke-width:0"
           inkscape:connector-curvature="0"
           d="m 605.1,416.86 -0.02,0.59 -0.04,0.59 -0.07,0.58 -0.1,0.57 -0.12,0.56 -0.15,0.55 -0.18,0.54 -0.2,0.53 -0.22,0.51 -0.24,0.5 -0.27,0.49 -0.29,0.47 -0.31,0.46 -0.32,0.44 -0.35,0.43 -0.37,0.4 -0.38,0.39 -0.4,0.37 -0.42,0.35 -0.43,0.32 -0.45,0.31 -0.46,0.28 -0.48,0.26 -0.48,0.24 -0.5,0.21 -0.51,0.18 -0.52,0.16 -0.53,0.13 -0.54,0.11 -0.55,0.07 -0.56,0.05 -0.56,0.01 -0.05,-1.09 c 2.19,0 4.33,-1.1 5.63,-3.24 1.3,-2.14 1.3,-5.03 1.3,-6.92 0,-1.8 0,-4.48 -1.1,-6.67 -1.09,-2.25 -3.28,-3.69 -5.78,-3.69 l 0,0 c -2.14,0 -4.33,1.05 -5.67,3.33 -1.25,2.2 -1.25,5.23 -1.25,7.03 0,1.94 0,4.63 1.19,6.83 1.36,2.28 3.68,3.33 5.68,3.33 l 0.05,1.09 c -6.22,0 -11.06,-5.42 -11.06,-11.65 0,-6.43 5.19,-11.21 11.01,-11.21 6.04,0 11.07,4.88 11.07,11.21 z"
           id="path4644" /><path
           style="fill:#000000;stroke-width:0"
           inkscape:connector-curvature="0"
           d="m 615.4,440.78 -7.17,-0.55 0,-1.55 c 3.48,0 3.89,-0.34 3.89,-2.79 l 0,-25.91 c 0,-2.23 -0.55,-2.23 -3.89,-2.23 l 0,-1.55 c 1.64,0.05 4.28,0.16 5.53,0.16 1.25,0 3.69,-0.11 5.53,-0.16 l 0,1.55 c -3.34,0 -3.89,0 -3.89,2.23 z"
           id="path4646" /><path
           style="fill:#000000;stroke-width:0"
           inkscape:connector-curvature="0"
           d="m 639.74,423.23 0.03,-0.96 0.06,-0.94 0.12,-0.93 0.16,-0.91 0.2,-0.89 0.24,-0.87 0.28,-0.85 0.32,-0.83 0.35,-0.81 0.39,-0.78 0.43,-0.76 0.46,-0.74 0.49,-0.7 0.53,-0.68 0.55,-0.66 0.58,-0.62 0.61,-0.59 0.63,-0.56 0.66,-0.53 0.69,-0.5 0.7,-0.46 0.73,-0.43 0.74,-0.39 0.76,-0.35 0.78,-0.32 0.8,-0.28 0.81,-0.23 0.83,-0.2 0.83,-0.15 0.85,-0.11 0.86,-0.07 0.86,-0.02 c 8.13,0 13,6.92 13,12.7 0,0.5 0,0.84 -0.64,0.84 -0.55,0 -0.55,-0.29 -0.59,-0.79 -0.41,-7.13 -5.74,-11.21 -11.18,-11.21 -3.03,0 -12.79,1.69 -12.79,16.53 0,14.91 9.72,16.6 12.75,16.6 5.43,0 9.87,-4.53 10.86,-11.82 0.11,-0.68 0.11,-0.84 0.79,-0.84 0.8,0 0.8,0.16 0.8,1.2 l 0,11.8 c 0,0.86 0,1.2 -0.55,1.2 -0.18,0 -0.39,0 -0.79,-0.59 l -2.49,-3.69 c -1.84,1.8 -4.39,4.28 -9.17,4.28 -9.31,0 -17.33,-7.92 -17.33,-18.09 z"
           id="path4648" /><path
           style="fill:#000000;stroke-width:0"
           inkscape:connector-curvature="0"
           d="m 696.41,416.86 -0.01,0.59 -0.04,0.59 -0.07,0.58 -0.1,0.57 -0.13,0.56 -0.15,0.55 -0.17,0.54 -0.2,0.53 -0.22,0.51 -0.25,0.5 -0.26,0.49 -0.29,0.47 -0.31,0.46 -0.33,0.44 -0.35,0.43 -0.36,0.4 -0.39,0.39 -0.4,0.37 -0.41,0.35 -0.44,0.32 -0.44,0.31 -0.46,0.28 -0.48,0.26 -0.49,0.24 -0.5,0.21 -0.51,0.18 -0.52,0.16 -0.53,0.13 -0.54,0.11 -0.54,0.07 -0.56,0.05 -0.56,0.01 -0.05,-1.09 c 2.19,0 4.33,-1.1 5.63,-3.24 1.29,-2.14 1.29,-5.03 1.29,-6.92 0,-1.8 0,-4.48 -1.09,-6.67 -1.09,-2.25 -3.28,-3.69 -5.78,-3.69 l 0,0 c -2.14,0 -4.33,1.05 -5.67,3.33 -1.25,2.2 -1.25,5.23 -1.25,7.03 0,1.94 0,4.63 1.18,6.83 1.36,2.28 3.69,3.33 5.69,3.33 l 0.05,1.09 c -6.22,0 -11.06,-5.42 -11.06,-11.65 0,-6.43 5.18,-11.21 11.01,-11.21 6.03,0 11.06,4.88 11.06,11.21 z"
           id="path4650" /><path
           style="fill:#000000;stroke-width:0"
           inkscape:connector-curvature="0"
           d="m 718.28,408.93 0,-3.28 7.31,0.55 0,1.55 c -3.49,0 -3.87,0.34 -3.87,2.78 l 0,30.25 -7.18,-0.55 0,-1.55 c 3.49,0 3.88,-0.34 3.88,-2.79 l 0,-10.75 c -1.44,1.78 -3.58,3.07 -6.28,3.07 l 0.2,-1.09 c 1.75,0 3.84,-0.75 5.39,-2.98 0.55,-0.85 0.55,-0.96 0.55,-1.85 l 0,0 0,-10.22 c 0,-0.89 0,-1 -0.55,-1.84 -1.5,-2.39 -3.75,-3.48 -5.89,-3.48 -2.24,0 -4.03,1.29 -5.22,3.18 -1.3,2.05 -1.45,4.89 -1.45,6.93 0,1.84 0.09,4.84 1.55,7.07 1.04,1.55 2.93,3.19 5.62,3.19 l -0.2,1.09 c -5.88,0 -11.11,-4.87 -11.11,-11.29 0,-6.33 4.89,-11.27 10.56,-11.27 3.19,0 5.44,1.69 6.69,3.28 z"
           id="path4652" /><path
           style="fill:#000000;stroke-width:0"
           inkscape:connector-curvature="0"
           d="m 732.59,417.71 0.05,1.05 c 0.29,7.42 4.48,8.66 6.18,8.66 5.13,0 5.63,-6.72 5.63,-8.66 l -11.81,0 -0.05,-1.05 13.91,0 c 1.09,0 1.23,0 1.23,1.05 0,4.92 -2.69,9.75 -8.91,9.75 -5.78,0 -10.37,-5.12 -10.37,-11.36 0,-6.67 5.23,-11.5 10.97,-11.5 6.08,0 8.31,5.53 8.31,6.47 0,0.5 -0.39,0.61 -0.64,0.61 -0.45,0 -0.55,-0.3 -0.66,-0.7 -1.73,-5.13 -6.21,-5.13 -6.71,-5.13 -2.5,0 -4.49,1.49 -5.63,3.33 -1.5,2.39 -1.5,5.69 -1.5,7.48 z"
           id="path4654" /><path
           style="fill:#000000;stroke-width:0"
           inkscape:connector-curvature="0"
           d="m 772.36,410.09 0,-0.16 0,-0.16 -0.01,-0.15 0,-0.15 -0.01,-0.13 -0.02,-0.13 -0.01,-0.13 -0.03,-0.11 -0.03,-0.12 -0.03,-0.1 -0.05,-0.1 -0.05,-0.09 -0.06,-0.09 -0.07,-0.08 -0.07,-0.08 -0.09,-0.07 -0.1,-0.06 -0.12,-0.06 -0.06,-0.03 -0.06,-0.03 -0.07,-0.02 -0.07,-0.03 -0.07,-0.02 -0.08,-0.02 -0.08,-0.02 -0.09,-0.02 -0.09,-0.02 -0.09,-0.02 -0.1,-0.02 -0.1,-0.01 -0.1,-0.01 -0.11,-0.02 -0.12,-0.01 -0.11,-0.01 -0.13,-0.01 -0.12,-0.01 -0.13,-0.01 -0.14,-0.01 -0.14,0 -0.15,-0.01 -0.15,0 -0.15,-0.01 -0.16,0 -0.17,0 -0.17,0 -0.18,0 -1.2,0 0,-1.55 28.75,0 2.09,12.86 -1.25,0 c -1.23,-7.67 -2.39,-11.31 -10.95,-11.31 l -6.63,0 c -2.34,0 -2.45,0.34 -2.45,1.98 l 0,13.31 4.49,0 c 4.84,0 5.39,-1.59 5.39,-5.83 l 1.23,0 0,13.21 -1.23,0 c 0,-4.3 -0.55,-5.83 -5.39,-5.83 l -4.49,0 0,11.95 c 0,1.64 0.11,1.99 2.45,1.99 l 6.43,0 c 7.62,0 8.97,-2.74 9.76,-9.66 l 1.25,0 -1.4,11.2 -28.05,0 0,-1.54 1.2,0 c 3.83,0 3.94,-0.55 3.94,-2.33 z"
           id="path4656" /><path
           style="fill:#000000;stroke-width:0"
           inkscape:connector-curvature="0"
           d="m 813.83,417.9 0.29,0.36 0.29,0.37 0.3,0.38 0.3,0.39 0.62,0.78 0.3,0.38 0.31,0.39 0.3,0.37 0.3,0.37 0.28,0.35 0.28,0.34 0.14,0.16 0.14,0.16 0.13,0.16 0.12,0.15 0.13,0.14 0.12,0.14 0.12,0.13 0.11,0.12 c 1.55,1.78 3.59,2.53 5.94,2.58 l 0,1.55 c -1.3,-0.1 -2.8,-0.14 -4.1,-0.14 -1.48,0 -4.12,0.09 -4.78,0.14 l 0,-1.55 c 1.05,-0.09 1.46,-0.73 1.46,-1.53 0,-0.8 -0.5,-1.45 -0.75,-1.75 l -3.1,-3.89 -3.87,5.03 c -0.46,0.5 -0.46,0.61 -0.46,0.91 0,0.75 0.75,1.18 1.74,1.23 l 0,1.55 c -1.28,-0.05 -4.58,-0.14 -5.38,-0.14 -1.04,0 -3.39,0.04 -4.73,0.14 l 0,-1.55 c 3.48,0 3.55,-0.05 5.87,-3.03 l 4.94,-6.42 -4.69,-5.94 c -2.39,-2.89 -5.32,-2.98 -6.37,-2.98 l 0,-1.55 c 1.3,0.09 2.84,0.16 4.14,0.16 1.44,0 3.53,-0.11 4.73,-0.16 l 0,1.55 c -1.09,0.14 -1.45,0.79 -1.45,1.54 0,1.1 1.45,2.74 4.48,6.33 l 3.8,-4.98 c 0.39,-0.55 1.05,-1.35 1.05,-1.64 0,-0.46 -0.45,-1.21 -1.8,-1.25 l 0,-1.55 c 1.49,0.05 4.28,0.16 5.38,0.16 1.34,0 3.29,-0.07 4.78,-0.16 l 0,1.55 c -2.69,0 -3.58,0.09 -4.74,1.54 z"
           id="path4658" /><path
           style="fill:#000000;stroke-width:0"
           inkscape:connector-curvature="0"
           d="m 831.34,417.71 0.05,1.05 c 0.3,7.42 4.49,8.66 6.19,8.66 5.12,0 5.62,-6.72 5.62,-8.66 l -11.81,0 -0.05,-1.05 13.91,0 c 1.09,0 1.23,0 1.23,1.05 0,4.92 -2.68,9.75 -8.9,9.75 -5.78,0 -10.38,-5.12 -10.38,-11.36 0,-6.67 5.24,-11.5 10.97,-11.5 6.08,0 8.31,5.53 8.31,6.47 0,0.5 -0.39,0.61 -0.64,0.61 -0.45,0 -0.54,-0.3 -0.65,-0.7 -1.74,-5.13 -6.22,-5.13 -6.72,-5.13 -2.5,0 -4.49,1.49 -5.63,3.33 -1.5,2.39 -1.5,5.69 -1.5,7.48 z"
           id="path4660" /><path
           style="fill:#000000;stroke-width:0"
           inkscape:connector-curvature="0"
           d="m 853.72,417.06 0,0.38 0.01,0.36 0.02,0.36 0.02,0.35 0.02,0.34 0.03,0.34 0.04,0.32 0.04,0.32 0.05,0.31 0.05,0.3 0.05,0.29 0.06,0.29 0.14,0.55 0.15,0.51 0.17,0.49 0.18,0.46 0.19,0.43 0.21,0.4 0.22,0.38 0.24,0.35 0.24,0.32 0.25,0.3 0.25,0.28 0.27,0.26 0.27,0.23 0.27,0.21 0.28,0.19 0.28,0.16 0.28,0.15 0.29,0.13 0.28,0.12 0.28,0.09 0.28,0.08 0.28,0.06 0.27,0.05 0.26,0.03 0.26,0.02 0.25,0.01 c 0.44,0 3.58,-0.05 5.33,-1.85 -2.05,-0.15 -2.34,-1.64 -2.34,-2.29 0,-1.3 0.89,-2.3 2.29,-2.3 1.29,0 2.29,0.86 2.29,2.34 0,3.39 -3.79,5.33 -7.63,5.33 -6.22,0 -10.81,-5.37 -10.81,-11.55 0,-6.37 4.94,-11.31 10.72,-11.31 6.67,0 8.26,5.99 8.26,6.47 0,0.5 -0.5,0.5 -0.64,0.5 -0.45,0 -0.54,-0.19 -0.65,-0.5 -1.44,-4.62 -4.68,-5.22 -6.52,-5.22 -2.64,0 -7.03,2.14 -7.03,10.16 z"
           id="path4662" /><path
           style="fill:#000000;stroke-width:0"
           inkscape:connector-curvature="0"
           d="m 889.45,410.14 0,-4.49 7.18,0.55 0,1.55 c -3.49,0 -3.9,0.34 -3.9,2.78 l 0,17.68 -7.32,-0.54 0,-1.55 c 3.5,0 3.89,-0.34 3.89,-2.78 l 0,-8.88 c 0,-4.32 -2.39,-7.71 -6.03,-7.71 -4.18,0 -4.38,2.34 -4.38,4.93 l 0,16.53 -7.33,-0.54 0,-1.55 c 3.89,0 3.89,-0.14 3.89,-4.58 l 0,-7.47 c 0,-3.89 0,-8.42 7.57,-8.42 2.79,0 4.98,1.39 6.43,4.49 z"
           id="path4664" /><path
           style="fill:#000000;stroke-width:0"
           inkscape:connector-curvature="0"
           d="m 906.31,426.12 7.13,0 0,1.55 -7.13,0 0,9.17 -1.25,0 c -0.04,-4.08 -1.54,-9.42 -6.42,-9.61 l 0,-1.11 4.24,0 0,-13.75 c 0,-6.12 4.62,-6.72 6.42,-6.72 3.53,0 4.93,3.53 4.93,6.72 l 0,2.84 -1.25,0 0,-2.73 c 0,-3.69 -1.5,-5.58 -3.34,-5.58 -3.33,0 -3.33,4.53 -3.33,5.38 z"
           id="path4666" /><path
           style="fill:#000000;stroke-width:0"
           inkscape:connector-curvature="0"
           d="m 925.82,428.21 -6.97,-0.54 0,-1.55 c 3.23,0 3.68,-0.3 3.68,-2.73 l 0,-13.41 c 0,-2.23 -0.54,-2.23 -3.88,-2.23 l 0,-1.55 c 1.59,0.05 4.28,0.16 5.48,0.16 1.75,0 3.48,-0.11 5.19,-0.16 l 0,1.55 c -3.3,0 -3.5,0.25 -3.5,2.18 z"
           id="path4668" /><path
           style="fill:#000000;stroke-width:0"
           inkscape:connector-curvature="0"
           d="m 926.02,436.89 0,0.14 -0.01,0.15 -0.02,0.14 -0.03,0.14 -0.03,0.13 -0.03,0.13 -0.05,0.13 -0.05,0.12 -0.05,0.12 -0.06,0.12 -0.07,0.11 -0.07,0.1 -0.07,0.1 -0.08,0.1 -0.09,0.1 -0.09,0.08 -0.09,0.09 -0.1,0.08 -0.1,0.07 -0.1,0.07 -0.11,0.07 -0.11,0.06 -0.12,0.05 -0.11,0.05 -0.12,0.04 -0.12,0.04 -0.12,0.03 -0.13,0.03 -0.12,0.02 -0.13,0.01 -0.13,0.01 -0.13,0.01 c -1.55,0 -2.64,-1.35 -2.64,-2.64 0,-1.35 1.09,-2.64 2.64,-2.64 1.39,0 2.64,1.04 2.64,2.64 z"
           id="path4670" /><path
           style="fill:#000000;stroke-width:0"
           inkscape:connector-curvature="0"
           d="m 954.27,416.86 -0.01,0.59 -0.05,0.59 -0.07,0.58 -0.1,0.57 -0.12,0.56 -0.15,0.55 -0.17,0.54 -0.2,0.53 -0.23,0.51 -0.24,0.5 -0.27,0.49 -0.29,0.47 -0.3,0.46 -0.33,0.44 -0.35,0.43 -0.37,0.4 -0.38,0.39 -0.4,0.37 -0.42,0.35 -0.43,0.32 -0.45,0.31 -0.46,0.28 -0.47,0.26 -0.49,0.24 -0.5,0.21 -0.51,0.18 -0.52,0.16 -0.53,0.13 -0.54,0.11 -0.55,0.07 -0.55,0.05 -0.57,0.01 -0.04,-1.09 c 2.19,0 4.32,-1.1 5.62,-3.24 1.3,-2.14 1.3,-5.03 1.3,-6.92 0,-1.8 0,-4.48 -1.1,-6.67 -1.09,-2.25 -3.28,-3.69 -5.78,-3.69 l 0,0 c -2.14,0 -4.32,1.05 -5.67,3.33 -1.25,2.2 -1.25,5.23 -1.25,7.03 0,1.94 0,4.63 1.19,6.83 1.36,2.28 3.69,3.33 5.69,3.33 l 0.04,1.09 c -6.22,0 -11.06,-5.42 -11.06,-11.65 0,-6.43 5.19,-11.21 11.02,-11.21 6.03,0 11.06,4.88 11.06,11.21 z"
           id="path4672" /><path
           style="fill:#000000;stroke-width:0"
           inkscape:connector-curvature="0"
           d="m 961.24,423.34 0,-13.36 c 0,-2.23 -0.54,-2.23 -3.89,-2.23 l 0,-1.55 c 1.75,0.05 4.28,0.16 5.63,0.16 1.29,0 3.89,-0.11 5.57,-0.16 l 0,1.55 c -3.32,0 -3.87,0 -3.87,2.23 l 0,9.17 c 0,5.19 3.53,7.97 6.72,7.97 3.14,0 3.69,-2.69 3.69,-5.53 l 0,-11.61 c 0,-2.23 -0.55,-2.23 -3.89,-2.23 l 0,-1.55 c 1.75,0.05 4.29,0.16 5.64,0.16 1.29,0 3.87,-0.11 5.57,-0.16 l 0,1.55 c -2.59,0 -3.84,0 -3.89,1.5 l 0,9.51 c 0,4.28 0,5.83 -1.54,7.61 -0.69,0.86 -2.35,1.84 -5.22,1.84 -3.64,0 -5.99,-2.14 -7.38,-5.21 l 0,5.21 -7.03,-0.54 0,-1.55 c 3.49,0 3.89,-0.34 3.89,-2.78 z"
           id="path4674" /></g>    </g>
    <g
       transform="matrix(0.43983134,0,0,0.43983134,392.74186,334.31867)"
       id="g4856">
      <g
         style="font-style:normal;font-variant:normal;font-weight:normal;font-stretch:normal;letter-spacing:normal;word-spacing:normal;text-anchor:start;fill:none;fill-opacity:1;fill-rule:evenodd;stroke:#000000;stroke-linecap:butt;stroke-linejoin:miter;stroke-miterlimit:10.43299961;stroke-dasharray:none;stroke-dashoffset:0;stroke-opacity:1"
         word-spacing="normal"
         letter-spacing="normal"
         font-size-adjust="none"
         font-stretch="normal"
         font-weight="normal"
         font-variant="normal"
         font-style="normal"
         stroke-miterlimit="10.433"
         xml:space="preserve"
         transform="matrix(1.0629921,0,0,-1.0629921,-186.02362,789.27165)"
         id="g4858"><path
           style="fill:#000000;stroke-width:0"
           inkscape:connector-curvature="0"
           id="path4860"
           d="m 469.97,423.73 0.38,0.13 0.37,0.15 0.37,0.15 0.35,0.17 0.35,0.18 0.34,0.19 0.33,0.2 0.32,0.22 0.31,0.22 0.31,0.23 0.29,0.24 0.28,0.25 0.27,0.26 0.26,0.27 0.25,0.27 0.24,0.29 0.22,0.29 0.21,0.3 0.2,0.3 0.19,0.32 0.18,0.32 0.16,0.32 0.14,0.33 0.14,0.34 0.11,0.34 0.11,0.34 0.09,0.35 0.07,0.36 0.06,0.36 0.04,0.36 0.02,0.36 0.01,0.37 c 0,4.08 -4.39,6.88 -9.17,6.88 -5.03,0 -8.81,-3 -8.81,-6.78 0,-1.65 1.09,-2.6 2.54,-2.6 1.54,0 2.54,1.1 2.54,2.55 0,2.48 -2.35,2.48 -3.08,2.48 1.53,2.44 4.83,3.1 6.62,3.1 2.03,0 4.78,-1.1 4.78,-5.58 0,-0.61 -0.11,-3.49 -1.4,-5.69 -1.49,-2.39 -3.19,-2.53 -4.42,-2.59 -0.41,-0.05 -1.6,-0.14 -1.96,-0.14 -0.39,-0.05 -0.75,-0.1 -0.75,-0.6 0,-0.54 0.36,-0.54 1.21,-0.54 l 2.18,0 c 4.1,0 5.94,-3.39 5.94,-8.29 0,-6.76 -3.44,-8.21 -5.64,-8.21 -2.14,0 -5.88,0.84 -7.61,3.78 1.73,-0.24 3.28,0.86 3.28,2.75 0,1.79 -1.34,2.78 -2.8,2.78 -1.18,0 -2.78,-0.69 -2.78,-2.89 0,-4.53 4.63,-7.81 10.07,-7.81 6.07,0 10.61,4.53 10.61,9.6 0,4.1 -3.15,7.97 -8.32,9.02 z" /><path
           style="fill:#000000;stroke-width:0"
           inkscape:connector-curvature="0"
           id="path4862"
           d="m 502.85,416.21 -0.01,0.56 -0.04,0.54 -0.05,0.54 -0.08,0.53 -0.11,0.53 -0.12,0.51 -0.15,0.5 -0.16,0.5 -0.19,0.48 -0.2,0.47 -0.23,0.46 -0.24,0.44 -0.26,0.43 -0.27,0.41 -0.3,0.4 -0.31,0.38 -0.32,0.36 -0.34,0.35 -0.36,0.32 -0.37,0.31 -0.38,0.29 -0.4,0.26 -0.41,0.25 -0.42,0.22 -0.43,0.2 -0.45,0.17 -0.45,0.15 -0.47,0.13 -0.47,0.09 -0.48,0.07 -0.5,0.05 -0.5,0.01 c -2.39,0 -4.53,-0.8 -6.33,-2.53 l 0,9.7 c 1,-0.29 2.65,-0.64 4.24,-0.64 6.12,0 9.61,4.53 9.61,5.19 0,0.3 -0.14,0.55 -0.5,0.55 -0.05,0 -0.14,0 -0.39,-0.16 -1,-0.45 -3.44,-1.44 -6.78,-1.44 -1.99,0 -4.28,0.35 -6.63,1.39 -0.39,0.14 -0.5,0.14 -0.59,0.14 -0.5,0 -0.5,-0.39 -0.5,-1.18 l 0,-14.75 c 0,-0.89 0,-1.3 0.7,-1.3 0.34,0 0.44,0.16 0.64,0.45 0.55,0.8 2.39,3.49 6.42,3.49 2.6,0 3.85,-2.3 4.24,-3.19 0.81,-1.84 0.9,-3.78 0.9,-6.28 0,-1.74 0,-4.74 -1.2,-6.83 -1.19,-1.94 -3.03,-3.23 -5.33,-3.23 -3.64,0 -6.47,2.64 -7.33,5.57 0.16,-0.04 0.32,-0.09 0.86,-0.09 1.64,0 2.49,1.25 2.49,2.44 0,1.2 -0.85,2.44 -2.49,2.44 -0.7,0 -2.45,-0.35 -2.45,-2.65 0,-4.28 3.44,-9.1 9.03,-9.1 5.77,0 10.86,4.78 10.86,11.1 z" /><path
           style="fill:#000000;stroke-width:0"
           inkscape:connector-curvature="0"
           id="path4864"
           d="m 527.48,423.34 0,-13.36 c 0,-2.23 -0.55,-2.23 -3.89,-2.23 l 0,-1.55 c 1.75,0.05 4.28,0.16 5.62,0.16 1.3,0 3.89,-0.11 5.58,-0.16 l 0,1.55 c -3.33,0 -3.88,0 -3.88,2.23 l 0,9.17 c 0,5.19 3.54,7.97 6.72,7.97 3.14,0 3.69,-2.69 3.69,-5.53 l 0,-11.61 c 0,-2.23 -0.55,-2.23 -3.89,-2.23 l 0,-1.55 c 1.75,0.05 4.3,0.16 5.64,0.16 1.3,0 3.88,-0.11 5.58,-0.16 l 0,1.55 c -3.35,0 -3.89,0 -3.89,2.23 l 0,9.17 c 0,5.19 3.54,7.97 6.73,7.97 3.14,0 3.69,-2.69 3.69,-5.53 l 0,-11.61 c 0,-2.23 -0.55,-2.23 -3.89,-2.23 l 0,-1.55 c 1.73,0.05 4.28,0.16 5.62,0.16 1.3,0 3.89,-0.11 5.58,-0.16 l 0,1.55 c -2.58,0 -3.83,0 -3.87,1.5 l 0,9.51 c 0,4.28 0,5.83 -1.55,7.61 -0.7,0.86 -2.34,1.84 -5.23,1.84 -4.19,0 -6.38,-2.98 -7.22,-4.87 -0.71,4.33 -4.39,4.87 -6.63,4.87 -3.64,0 -5.98,-2.14 -7.37,-5.21 l 0,5.21 -7.03,-0.54 0,-1.55 c 3.48,0 3.89,-0.34 3.89,-2.78 z" /><path
           style="fill:#000000;stroke-width:0"
           inkscape:connector-curvature="0"
           id="path4866"
           d="m 573.87,415.87 0.11,-0.02 0.13,-0.02 0.14,-0.03 0.16,-0.04 0.17,-0.04 0.18,-0.04 0.19,-0.05 0.19,-0.06 0.21,-0.06 0.21,-0.07 0.21,-0.08 0.22,-0.08 0.22,-0.1 0.23,-0.1 0.22,-0.11 0.22,-0.12 0.21,-0.14 0.21,-0.14 0.21,-0.15 0.2,-0.16 0.19,-0.18 0.18,-0.19 0.17,-0.2 0.15,-0.21 0.15,-0.22 0.06,-0.12 0.06,-0.12 0.06,-0.13 0.06,-0.12 0.05,-0.14 0.04,-0.13 0.04,-0.14 0.04,-0.14 0.03,-0.15 0.02,-0.15 0.02,-0.16 0.02,-0.15 0.01,-0.17 0,-0.16 c 0,-2.53 -1.75,-4.53 -5.63,-4.53 -4.18,0 -5.98,2.84 -6.93,7.07 -0.15,0.64 -0.19,0.85 -0.69,0.85 -0.66,0 -0.66,-0.35 -0.66,-1.25 l 0,-6.58 c 0,-0.84 0,-1.19 0.55,-1.19 0.25,0 0.3,0.05 1.25,1 0.09,0.1 0.09,0.19 1,1.14 2.19,-2.09 4.44,-2.14 5.48,-2.14 5.72,0 8.02,3.35 8.02,6.92 0,2.64 -1.5,4.14 -2.1,4.74 -1.63,1.59 -3.59,2 -5.68,2.39 -2.78,0.55 -6.13,1.2 -6.13,4.09 0,1.74 1.3,3.78 5.58,3.78 5.48,0 5.73,-4.48 5.83,-6.03 0.06,-0.45 0.5,-0.45 0.61,-0.45 0.64,0 0.64,0.25 0.64,1.2 l 0,5.03 c 0,0.85 0,1.19 -0.55,1.19 -0.25,0 -0.34,0 -1,-0.59 -0.14,-0.21 -0.64,-0.64 -0.84,-0.8 -1.89,1.39 -3.94,1.39 -4.69,1.39 -6.08,0 -7.97,-3.33 -7.97,-6.12 0,-1.74 0.8,-3.14 2.14,-4.24 1.6,-1.29 3,-1.59 6.58,-2.28 z" /></g>    </g>
    <g
       id="g5276"
       transform="matrix(0.38916604,0,0,0.38916604,250.70842,431.22952)">
      <g
         word-spacing="normal"
         letter-spacing="normal"
         font-size-adjust="none"
         font-stretch="normal"
         font-weight="normal"
         font-variant="normal"
         font-style="normal"
         stroke-miterlimit="10.433"
         xml:space="preserve"
         transform="matrix(1.0629921,0,0,-1.0629921,-186.02362,789.27165)"
         id="g5278"
         style="font-style:normal;font-variant:normal;font-weight:normal;font-stretch:normal;letter-spacing:normal;word-spacing:normal;text-anchor:start;fill:none;fill-opacity:1;fill-rule:evenodd;stroke:#000000;stroke-linecap:butt;stroke-linejoin:miter;stroke-miterlimit:10.43299961;stroke-dasharray:none;stroke-dashoffset:0;stroke-opacity:1"><path
           id="path5280"
           d="m 470.16,438.09 0,0.05 0,0.06 0,0.05 0,0.05 0,0.05 0,0.05 0,0.04 0,0.05 0,0.04 0,0.04 -0.01,0.04 0,0.04 0,0.04 0,0.03 0,0.04 -0.01,0.03 -0.01,0.07 0,0.06 -0.02,0.05 -0.01,0.05 -0.02,0.05 -0.02,0.04 -0.02,0.04 -0.02,0.03 -0.03,0.03 -0.03,0.03 -0.04,0.03 -0.04,0.02 -0.04,0.02 -0.03,0.01 -0.02,0.01 -0.03,0 -0.02,0.01 -0.03,0.01 -0.03,0 -0.03,0.01 -0.03,0 -0.04,0.01 -0.03,0 -0.04,0 -0.03,0.01 -0.04,0 -0.04,0 -0.05,0 -0.04,0 -0.04,0 -0.05,0.01 -0.05,0 -0.05,0 -0.05,0 -0.05,0 c -3.09,-3.19 -7.47,-3.19 -9.06,-3.19 l 0,-1.55 c 1,0 3.93,0 6.51,1.3 l 0,-25.81 c 0,-1.8 -0.14,-2.39 -4.62,-2.39 l -1.6,0 0,-1.55 c 1.75,0.16 6.08,0.16 8.07,0.16 2,0 6.32,0 8.07,-0.16 l 0,1.55 -1.59,0 c -4.48,0 -4.64,0.54 -4.64,2.39 z"
           inkscape:connector-curvature="0"
           style="fill:#000000;stroke-width:0" /><path
           id="path5282"
           d="m 502.85,416.21 -0.01,0.56 -0.04,0.54 -0.05,0.54 -0.08,0.53 -0.11,0.53 -0.12,0.51 -0.15,0.5 -0.16,0.5 -0.19,0.48 -0.2,0.47 -0.23,0.46 -0.24,0.44 -0.26,0.43 -0.27,0.41 -0.3,0.4 -0.31,0.38 -0.32,0.36 -0.34,0.35 -0.36,0.32 -0.37,0.31 -0.38,0.29 -0.4,0.26 -0.41,0.25 -0.42,0.22 -0.43,0.2 -0.45,0.17 -0.45,0.15 -0.47,0.13 -0.47,0.09 -0.48,0.07 -0.5,0.05 -0.5,0.01 c -2.39,0 -4.53,-0.8 -6.33,-2.53 l 0,9.7 c 1,-0.29 2.65,-0.64 4.24,-0.64 6.12,0 9.61,4.53 9.61,5.19 0,0.3 -0.14,0.55 -0.5,0.55 -0.05,0 -0.14,0 -0.39,-0.16 -1,-0.45 -3.44,-1.44 -6.78,-1.44 -1.99,0 -4.28,0.35 -6.63,1.39 -0.39,0.14 -0.5,0.14 -0.59,0.14 -0.5,0 -0.5,-0.39 -0.5,-1.18 l 0,-14.75 c 0,-0.89 0,-1.3 0.7,-1.3 0.34,0 0.44,0.16 0.64,0.45 0.55,0.8 2.39,3.49 6.42,3.49 2.6,0 3.85,-2.3 4.24,-3.19 0.81,-1.84 0.9,-3.78 0.9,-6.28 0,-1.74 0,-4.74 -1.2,-6.83 -1.19,-1.94 -3.03,-3.23 -5.33,-3.23 -3.64,0 -6.47,2.64 -7.33,5.57 0.16,-0.04 0.32,-0.09 0.86,-0.09 1.64,0 2.49,1.25 2.49,2.44 0,1.2 -0.85,2.44 -2.49,2.44 -0.7,0 -2.45,-0.35 -2.45,-2.65 0,-4.28 3.44,-9.1 9.03,-9.1 5.77,0 10.86,4.78 10.86,11.1 z"
           inkscape:connector-curvature="0"
           style="fill:#000000;stroke-width:0" /><path
           id="path5284"
           d="m 515,408.84 -0.01,0.13 -0.01,0.14 -0.01,0.13 -0.03,0.13 -0.03,0.12 -0.03,0.13 -0.04,0.12 -0.05,0.12 -0.06,0.12 -0.05,0.11 -0.07,0.11 -0.07,0.11 -0.07,0.1 -0.08,0.1 -0.08,0.1 -0.09,0.09 -0.09,0.09 -0.1,0.08 -0.1,0.08 -0.1,0.07 -0.11,0.07 -0.11,0.07 -0.11,0.06 -0.12,0.05 -0.12,0.05 -0.12,0.04 -0.13,0.04 -0.12,0.03 -0.13,0.02 -0.14,0.02 -0.13,0.01 -0.14,0 c -1.43,0 -2.64,-1.2 -2.64,-2.64 0,-1.44 1.21,-2.64 2.64,-2.64 1.46,0 2.65,1.2 2.65,2.64 z"
           inkscape:connector-curvature="0"
           style="fill:#000000;stroke-width:0" /><path
           id="path5286"
           d="m 525.81,422.54 0,1.19 c 0,12.61 6.17,14.41 8.72,14.41 1.19,0 3.28,-0.3 4.37,-2 -0.73,0 -2.73,0 -2.73,-2.24 0,-1.54 1.2,-2.29 2.3,-2.29 0.79,0 2.28,0.45 2.28,2.39 0,3 -2.19,5.39 -6.32,5.39 -6.39,0 -13.11,-6.44 -13.11,-17.44 0,-13.31 5.78,-16.84 10.41,-16.84 5.53,0 10.27,4.68 10.27,11.25 0,6.32 -4.44,11.12 -9.97,11.12 l -0.05,-1.16 c 0.8,0 3.09,0 4.64,-3.09 0.89,-1.83 0.89,-4.37 0.89,-6.81 0,-2.39 0,-4.89 -0.84,-6.69 -1.5,-2.98 -3.78,-3.23 -4.94,-3.23 l 0,0 c -3.14,0 -4.63,2.98 -4.92,3.73 -0.91,2.34 -0.91,6.33 -0.91,7.23 0,3.88 1.6,8.86 6.08,8.86 l 0.05,1.16 c -3.38,0 -5.22,-2.55 -6.22,-4.94 z"
           inkscape:connector-curvature="0"
           style="fill:#000000;stroke-width:0" /><path
           id="path5288"
           d="m 566.23,423.34 0,-13.36 c 0,-2.23 -0.55,-2.23 -3.89,-2.23 l 0,-1.55 c 1.75,0.05 4.28,0.16 5.63,0.16 1.29,0 3.88,-0.11 5.57,-0.16 l 0,1.55 c -3.32,0 -3.87,0 -3.87,2.23 l 0,9.17 c 0,5.19 3.53,7.97 6.72,7.97 3.14,0 3.68,-2.69 3.68,-5.53 l 0,-11.61 c 0,-2.23 -0.54,-2.23 -3.89,-2.23 l 0,-1.55 c 1.75,0.05 4.3,0.16 5.64,0.16 1.3,0 3.88,-0.11 5.58,-0.16 l 0,1.55 c -3.34,0 -3.89,0 -3.89,2.23 l 0,9.17 c 0,5.19 3.55,7.97 6.74,7.97 3.14,0 3.68,-2.69 3.68,-5.53 l 0,-11.61 c 0,-2.23 -0.54,-2.23 -3.89,-2.23 l 0,-1.55 c 1.74,0.05 4.28,0.16 5.63,0.16 1.3,0 3.89,-0.11 5.58,-0.16 l 0,1.55 c -2.58,0 -3.83,0 -3.88,1.5 l 0,9.51 c 0,4.28 0,5.83 -1.55,7.61 -0.7,0.86 -2.34,1.84 -5.23,1.84 -4.19,0 -6.37,-2.98 -7.22,-4.87 -0.7,4.33 -4.39,4.87 -6.62,4.87 -3.65,0 -5.99,-2.14 -7.38,-5.21 l 0,5.21 -7.03,-0.54 0,-1.55 c 3.48,0 3.89,-0.34 3.89,-2.78 z"
           inkscape:connector-curvature="0"
           style="fill:#000000;stroke-width:0" /><path
           id="path5290"
           d="m 612.63,415.87 0.11,-0.02 0.12,-0.02 0.15,-0.03 0.15,-0.04 0.17,-0.04 0.18,-0.04 0.19,-0.05 0.2,-0.06 0.2,-0.06 0.21,-0.07 0.22,-0.08 0.22,-0.08 0.22,-0.1 0.22,-0.1 0.22,-0.11 0.22,-0.12 0.21,-0.14 0.22,-0.14 0.2,-0.15 0.2,-0.16 0.19,-0.18 0.18,-0.19 0.17,-0.2 0.16,-0.21 0.14,-0.22 0.07,-0.12 0.06,-0.12 0.06,-0.13 0.05,-0.12 0.05,-0.14 0.04,-0.13 0.05,-0.14 0.03,-0.14 0.03,-0.15 0.03,-0.15 0.02,-0.16 0.01,-0.15 0.01,-0.17 0,-0.16 c 0,-2.53 -1.75,-4.53 -5.62,-4.53 -4.19,0 -5.99,2.84 -6.94,7.07 -0.14,0.64 -0.19,0.85 -0.69,0.85 -0.65,0 -0.65,-0.35 -0.65,-1.25 l 0,-6.58 c 0,-0.84 0,-1.19 0.54,-1.19 0.25,0 0.3,0.05 1.25,1 0.1,0.1 0.1,0.19 1,1.14 2.19,-2.09 4.44,-2.14 5.49,-2.14 5.72,0 8.01,3.35 8.01,6.92 0,2.64 -1.5,4.14 -2.09,4.74 -1.64,1.59 -3.59,2 -5.69,2.39 -2.78,0.55 -6.12,1.2 -6.12,4.09 0,1.74 1.29,3.78 5.58,3.78 5.48,0 5.73,-4.48 5.82,-6.03 0.07,-0.45 0.5,-0.45 0.61,-0.45 0.64,0 0.64,0.25 0.64,1.2 l 0,5.03 c 0,0.85 0,1.19 -0.54,1.19 -0.25,0 -0.35,0 -1,-0.59 -0.14,-0.21 -0.64,-0.64 -0.85,-0.8 -1.89,1.39 -3.93,1.39 -4.68,1.39 -6.08,0 -7.97,-3.33 -7.97,-6.12 0,-1.74 0.79,-3.14 2.14,-4.24 1.59,-1.29 3,-1.59 6.58,-2.28 z"
           inkscape:connector-curvature="0"
           style="fill:#000000;stroke-width:0" /></g>    </g>
    <path
       style="fill:none;fill-rule:evenodd;stroke:#b4b4b4;stroke-width:3;stroke-linecap:butt;stroke-linejoin:miter;stroke-miterlimit:4;stroke-dasharray:none;stroke-opacity:1"
       d="m 251.78685,620.06804 518.2083,0"
       id="path4136-3-20-2"
       inkscape:connector-curvature="0"
       sodipodi:nodetypes="cc" />
    <path
       style="fill:none;fill-rule:evenodd;stroke:#000000;stroke-width:3;stroke-linecap:butt;stroke-linejoin:miter;stroke-miterlimit:4;stroke-dasharray:none;stroke-opacity:1"
       d="m 507.52791,607.68682 0,23.23351"
       id="path4136-3-3-7-3-3"
       inkscape:connector-curvature="0" />
    <path
       style="fill:none;fill-rule:evenodd;stroke:#000000;stroke-width:3;stroke-linecap:butt;stroke-linejoin:miter;stroke-miterlimit:4;stroke-dasharray:none;stroke-opacity:1"
       d="m 590.00686,607.68682 0,23.23351"
       id="path4136-3-3-7-6-7-38"
       inkscape:connector-curvature="0" />
    <path
       style="fill:none;fill-rule:evenodd;stroke:#000000;stroke-width:3;stroke-linecap:butt;stroke-linejoin:miter;stroke-miterlimit:4;stroke-dasharray:none;stroke-opacity:1"
       d="m 507.82678,620.25044 c 29.43133,0.0119 53.35703,0.30655 82.73529,0"
       id="path4136-3-0-1-0-0"
       inkscape:connector-curvature="0"
       sodipodi:nodetypes="cc" />
    <g
       transform="matrix(0.41010161,0,0,0.41010161,395.09953,462.50754)"
       id="g5614">
      <g
         style="font-style:normal;font-variant:normal;font-weight:normal;font-stretch:normal;letter-spacing:normal;word-spacing:normal;text-anchor:start;fill:none;fill-opacity:1;fill-rule:evenodd;stroke:#000000;stroke-linecap:butt;stroke-linejoin:miter;stroke-miterlimit:10.43299961;stroke-dasharray:none;stroke-dashoffset:0;stroke-opacity:1"
         id="g5616"
         transform="matrix(1.0629921,0,0,-1.0629921,-186.02362,789.27165)"
         xml:space="preserve"
         stroke-miterlimit="10.433"
         font-style="normal"
         font-variant="normal"
         font-weight="normal"
         font-stretch="normal"
         font-size-adjust="none"
         letter-spacing="normal"
         word-spacing="normal"><path
           style="fill:#000000;stroke-width:0"
           inkscape:connector-curvature="0"
           d="m 479.24,436.54 0.04,0.06 0.04,0.05 0.03,0.05 0.03,0.05 0.03,0.04 0.03,0.04 0.03,0.05 0.02,0.04 0.02,0.04 0.02,0.04 0.02,0.04 0.02,0.04 0.01,0.04 0.02,0.04 0.01,0.04 0.01,0.04 0.01,0.04 0.01,0.05 0.01,0.05 0,0.04 0.01,0.06 0,0.05 0.01,0.06 0,0.06 0,0.06 0,0.07 0,0.07 0.01,0.08 0,0.08 0,0.08 0,0.09 0,0.05 0,0.05 -12.1,0 c -6.08,0 -6.19,0.65 -6.39,1.59 l -1.23,0 -1.64,-10.25 1.23,0 c 0.16,0.8 0.61,3.94 1.25,4.53 0.34,0.3 4.24,0.3 4.88,0.3 l 10.32,0 c -0.56,-0.8 -4.48,-6.24 -5.59,-7.88 -4.48,-6.71 -6.12,-13.65 -6.12,-18.73 0,-0.5 0,-2.73 2.29,-2.73 2.3,0 2.3,2.23 2.3,2.73 l 0,2.55 c 0,2.73 0.14,5.48 0.55,8.17 0.18,1.14 0.89,5.42 3.07,8.51 z"
           id="path5618" /><path
           style="fill:#000000;stroke-width:0"
           inkscape:connector-curvature="0"
           d="m 490.04,408.84 0,0.13 -0.01,0.14 -0.02,0.13 -0.02,0.13 -0.03,0.12 -0.04,0.13 -0.04,0.12 -0.05,0.12 -0.05,0.12 -0.06,0.11 -0.06,0.11 -0.07,0.11 -0.08,0.1 -0.08,0.1 -0.08,0.1 -0.09,0.09 -0.09,0.09 -0.09,0.08 -0.1,0.08 -0.11,0.07 -0.1,0.07 -0.12,0.07 -0.11,0.06 -0.12,0.05 -0.12,0.05 -0.12,0.04 -0.12,0.04 -0.13,0.03 -0.13,0.02 -0.13,0.02 -0.14,0.01 -0.13,0 c -1.44,0 -2.64,-1.2 -2.64,-2.64 0,-1.44 1.2,-2.64 2.64,-2.64 1.45,0 2.64,1.2 2.64,2.64 z"
           id="path5620" /><path
           style="fill:#000000;stroke-width:0"
           inkscape:connector-curvature="0"
           d="m 500.85,422.54 0,1.19 c 0,12.61 6.17,14.41 8.72,14.41 1.19,0 3.28,-0.3 4.38,-2 -0.74,0 -2.74,0 -2.74,-2.24 0,-1.54 1.2,-2.29 2.3,-2.29 0.79,0 2.28,0.45 2.28,2.39 0,3 -2.19,5.39 -6.31,5.39 -6.39,0 -13.11,-6.44 -13.11,-17.44 0,-13.31 5.78,-16.84 10.4,-16.84 5.53,0 10.27,4.68 10.27,11.25 0,6.32 -4.44,11.12 -9.97,11.12 l -0.05,-1.16 c 0.8,0 3.1,0 4.64,-3.09 0.89,-1.83 0.89,-4.37 0.89,-6.81 0,-2.39 0,-4.89 -0.84,-6.69 -1.5,-2.98 -3.78,-3.23 -4.94,-3.23 l 0,0 c -3.14,0 -4.62,2.98 -4.92,3.73 -0.9,2.34 -0.9,6.33 -0.9,7.23 0,3.88 1.59,8.86 6.07,8.86 l 0.05,1.16 c -3.37,0 -5.22,-2.55 -6.22,-4.94 z"
           id="path5622" /><path
           style="fill:#000000;stroke-width:0"
           inkscape:connector-curvature="0"
           d="m 541.27,423.34 0,-13.36 c 0,-2.23 -0.54,-2.23 -3.89,-2.23 l 0,-1.55 c 1.75,0.05 4.28,0.16 5.63,0.16 1.29,0 3.89,-0.11 5.58,-0.16 l 0,1.55 c -3.33,0 -3.88,0 -3.88,2.23 l 0,9.17 c 0,5.19 3.53,7.97 6.72,7.97 3.14,0 3.69,-2.69 3.69,-5.53 l 0,-11.61 c 0,-2.23 -0.55,-2.23 -3.89,-2.23 l 0,-1.55 c 1.75,0.05 4.29,0.16 5.64,0.16 1.29,0 3.87,-0.11 5.58,-0.16 l 0,1.55 c -3.35,0 -3.9,0 -3.9,2.23 l 0,9.17 c 0,5.19 3.55,7.97 6.74,7.97 3.14,0 3.69,-2.69 3.69,-5.53 l 0,-11.61 c 0,-2.23 -0.55,-2.23 -3.89,-2.23 l 0,-1.55 c 1.73,0.05 4.28,0.16 5.62,0.16 1.3,0 3.89,-0.11 5.58,-0.16 l 0,1.55 c -2.58,0 -3.83,0 -3.88,1.5 l 0,9.51 c 0,4.28 0,5.83 -1.54,7.61 -0.71,0.86 -2.35,1.84 -5.24,1.84 -4.18,0 -6.37,-2.98 -7.22,-4.87 -0.7,4.33 -4.39,4.87 -6.62,4.87 -3.64,0 -5.99,-2.14 -7.38,-5.21 l 0,5.21 -7.03,-0.54 0,-1.55 c 3.49,0 3.89,-0.34 3.89,-2.78 z"
           id="path5624" /><path
           style="fill:#000000;stroke-width:0"
           inkscape:connector-curvature="0"
           d="m 587.67,415.87 0.11,-0.02 0.13,-0.02 0.14,-0.03 0.16,-0.04 0.16,-0.04 0.18,-0.04 0.19,-0.05 0.2,-0.06 0.2,-0.06 0.22,-0.07 0.21,-0.08 0.22,-0.08 0.22,-0.1 0.22,-0.1 0.22,-0.11 0.22,-0.12 0.22,-0.14 0.21,-0.14 0.2,-0.15 0.2,-0.16 0.19,-0.18 0.18,-0.19 0.17,-0.2 0.16,-0.21 0.14,-0.22 0.07,-0.12 0.06,-0.12 0.06,-0.13 0.05,-0.12 0.05,-0.14 0.05,-0.13 0.04,-0.14 0.03,-0.14 0.03,-0.15 0.03,-0.15 0.02,-0.16 0.01,-0.15 0.01,-0.17 0,-0.16 c 0,-2.53 -1.75,-4.53 -5.62,-4.53 -4.19,0 -5.98,2.84 -6.94,7.07 -0.14,0.64 -0.19,0.85 -0.69,0.85 -0.65,0 -0.65,-0.35 -0.65,-1.25 l 0,-6.58 c 0,-0.84 0,-1.19 0.55,-1.19 0.25,0 0.29,0.05 1.25,1 0.09,0.1 0.09,0.19 1,1.14 2.18,-2.09 4.43,-2.14 5.48,-2.14 5.72,0 8.02,3.35 8.02,6.92 0,2.64 -1.5,4.14 -2.1,4.74 -1.64,1.59 -3.59,2 -5.68,2.39 -2.79,0.55 -6.13,1.2 -6.13,4.09 0,1.74 1.3,3.78 5.58,3.78 5.48,0 5.73,-4.48 5.83,-6.03 0.06,-0.45 0.5,-0.45 0.6,-0.45 0.65,0 0.65,0.25 0.65,1.2 l 0,5.03 c 0,0.85 0,1.19 -0.55,1.19 -0.25,0 -0.35,0 -1,-0.59 -0.14,-0.21 -0.64,-0.64 -0.85,-0.8 -1.88,1.39 -3.93,1.39 -4.68,1.39 -6.08,0 -7.97,-3.33 -7.97,-6.12 0,-1.74 0.8,-3.14 2.14,-4.24 1.59,-1.29 3,-1.59 6.58,-2.28 z"
           id="path5626" /></g>    </g>
    <g
       id="g5898"
       transform="matrix(0.55504749,0,0,0.55504749,-160.84145,428.58099)">
      <g
         word-spacing="normal"
         letter-spacing="normal"
         font-size-adjust="none"
         font-stretch="normal"
         font-weight="normal"
         font-variant="normal"
         font-style="normal"
         stroke-miterlimit="10.433"
         xml:space="preserve"
         transform="matrix(1.0629921,0,0,-1.0629921,-186.02362,789.27165)"
         id="g5900"
         style="font-style:normal;font-variant:normal;font-weight:normal;font-stretch:normal;letter-spacing:normal;word-spacing:normal;text-anchor:start;fill:none;fill-opacity:1;fill-rule:evenodd;stroke:#000000;stroke-linecap:butt;stroke-linejoin:miter;stroke-miterlimit:10.43299961;stroke-dasharray:none;stroke-dashoffset:0;stroke-opacity:1"><path
           id="path5902"
           d="m 466.83,421.95 -0.15,1.28 0,13.45 c 0,1.66 0.11,2 2.43,2 l 4.44,0 c 7.92,0 7.92,-5.28 7.92,-7.72 0,-2.34 0,-7.73 -7.92,-7.73 l -6.87,0 0.15,-1.28 8.42,0 c 5.97,0 11.36,4.03 11.36,9.01 0,4.88 -4.93,9.27 -11.76,9.27 l -17.58,0 0,-1.55 1.19,0 c 3.84,0 3.93,-0.54 3.93,-2.34 l 0,-26.25 c 0,-1.8 -0.09,-2.34 -3.93,-2.34 l -1.19,0 0,-1.55 c 1.73,0.16 5.42,0.16 7.31,0.16 1.89,0 5.64,0 7.38,-0.16 l 0,1.55 -1.19,0 c -3.84,0 -3.94,0.54 -3.94,2.34 z"
           inkscape:connector-curvature="0"
           style="fill:#000000;stroke-width:0" /><path
           id="path5904"
           d="m 504.63,409.98 0.02,-0.19 0.03,-0.18 0.04,-0.19 0.04,-0.18 0.05,-0.19 0.05,-0.18 0.06,-0.18 0.07,-0.18 0.08,-0.18 0.08,-0.17 0.09,-0.18 0.09,-0.16 0.1,-0.16 0.11,-0.16 0.11,-0.16 0.12,-0.14 0.13,-0.14 0.13,-0.14 0.14,-0.13 0.14,-0.12 0.15,-0.12 0.16,-0.1 0.16,-0.1 0.17,-0.09 0.18,-0.08 0.18,-0.07 0.19,-0.06 0.19,-0.05 0.2,-0.04 0.2,-0.03 0.21,-0.02 0.22,-0.01 c 1.03,0 4.08,0.71 4.08,4.74 l 0,2.78 -1.25,0 0,-2.78 c 0,-2.89 -1.24,-3.19 -1.8,-3.19 -1.64,0 -1.84,2.23 -1.84,2.48 l 0,9.97 c 0,2.1 0,4.03 -1.78,5.88 -1.96,1.93 -4.44,2.73 -6.83,2.73 -4.1,0 -7.53,-2.33 -7.53,-5.62 0,-1.49 1,-2.35 2.29,-2.35 1.39,0 2.3,1 2.3,2.3 0,0.59 -0.25,2.23 -2.55,2.3 1.35,1.73 3.78,2.28 5.38,2.28 2.45,0 5.28,-1.94 5.28,-6.38 l 0,-1.84 0,-1.05 0,-4.98 c 0,-4.74 -3.58,-6.42 -5.83,-6.42 -2.44,0 -4.48,1.75 -4.48,4.23 0,2.73 2.09,6.88 10.31,7.17 l 0,0 0,1.05 c -2.53,-0.14 -6.02,-0.3 -9.16,-1.8 -3.73,-1.69 -4.98,-4.28 -4.98,-6.47 0,-4.03 4.83,-5.28 7.97,-5.28 3.29,0 5.58,1.99 6.53,4.33 z"
           inkscape:connector-curvature="0"
           style="fill:#000000;stroke-width:0" /><path
           id="path5906"
           d="m 518.82,417.06 0,0.38 0.01,0.36 0.02,0.36 0.02,0.35 0.02,0.34 0.03,0.34 0.04,0.32 0.04,0.32 0.05,0.31 0.05,0.3 0.05,0.29 0.07,0.29 0.13,0.55 0.15,0.51 0.17,0.49 0.18,0.46 0.2,0.43 0.2,0.4 0.23,0.38 0.23,0.35 0.24,0.32 0.25,0.3 0.25,0.28 0.27,0.26 0.27,0.23 0.27,0.21 0.28,0.19 0.28,0.16 0.29,0.15 0.28,0.13 0.28,0.12 0.28,0.09 0.28,0.08 0.28,0.06 0.27,0.05 0.26,0.03 0.26,0.02 0.25,0.01 c 0.44,0 3.58,-0.05 5.33,-1.85 -2.04,-0.15 -2.34,-1.64 -2.34,-2.29 0,-1.3 0.89,-2.3 2.3,-2.3 1.28,0 2.28,0.86 2.28,2.34 0,3.39 -3.78,5.33 -7.63,5.33 -6.22,0 -10.81,-5.37 -10.81,-11.55 0,-6.37 4.94,-11.31 10.72,-11.31 6.67,0 8.26,5.99 8.26,6.47 0,0.5 -0.5,0.5 -0.64,0.5 -0.45,0 -0.54,-0.19 -0.65,-0.5 -1.44,-4.62 -4.67,-5.22 -6.52,-5.22 -2.64,0 -7.03,2.14 -7.03,10.16 z"
           inkscape:connector-curvature="0"
           style="fill:#000000;stroke-width:0" /><path
           id="path5908"
           d="m 538.91,409.98 0,-0.1 0,-0.1 0,-0.19 -0.01,-0.18 -0.02,-0.17 -0.01,-0.15 -0.03,-0.15 -0.03,-0.13 -0.03,-0.12 -0.05,-0.11 -0.04,-0.11 -0.06,-0.09 -0.07,-0.09 -0.07,-0.08 -0.08,-0.07 -0.09,-0.06 -0.1,-0.05 -0.11,-0.05 -0.12,-0.05 -0.13,-0.03 -0.14,-0.04 -0.15,-0.02 -0.16,-0.03 -0.18,-0.01 -0.09,-0.01 -0.1,-0.01 -0.1,-0.01 -0.1,0 -0.11,-0.01 -0.11,0 -0.11,0 -0.12,-0.01 -0.12,0 -0.12,0 -0.13,0 -0.13,0 -0.13,0 -0.14,0 -0.14,0 -0.15,0 -0.15,0 -0.16,0 0,-1.55 c 1.66,0.05 3.99,0.16 5.44,0.16 1.49,0 3.49,-0.07 5.49,-0.16 l 0,1.55 c -3.35,0 -3.9,0 -3.9,2.23 l 0,5.14 3.19,2.74 c 3.83,-5.29 5.92,-8.07 5.92,-8.97 0,-0.94 -0.84,-1.14 -1.78,-1.14 l 0,-1.55 c 1.39,0.05 4.33,0.16 5.38,0.16 1.44,0 2.89,-0.07 4.33,-0.16 l 0,1.55 c -1.85,0 -2.94,0 -4.83,2.64 l -6.33,8.92 c -0.05,0.09 -0.3,0.39 -0.3,0.55 0,0.18 3.53,3.18 4.03,3.57 3.14,2.55 5.24,2.64 6.29,2.69 l 0,1.55 c -1.44,-0.14 -2.1,-0.14 -3.49,-0.14 -1.8,0 -4.89,0.09 -5.58,0.14 l 0,-1.55 c 0.94,-0.05 1.44,-0.59 1.44,-1.23 0,-1 -0.69,-1.6 -1.09,-1.96 l -7.03,-6.07 0,23.92 -7.18,-0.55 0,-1.55 c 3.49,0 3.89,-0.34 3.89,-2.79 z"
           inkscape:connector-curvature="0"
           style="fill:#000000;stroke-width:0" /><path
           id="path5910"
           d="m 573.74,409.98 0.02,-0.19 0.03,-0.18 0.04,-0.19 0.04,-0.18 0.05,-0.19 0.06,-0.18 0.06,-0.18 0.07,-0.18 0.07,-0.18 0.08,-0.17 0.09,-0.18 0.09,-0.16 0.1,-0.16 0.11,-0.16 0.12,-0.16 0.11,-0.14 0.13,-0.14 0.13,-0.14 0.14,-0.13 0.15,-0.12 0.15,-0.12 0.15,-0.1 0.17,-0.1 0.16,-0.09 0.18,-0.08 0.18,-0.07 0.19,-0.06 0.19,-0.05 0.2,-0.04 0.21,-0.03 0.21,-0.02 0.21,-0.01 c 1.03,0 4.08,0.71 4.08,4.74 l 0,2.78 -1.25,0 0,-2.78 c 0,-2.89 -1.23,-3.19 -1.8,-3.19 -1.64,0 -1.84,2.23 -1.84,2.48 l 0,9.97 c 0,2.1 0,4.03 -1.78,5.88 -1.95,1.93 -4.44,2.73 -6.83,2.73 -4.09,0 -7.53,-2.33 -7.53,-5.62 0,-1.49 1,-2.35 2.3,-2.35 1.39,0 2.29,1 2.29,2.3 0,0.59 -0.25,2.23 -2.54,2.3 1.34,1.73 3.78,2.28 5.37,2.28 2.45,0 5.28,-1.94 5.28,-6.38 l 0,-1.84 0,-1.05 0,-4.98 c 0,-4.74 -3.58,-6.42 -5.83,-6.42 -2.43,0 -4.48,1.75 -4.48,4.23 0,2.73 2.09,6.88 10.31,7.17 l 0,0 0,1.05 c -2.53,-0.14 -6.01,-0.3 -9.15,-1.8 -3.74,-1.69 -4.99,-4.28 -4.99,-6.47 0,-4.03 4.83,-5.28 7.97,-5.28 3.3,0 5.58,1.99 6.53,4.33 z"
           inkscape:connector-curvature="0"
           style="fill:#000000;stroke-width:0" /><path
           id="path5912"
           d="m 587.39,412.82 0,0.03 0,0.02 0,0.03 0,0.04 0,0.04 0,0.05 0.01,0.05 0,0.06 0.01,0.05 0,0.07 0.01,0.06 0.01,0.07 0.01,0.07 0.02,0.08 0.01,0.08 0.02,0.08 0.02,0.08 0.03,0.08 0.02,0.09 0.03,0.09 0.04,0.09 0.03,0.09 0.04,0.09 0.04,0.1 0.05,0.09 0.05,0.1 0.05,0.09 0.06,0.1 0.06,0.09 0.07,0.1 0.07,0.09 0.08,0.1 c 1.95,-1.39 3.99,-1.55 4.94,-1.55 l 0,1.14 c -4.35,0 -4.35,4.99 -4.35,6.14 0,1.35 0.07,2.94 0.8,4.17 0.41,0.61 1.55,2 3.55,2 4.33,0 4.33,-4.98 4.33,-6.12 0,-1.34 -0.05,-2.94 -0.8,-4.19 -0.39,-0.59 -1.55,-2 -3.53,-2 l 0,0 0,-1.14 c 4.62,0 8.06,3.44 8.06,7.28 0,1.85 -0.8,3.69 -2.03,4.83 1.78,1.69 3.58,1.94 4.48,1.94 0.1,0 0.35,0 0.5,-0.05 -0.56,-0.2 -0.79,-0.75 -0.79,-1.34 0,-0.85 0.64,-1.44 1.43,-1.44 0.5,0 1.44,0.34 1.44,1.48 0,0.85 -0.59,2.44 -2.53,2.44 -1,0 -3.19,-0.3 -5.28,-2.33 -2.1,1.64 -4.19,1.78 -5.28,1.78 -4.64,0 -8.08,-3.43 -8.08,-7.26 0,-2.19 1.09,-4.09 2.34,-5.14 -0.64,-0.74 -1.54,-2.39 -1.54,-4.13 0,-1.54 0.65,-3.43 2.2,-4.43 -3,-0.85 -4.59,-2.99 -4.59,-4.99 0,-3.58 4.93,-6.33 11.01,-6.33 l 0.05,1.14 c -5.03,0 -8.47,2.55 -8.47,5.19 0,2.3 1.89,4.14 4.09,4.28 l 2.94,0 c 4.28,0 9.86,0 9.86,-4.28 0,-2.69 -3.53,-5.19 -8.42,-5.19 l 0,0 -0.05,-1.14 c 5.88,0 11.06,2.55 11.06,6.43 0,1.75 -0.7,4.29 -3.23,5.68 -2.64,1.39 -5.53,1.39 -8.58,1.39 -1.25,0 -3.39,0 -3.73,0.05 -1.6,0.2 -2.64,1.75 -2.64,3.34 z"
           inkscape:connector-curvature="0"
           style="fill:#000000;stroke-width:0" /><path
           id="path5914"
           d="m 612.59,417.71 0.05,1.05 c 0.3,7.42 4.49,8.66 6.19,8.66 5.12,0 5.62,-6.72 5.62,-8.66 l -11.81,0 -0.05,-1.05 13.91,0 c 1.09,0 1.23,0 1.23,1.05 0,4.92 -2.68,9.75 -8.9,9.75 -5.78,0 -10.38,-5.12 -10.38,-11.36 0,-6.67 5.24,-11.5 10.97,-11.5 6.08,0 8.31,5.53 8.31,6.47 0,0.5 -0.39,0.61 -0.64,0.61 -0.45,0 -0.54,-0.3 -0.65,-0.7 -1.74,-5.13 -6.22,-5.13 -6.72,-5.13 -2.5,0 -4.49,1.49 -5.63,3.33 -1.5,2.39 -1.5,5.69 -1.5,7.48 z"
           inkscape:connector-curvature="0"
           style="fill:#000000;stroke-width:0" /><path
           id="path5916"
           d="m 647.57,440.23 0,-1.55 1.19,0 c 3.84,0 3.94,-0.54 3.94,-2.34 l 0,-26.25 c 0,-1.8 -0.1,-2.34 -3.94,-2.34 l -1.19,0 0,-1.55 18.23,0 -1.34,1.55 -5.05,0 c -2.32,0 -2.43,0.34 -2.43,1.98 l 0,26.95 c 0,1.66 0.11,2 2.43,2 l 4.99,0 c 3.09,0 6.53,-1.09 9.08,-4.64 2.14,-2.93 2.57,-7.22 2.57,-11.11 0,-5.53 -0.93,-8.51 -2.73,-10.95 -1,-1.34 -3.83,-4.23 -8.86,-4.23 l 1.34,-1.55 c 8.36,0 15.24,7.37 15.24,16.73 0,9.47 -6.72,17.3 -15.24,17.3 z"
           inkscape:connector-curvature="0"
           style="fill:#000000;stroke-width:0" /><path
           id="path5918"
           d="m 689.39,417.71 0.05,1.05 c 0.29,7.42 4.48,8.66 6.19,8.66 5.12,0 5.62,-6.72 5.62,-8.66 l -11.81,0 -0.05,-1.05 13.91,0 c 1.09,0 1.23,0 1.23,1.05 0,4.92 -2.69,9.75 -8.9,9.75 -5.79,0 -10.38,-5.12 -10.38,-11.36 0,-6.67 5.23,-11.5 10.97,-11.5 6.08,0 8.31,5.53 8.31,6.47 0,0.5 -0.39,0.61 -0.64,0.61 -0.45,0 -0.55,-0.3 -0.66,-0.7 -1.73,-5.13 -6.21,-5.13 -6.71,-5.13 -2.5,0 -4.49,1.49 -5.63,3.33 -1.5,2.39 -1.5,5.69 -1.5,7.48 z"
           inkscape:connector-curvature="0"
           style="fill:#000000;stroke-width:0" /><path
           id="path5920"
           d="m 711.77,417.06 0,0.38 0.01,0.36 0.01,0.36 0.02,0.35 0.03,0.34 0.03,0.34 0.04,0.32 0.04,0.32 0.04,0.31 0.05,0.3 0.06,0.29 0.06,0.29 0.14,0.55 0.15,0.51 0.16,0.49 0.19,0.46 0.19,0.43 0.21,0.4 0.22,0.38 0.23,0.35 0.24,0.32 0.25,0.3 0.26,0.28 0.26,0.26 0.27,0.23 0.28,0.21 0.28,0.19 0.28,0.16 0.28,0.15 0.28,0.13 0.29,0.12 0.28,0.09 0.28,0.08 0.27,0.06 0.27,0.05 0.27,0.03 0.26,0.02 0.25,0.01 c 0.44,0 3.58,-0.05 5.33,-1.85 -2.05,-0.15 -2.35,-1.64 -2.35,-2.29 0,-1.3 0.9,-2.3 2.3,-2.3 1.28,0 2.28,0.86 2.28,2.34 0,3.39 -3.78,5.33 -7.62,5.33 -6.22,0 -10.81,-5.37 -10.81,-11.55 0,-6.37 4.93,-11.31 10.71,-11.31 6.68,0 8.27,5.99 8.27,6.47 0,0.5 -0.5,0.5 -0.64,0.5 -0.45,0 -0.55,-0.19 -0.66,-0.5 -1.43,-4.62 -4.67,-5.22 -6.51,-5.22 -2.64,0 -7.03,2.14 -7.03,10.16 z"
           inkscape:connector-curvature="0"
           style="fill:#000000;stroke-width:0" /><path
           id="path5922"
           d="m 751.48,416.86 -0.01,0.59 -0.04,0.59 -0.07,0.58 -0.1,0.57 -0.13,0.56 -0.15,0.55 -0.17,0.54 -0.2,0.53 -0.22,0.51 -0.25,0.5 -0.26,0.49 -0.29,0.47 -0.31,0.46 -0.33,0.44 -0.35,0.43 -0.36,0.4 -0.39,0.39 -0.4,0.37 -0.41,0.35 -0.44,0.32 -0.44,0.31 -0.46,0.28 -0.48,0.26 -0.49,0.24 -0.49,0.21 -0.51,0.18 -0.53,0.16 -0.53,0.13 -0.54,0.11 -0.54,0.07 -0.56,0.05 -0.56,0.01 -0.05,-1.09 c 2.19,0 4.33,-1.1 5.63,-3.24 1.29,-2.14 1.29,-5.03 1.29,-6.92 0,-1.8 0,-4.48 -1.09,-6.67 -1.09,-2.25 -3.28,-3.69 -5.78,-3.69 l 0,0 c -2.14,0 -4.33,1.05 -5.67,3.33 -1.25,2.2 -1.25,5.23 -1.25,7.03 0,1.94 0,4.63 1.18,6.83 1.36,2.28 3.69,3.33 5.69,3.33 l 0.05,1.09 c -6.22,0 -11.06,-5.42 -11.06,-11.65 0,-6.43 5.18,-11.21 11.01,-11.21 6.03,0 11.06,4.88 11.06,11.21 z"
           inkscape:connector-curvature="0"
           style="fill:#000000;stroke-width:0" /><path
           id="path5924"
           d="m 773.35,408.93 0,-3.28 7.31,0.55 0,1.55 c -3.48,0 -3.87,0.34 -3.87,2.78 l 0,30.25 -7.17,-0.55 0,-1.55 c 3.48,0 3.87,-0.34 3.87,-2.79 l 0,-10.75 c -1.44,1.78 -3.58,3.07 -6.28,3.07 l 0.2,-1.09 c 1.75,0 3.85,-0.75 5.39,-2.98 0.55,-0.85 0.55,-0.96 0.55,-1.85 l 0,0 0,-10.22 c 0,-0.89 0,-1 -0.55,-1.84 -1.5,-2.39 -3.75,-3.48 -5.89,-3.48 -2.23,0 -4.03,1.29 -5.21,3.18 -1.3,2.05 -1.46,4.89 -1.46,6.93 0,1.84 0.1,4.84 1.55,7.07 1.05,1.55 2.94,3.19 5.62,3.19 l -0.2,1.09 c -5.87,0 -11.11,-4.87 -11.11,-11.29 0,-6.33 4.89,-11.27 10.56,-11.27 3.19,0 5.44,1.69 6.69,3.28 z"
           inkscape:connector-curvature="0"
           style="fill:#000000;stroke-width:0" /><path
           id="path5926"
           d="m 790.95,428.21 -6.97,-0.54 0,-1.55 c 3.23,0 3.68,-0.3 3.68,-2.73 l 0,-13.41 c 0,-2.23 -0.54,-2.23 -3.89,-2.23 l 0,-1.55 c 1.6,0.05 4.28,0.16 5.49,0.16 1.75,0 3.48,-0.11 5.19,-0.16 l 0,1.55 c -3.3,0 -3.5,0.25 -3.5,2.18 z"
           inkscape:connector-curvature="0"
           style="fill:#000000;stroke-width:0" /><path
           id="path5928"
           d="m 791.15,436.89 -0.01,0.14 -0.01,0.15 -0.01,0.14 -0.03,0.14 -0.03,0.13 -0.04,0.13 -0.04,0.13 -0.05,0.12 -0.05,0.12 -0.06,0.12 -0.07,0.11 -0.07,0.1 -0.08,0.1 -0.08,0.1 -0.08,0.1 -0.09,0.08 -0.09,0.09 -0.1,0.08 -0.1,0.07 -0.11,0.07 -0.1,0.07 -0.11,0.06 -0.12,0.05 -0.11,0.05 -0.12,0.04 -0.12,0.04 -0.12,0.03 -0.13,0.03 -0.13,0.02 -0.12,0.01 -0.13,0.01 -0.13,0.01 c -1.55,0 -2.64,-1.35 -2.64,-2.64 0,-1.35 1.09,-2.64 2.64,-2.64 1.39,0 2.64,1.04 2.64,2.64 z"
           inkscape:connector-curvature="0"
           style="fill:#000000;stroke-width:0" /><path
           id="path5930"
           d="m 801.41,423.34 0,-13.36 c 0,-2.23 -0.54,-2.23 -3.89,-2.23 l 0,-1.55 c 1.75,0.05 4.28,0.16 5.63,0.16 1.3,0 3.89,-0.11 5.58,-0.16 l 0,1.55 c -3.33,0 -3.88,0 -3.88,2.23 l 0,9.17 c 0,5.19 3.53,7.97 6.72,7.97 3.14,0 3.69,-2.69 3.69,-5.53 l 0,-11.61 c 0,-2.23 -0.55,-2.23 -3.89,-2.23 l 0,-1.55 c 1.75,0.05 4.29,0.16 5.64,0.16 1.29,0 3.87,-0.11 5.58,-0.16 l 0,1.55 c -2.6,0 -3.85,0 -3.89,1.5 l 0,9.51 c 0,4.28 0,5.83 -1.55,7.61 -0.69,0.86 -2.35,1.84 -5.22,1.84 -3.64,0 -5.98,-2.14 -7.38,-5.21 l 0,5.21 -7.03,-0.54 0,-1.55 c 3.49,0 3.89,-0.34 3.89,-2.78 z"
           inkscape:connector-curvature="0"
           style="fill:#000000;stroke-width:0" /><path
           id="path5932"
           d="m 828.93,412.82 0,0.03 0,0.02 0,0.03 0,0.04 0,0.04 0.01,0.05 0,0.05 0,0.06 0.01,0.05 0.01,0.07 0,0.06 0.01,0.07 0.02,0.07 0.01,0.08 0.02,0.08 0.02,0.08 0.02,0.08 0.02,0.08 0.03,0.09 0.03,0.09 0.03,0.09 0.03,0.09 0.04,0.09 0.05,0.1 0.04,0.09 0.05,0.1 0.06,0.09 0.05,0.1 0.07,0.09 0.06,0.1 0.08,0.09 0.07,0.1 c 1.96,-1.39 3.99,-1.55 4.94,-1.55 l 0,1.14 c -4.34,0 -4.34,4.99 -4.34,6.14 0,1.35 0.06,2.94 0.79,4.17 0.41,0.61 1.55,2 3.55,2 4.33,0 4.33,-4.98 4.33,-6.12 0,-1.34 -0.05,-2.94 -0.8,-4.19 -0.39,-0.59 -1.54,-2 -3.53,-2 l 0,0 0,-1.14 c 4.63,0 8.06,3.44 8.06,7.28 0,1.85 -0.79,3.69 -2.03,4.83 1.78,1.69 3.58,1.94 4.49,1.94 0.09,0 0.34,0 0.5,-0.05 -0.57,-0.2 -0.8,-0.75 -0.8,-1.34 0,-0.85 0.64,-1.44 1.44,-1.44 0.5,0 1.43,0.34 1.43,1.48 0,0.85 -0.59,2.44 -2.53,2.44 -1,0 -3.18,-0.3 -5.28,-2.33 -2.09,1.64 -4.19,1.78 -5.28,1.78 -4.64,0 -8.08,-3.43 -8.08,-7.26 0,-2.19 1.1,-4.09 2.35,-5.14 -0.64,-0.74 -1.55,-2.39 -1.55,-4.13 0,-1.54 0.66,-3.43 2.2,-4.43 -3,-0.85 -4.59,-2.99 -4.59,-4.99 0,-3.58 4.94,-6.33 11.01,-6.33 l 0.05,1.14 c -5.03,0 -8.47,2.55 -8.47,5.19 0,2.3 1.89,4.14 4.1,4.28 l 2.93,0 c 4.29,0 9.86,0 9.86,-4.28 0,-2.69 -3.53,-5.19 -8.42,-5.19 l 0,0 -0.05,-1.14 c 5.88,0 11.07,2.55 11.07,6.43 0,1.75 -0.71,4.29 -3.24,5.68 -2.64,1.39 -5.53,1.39 -8.58,1.39 -1.25,0 -3.39,0 -3.73,0.05 -1.59,0.2 -2.64,1.75 -2.64,3.34 z"
           inkscape:connector-curvature="0"
           style="fill:#000000;stroke-width:0" /></g>    </g>
  </g>
</svg>
