<?xml version="1.0" encoding="UTF-8" standalone="no"?>
<!-- Created with Inkscape (http://www.inkscape.org/) -->

<svg
   xmlns:dc="http://purl.org/dc/elements/1.1/"
   xmlns:cc="http://creativecommons.org/ns#"
   xmlns:rdf="http://www.w3.org/1999/02/22-rdf-syntax-ns#"
   xmlns:svg="http://www.w3.org/2000/svg"
   xmlns="http://www.w3.org/2000/svg"
   xmlns:sodipodi="http://sodipodi.sourceforge.net/DTD/sodipodi-0.dtd"
   xmlns:inkscape="http://www.inkscape.org/namespaces/inkscape"
   width="144.88992mm"
   height="142.8185mm"
   viewBox="0 0 513.38949 506.04979"
   id="svg2"
   version="1.1"
   inkscape:version="0.91 r13725"
   sodipodi:docname="torquesDiagram.svg">
  <sodipodi:namedview
     id="base"
     pagecolor="#ffffff"
     bordercolor="#666666"
     borderopacity="1.0"
     inkscape:pageopacity="0.0"
     inkscape:pageshadow="2"
     inkscape:zoom="0.49497475"
     inkscape:cx="-163.23152"
     inkscape:cy="120.54038"
     inkscape:document-units="px"
     inkscape:current-layer="layer1"
     showgrid="false"
     inkscape:window-width="1600"
     inkscape:window-height="847"
     inkscape:window-x="-8"
     inkscape:window-y="-8"
     inkscape:window-maximized="1"
     fit-margin-top="0"
     fit-margin-left="0"
     fit-margin-right="0"
     fit-margin-bottom="0" />
  <defs
     id="defs4">
    <marker
       inkscape:stockid="DotL"
       orient="auto"
       refY="0"
       refX="0"
       id="marker4795"
       style="overflow:visible"
       inkscape:isstock="true">
      <path
         inkscape:connector-curvature="0"
         id="path4797"
         d="m -2.5,-1 c 0,2.76 -2.24,5 -5,5 -2.76,0 -5,-2.24 -5,-5 0,-2.76 2.24,-5 5,-5 2.76,0 5,2.24 5,5 z"
         style="fill:#000000;fill-opacity:1;fill-rule:evenodd;stroke:#000000;stroke-width:1pt;stroke-opacity:1"
         transform="matrix(0.8,0,0,0.8,5.92,0.8)" />
    </marker>
    <marker
       inkscape:stockid="DotL"
       orient="auto"
       refY="0"
       refX="0"
       id="marker4653"
       style="overflow:visible"
       inkscape:isstock="true">
      <path
         inkscape:connector-curvature="0"
         id="path4655"
         d="m -2.5,-1 c 0,2.76 -2.24,5 -5,5 -2.76,0 -5,-2.24 -5,-5 0,-2.76 2.24,-5 5,-5 2.76,0 5,2.24 5,5 z"
         style="fill:#000000;fill-opacity:1;fill-rule:evenodd;stroke:#000000;stroke-width:1pt;stroke-opacity:1"
         transform="matrix(0.8,0,0,0.8,5.92,0.8)" />
    </marker>
    <marker
       inkscape:stockid="DotL"
       orient="auto"
       refY="0"
       refX="0"
       id="marker4485"
       style="overflow:visible"
       inkscape:isstock="true">
      <path
         id="path4487"
         d="m -2.5,-1 c 0,2.76 -2.24,5 -5,5 -2.76,0 -5,-2.24 -5,-5 0,-2.76 2.24,-5 5,-5 2.76,0 5,2.24 5,5 z"
         style="fill:#000000;fill-opacity:1;fill-rule:evenodd;stroke:#000000;stroke-width:1pt;stroke-opacity:1"
         transform="matrix(0.8,0,0,0.8,5.92,0.8)"
         inkscape:connector-curvature="0" />
    </marker>
    <marker
       inkscape:stockid="DotL"
       orient="auto"
       refY="0"
       refX="0"
       id="marker4355"
       style="overflow:visible"
       inkscape:isstock="true">
      <path
         id="path4357"
         d="m -2.5,-1 c 0,2.76 -2.24,5 -5,5 -2.76,0 -5,-2.24 -5,-5 0,-2.76 2.24,-5 5,-5 2.76,0 5,2.24 5,5 z"
         style="fill:#000000;fill-opacity:1;fill-rule:evenodd;stroke:#000000;stroke-width:1pt;stroke-opacity:1"
         transform="matrix(0.8,0,0,0.8,5.92,0.8)"
         inkscape:connector-curvature="0" />
    </marker>
    <marker
       inkscape:stockid="Arrow2Mstart"
       orient="auto"
       refY="0"
       refX="0"
       id="Arrow2Mstart"
       style="overflow:visible"
       inkscape:isstock="true">
      <path
         id="path4185"
         style="fill:#004d91;fill-opacity:1;fill-rule:evenodd;stroke:#004d91;stroke-width:0.625;stroke-linejoin:round;stroke-opacity:1"
         d="M 8.7185878,4.0337352 -2.2072895,0.01601326 8.7185884,-4.0017078 c -1.7454984,2.3720609 -1.7354408,5.6174519 -6e-7,8.035443 z"
         transform="scale(0.6,0.6)"
         inkscape:connector-curvature="0" />
    </marker>
    <marker
       inkscape:stockid="Arrow1Lstart"
       orient="auto"
       refY="0"
       refX="0"
       id="marker8285"
       style="overflow:visible"
       inkscape:isstock="true">
      <path
         id="path8287"
         d="M 0,0 5,-5 -12.5,0 5,5 0,0 Z"
         style="fill:#000000;fill-opacity:1;fill-rule:evenodd;stroke:#000000;stroke-width:1pt;stroke-opacity:1"
         transform="matrix(0.8,0,0,0.8,10,0)"
         inkscape:connector-curvature="0" />
    </marker>
    <marker
       inkscape:stockid="Arrow1Lstart"
       orient="auto"
       refY="0"
       refX="0"
       id="marker8097"
       style="overflow:visible"
       inkscape:isstock="true">
      <path
         id="path8099"
         d="M 0,0 5,-5 -12.5,0 5,5 0,0 Z"
         style="fill:#000000;fill-opacity:1;fill-rule:evenodd;stroke:#000000;stroke-width:1pt;stroke-opacity:1"
         transform="matrix(0.8,0,0,0.8,10,0)"
         inkscape:connector-curvature="0" />
    </marker>
    <marker
       inkscape:stockid="Arrow1Lstart"
       orient="auto"
       refY="0"
       refX="0"
       id="marker8043"
       style="overflow:visible"
       inkscape:isstock="true">
      <path
         id="path8045"
         d="M 0,0 5,-5 -12.5,0 5,5 0,0 Z"
         style="fill:#000000;fill-opacity:1;fill-rule:evenodd;stroke:#000000;stroke-width:1pt;stroke-opacity:1"
         transform="matrix(0.8,0,0,0.8,10,0)"
         inkscape:connector-curvature="0" />
    </marker>
    <marker
       inkscape:stockid="Arrow1Lstart"
       orient="auto"
       refY="0"
       refX="0"
       id="Arrow1Lstart"
       style="overflow:visible"
       inkscape:isstock="true">
      <path
         id="path4161"
         d="M 0,0 5,-5 -12.5,0 5,5 0,0 Z"
         style="fill:#000000;fill-opacity:1;fill-rule:evenodd;stroke:#000000;stroke-width:1pt;stroke-opacity:1"
         transform="matrix(0.8,0,0,0.8,10,0)"
         inkscape:connector-curvature="0" />
    </marker>
    <marker
       inkscape:isstock="true"
       style="overflow:visible"
       id="marker6555"
       refX="0"
       refY="0"
       orient="auto"
       inkscape:stockid="Arrow2Lend">
      <path
         transform="matrix(-1.1,0,0,-1.1,-1.1,0)"
         d="M 8.7185878,4.0337352 -2.2072895,0.01601326 8.7185884,-4.0017078 c -1.7454984,2.3720609 -1.7354408,5.6174519 -6e-7,8.035443 z"
         style="fill:#505050;fill-opacity:1;fill-rule:evenodd;stroke:#505050;stroke-width:0.625;stroke-linejoin:round;stroke-opacity:1"
         id="path6557"
         inkscape:connector-curvature="0" />
    </marker>
    <marker
       inkscape:isstock="true"
       style="overflow:visible"
       id="Arrow1Lend"
       refX="0"
       refY="0"
       orient="auto"
       inkscape:stockid="Arrow1Lend">
      <path
         transform="matrix(-0.8,0,0,-0.8,-10,0)"
         style="fill:#000000;fill-opacity:1;fill-rule:evenodd;stroke:#000000;stroke-width:1pt;stroke-opacity:1"
         d="M 0,0 5,-5 -12.5,0 5,5 0,0 Z"
         id="path4164"
         inkscape:connector-curvature="0" />
    </marker>
    <marker
       inkscape:isstock="true"
       style="overflow:visible"
       id="Arrow2Mend"
       refX="0"
       refY="0"
       orient="auto"
       inkscape:stockid="Arrow2Mend">
      <path
         transform="scale(-0.6,-0.6)"
         d="M 8.7185878,4.0337352 -2.2072895,0.01601326 8.7185884,-4.0017078 c -1.7454984,2.3720609 -1.7354408,5.6174519 -6e-7,8.035443 z"
         style="fill:#004d91;fill-opacity:1;fill-rule:evenodd;stroke:#004d91;stroke-width:0.625;stroke-linejoin:round;stroke-opacity:1"
         id="path4188"
         inkscape:connector-curvature="0" />
    </marker>
    <marker
       inkscape:isstock="true"
       style="overflow:visible"
       id="Arrow2Lend"
       refX="0"
       refY="0"
       orient="auto"
       inkscape:stockid="Arrow2Lend">
      <path
         transform="matrix(-1.1,0,0,-1.1,-1.1,0)"
         d="M 8.7185878,4.0337352 -2.2072895,0.01601326 8.7185884,-4.0017078 c -1.7454984,2.3720609 -1.7354408,5.6174519 -6e-7,8.035443 z"
         style="fill:#000000;fill-opacity:1;fill-rule:evenodd;stroke:#000000;stroke-width:0.625;stroke-linejoin:round;stroke-opacity:1"
         id="path4182"
         inkscape:connector-curvature="0" />
    </marker>
    <marker
       inkscape:isstock="true"
       style="overflow:visible"
       id="marker4437"
       refX="0"
       refY="0"
       orient="auto"
       inkscape:stockid="DotL"
       inkscape:collect="always">
      <path
         transform="matrix(0.8,0,0,0.8,5.92,0.8)"
         style="fill:#000000;fill-opacity:1;fill-rule:evenodd;stroke:#000000;stroke-width:1pt;stroke-opacity:1"
         d="m -2.5,-1 c 0,2.76 -2.24,5 -5,5 -2.76,0 -5,-2.24 -5,-5 0,-2.76 2.24,-5 5,-5 2.76,0 5,2.24 5,5 z"
         id="path4439"
         inkscape:connector-curvature="0" />
    </marker>
    <marker
       inkscape:isstock="true"
       style="overflow:visible"
       id="DotL"
       refX="0"
       refY="0"
       orient="auto"
       inkscape:stockid="DotL"
       inkscape:collect="always">
      <path
         transform="matrix(0.8,0,0,0.8,5.92,0.8)"
         style="fill:#000000;fill-opacity:1;fill-rule:evenodd;stroke:#000000;stroke-width:1pt;stroke-opacity:1"
         d="m -2.5,-1 c 0,2.76 -2.24,5 -5,5 -2.76,0 -5,-2.24 -5,-5 0,-2.76 2.24,-5 5,-5 2.76,0 5,2.24 5,5 z"
         id="path4222"
         inkscape:connector-curvature="0" />
    </marker>
    <marker
       inkscape:isstock="true"
       style="overflow:visible"
       id="marker4437-3"
       refX="0"
       refY="0"
       orient="auto"
       inkscape:stockid="DotL"
       inkscape:collect="always">
      <path
         transform="matrix(0.8,0,0,0.8,5.92,0.8)"
         style="fill:#000000;fill-opacity:1;fill-rule:evenodd;stroke:#000000;stroke-width:1pt;stroke-opacity:1"
         d="m -2.5,-1 c 0,2.76 -2.24,5 -5,5 -2.76,0 -5,-2.24 -5,-5 0,-2.76 2.24,-5 5,-5 2.76,0 5,2.24 5,5 z"
         id="path4439-2"
         inkscape:connector-curvature="0" />
    </marker>
    <marker
       inkscape:isstock="true"
       style="overflow:visible"
       id="DotL-6"
       refX="0"
       refY="0"
       orient="auto"
       inkscape:stockid="DotL"
       inkscape:collect="always">
      <path
         transform="matrix(0.8,0,0,0.8,5.92,0.8)"
         style="fill:#000000;fill-opacity:1;fill-rule:evenodd;stroke:#000000;stroke-width:1pt;stroke-opacity:1"
         d="m -2.5,-1 c 0,2.76 -2.24,5 -5,5 -2.76,0 -5,-2.24 -5,-5 0,-2.76 2.24,-5 5,-5 2.76,0 5,2.24 5,5 z"
         id="path4222-1"
         inkscape:connector-curvature="0" />
    </marker>
    <marker
       inkscape:isstock="true"
       style="overflow:visible"
       id="Arrow2Mend-3"
       refX="0"
       refY="0"
       orient="auto"
       inkscape:stockid="Arrow2Mend">
      <path
         transform="scale(-0.6,-0.6)"
         d="M 8.7185878,4.0337352 -2.2072895,0.01601326 8.7185884,-4.0017078 c -1.7454984,2.3720609 -1.7354408,5.6174519 -6e-7,8.035443 z"
         style="fill:#000000;fill-opacity:1;fill-rule:evenodd;stroke:#000000;stroke-width:0.625;stroke-linejoin:round;stroke-opacity:1"
         id="path4188-2"
         inkscape:connector-curvature="0" />
    </marker>
    <marker
       inkscape:isstock="true"
       style="overflow:visible"
       id="marker6555-0"
       refX="0"
       refY="0"
       orient="auto"
       inkscape:stockid="Arrow2Lend">
      <path
         transform="matrix(-1.1,0,0,-1.1,-1.1,0)"
         d="M 8.7185878,4.0337352 -2.2072895,0.01601326 8.7185884,-4.0017078 c -1.7454984,2.3720609 -1.7354408,5.6174519 -6e-7,8.035443 z"
         style="fill:#505050;fill-opacity:1;fill-rule:evenodd;stroke:#505050;stroke-width:0.625;stroke-linejoin:round;stroke-opacity:1"
         id="path6557-3"
         inkscape:connector-curvature="0" />
    </marker>
    <marker
       inkscape:isstock="true"
       style="overflow:visible"
       id="Arrow2Mend-8"
       refX="0"
       refY="0"
       orient="auto"
       inkscape:stockid="Arrow2Mend">
      <path
         inkscape:connector-curvature="0"
         transform="scale(-0.6,-0.6)"
         d="M 8.7185878,4.0337352 -2.2072895,0.01601326 8.7185884,-4.0017078 c -1.7454984,2.3720609 -1.7354408,5.6174519 -6e-7,8.035443 z"
         style="fill:#000000;fill-opacity:1;fill-rule:evenodd;stroke:#000000;stroke-width:0.625;stroke-linejoin:round;stroke-opacity:1"
         id="path4188-5" />
    </marker>
    <marker
       inkscape:isstock="true"
       style="overflow:visible"
       id="Arrow2Mend-3-8"
       refX="0"
       refY="0"
       orient="auto"
       inkscape:stockid="Arrow2Mend">
      <path
         transform="scale(-0.6,-0.6)"
         d="M 8.7185878,4.0337352 -2.2072895,0.01601326 8.7185884,-4.0017078 c -1.7454984,2.3720609 -1.7354408,5.6174519 -6e-7,8.035443 z"
         style="fill:#000000;fill-opacity:1;fill-rule:evenodd;stroke:#000000;stroke-width:0.625;stroke-linejoin:round;stroke-opacity:1"
         id="path4188-2-1"
         inkscape:connector-curvature="0" />
    </marker>
    <marker
       inkscape:stockid="Arrow2Mstart"
       orient="auto"
       refY="0"
       refX="0"
       id="Arrow2Mstart-8"
       style="overflow:visible"
       inkscape:isstock="true">
      <path
         inkscape:connector-curvature="0"
         id="path4185-4"
         style="fill:#004d91;fill-opacity:1;fill-rule:evenodd;stroke:#004d91;stroke-width:0.625;stroke-linejoin:round;stroke-opacity:1"
         d="M 8.7185878,4.0337352 -2.2072895,0.01601326 8.7185884,-4.0017078 c -1.7454984,2.3720609 -1.7354408,5.6174519 -6e-7,8.035443 z"
         transform="scale(0.6,0.6)" />
    </marker>
    <marker
       inkscape:isstock="true"
       style="overflow:visible"
       id="Arrow2Mend-2"
       refX="0"
       refY="0"
       orient="auto"
       inkscape:stockid="Arrow2Mend">
      <path
         inkscape:connector-curvature="0"
         transform="scale(-0.6,-0.6)"
         d="M 8.7185878,4.0337352 -2.2072895,0.01601326 8.7185884,-4.0017078 c -1.7454984,2.3720609 -1.7354408,5.6174519 -6e-7,8.035443 z"
         style="fill:#004d91;fill-opacity:1;fill-rule:evenodd;stroke:#004d91;stroke-width:0.625;stroke-linejoin:round;stroke-opacity:1"
         id="path4188-25" />
    </marker>
  </defs>
  <metadata
     id="metadata7">
    <rdf:RDF>
      <cc:Work
         rdf:about="">
        <dc:format>image/svg+xml</dc:format>
        <dc:type
           rdf:resource="http://purl.org/dc/dcmitype/StillImage" />
        <dc:title></dc:title>
      </cc:Work>
    </rdf:RDF>
  </metadata>
  <g
     inkscape:label="Layer 1"
     inkscape:groupmode="layer"
     id="layer1"
     transform="translate(-49.403114,-111.15157)">
    <path
       sodipodi:nodetypes="cc"
       inkscape:connector-curvature="0"
       id="path6539"
       d="M 270.8604,220.55967 269.87055,114.49453"
       style="fill:#505050;fill-opacity:1;fill-rule:evenodd;stroke:#505050;stroke-width:2;stroke-linecap:butt;stroke-linejoin:miter;stroke-miterlimit:4;stroke-dasharray:none;stroke-dashoffset:0;stroke-opacity:1;marker-end:url(#marker6555)" />
    <path
       sodipodi:nodetypes="cc"
       inkscape:connector-curvature="0"
       id="path6539-2"
       d="m 453.38447,399.94509 106.06515,-0.98985"
       style="fill:#505050;fill-opacity:1;fill-rule:evenodd;stroke:#505050;stroke-width:2;stroke-linecap:butt;stroke-linejoin:miter;stroke-miterlimit:4;stroke-dasharray:none;stroke-dashoffset:0;stroke-opacity:1;marker-end:url(#marker6555-0)" />
    <g
       transform="translate(21.968046,-122.73098)"
       id="g4141">
      <g
         style="font-style:normal;font-variant:normal;font-weight:normal;font-stretch:normal;letter-spacing:normal;word-spacing:normal;text-anchor:start;fill:none;fill-opacity:1;fill-rule:evenodd;stroke:#000000;stroke-linecap:butt;stroke-linejoin:miter;stroke-miterlimit:10.43299961;stroke-dasharray:none;stroke-dashoffset:0;stroke-opacity:1"
         id="content"
         transform="matrix(1.0629921,0,0,-1.0629921,-186.02362,789.27165)"
         xml:space="preserve"
         stroke-miterlimit="10.433"
         font-style="normal"
         font-variant="normal"
         font-weight="normal"
         font-stretch="normal"
         font-size-adjust="none"
         letter-spacing="normal"
         word-spacing="normal"><path
           style="fill:#000000;stroke-width:0"
           inkscape:connector-curvature="0"
           d="m 470.16,424.78 8.38,0 c 0.65,0 2.43,0 2.43,1.7 0,1.19 -1.04,1.19 -1.98,1.19 l -13.95,0 c -1,0 -2.94,0 -5.13,-2.35 -1.66,-1.78 -3.05,-4.17 -3.05,-4.48 0,-0.05 0,-0.48 0.6,-0.48 0.4,0 0.5,0.18 0.79,0.59 2.46,3.83 5.29,3.83 6.33,3.83 l 4.14,0 -4.89,-15.99 c -0.19,-0.59 -0.48,-1.64 -0.48,-1.84 0,-0.55 0.34,-1.34 1.44,-1.34 1.64,0 1.89,1.39 2.04,2.14 z"
           id="path4144" /><path
           style="fill:#000000;stroke-width:0"
           inkscape:connector-curvature="0"
           d="m 488.91,420.92 0,0.04 0,0.04 0,0.05 0,0.04 0,0.03 0,0.04 0,0.04 0,0.03 -0.01,0.04 0,0.03 0,0.03 0,0.03 0,0.03 -0.01,0.03 0,0.03 -0.01,0.02 0,0.03 0,0.02 -0.01,0.03 0,0.02 -0.02,0.04 -0.01,0.04 -0.02,0.03 -0.02,0.03 -0.02,0.03 -0.02,0.03 -0.03,0.02 -0.03,0.02 -0.04,0.02 -0.03,0.01 -0.04,0.01 -0.05,0.02 -0.02,0 -0.03,0 -0.02,0.01 -0.03,0 -0.03,0.01 -0.02,0 -0.03,0 -0.03,0 -0.04,0 -0.03,0.01 -0.03,0 -0.04,0 -0.04,0 -0.03,0 -0.04,0 -0.04,0 -0.04,0 -0.05,0 -0.04,0 -0.05,0 c -2.23,-2.2 -5.39,-2.23 -6.82,-2.23 l 0,-1.25 c 0.84,0 3.14,0 5.04,0.97 l 0,-17.77 c 0,-1.16 0,-1.61 -3.48,-1.61 l -1.31,0 0,-1.25 c 0.62,0.03 4.9,0.14 6.2,0.14 1.08,0 5.47,-0.11 6.23,-0.14 l 0,1.25 -1.33,0 c -3.48,0 -3.48,0.45 -3.48,1.61 z"
           id="path4146" /></g>    </g>
    <path
       inkscape:connector-curvature="0"
       id="path4155"
       d="m 84.852814,399.64366 371.736136,0"
       style="fill:none;fill-rule:evenodd;stroke:#000000;stroke-width:2;stroke-linecap:butt;stroke-linejoin:miter;stroke-miterlimit:4;stroke-dasharray:none;stroke-opacity:1;marker-start:url(#marker4437);marker-end:url(#DotL)" />
    <path
       inkscape:connector-curvature="0"
       id="path4155-1"
       d="m 270.56088,213.93559 0,371.73614"
       style="fill:none;fill-rule:evenodd;stroke:#000000;stroke-width:2;stroke-linecap:butt;stroke-linejoin:miter;stroke-miterlimit:4;stroke-dasharray:none;stroke-opacity:1;marker-start:url(#marker4437-3);marker-end:url(#DotL-6)" />
    <g
       id="g7655"
       transform="translate(178.57143,105.71429)">
      <g
         word-spacing="normal"
         letter-spacing="normal"
         font-size-adjust="none"
         font-stretch="normal"
         font-weight="normal"
         font-variant="normal"
         font-style="normal"
         stroke-miterlimit="10.433"
         xml:space="preserve"
         transform="matrix(1.0629921,0,0,-1.0629921,-186.02362,789.27165)"
         id="g7657"
         style="font-style:normal;font-variant:normal;font-weight:normal;font-stretch:normal;letter-spacing:normal;word-spacing:normal;text-anchor:start;fill:none;fill-opacity:1;fill-rule:evenodd;stroke:#000000;stroke-linecap:butt;stroke-linejoin:miter;stroke-miterlimit:10.43299961;stroke-dasharray:none;stroke-dashoffset:0;stroke-opacity:1"><path
           id="path7659"
           d="m 470.16,424.78 8.38,0 c 0.65,0 2.43,0 2.43,1.7 0,1.19 -1.04,1.19 -1.98,1.19 l -13.95,0 c -1,0 -2.94,0 -5.13,-2.35 -1.66,-1.78 -3.05,-4.17 -3.05,-4.48 0,-0.05 0,-0.48 0.6,-0.48 0.4,0 0.5,0.18 0.79,0.59 2.46,3.83 5.29,3.83 6.33,3.83 l 4.14,0 -4.89,-15.99 c -0.19,-0.59 -0.48,-1.64 -0.48,-1.84 0,-0.55 0.34,-1.34 1.44,-1.34 1.64,0 1.89,1.39 2.04,2.14 z"
           inkscape:connector-curvature="0"
           style="fill:#000000;stroke-width:0" /><path
           id="path7661"
           d="m 494.83,405.11 -1.19,0 c -0.09,-0.77 -0.45,-2.83 -0.9,-3.18 -0.27,-0.2 -2.95,-0.2 -3.44,-0.2 l -6.42,0 c 3.66,3.23 4.87,4.2 6.97,5.84 2.58,2.07 4.98,4.22 4.98,7.54 0,4.21 -3.69,6.79 -8.15,6.79 -4.32,0 -7.25,-3.03 -7.25,-6.23 0,-1.78 1.5,-1.96 1.86,-1.96 0.82,0 1.84,0.6 1.84,1.85 0,0.62 -0.25,1.84 -2.06,1.84 1.07,2.47 3.45,3.24 5.09,3.24 3.48,0 5.3,-2.71 5.3,-5.53 0,-3.04 -2.16,-5.44 -3.28,-6.69 l -8.39,-8.3 c -0.36,-0.31 -0.36,-0.39 -0.36,-1.36 l 14.36,0 z"
           inkscape:connector-curvature="0"
           style="fill:#000000;stroke-width:0" /></g>    </g>
    <g
       id="g7739"
       transform="translate(-120,235.71428)">
      <g
         id="g7741"
         transform="matrix(1.0629921,0,0,-1.0629921,-186.02362,789.27165)"
         xml:space="preserve"
         stroke-miterlimit="10.433"
         font-style="normal"
         font-variant="normal"
         font-weight="normal"
         font-stretch="normal"
         font-size-adjust="none"
         letter-spacing="normal"
         word-spacing="normal"
         style="font-style:normal;font-variant:normal;font-weight:normal;font-stretch:normal;letter-spacing:normal;word-spacing:normal;text-anchor:start;fill:none;fill-opacity:1;fill-rule:evenodd;stroke:#000000;stroke-linecap:butt;stroke-linejoin:miter;stroke-miterlimit:10.43299961;stroke-dasharray:none;stroke-dashoffset:0;stroke-opacity:1"><path
           d="m 470.16,424.78 8.38,0 c 0.65,0 2.43,0 2.43,1.7 0,1.19 -1.04,1.19 -1.98,1.19 l -13.95,0 c -1,0 -2.94,0 -5.13,-2.35 -1.66,-1.78 -3.05,-4.17 -3.05,-4.48 0,-0.05 0,-0.48 0.6,-0.48 0.4,0 0.5,0.18 0.79,0.59 2.46,3.83 5.29,3.83 6.33,3.83 l 4.14,0 -4.89,-15.99 c -0.19,-0.59 -0.48,-1.64 -0.48,-1.84 0,-0.55 0.34,-1.34 1.44,-1.34 1.64,0 1.89,1.39 2.04,2.14 z"
           id="path7743"
           inkscape:connector-curvature="0"
           style="fill:#000000;stroke-width:0" /><path
           d="m 486.75,410.4 0.26,0 0.24,-0.02 0.25,-0.03 0.24,-0.04 0.23,-0.05 0.22,-0.06 0.23,-0.07 0.21,-0.08 0.21,-0.1 0.2,-0.1 0.2,-0.12 0.19,-0.12 0.18,-0.14 0.17,-0.15 0.17,-0.16 0.16,-0.17 0.15,-0.18 0.14,-0.19 0.14,-0.2 0.12,-0.22 0.12,-0.22 0.11,-0.24 0.1,-0.24 0.09,-0.26 0.08,-0.27 0.07,-0.28 0.06,-0.29 0.05,-0.3 0.04,-0.31 0.02,-0.32 0.02,-0.33 0.01,-0.35 c 0,-4.33 -2.52,-5.61 -4.54,-5.61 -1.39,0 -4.46,0.38 -5.92,2.44 1.63,0.06 2.02,1.22 2.02,1.95 0,1.11 -0.85,1.91 -1.92,1.91 -0.97,0 -1.96,-0.59 -1.96,-2.02 0,-3.28 3.63,-5.4 7.85,-5.4 4.84,0 8.18,3.25 8.18,6.73 0,2.72 -2.21,5.44 -6.06,6.24 3.66,1.33 4.99,3.93 4.99,6.06 0,2.75 -3.18,4.81 -7.03,4.81 -3.88,0 -6.83,-1.89 -6.83,-4.67 0,-1.19 0.76,-1.84 1.81,-1.84 1.08,0 1.77,0.79 1.77,1.76 0,1.02 -0.69,1.75 -1.77,1.81 1.22,1.55 3.61,1.93 4.91,1.93 1.56,0 3.76,-0.77 3.76,-3.8 0,-1.47 -0.48,-3.06 -1.39,-4.14 -1.16,-1.33 -2.12,-1.41 -3.87,-1.5 -0.88,-0.08 -0.94,-0.08 -1.11,-0.11 -0.08,0 -0.36,-0.06 -0.36,-0.45 0,-0.49 0.31,-0.49 0.9,-0.49 z"
           id="path7745"
           inkscape:connector-curvature="0"
           style="fill:#000000;stroke-width:0" /></g>    </g>
    <g
       id="g7831"
       transform="translate(-227.14286,-11.428571)">
      <g
         word-spacing="normal"
         letter-spacing="normal"
         font-size-adjust="none"
         font-stretch="normal"
         font-weight="normal"
         font-variant="normal"
         font-style="normal"
         stroke-miterlimit="10.433"
         xml:space="preserve"
         transform="matrix(1.0629921,0,0,-1.0629921,-186.02362,789.27165)"
         id="g7833"
         style="font-style:normal;font-variant:normal;font-weight:normal;font-stretch:normal;letter-spacing:normal;word-spacing:normal;text-anchor:start;fill:none;fill-opacity:1;fill-rule:evenodd;stroke:#000000;stroke-linecap:butt;stroke-linejoin:miter;stroke-miterlimit:10.43299961;stroke-dasharray:none;stroke-dashoffset:0;stroke-opacity:1"><path
           id="path7835"
           d="m 470.16,424.78 8.38,0 c 0.65,0 2.43,0 2.43,1.7 0,1.19 -1.04,1.19 -1.98,1.19 l -13.95,0 c -1,0 -2.94,0 -5.13,-2.35 -1.66,-1.78 -3.05,-4.17 -3.05,-4.48 0,-0.05 0,-0.48 0.6,-0.48 0.4,0 0.5,0.18 0.79,0.59 2.46,3.83 5.29,3.83 6.33,3.83 l 4.14,0 -4.89,-15.99 c -0.19,-0.59 -0.48,-1.64 -0.48,-1.84 0,-0.55 0.34,-1.34 1.44,-1.34 1.64,0 1.89,1.39 2.04,2.14 z"
           inkscape:connector-curvature="0"
           style="fill:#000000;stroke-width:0" /><path
           id="path7837"
           d="m 495.68,404.48 0,1.25 -3.88,0 0,15.55 c 0,0.72 0,0.97 -0.76,0.97 -0.43,0 -0.57,0 -0.91,-0.49 l -11.53,-16.03 0,-1.25 10.25,0 0.23,1.25 -9.2,0 9.2,12.75 0,-12.75 -0.23,-1.25 0,-2.86 c 0,-1.19 0,-1.61 -2.83,-1.61 l -0.94,0 0,-1.25 c 1.74,0.06 3.97,0.14 5.22,0.14 1.3,0 3.52,-0.08 5.27,-0.14 l 0,1.25 -0.94,0 c -2.83,0 -2.83,0.42 -2.83,1.61 l 0,2.86 z"
           inkscape:connector-curvature="0"
           style="fill:#000000;stroke-width:0" /></g>    </g>
    <g
       id="g8944"
       transform="translate(-6.4285715,-209.28572)">
      <g
         id="g8946"
         transform="matrix(1.0629921,0,0,-1.0629921,-186.02362,789.27165)"
         xml:space="preserve"
         stroke-miterlimit="10.433"
         font-style="normal"
         font-variant="normal"
         font-weight="normal"
         font-stretch="normal"
         font-size-adjust="none"
         letter-spacing="normal"
         word-spacing="normal"
         style="font-style:normal;font-variant:normal;font-weight:normal;font-stretch:normal;letter-spacing:normal;word-spacing:normal;text-anchor:start;fill:none;fill-opacity:1;fill-rule:evenodd;stroke:#000000;stroke-linecap:butt;stroke-linejoin:miter;stroke-miterlimit:10.43299961;stroke-dasharray:none;stroke-dashoffset:0;stroke-opacity:1"><path
           d="m 472.16,421.25 0.03,0.13 0.04,0.15 0.04,0.16 0.04,0.18 0.06,0.19 0.06,0.21 0.06,0.22 0.07,0.22 0.08,0.23 0.09,0.24 0.1,0.25 0.1,0.24 0.11,0.25 0.12,0.25 0.13,0.25 0.14,0.25 0.15,0.24 0.15,0.24 0.17,0.23 0.18,0.22 0.18,0.22 0.2,0.2 0.21,0.19 0.22,0.18 0.23,0.16 0.25,0.14 0.12,0.07 0.13,0.06 0.14,0.05 0.13,0.05 0.14,0.05 0.14,0.04 0.15,0.03 0.15,0.03 0.15,0.02 0.16,0.02 0.16,0.01 0.16,0 c 0.25,0 1.44,0 2.48,-0.64 -1.39,-0.25 -2.39,-1.5 -2.39,-2.69 0,-0.79 0.55,-1.75 1.89,-1.75 1.1,0 2.69,0.89 2.69,2.89 0,2.6 -2.94,3.28 -4.63,3.28 -2.89,0 -4.64,-2.64 -5.23,-3.78 -1.25,3.28 -3.94,3.78 -5.37,3.78 -5.19,0 -8.04,-6.42 -8.04,-7.67 0,-0.5 0.5,-0.5 0.61,-0.5 0.39,0 0.55,0.11 0.64,0.55 1.69,5.28 4.99,6.53 6.68,6.53 0.95,0 2.68,-0.44 2.68,-3.33 0,-1.54 -0.84,-4.89 -2.68,-11.86 -0.8,-3.09 -2.54,-5.18 -4.74,-5.18 -0.3,0 -1.44,0 -2.48,0.65 1.25,0.24 2.34,1.28 2.34,2.69 0,1.34 -1.09,1.73 -1.84,1.73 -1.5,0 -2.75,-1.29 -2.75,-2.89 0,-2.28 2.5,-3.28 4.68,-3.28 3.3,0 5.08,3.49 5.24,3.78 0.59,-1.84 2.39,-3.78 5.37,-3.78 5.14,0 7.99,6.42 7.99,7.67 0,0.5 -0.45,0.5 -0.61,0.5 -0.44,0 -0.55,-0.2 -0.64,-0.54 -1.64,-5.33 -5.03,-6.53 -6.63,-6.53 -1.95,0 -2.75,1.59 -2.75,3.29 0,1.1 0.3,2.19 0.86,4.38 z"
           id="path8948"
           inkscape:connector-curvature="0"
           style="fill:#000000;stroke-width:0" /><path
           d="m 490.59,401.48 -0.03,-0.11 -0.03,-0.1 -0.03,-0.1 -0.03,-0.09 -0.02,-0.09 -0.03,-0.09 -0.04,-0.08 -0.03,-0.07 -0.04,-0.07 -0.04,-0.07 -0.04,-0.06 -0.05,-0.06 -0.05,-0.05 -0.06,-0.05 -0.06,-0.05 -0.07,-0.04 -0.08,-0.04 -0.09,-0.03 -0.09,-0.04 -0.1,-0.03 -0.11,-0.02 -0.06,-0.02 -0.06,-0.01 -0.06,-0.01 -0.07,-0.01 -0.07,-0.01 -0.07,-0.01 -0.08,0 -0.07,-0.01 -0.08,-0.01 -0.09,0 -0.08,-0.01 -0.09,-0.01 -0.1,0 -0.09,0 -0.1,-0.01 -0.1,0 -0.11,0 -0.11,0 -0.11,-0.01 -0.12,0 -0.12,0 -0.12,0 c -0.58,0 -1.03,0 -1.03,-0.73 0,-0.52 0.4,-0.52 1.03,-0.52 l 13.48,0 c 5.86,0 10.36,4 10.36,7.45 0,2.49 -2.26,4.61 -5.97,4.99 4.22,0.76 7.75,3.42 7.75,6.41 0,2.65 -2.68,4.95 -7.22,4.95 l -0.56,-1.25 c 3.56,0 4.36,-2.35 4.36,-3.66 0,-2.83 -3.17,-6.03 -7.84,-6.03 l -5.71,0 -0.25,-0.98 7.39,0 c 3.27,0 4.54,-2.16 4.54,-4.18 0,-3.45 -3.54,-6.45 -7.74,-6.45 l -5.62,0 c -1.08,0 -1.11,0.05 -1.11,0.36 0,0.03 0,0.2 0.14,0.72 l 2.4,9.55 0.25,0.98 2.13,8.5 c 0.26,1.08 0.31,1.19 1.76,1.19 l 5.3,0 0.56,1.25 -12.68,0 c -0.66,0 -1.11,0 -1.11,-0.77 0,-0.48 0.42,-0.48 1.11,-0.48 0.03,0 0.7,0 1.32,-0.08 0.74,-0.06 0.8,-0.14 0.8,-0.48 0,-0.07 0,-0.24 -0.14,-0.77 z"
           id="path8950"
           inkscape:connector-curvature="0"
           style="fill:#000000;stroke-width:0" /></g>    </g>
    <g
       id="g9092"
       transform="translate(202.85715,9.2857116)">
      <g
         word-spacing="normal"
         letter-spacing="normal"
         font-size-adjust="none"
         font-stretch="normal"
         font-weight="normal"
         font-variant="normal"
         font-style="normal"
         stroke-miterlimit="10.433"
         xml:space="preserve"
         transform="matrix(1.0629921,0,0,-1.0629921,-186.02362,789.27165)"
         id="g9094"
         style="font-style:normal;font-variant:normal;font-weight:normal;font-stretch:normal;letter-spacing:normal;word-spacing:normal;text-anchor:start;fill:none;fill-opacity:1;fill-rule:evenodd;stroke:#000000;stroke-linecap:butt;stroke-linejoin:miter;stroke-miterlimit:10.43299961;stroke-dasharray:none;stroke-dashoffset:0;stroke-opacity:1"><path
           id="path9096"
           d="m 479.74,425.18 0.01,0.04 0.01,0.03 0.01,0.06 0.02,0.05 0.01,0.06 0.01,0.05 0.02,0.04 0.01,0.05 0.01,0.04 0.01,0.04 0,0.04 0.01,0.04 0.01,0.04 0.01,0.03 0,0.03 0.01,0.03 0,0.03 0.01,0.03 0,0.03 0.01,0.05 0,0.06 0,0.05 0,0.05 0.01,0.05 0,0.03 0,0.03 0,0.03 0,0.03 c 0,0.91 -0.69,1.35 -1.44,1.35 -0.5,0 -1.3,-0.3 -1.75,-1.05 -0.1,-0.25 -0.5,-1.78 -0.69,-2.69 -0.36,-1.29 -0.7,-2.64 -1,-3.98 l -2.25,-8.97 c -0.19,-0.75 -2.33,-4.23 -5.62,-4.23 -2.54,0 -3.1,2.18 -3.1,4.03 0,2.29 0.86,5.39 2.55,9.76 0.8,2.05 1,2.6 1,3.6 0,2.23 -1.59,4.07 -4.09,4.07 -4.74,0 -6.58,-7.21 -6.58,-7.67 0,-0.5 0.5,-0.5 0.61,-0.5 0.5,0 0.54,0.11 0.79,0.91 1.35,4.69 3.33,6.17 5.03,6.17 0.4,0 1.25,0 1.25,-1.59 0,-1.25 -0.5,-2.53 -0.85,-3.49 -1.99,-5.28 -2.9,-8.12 -2.9,-10.47 0,-4.42 3.15,-5.92 6.08,-5.92 1.96,0 3.64,0.85 5.03,2.24 -0.64,-2.58 -1.23,-5.03 -3.23,-7.68 -1.3,-1.68 -3.19,-3.14 -5.48,-3.14 -0.69,0 -2.94,0.16 -3.79,2.1 0.8,0 1.46,0 2.14,0.61 0.5,0.43 1,1.09 1,2.03 0,1.55 -1.34,1.75 -1.84,1.75 -1.14,0 -2.8,-0.8 -2.8,-3.24 0,-2.5 2.21,-4.34 5.29,-4.34 5.14,0 10.26,4.55 11.67,10.17 z"
           inkscape:connector-curvature="0"
           style="fill:#000000;stroke-width:0" /><path
           id="path9098"
           d="m 486.63,401.48 -0.03,-0.11 -0.03,-0.1 -0.03,-0.1 -0.03,-0.09 -0.03,-0.09 -0.02,-0.09 -0.04,-0.08 -0.03,-0.07 -0.04,-0.07 -0.04,-0.07 -0.04,-0.06 -0.05,-0.06 -0.05,-0.05 -0.06,-0.05 -0.06,-0.05 -0.07,-0.04 -0.08,-0.04 -0.09,-0.03 -0.09,-0.04 -0.1,-0.03 -0.11,-0.02 -0.06,-0.02 -0.06,-0.01 -0.07,-0.01 -0.06,-0.01 -0.07,-0.01 -0.07,-0.01 -0.08,0 -0.07,-0.01 -0.08,-0.01 -0.09,0 -0.08,-0.01 -0.09,-0.01 -0.1,0 -0.09,0 -0.1,-0.01 -0.1,0 -0.11,0 -0.11,0 -0.11,-0.01 -0.12,0 -0.12,0 -0.12,0 c -0.58,0 -1.03,0 -1.03,-0.73 0,-0.52 0.4,-0.52 1.03,-0.52 l 13.48,0 c 5.86,0 10.36,4 10.36,7.45 0,2.49 -2.26,4.61 -5.97,4.99 4.22,0.76 7.75,3.42 7.75,6.41 0,2.65 -2.69,4.95 -7.22,4.95 l -0.56,-1.25 c 3.56,0 4.36,-2.35 4.36,-3.66 0,-2.83 -3.17,-6.03 -7.84,-6.03 l -5.71,0 -0.25,-0.98 7.39,0 c 3.27,0 4.54,-2.16 4.54,-4.18 0,-3.45 -3.54,-6.45 -7.74,-6.45 l -5.62,0 c -1.08,0 -1.11,0.05 -1.11,0.36 0,0.03 0,0.2 0.14,0.72 l 2.4,9.55 0.25,0.98 2.13,8.5 c 0.26,1.08 0.31,1.19 1.76,1.19 l 5.3,0 0.56,1.25 -12.68,0 c -0.66,0 -1.11,0 -1.11,-0.77 0,-0.48 0.42,-0.48 1.11,-0.48 0.03,0 0.7,0 1.32,-0.08 0.74,-0.06 0.8,-0.14 0.8,-0.48 0,-0.07 0,-0.24 -0.14,-0.77 z"
           inkscape:connector-curvature="0"
           style="fill:#000000;stroke-width:0" /></g>    </g>
    <path
       style="fill:none;fill-rule:evenodd;stroke:#000000;stroke-width:5;stroke-linecap:butt;stroke-linejoin:miter;stroke-miterlimit:4;stroke-dasharray:none;stroke-opacity:1"
       d="m 84.852814,399.64366 371.736136,0"
       id="path4353"
       inkscape:connector-curvature="0" />
    <path
       style="fill:none;fill-rule:evenodd;stroke:#000000;stroke-width:5;stroke-linecap:butt;stroke-linejoin:miter;stroke-miterlimit:4;stroke-dasharray:none;stroke-opacity:1"
       d="m 270.56088,213.93559 0,371.73614"
       id="path4651"
       inkscape:connector-curvature="0" />
    <path
       d="m 294.30284,244.43042 a 34.345188,35.860413 0 0 1 -46.11135,-5.77526 34.345188,35.860413 0 0 1 1.55617,-48.46359 34.345188,35.860413 0 0 1 46.37828,-2.53758"
       sodipodi:end="5.4024973"
       sodipodi:start="0.9477162"
       sodipodi:ry="35.860413"
       sodipodi:rx="34.345188"
       sodipodi:cy="215.30872"
       sodipodi:cx="274.26108"
       sodipodi:type="arc"
       id="path4674"
       style="fill:none;fill-opacity:1;stroke:#004d91;stroke-width:2.5;stroke-linecap:butt;stroke-linejoin:miter;stroke-miterlimit:4;stroke-dasharray:none;stroke-dashoffset:0;stroke-opacity:1;marker-end:url(#Arrow2Mend)"
       sodipodi:open="true" />
    <path
       d="m 477.89314,373.29703 a 34.345188,35.860413 0 0 1 2.20146,48.36875 34.345188,35.860413 0 0 1 -45.94963,6.56088 34.345188,35.860413 0 0 1 -10.31676,-47.21002"
       sodipodi:end="3.6584504"
       sodipodi:start="5.4945118"
       sodipodi:ry="35.860413"
       sodipodi:rx="34.345188"
       sodipodi:cy="398.73709"
       sodipodi:cx="453.6871"
       sodipodi:type="arc"
       id="path4674-2-4"
       style="fill:none;fill-opacity:1;stroke:#004d91;stroke-width:2.5;stroke-linecap:butt;stroke-linejoin:miter;stroke-miterlimit:4;stroke-dasharray:none;stroke-dashoffset:0;stroke-opacity:1;marker-start:url(#Arrow2Mstart)"
       sodipodi:open="true" />
    <path
       d="m 109.20495,370.91718 a 34.345188,35.860413 0 0 1 5.18964,43.98559 34.345188,35.860413 0 0 1 -39.707119,15.66053 34.345188,35.860413 0 0 1 -23.958205,-36.58324"
       sodipodi:end="3.2079311"
       sodipodi:start="5.4945118"
       sodipodi:ry="35.860413"
       sodipodi:rx="34.345188"
       sodipodi:cy="396.35724"
       sodipodi:cx="84.998909"
       sodipodi:type="arc"
       id="path4674-2-4-4"
       style="fill:none;fill-opacity:1;stroke:#004d91;stroke-width:2.5;stroke-linecap:butt;stroke-linejoin:miter;stroke-miterlimit:4;stroke-dasharray:none;stroke-dashoffset:0;stroke-opacity:1;marker-start:url(#Arrow2Mstart-8)"
       sodipodi:open="true" />
    <path
       d="m 294.35103,609.22577 a 34.345188,35.860413 0 0 1 -46.03324,-5.68051 34.345188,35.860413 0 0 1 1.31092,-48.37926 34.345188,35.860413 0 0 1 46.2672,-2.95392"
       sodipodi:end="5.3920383"
       sodipodi:start="0.9477162"
       sodipodi:ry="35.860413"
       sodipodi:rx="34.345188"
       sodipodi:cy="580.10406"
       sodipodi:cx="274.30927"
       sodipodi:type="arc"
       id="path4674-3"
       style="fill:none;fill-opacity:1;stroke:#004d91;stroke-width:2.5;stroke-linecap:butt;stroke-linejoin:miter;stroke-miterlimit:4;stroke-dasharray:none;stroke-dashoffset:0;stroke-opacity:1;marker-end:url(#Arrow2Mend-2)"
       sodipodi:open="true" />
  </g>
</svg>
