<?xml version="1.0" encoding="UTF-8" standalone="no"?>
<!-- Created with Inkscape (http://www.inkscape.org/) -->

<svg
   xmlns:dc="http://purl.org/dc/elements/1.1/"
   xmlns:cc="http://creativecommons.org/ns#"
   xmlns:rdf="http://www.w3.org/1999/02/22-rdf-syntax-ns#"
   xmlns:svg="http://www.w3.org/2000/svg"
   xmlns="http://www.w3.org/2000/svg"
   xmlns:sodipodi="http://sodipodi.sourceforge.net/DTD/sodipodi-0.dtd"
   xmlns:inkscape="http://www.inkscape.org/namespaces/inkscape"
   id="svg2"
   version="1.1"
   inkscape:version="0.91 r13725"
   xml:space="preserve"
   width="930.06836"
   height="369.15665"
   viewBox="0 0 930.06836 369.15665"
   sodipodi:docname="AttitudeControlDiagram.svg"><sodipodi:namedview
     pagecolor="#ffffff"
     bordercolor="#666666"
     borderopacity="1"
     objecttolerance="10"
     gridtolerance="10"
     guidetolerance="10"
     inkscape:pageopacity="0"
     inkscape:pageshadow="2"
     inkscape:window-width="1366"
     inkscape:window-height="705"
     id="namedview4"
     showgrid="false"
     inkscape:zoom="0.89240752"
     inkscape:cx="508.37204"
     inkscape:cy="187.35425"
     inkscape:window-x="-8"
     inkscape:window-y="-8"
     inkscape:window-maximized="1"
     inkscape:current-layer="g12" /><metadata
     id="metadata8"><rdf:RDF><cc:Work
         rdf:about=""><dc:format>image/svg+xml</dc:format><dc:type
           rdf:resource="http://purl.org/dc/dcmitype/StillImage" /><dc:title></dc:title></cc:Work></rdf:RDF></metadata><defs
     id="defs6" /><g
     transform="matrix(1.25,0,0,-1.25,0,369.15665)"
     inkscape:label="AttitudeControlDiagram"
     inkscape:groupmode="layer"
     id="g10"><g
       id="g12"><g
         transform="matrix(1,0,0,-0.99795,0,295.32532)"
         id="g14"><path
           inkscape:connector-curvature="0"
           id="path16"
           style="fill:none;stroke:#000000;stroke-width:1.60164201;stroke-linecap:butt;stroke-linejoin:miter;stroke-miterlimit:4;stroke-dasharray:none;stroke-opacity:1"
           d="m 456.195,8.204 133.715,0 0,51.034 -133.715,0 0,-51.034 z" /></g><g
         transform="matrix(1,0,0,-1,0,295.32532)"
         id="g18"><path
           inkscape:connector-curvature="0"
           id="path20"
           style="fill:none;stroke:#000000;stroke-width:1.60000002;stroke-linecap:butt;stroke-linejoin:miter;stroke-miterlimit:4;stroke-dasharray:none;stroke-opacity:1"
           d="m 397.234,33.305 0,114.929" /></g><g
         transform="matrix(1,0,0,-1,0,295.32532)"
         id="g22"><path
           inkscape:connector-curvature="0"
           id="path24"
           style="fill:none;stroke:#000000;stroke-width:1.60000002;stroke-linecap:butt;stroke-linejoin:miter;stroke-miterlimit:4;stroke-dasharray:none;stroke-opacity:1"
           d="m 278.852,33.668 173.925,0" /></g><g
         transform="matrix(-1,0,0,1,0,295.32532)"
         id="g26"><path
           inkscape:connector-curvature="0"
           id="path28"
           style="fill:#000000;fill-opacity:1;fill-rule:evenodd;stroke:#000000;stroke-width:1.10000002;stroke-linecap:butt;stroke-linejoin:round;stroke-miterlimit:4;stroke-dasharray:none;stroke-opacity:1"
           d="m -435.676,-26.566 -19.226,-7.071 19.226,-7.074 c -3.07,4.176 -3.051,9.887 0,14.145 z" /></g><g
         transform="matrix(1,0,0,-1,0,295.32532)"
         id="g30"><path
           inkscape:connector-curvature="0"
           id="path32"
           style="fill:none;stroke:#000000;stroke-width:1.60000002;stroke-linecap:butt;stroke-linejoin:miter;stroke-miterlimit:4;stroke-dasharray:none;stroke-opacity:1"
           d="m 590.188,33.672 151.191,0" /></g><g
         transform="matrix(-1,0,0,1,0,295.32532)"
         id="g34"><path
           inkscape:connector-curvature="0"
           id="path36"
           style="fill:#000000;fill-opacity:1;fill-rule:evenodd;stroke:#000000;stroke-width:1.10000002;stroke-linecap:butt;stroke-linejoin:round;stroke-miterlimit:4;stroke-dasharray:none;stroke-opacity:1"
           d="m -724.273,-26.57 -19.231,-7.075 19.231,-7.07 c -3.075,4.176 -3.055,9.887 0,14.145 z" /></g><g
         transform="matrix(1,0,0,-1,0,295.32532)"
         id="g38"><path
           inkscape:connector-curvature="0"
           id="path40"
           style="fill:none;stroke:#000000;stroke-width:1.60000002;stroke-linecap:butt;stroke-linejoin:miter;stroke-miterlimit:4;stroke-dasharray:none;stroke-opacity:1"
           d="m 521.031,75.227 0,27.453" /></g><g
         transform="matrix(0,1,1,0,0,295.32532)"
         id="g42"><path
           inkscape:connector-curvature="0"
           id="path44"
           style="fill:#000000;fill-opacity:1;fill-rule:evenodd;stroke:#000000;stroke-width:1.10000002;stroke-linecap:butt;stroke-linejoin:round;stroke-miterlimit:4;stroke-dasharray:none;stroke-opacity:1"
           d="m -85.574,528.129 -19.231,-7.07 19.231,-7.071 c -3.074,4.172 -3.055,9.887 0,14.141 z" /></g><g
         transform="matrix(1,0,0,-1,0,295.32532)"
         id="g46"><path
           inkscape:connector-curvature="0"
           id="path48"
           style="fill:none;stroke:#000000;stroke-width:1.60000002;stroke-linecap:butt;stroke-linejoin:miter;stroke-miterlimit:4;stroke-dasharray:none;stroke-opacity:1"
           d="m 279.324,34.285 c 0,11.664 -9.668,21.125 -21.597,21.125 -11.926,0.004 -21.598,-9.453 -21.602,-21.117 -0.004,-11.668 9.66,-21.129 21.586,-21.133 11.93,-0.008 21.605,9.442 21.613,21.11" /></g><g
         transform="matrix(1,0,0,-1,0,295.32532)"
         id="g50"><path
           inkscape:connector-curvature="0"
           id="path52"
           style="fill:none;stroke:#000000;stroke-width:1.60000002;stroke-linecap:butt;stroke-linejoin:miter;stroke-miterlimit:4;stroke-dasharray:none;stroke-opacity:1"
           d="m 198.555,33.492 34.64,0" /></g><g
         transform="matrix(-1,0,0,1,0,295.32532)"
         id="g54"><path
           inkscape:connector-curvature="0"
           id="path56"
           style="fill:#000000;fill-opacity:1;fill-rule:evenodd;stroke:#000000;stroke-width:1.10000002;stroke-linecap:butt;stroke-linejoin:round;stroke-miterlimit:4;stroke-dasharray:none;stroke-opacity:1"
           d="m -216.094,-26.391 -19.226,-7.07 19.226,-7.074 c -3.07,4.176 -3.054,9.887 0,14.144 z" /></g><g
         transform="matrix(1,0,0,-1,0,295.32532)"
         id="g58"><path
           inkscape:connector-curvature="0"
           id="path60"
           style="fill:none;stroke:#000000;stroke-width:1.60000002;stroke-linecap:butt;stroke-linejoin:miter;stroke-miterlimit:4;stroke-dasharray:none;stroke-opacity:1"
           d="m 71.621,0.801 127.047,0 0,65.32 -127.047,0 0,-65.32 z" /></g><g
         transform="matrix(0.867162,0,0,-1,0,295.32532)"
         id="g62"><path
           inkscape:connector-curvature="0"
           id="path64"
           style="fill:none;stroke:#000000;stroke-width:1.71818495;stroke-linecap:butt;stroke-linejoin:miter;stroke-miterlimit:4;stroke-dasharray:none;stroke-opacity:1"
           d="m 524.101,105.59 153.527,0 0,91.762 -153.527,0 0,-91.762 z" /></g><g
         transform="matrix(1,0,0,-1,0,295.32532)"
         id="g66"><path
           inkscape:connector-curvature="0"
           id="path68"
           style="fill:none;stroke:#000000;stroke-width:1.60000002;stroke-linecap:butt;stroke-linejoin:miter;stroke-miterlimit:4;stroke-dasharray:none;stroke-opacity:1"
           d="m 642.852,75.242 -122.618,0" /></g><g
         transform="matrix(1,0,0,-1,0,295.32532)"
         id="g70"><path
           inkscape:connector-curvature="0"
           id="path72"
           style="fill:none;stroke:#000000;stroke-width:1.60000002;stroke-linecap:butt;stroke-linejoin:miter;stroke-miterlimit:4;stroke-dasharray:none;stroke-opacity:1"
           d="m 642.477,33.754 0,41.926" /></g><g
         transform="matrix(1,0,0,-1,0,295.32532)"
         id="g74"><path
           inkscape:connector-curvature="0"
           id="path76"
           style="fill:none;stroke:#000000;stroke-width:1.60000002;stroke-linecap:butt;stroke-linejoin:miter;stroke-miterlimit:4;stroke-dasharray:none;stroke-opacity:1"
           d="m 396.461,147.832 54.379,0" /></g><g
         transform="matrix(-1,0,0,1,0,295.32532)"
         id="g78"><path
           inkscape:connector-curvature="0"
           id="path80"
           style="fill:#000000;fill-opacity:1;fill-rule:evenodd;stroke:#000000;stroke-width:1.10000002;stroke-linecap:butt;stroke-linejoin:round;stroke-miterlimit:4;stroke-dasharray:none;stroke-opacity:1"
           d="m -433.734,-140.73 -19.231,-7.071 19.231,-7.074 c -3.075,4.176 -3.055,9.887 0,14.145 z" /></g><g
         transform="matrix(1,0,0,-1,0,295.32532)"
         id="g82"><path
           inkscape:connector-curvature="0"
           id="path84"
           style="fill:none;stroke:#000000;stroke-width:1.60000002;stroke-linecap:butt;stroke-linejoin:miter;stroke-miterlimit:4;stroke-dasharray:none;stroke-opacity:1"
           d="m 287.789,213.555 150.285,0 0,62.855 -150.285,0 0,-62.855 z" /></g><g
         transform="matrix(1,0,0,-1,0,295.32532)"
         id="g86"><path
           inkscape:connector-curvature="0"
           id="path88"
           style="fill:none;stroke:#000000;stroke-width:1.60000002;stroke-linecap:butt;stroke-linejoin:miter;stroke-miterlimit:4;stroke-dasharray:none;stroke-opacity:1"
           d="M 622.801,233.539 440.785,232.684" /></g><g
         transform="matrix(1,-0.00470919,-0.00470919,-1,0,295.32532)"
         id="g90"><path
           inkscape:connector-curvature="0"
           id="path92"
           style="fill:#000000;fill-opacity:1;fill-rule:evenodd;stroke:#000000;stroke-width:1.09998798;stroke-linecap:butt;stroke-linejoin:round;stroke-miterlimit:4;stroke-dasharray:none;stroke-opacity:1"
           d="m 458.979,237.702 -19.233,-7.07 19.233,-7.071 c -3.075,4.175 -3.055,9.886 0,14.141 z" /></g><g
         transform="matrix(1,0,0,-1,0,295.32532)"
         id="g94"><path
           inkscape:connector-curvature="0"
           id="path96"
           style="fill:none;stroke:#000000;stroke-width:1.60000002;stroke-linecap:butt;stroke-linejoin:miter;stroke-miterlimit:4;stroke-dasharray:none;stroke-opacity:1"
           d="m 681.121,256.398 -241.414,0" /></g><g
         transform="matrix(1,0,0,-1,0,295.32532)"
         id="g98"><path
           inkscape:connector-curvature="0"
           id="path100"
           style="fill:#000000;fill-opacity:1;fill-rule:evenodd;stroke:#000000;stroke-width:1.10000002;stroke-linecap:butt;stroke-linejoin:round;stroke-miterlimit:4;stroke-dasharray:none;stroke-opacity:1"
           d="m 456.813,263.496 -19.231,-7.07 19.231,-7.071 c -3.071,4.176 -3.055,9.887 0,14.141 z" /></g><g
         transform="matrix(1,0,0,-1,0,295.32532)"
         id="g102"><path
           inkscape:connector-curvature="0"
           id="path104"
           style="fill:none;stroke:#000000;stroke-width:1.60000002;stroke-linecap:butt;stroke-linejoin:miter;stroke-miterlimit:4;stroke-dasharray:none;stroke-opacity:1"
           d="m 622.477,147 0,87.328" /></g><g
         transform="matrix(1,0,0,-1,0,295.32532)"
         id="g106"><path
           inkscape:connector-curvature="0"
           id="path108"
           style="fill:none;stroke:#000000;stroke-width:1.60000002;stroke-linecap:butt;stroke-linejoin:miter;stroke-miterlimit:4;stroke-dasharray:none;stroke-opacity:1"
           d="m 622.84,147.813 -35.211,0" /></g><g
         transform="matrix(1,0,0,-1,0,295.32532)"
         id="g110"><path
           inkscape:connector-curvature="0"
           id="path112"
           style="fill:none;stroke:#000000;stroke-width:1.60000002;stroke-linecap:butt;stroke-linejoin:miter;stroke-miterlimit:4;stroke-dasharray:none;stroke-opacity:1"
           d="m 681.211,33.973 0,222.617" /></g><g
         transform="matrix(1,0,0,-1,0,295.32532)"
         id="g114"><path
           inkscape:connector-curvature="0"
           id="path116"
           style="fill:none;stroke:#000000;stroke-width:1.60000002;stroke-linecap:butt;stroke-linejoin:miter;stroke-miterlimit:4;stroke-dasharray:none;stroke-opacity:1"
           d="m 702.75,294.922 0,-260.863" /></g><g
         transform="matrix(1,0,0,-1,0,295.32532)"
         id="g118"><path
           inkscape:connector-curvature="0"
           id="path120"
           style="fill:none;stroke:#000000;stroke-width:1.60000002;stroke-linecap:butt;stroke-linejoin:miter;stroke-miterlimit:4;stroke-dasharray:none;stroke-opacity:1"
           d="m 134.602,294.523 567.976,0" /></g><g
         transform="matrix(1,0,0,-1,0,295.32532)"
         id="g122"><path
           inkscape:connector-curvature="0"
           id="path124"
           style="fill:none;stroke:#000000;stroke-width:1.60000002;stroke-linecap:butt;stroke-linejoin:miter;stroke-miterlimit:4;stroke-dasharray:none;stroke-opacity:1"
           d="m 135.145,294.914 0,-225.5" /></g><g
         transform="matrix(0,-1,-1,0,0,295.32532)"
         id="g126"><path
           inkscape:connector-curvature="0"
           id="path128"
           style="fill:#000000;fill-opacity:1;fill-rule:evenodd;stroke:#000000;stroke-width:1.10000002;stroke-linecap:butt;stroke-linejoin:round;stroke-miterlimit:4;stroke-dasharray:none;stroke-opacity:1"
           d="m 86.516,-128.043 -19.227,-7.074 19.227,-7.071 c -3.071,4.176 -3.055,9.887 0,14.145 z" /></g><g
         transform="matrix(1,0,0,-1,0,295.32532)"
         id="g130"><path
           inkscape:connector-curvature="0"
           id="path132"
           style="fill:none;stroke:#000000;stroke-width:1.60000002;stroke-linecap:butt;stroke-linejoin:miter;stroke-miterlimit:4;stroke-dasharray:none;stroke-opacity:1"
           d="m 0,33.305 69.785,0" /></g><g
         transform="matrix(-1,0,0,1,0,295.32532)"
         id="g134"><path
           inkscape:connector-curvature="0"
           id="path136"
           style="fill:#000000;fill-opacity:1;fill-rule:evenodd;stroke:#000000;stroke-width:1.10000002;stroke-linecap:butt;stroke-linejoin:round;stroke-miterlimit:4;stroke-dasharray:none;stroke-opacity:1"
           d="m -52.684,-26.203 -19.226,-7.07 19.226,-7.075 c -3.07,4.176 -3.054,9.887 0,14.145 z" /></g><g
         transform="matrix(1,0,0,-1,0,295.32532)"
         id="g138"><path
           inkscape:connector-curvature="0"
           id="path140"
           style="fill:none;stroke:#000000;stroke-width:1.60000002;stroke-linecap:butt;stroke-linejoin:miter;stroke-miterlimit:4;stroke-dasharray:none;stroke-opacity:1"
           d="m 288.402,244.984 -31.511,0" /></g><g
         transform="matrix(1,0,0,-1,0,295.32532)"
         id="g142"><path
           inkscape:connector-curvature="0"
           id="path144"
           style="fill:none;stroke:#000000;stroke-width:1.60000002;stroke-linecap:butt;stroke-linejoin:miter;stroke-miterlimit:4;stroke-dasharray:none;stroke-opacity:1"
           d="m 257.234,245.379 0,-187.418" /></g><g
         transform="matrix(0,-1,-1,0,0,295.32532)"
         id="g146"><path
           inkscape:connector-curvature="0"
           id="path148"
           style="fill:#000000;fill-opacity:1;fill-rule:evenodd;stroke:#000000;stroke-width:1.10000002;stroke-linecap:butt;stroke-linejoin:round;stroke-miterlimit:4;stroke-dasharray:none;stroke-opacity:1"
           d="m 75.066,-250.137 -19.23,-7.07 19.23,-7.07 c -3.07,4.175 -3.054,9.886 0,14.14 z" /></g><path
         inkscape:connector-curvature="0"
         id="path150"
         style="fill:#000000;fill-opacity:1;fill-rule:evenodd;stroke:none"
         d="m 256.758,260.653 0.008,0.016 0.043,0.043 0.011,0.008 0.008,0.012 0.008,0.007 0.008,0.016 0.008,0.008 0.007,0.012 0.012,0.007 0.031,0.032 0.008,0 0,0.011 0.02,0.016 0.008,0.008 0.007,0.015 0.008,0.012 0.012,0.016 0.015,0.015 0,0.012 0.008,0.008 0,0.008 0.008,0.008 0,0.015 0.008,0.012 0,0.074 c 0,0.07 0,0.102 -0.184,0.316 l -7.519,9.235 9.191,0 c 3.113,0 4.746,-0.449 5.129,-0.527 1.863,-0.512 3.727,-1.743 4.457,-3.583 l 0.715,0 -2.016,5.149 -19.464,0 c -0.469,0 -0.485,-0.027 -0.59,-0.137 -0.067,-0.051 -0.067,-0.101 -0.067,-0.691 l 8.496,-10.426 -8.242,-9.25 c -0.254,-0.254 -0.254,-0.309 -0.254,-0.383 0,-0.297 0.266,-0.297 0.657,-0.297 l 19.464,0 2.016,5.442 -0.715,0 c -0.73,-1.93 -2.594,-3.043 -4.09,-3.496 -0.425,-0.118 -2.035,-0.614 -5.316,-0.614 l -9.805,0 7.891,8.871 z" /><path
         inkscape:connector-curvature="0"
         id="path164"
         style="fill:#000000;fill-opacity:1;fill-rule:evenodd;stroke:none"
         d="m 344.291,65.044 -2.973,0.719 c -1.441,0.347 -2.344,1.601 -2.344,2.949 0,1.625 1.254,3.039 3.067,3.039 3.871,0 4.382,-3.805 4.519,-4.851 0.024,-0.141 0.024,-0.278 0.281,-0.278 0.301,0 0.301,0.117 0.301,0.559 l 0,4.66 c 0,0.402 0,0.559 -0.254,0.559 -0.16,0 -0.191,-0.02 -0.347,-0.301 l -0.813,-1.321 c -0.699,0.672 -1.648,1.622 -3.715,1.622 -2.578,0 -4.519,-2.043 -4.519,-4.504 0,-1.922 1.23,-3.618 3.031,-4.246 0.258,-0.094 1.445,-0.368 3.066,-0.762 0.625,-0.168 1.325,-0.328 1.969,-1.184 0.492,-0.605 0.723,-1.371 0.723,-2.133 0,-1.656 -1.156,-3.324 -3.106,-3.324 -0.675,0 -2.441,0.117 -3.672,1.254 -1.347,1.254 -1.417,2.734 -1.441,3.574 -0.023,0.231 -0.203,0.231 -0.273,0.231 -0.297,0 -0.297,-0.168 -0.297,-0.582 l 0,-4.645 c 0,-0.39 0,-0.551 0.25,-0.551 0.164,0 0.183,0.043 0.344,0.301 0,0.02 0.07,0.094 0.835,1.324 0.723,-0.789 2.207,-1.625 4.278,-1.625 2.711,0 4.57,2.27 4.57,4.825 0,2.324 -1.527,4.226 -3.48,4.691 z" /><path
         inkscape:connector-curvature="0"
         id="path166"
         style="fill:#000000;fill-opacity:1;fill-rule:evenodd;stroke:none"
         d="m 353.119,65.318 3.32,0 0,0.722 -3.32,0 0,4.274 -0.582,0 c -0.02,-1.903 -0.719,-4.391 -2.992,-4.477 l 0,-0.519 1.976,0 0,-6.407 c 0,-2.851 2.152,-3.129 2.988,-3.129 1.645,0 2.297,1.645 2.297,3.129 l 0,1.324 -0.582,0 0,-1.273 c 0,-1.719 -0.699,-2.598 -1.554,-2.598 -1.551,0 -1.551,2.11 -1.551,2.508 l 0,6.446 z" /><path
         inkscape:connector-curvature="0"
         id="path168"
         style="fill:#000000;fill-opacity:1;fill-rule:evenodd;stroke:none"
         d="m 365.834,57.798 0.007,-0.086 0.032,-0.172 0.019,-0.086 0.024,-0.09 0.023,-0.082 0.027,-0.086 0.071,-0.164 0.078,-0.164 0.043,-0.074 0.047,-0.074 0.05,-0.074 0.051,-0.078 0.059,-0.063 0.058,-0.066 0.063,-0.067 0.062,-0.058 0.067,-0.055 0.07,-0.059 0.149,-0.093 0.078,-0.039 0.086,-0.04 0.082,-0.031 0.086,-0.027 0.093,-0.024 0.09,-0.019 0.094,-0.016 0.098,-0.008 0.105,-0.003 c 0.477,0 1.899,0.328 1.899,2.207 l 0,1.296 -0.582,0 0,-1.296 c 0,-1.348 -0.579,-1.485 -0.84,-1.485 -0.762,0 -0.856,1.039 -0.856,1.153 l 0,4.644 c 0,0.981 0,1.879 -0.836,2.742 -0.906,0.899 -2.062,1.27 -3.176,1.27 -1.91,0 -3.507,-1.086 -3.507,-2.617 0,-0.696 0.465,-1.094 1.066,-1.094 0.649,0 1.07,0.465 1.07,1.07 0,0.274 -0.113,1.039 -1.187,1.07 0.629,0.809 1.762,1.063 2.508,1.063 1.14,0 2.461,-0.902 2.461,-2.973 l 0,-3.664 c 0,-2.211 -1.668,-2.992 -2.719,-2.992 -1.137,0 -2.086,0.816 -2.086,1.973 0,1.269 0.973,3.203 4.805,3.34 l 0,0.488 c -1.18,-0.067 -2.805,-0.141 -4.27,-0.84 -1.738,-0.785 -2.32,-1.992 -2.32,-3.012 0,-1.879 2.25,-2.461 3.715,-2.461 1.531,0 2.593,0.926 3.043,2.016 z" /><path
         inkscape:connector-curvature="0"
         id="path170"
         style="fill:#000000;fill-opacity:1;fill-rule:evenodd;stroke:none"
         d="m 373.748,65.318 3.316,0 0,0.722 -3.316,0 0,4.274 -0.582,0 c -0.024,-1.903 -0.723,-4.391 -2.996,-4.477 l 0,-0.519 1.976,0 0,-6.407 c 0,-2.851 2.152,-3.129 2.988,-3.129 1.645,0 2.305,1.645 2.305,3.129 l 0,1.324 -0.586,0 0,-1.273 c 0,-1.719 -0.695,-2.598 -1.558,-2.598 -1.547,0 -1.547,2.11 -1.547,2.508 l 0,6.446 z" /><path
         inkscape:connector-curvature="0"
         id="path172"
         style="fill:#000000;fill-opacity:1;fill-rule:evenodd;stroke:none"
         d="m 381.302,61.4 0.024,0.488 c 0.137,3.457 2.09,4.035 2.879,4.035 2.39,0 2.625,-3.129 2.625,-4.035 l -5.504,0 -0.024,-0.488 6.481,0 c 0.508,0 0.574,0 0.574,0.488 0,2.293 -1.254,4.543 -4.152,4.543 -2.692,0 -4.828,-2.383 -4.828,-5.293 0,-3.106 2.433,-5.356 5.109,-5.356 2.832,0 3.871,2.575 3.871,3.016 0,0.23 -0.18,0.281 -0.297,0.281 -0.211,0 -0.258,-0.136 -0.308,-0.324 -0.805,-2.391 -2.899,-2.391 -3.129,-2.391 -1.168,0 -2.09,0.696 -2.621,1.551 -0.7,1.113 -0.7,2.653 -0.7,3.485 z" /><path
         inkscape:connector-curvature="0"
         id="path174"
         style="fill:#000000;fill-opacity:1;fill-rule:evenodd;stroke:none"
         d="m 328.897,43.982 -12.746,0 0,-0.723 0.558,0 c 1.786,0 1.836,-0.258 1.836,-1.086 l 0,-12.164 c 0,-0.832 -0.05,-1.09 -1.836,-1.09 l -0.558,0 0,-0.723 c 0.816,0.075 2.629,0.075 3.531,0.075 0.953,0 3.066,0 3.902,-0.075 l 0,0.723 -0.769,0 c -2.207,0 -2.207,0.297 -2.207,1.113 l 0,5.707 2,0 c 2.226,0 2.461,-0.742 2.461,-2.714 l 0.574,0 0,6.148 -0.574,0 c 0,-1.945 -0.235,-2.711 -2.461,-2.711 l -2,0 0,5.875 c 0,0.766 0.051,0.922 1.144,0.922 l 2.778,0 c 3.488,0 4.062,-1.297 4.433,-4.5 l 0.582,0 -0.648,5.223 z" /><path
         inkscape:connector-curvature="0"
         id="path176"
         style="fill:#000000;fill-opacity:1;fill-rule:evenodd;stroke:none"
         d="m 331.159,33.564 0.023,0.484 c 0.133,3.461 2.086,4.035 2.879,4.035 2.391,0 2.621,-3.129 2.621,-4.035 l -5.5,0 -0.023,-0.484 6.48,0 c 0.508,0 0.574,0 0.574,0.484 0,2.297 -1.254,4.543 -4.152,4.543 -2.691,0 -4.832,-2.387 -4.832,-5.293 0,-3.105 2.437,-5.355 5.109,-5.355 2.836,0 3.875,2.578 3.875,3.011 0,0.235 -0.183,0.285 -0.3,0.285 -0.208,0 -0.254,-0.136 -0.305,-0.324 -0.809,-2.39 -2.895,-2.39 -3.129,-2.39 -1.164,0 -2.09,0.691 -2.621,1.55 -0.699,1.114 -0.699,2.649 -0.699,3.489 z" /><path
         inkscape:connector-curvature="0"
         id="path178"
         style="fill:#000000;fill-opacity:1;fill-rule:evenodd;stroke:none"
         d="m 341.444,33.564 0.023,0.484 c 0.137,3.461 2.09,4.035 2.879,4.035 2.391,0 2.625,-3.129 2.625,-4.035 l -5.504,0 -0.023,-0.484 6.476,0 c 0.512,0 0.578,0 0.578,0.484 0,2.297 -1.253,4.543 -4.152,4.543 -2.691,0 -4.828,-2.387 -4.828,-5.293 0,-3.105 2.434,-5.355 5.109,-5.355 2.828,0 3.871,2.578 3.871,3.011 0,0.235 -0.183,0.285 -0.296,0.285 -0.211,0 -0.258,-0.136 -0.309,-0.324 -0.805,-2.39 -2.898,-2.39 -3.133,-2.39 -1.164,0 -2.086,0.691 -2.617,1.55 -0.699,1.114 -0.699,2.649 -0.699,3.489 z" /><path
         inkscape:connector-curvature="0"
         id="path180"
         style="fill:#000000;fill-opacity:1;fill-rule:evenodd;stroke:none"
         d="m 357.975,29.474 0,-1.531 3.41,0.253 0,0.723 c -1.625,0 -1.808,0.16 -1.808,1.297 l 0,14.09 -3.34,-0.254 0,-0.719 c 1.621,0 1.804,-0.164 1.804,-1.305 l 0,-5.007 c -0.668,0.828 -1.664,1.433 -2.925,1.433 l 0.097,-0.511 c 0.813,0 1.789,-0.348 2.508,-1.387 0.254,-0.391 0.254,-0.442 0.254,-0.86 l 0,-4.761 c 0,-0.414 0,-0.465 -0.254,-0.86 -0.695,-1.113 -1.746,-1.621 -2.742,-1.621 -1.043,0 -1.883,0.606 -2.434,1.485 -0.605,0.953 -0.679,2.277 -0.679,3.226 0,0.856 0.047,2.254 0.722,3.297 0.489,0.719 1.371,1.481 2.625,1.481 l -0.097,0.511 c -2.739,0 -5.18,-2.273 -5.18,-5.261 0,-2.95 2.281,-5.25 4.926,-5.25 1.48,0 2.531,0.785 3.113,1.531 z" /><path
         inkscape:connector-curvature="0"
         id="path182"
         style="fill:#000000;fill-opacity:1;fill-rule:evenodd;stroke:none"
         d="m 366.057,36.946 0,7.36 -3.344,-0.254 0,-0.719 c 1.625,0 1.817,-0.164 1.817,-1.305 l 0,-13.832 0.582,0 c 0.019,0.024 0.199,0.352 0.828,1.446 0.351,-0.539 1.324,-1.699 3.043,-1.699 l -0.098,0.511 c -1.039,0 -1.879,0.559 -2.426,1.422 -0.332,0.484 -0.332,0.547 -0.332,0.961 l 0,4.785 c 0,0.446 0,0.469 0.258,0.84 0.903,1.301 2.184,1.481 2.735,1.481 1.046,0 1.886,-0.602 2.441,-1.481 0.605,-0.957 0.676,-2.273 0.676,-3.23 0,-0.856 -0.055,-2.243 -0.719,-3.293 -0.488,-0.723 -1.371,-1.485 -2.633,-1.485 l 0.098,-0.511 c 2.765,0 5.176,2.273 5.176,5.273 0,2.949 -2.274,5.238 -4.926,5.238 -1.801,0 -2.809,-1.094 -3.176,-1.508 z" /><path
         inkscape:connector-curvature="0"
         id="path184"
         style="fill:#000000;fill-opacity:1;fill-rule:evenodd;stroke:none"
         d="m 382.713,29.958 0.008,-0.082 0.016,-0.09 0.011,-0.09 0.024,-0.082 0.023,-0.089 0.024,-0.082 0.027,-0.086 0.035,-0.082 0.035,-0.086 0.039,-0.079 0.043,-0.078 0.04,-0.082 0.046,-0.074 0.051,-0.074 0.051,-0.07 0.059,-0.071 0.058,-0.062 0.063,-0.067 0.062,-0.058 0.067,-0.059 0.07,-0.051 0.074,-0.05 0.074,-0.047 0.078,-0.043 0.082,-0.035 0.086,-0.036 0.086,-0.027 0.094,-0.023 0.086,-0.016 0.098,-0.016 0.097,-0.007 0.106,-0.008 c 0.48,0 1.894,0.332 1.894,2.211 l 0,1.293 -0.582,0 0,-1.293 c 0,-1.348 -0.574,-1.489 -0.832,-1.489 -0.765,0 -0.859,1.043 -0.859,1.161 l 0,4.64 c 0,0.981 0,1.883 -0.832,2.739 -0.91,0.906 -2.067,1.273 -3.184,1.273 -1.906,0 -3.508,-1.082 -3.508,-2.617 0,-0.696 0.465,-1.09 1.071,-1.09 0.648,0 1.074,0.465 1.074,1.066 0,0.278 -0.117,1.043 -1.191,1.071 0.628,0.804 1.761,1.062 2.507,1.062 1.141,0 2.461,-0.902 2.461,-2.969 l 0,-3.671 c 0,-2.204 -1.668,-2.989 -2.715,-2.989 -1.136,0 -2.089,0.817 -2.089,1.969 0,1.277 0.972,3.207 4.804,3.34 l 0,0.492 c -1.179,-0.066 -2.804,-0.141 -4.269,-0.84 -1.735,-0.781 -2.321,-1.992 -2.321,-3.008 0,-1.882 2.25,-2.464 3.711,-2.464 1.536,0 2.598,0.925 3.047,2.015 z" /><path
         inkscape:connector-curvature="0"
         id="path186"
         style="fill:#000000;fill-opacity:1;fill-rule:evenodd;stroke:none"
         d="m 389.323,33.255 0,0.18 0.004,0.172 0.007,0.164 0.008,0.16 0.012,0.164 0.016,0.152 0.019,0.156 0.02,0.145 0.023,0.145 0.023,0.14 0.024,0.137 0.027,0.133 0.063,0.254 0.07,0.242 0.082,0.226 0.082,0.211 0.09,0.203 0.098,0.184 0.101,0.18 0.106,0.164 0.117,0.152 0.117,0.141 0.117,0.125 0.125,0.121 0.125,0.105 0.125,0.098 0.133,0.09 0.129,0.078 0.133,0.07 0.133,0.063 0.132,0.05 0.129,0.043 0.129,0.036 0.133,0.027 0.125,0.023 0.121,0.016 0.121,0.008 0.117,0.004 c 0.204,0 1.668,-0.024 2.481,-0.856 -0.953,-0.074 -1.09,-0.765 -1.09,-1.07 0,-0.606 0.418,-1.074 1.07,-1.074 0.598,0 1.067,0.402 1.067,1.097 0,1.579 -1.766,2.477 -3.555,2.477 -2.898,0 -5.039,-2.5 -5.039,-5.375 0,-2.973 2.305,-5.273 4.996,-5.273 3.106,0 3.848,2.789 3.848,3.011 0,0.235 -0.235,0.235 -0.297,0.235 -0.211,0 -0.258,-0.086 -0.305,-0.235 -0.672,-2.152 -2.18,-2.429 -3.035,-2.429 -1.23,0 -3.277,1 -3.277,4.73 z" /><path
         inkscape:connector-curvature="0"
         id="path188"
         style="fill:#000000;fill-opacity:1;fill-rule:evenodd;stroke:none"
         d="m 398.682,29.958 0,-0.094 -0.008,-0.171 -0.004,-0.075 -0.011,-0.074 -0.008,-0.066 -0.016,-0.067 -0.019,-0.054 -0.016,-0.051 -0.023,-0.051 -0.028,-0.043 -0.031,-0.043 -0.031,-0.031 -0.035,-0.031 -0.043,-0.036 -0.047,-0.023 -0.051,-0.02 -0.117,-0.039 -0.067,-0.015 -0.07,-0.012 -0.078,-0.012 -0.082,-0.007 -0.086,-0.008 -0.047,0 -0.051,-0.008 -0.047,0 -0.05,-0.004 -0.106,0 -0.058,-0.004 -0.582,0 0,-0.723 c 0.769,0.024 1.855,0.075 2.535,0.075 0.691,0 1.621,-0.028 2.554,-0.075 l 0,0.723 c -1.562,0 -1.812,0 -1.812,1.039 l 0,2.395 1.484,1.277 c 1.782,-2.461 2.758,-3.754 2.758,-4.18 0,-0.437 -0.394,-0.531 -0.828,-0.531 l 0,-0.723 c 0.648,0.024 2.016,0.075 2.5,0.075 0.672,0 1.348,-0.028 2.019,-0.075 l 0,0.723 c -0.859,0 -1.371,0 -2.25,1.231 l -2.949,4.156 c -0.019,0.043 -0.136,0.179 -0.136,0.254 0,0.09 1.644,1.488 1.878,1.668 1.461,1.183 2.438,1.23 2.926,1.25 l 0,0.722 c -0.672,-0.066 -0.98,-0.066 -1.621,-0.066 -0.84,0 -2.285,0.043 -2.601,0.066 l 0,-0.722 c 0.433,-0.02 0.668,-0.274 0.668,-0.575 0,-0.464 -0.317,-0.738 -0.508,-0.906 l -3.278,-2.832 0,11.141 -3.339,-0.254 0,-0.719 c 1.621,0 1.812,-0.164 1.812,-1.305 l 0,-12.07 z" /><path
         inkscape:connector-curvature="0"
         id="path190"
         style="fill:#000000;fill-opacity:1;fill-rule:evenodd;stroke:none"
         d="m 101.061,284.388 0,0.148 0.008,0.141 0.004,0.058 0.004,0.063 0.011,0.059 0.012,0.05 0.016,0.059 0.019,0.047 0.016,0.043 0.031,0.043 0.027,0.043 0.075,0.074 0.043,0.031 0.05,0.031 0.055,0.028 0.027,0.012 0.036,0.015 0.031,0.008 0.031,0.016 0.039,0.007 0.035,0.012 0.039,0.008 0.043,0.008 0.039,0.011 0.047,0.008 0.047,0.012 0.047,0.004 0.051,0.004 0.058,0.008 0.051,0.004 0.059,0.007 0.054,0.004 0.063,0.004 0.066,0.004 0.063,0.004 0.066,0 0.074,0.008 0.071,0 0.074,0.004 0.926,0 0,0.722 c -0.813,-0.074 -2.645,-0.074 -3.531,-0.074 -0.899,0 -2.735,0 -3.547,0.074 l 0,-0.722 0.605,0 c 1.828,0 1.902,-0.254 1.902,-1.09 l 0,-12.231 c 0,-0.839 -0.074,-1.089 -1.902,-1.089 l -0.605,0 0,-0.723 c 0.812,0.074 2.648,0.074 3.531,0.074 0.902,0 2.734,0 3.547,-0.074 l 0,0.723 -0.598,0 c -1.836,0 -1.91,0.25 -1.91,1.089 l 0,12.231 z" /><path
         inkscape:connector-curvature="0"
         id="path192"
         style="fill:#000000;fill-opacity:1;fill-rule:evenodd;stroke:none"
         d="m 106.78,278.329 0,-6.222 c 0,-1.039 -0.25,-1.039 -1.813,-1.039 l 0,-0.723 c 0.817,0.023 1.996,0.074 2.625,0.074 0.602,0 1.813,-0.051 2.598,-0.074 l 0,0.723 c -1.551,0 -1.809,0 -1.809,1.039 l 0,4.273 c 0,2.418 1.645,3.711 3.133,3.711 1.461,0 1.719,-1.254 1.719,-2.574 l 0,-5.41 c 0,-1.039 -0.258,-1.039 -1.813,-1.039 l 0,-0.723 c 0.817,0.023 2,0.074 2.629,0.074 0.602,0 1.801,-0.051 2.598,-0.074 l 0,0.723 c -1.211,0 -1.793,0 -1.817,0.699 l 0,4.429 c 0,1.997 0,2.715 -0.718,3.547 -0.321,0.399 -1.094,0.856 -2.43,0.856 -1.695,0 -2.793,-0.996 -3.437,-2.426 l 0,2.426 -3.278,-0.25 0,-0.723 c 1.629,0 1.813,-0.16 1.813,-1.297 z" /><path
         inkscape:connector-curvature="0"
         id="path194"
         style="fill:#000000;fill-opacity:1;fill-rule:evenodd;stroke:none"
         d="m 120.491,279.626 3.316,0 0,0.723 -3.316,0 0,4.269 -0.582,0 c -0.024,-1.898 -0.723,-4.386 -2.996,-4.476 l 0,-0.516 1.976,0 0,-6.406 c 0,-2.852 2.152,-3.133 2.992,-3.133 1.645,0 2.301,1.648 2.301,3.133 l 0,1.324 -0.582,0 0,-1.273 c 0,-1.719 -0.699,-2.598 -1.562,-2.598 -1.547,0 -1.547,2.109 -1.547,2.504 l 0,6.449 z" /><path
         inkscape:connector-curvature="0"
         id="path196"
         style="fill:#000000;fill-opacity:1;fill-rule:evenodd;stroke:none"
         d="m 128.049,275.708 0.016,0.488 c 0.14,3.457 2.094,4.036 2.887,4.036 2.39,0 2.621,-3.133 2.621,-4.036 l -5.508,0 -0.016,-0.488 6.473,0 c 0.516,0 0.578,0 0.578,0.488 0,2.293 -1.25,4.543 -4.148,4.543 -2.696,0 -4.832,-2.386 -4.832,-5.293 0,-3.105 2.437,-5.359 5.109,-5.359 2.828,0 3.871,2.578 3.871,3.016 0,0.234 -0.18,0.285 -0.297,0.285 -0.215,0 -0.258,-0.141 -0.308,-0.328 -0.805,-2.387 -2.899,-2.387 -3.129,-2.387 -1.164,0 -2.086,0.691 -2.618,1.551 -0.699,1.113 -0.699,2.648 -0.699,3.484 z" /><path
         inkscape:connector-curvature="0"
         id="path198"
         style="fill:#000000;fill-opacity:1;fill-rule:evenodd;stroke:none"
         d="m 138.217,273.431 0,0.121 0.004,0.027 0,0.024 0.008,0.031 0.004,0.027 0.004,0.035 0.004,0.032 0.011,0.035 0.004,0.039 0.008,0.039 0.012,0.035 0.012,0.039 0.007,0.039 0.047,0.129 0.02,0.039 0.019,0.047 0.024,0.043 0.023,0.047 0.024,0.043 0.027,0.047 0.027,0.039 0.035,0.047 0.032,0.043 0.035,0.047 c 0.91,-0.649 1.855,-0.723 2.305,-0.723 l 0,0.531 c -2.028,0 -2.028,2.324 -2.028,2.86 0,0.628 0.031,1.371 0.371,1.945 0.192,0.281 0.723,0.93 1.657,0.93 2.015,0 2.015,-2.321 2.015,-2.852 0,-0.625 -0.023,-1.367 -0.371,-1.949 -0.184,-0.278 -0.723,-0.934 -1.644,-0.934 l 0,-0.531 c 2.152,0 3.753,1.601 3.753,3.391 0,0.863 -0.375,1.718 -0.945,2.25 0.828,0.789 1.668,0.906 2.086,0.906 0.047,0 0.164,0 0.234,-0.024 -0.261,-0.093 -0.371,-0.351 -0.371,-0.625 0,-0.394 0.301,-0.672 0.668,-0.672 0.235,0 0.672,0.161 0.672,0.692 0,0.394 -0.277,1.137 -1.18,1.137 -0.464,0 -1.484,-0.141 -2.46,-1.086 -0.977,0.761 -1.95,0.828 -2.457,0.828 -2.165,0 -3.766,-1.598 -3.766,-3.383 0,-1.02 0.508,-1.906 1.09,-2.395 -0.297,-0.343 -0.719,-1.113 -0.719,-1.921 0,-0.719 0.305,-1.598 1.027,-2.067 -1.398,-0.394 -2.14,-1.39 -2.14,-2.324 0,-1.668 2.297,-2.949 5.129,-2.949 l 0.023,0.531 c -2.344,0 -3.945,1.187 -3.945,2.418 0,1.07 0.883,1.93 1.906,1.996 l 1.371,0 c 1.992,0 4.594,0 4.594,-1.996 0,-1.254 -1.645,-2.418 -3.926,-2.418 l -0.023,-0.531 c 2.742,0 5.152,1.187 5.152,2.996 0,0.816 -0.324,2 -1.504,2.648 -1.23,0.645 -2.574,0.645 -3.996,0.645 -0.582,0 -1.578,0 -1.738,0.023 -0.746,0.094 -1.231,0.817 -1.231,1.559 z" /><path
         inkscape:connector-curvature="0"
         id="path200"
         style="fill:#000000;fill-opacity:1;fill-rule:evenodd;stroke:none"
         d="m 151.252,278.056 0,2.543 -3.222,-0.25 0,-0.723 c 1.625,0 1.812,-0.16 1.812,-1.297 l 0,-6.222 c 0,-1.039 -0.254,-1.039 -1.812,-1.039 l 0,-0.723 c 0.914,0.023 1.992,0.074 2.652,0.074 0.922,0 2.016,0 2.949,-0.074 l 0,0.723 -0.492,0 c -1.719,0 -1.769,0.25 -1.769,1.089 l 0,3.575 c 0,2.293 0.98,4.359 2.746,4.359 0.16,0 0.203,0 0.254,-0.023 -0.071,-0.02 -0.536,-0.297 -0.536,-0.899 0,-0.656 0.485,-0.996 1,-0.996 0.418,0 1,0.273 1,1.016 0,0.746 -0.718,1.41 -1.718,1.41 -1.7,0 -2.532,-1.547 -2.864,-2.543 z" /><path
         inkscape:connector-curvature="0"
         id="path202"
         style="fill:#000000;fill-opacity:1;fill-rule:evenodd;stroke:none"
         d="m 164.225,272.107 0.012,-0.09 0.015,-0.082 0.012,-0.09 0.02,-0.082 0.023,-0.09 0.027,-0.082 0.028,-0.086 0.035,-0.082 0.031,-0.086 0.039,-0.078 0.039,-0.086 0.141,-0.223 0.055,-0.074 0.058,-0.066 0.055,-0.063 0.062,-0.066 0.063,-0.063 0.14,-0.109 0.071,-0.047 0.078,-0.047 0.078,-0.043 0.164,-0.07 0.09,-0.027 0.09,-0.024 0.09,-0.019 0.097,-0.012 0.098,-0.008 0.102,-0.008 c 0.484,0 1.898,0.332 1.898,2.211 l 0,1.293 -0.582,0 0,-1.293 c 0,-1.347 -0.574,-1.488 -0.832,-1.488 -0.766,0 -0.863,1.039 -0.863,1.156 l 0,4.645 c 0,0.976 0,1.879 -0.829,2.738 -0.91,0.898 -2.07,1.273 -3.183,1.273 -1.906,0 -3.508,-1.086 -3.508,-2.617 0,-0.695 0.465,-1.097 1.07,-1.097 0.649,0 1.075,0.468 1.075,1.074 0,0.273 -0.118,1.039 -1.192,1.07 0.625,0.805 1.762,1.063 2.504,1.063 1.145,0 2.461,-0.903 2.461,-2.973 l 0,-3.668 c 0,-2.207 -1.664,-2.988 -2.711,-2.988 -1.137,0 -2.094,0.812 -2.094,1.968 0,1.274 0.977,3.207 4.805,3.34 l 0,0.492 c -1.18,-0.066 -2.801,-0.14 -4.266,-0.839 -1.742,-0.789 -2.324,-1.996 -2.324,-3.016 0,-1.875 2.25,-2.461 3.715,-2.461 1.535,0 2.598,0.93 3.043,2.02 z" /><path
         inkscape:connector-curvature="0"
         id="path204"
         style="fill:#000000;fill-opacity:1;fill-rule:evenodd;stroke:none"
         d="m 172.229,286.454 -3.344,-0.254 0,-0.722 c 1.621,0 1.813,-0.16 1.813,-1.301 l 0,-12.07 c 0,-1.039 -0.254,-1.039 -1.813,-1.039 l 0,-0.723 c 0.766,0.023 1.996,0.074 2.578,0.074 0.582,0 1.719,-0.051 2.578,-0.074 l 0,0.723 c -1.558,0 -1.812,0 -1.812,1.039 l 0,14.347 z" /><path
         inkscape:connector-curvature="0"
         id="path206"
         style="fill:#000000;fill-opacity:1;fill-rule:evenodd;stroke:none"
         d="m 97.147,250.439 0.008,-0.45 0.035,-0.437 0.051,-0.434 0.074,-0.422 0.094,-0.414 0.109,-0.406 0.133,-0.394 0.148,-0.387 0.168,-0.379 0.18,-0.363 0.203,-0.356 0.211,-0.34 0.23,-0.328 0.243,-0.32 0.254,-0.301 0.277,-0.293 0.277,-0.277 0.301,-0.258 0.305,-0.25 0.32,-0.23 0.324,-0.215 0.34,-0.2 0.344,-0.183 0.359,-0.164 0.363,-0.149 0.368,-0.125 0.379,-0.113 0.386,-0.09 0.391,-0.07 0.391,-0.051 0.402,-0.035 0.398,-0.008 c 3.789,0 6.059,3.223 6.059,5.914 0,0.235 0,0.395 -0.297,0.395 -0.254,0 -0.254,-0.137 -0.277,-0.371 -0.192,-3.321 -2.668,-5.223 -5.203,-5.223 -1.411,0 -5.965,0.789 -5.965,7.707 0,6.941 4.531,7.731 5.941,7.731 2.535,0 4.602,-2.114 5.059,-5.504 0.05,-0.321 0.05,-0.395 0.375,-0.395 0.367,0 0.367,0.074 0.367,0.563 l 0,5.492 c 0,0.402 0,0.566 -0.25,0.566 -0.09,0 -0.184,0 -0.375,-0.281 l -1.156,-1.715 c -0.86,0.836 -2.043,1.996 -4.278,1.996 -4.336,0 -8.066,-3.695 -8.066,-8.433 z" /><path
         inkscape:connector-curvature="0"
         id="path208"
         style="fill:#000000;fill-opacity:1;fill-rule:evenodd;stroke:none"
         d="m 123.549,247.47 -0.011,0.277 -0.02,0.274 -0.031,0.269 -0.047,0.266 -0.055,0.262 -0.07,0.253 -0.086,0.254 -0.09,0.246 -0.105,0.239 -0.11,0.238 -0.125,0.223 -0.136,0.222 -0.145,0.215 -0.148,0.207 -0.165,0.195 -0.171,0.192 -0.176,0.176 -0.188,0.172 -0.195,0.164 -0.199,0.152 -0.211,0.141 -0.215,0.128 -0.223,0.122 -0.222,0.113 -0.235,0.098 -0.238,0.082 -0.242,0.074 -0.246,0.062 -0.254,0.051 -0.254,0.031 -0.262,0.024 -0.261,0.008 -0.02,-0.508 c 1.016,0 2.016,-0.508 2.621,-1.508 0.606,-0.996 0.606,-2.348 0.606,-3.227 0,-0.836 0,-2.086 -0.512,-3.109 -0.508,-1.047 -1.531,-1.719 -2.695,-1.719 -0.997,0 -2.016,0.492 -2.641,1.551 -0.582,1.031 -0.582,2.441 -0.582,3.277 0,0.903 0,2.157 0.555,3.18 0.632,1.063 1.718,1.555 2.648,1.555 l 0.02,0.508 c -2.899,0 -5.153,-2.528 -5.153,-5.43 0,-2.992 2.418,-5.223 5.133,-5.223 2.812,0 5.156,2.274 5.156,5.223 z" /><path
         inkscape:connector-curvature="0"
         id="path210"
         style="fill:#000000;fill-opacity:1;fill-rule:evenodd;stroke:none"
         d="m 126.795,250.489 0,-6.222 c 0,-1.039 -0.257,-1.039 -1.812,-1.039 l 0,-0.723 c 0.816,0.023 1.992,0.074 2.617,0.074 0.605,0 1.816,-0.051 2.602,-0.074 l 0,0.723 c -1.551,0 -1.805,0 -1.805,1.039 l 0,4.269 c 0,2.418 1.644,3.715 3.133,3.715 1.461,0 1.711,-1.25 1.711,-2.578 l 0,-5.406 c 0,-1.039 -0.25,-1.039 -1.809,-1.039 l 0,-0.723 c 0.813,0.023 2,0.074 2.625,0.074 0.606,0 1.809,-0.051 2.602,-0.074 l 0,0.723 c -1.207,0 -1.789,0 -1.813,0.699 l 0,4.43 c 0,1.996 0,2.714 -0.723,3.543 -0.316,0.402 -1.089,0.863 -2.425,0.863 -1.7,0 -2.793,-0.996 -3.442,-2.434 l 0,2.434 -3.273,-0.258 0,-0.719 c 1.621,0 1.812,-0.16 1.812,-1.297 z" /><path
         inkscape:connector-curvature="0"
         id="path212"
         style="fill:#000000;fill-opacity:1;fill-rule:evenodd;stroke:none"
         d="m 140.502,251.786 3.321,0 0,0.719 -3.321,0 0,4.273 -0.582,0 c -0.019,-1.902 -0.718,-4.386 -2.992,-4.476 l 0,-0.516 1.969,0 0,-6.406 c 0,-2.852 2.16,-3.133 2.996,-3.133 1.645,0 2.297,1.649 2.297,3.133 l 0,1.328 -0.582,0 0,-1.277 c 0,-1.715 -0.699,-2.602 -1.555,-2.602 -1.551,0 -1.551,2.117 -1.551,2.508 l 0,6.449 z" /><path
         inkscape:connector-curvature="0"
         id="path214"
         style="fill:#000000;fill-opacity:1;fill-rule:evenodd;stroke:none"
         d="m 149.358,250.216 0,2.547 -3.231,-0.258 0,-0.719 c 1.629,0 1.813,-0.16 1.813,-1.297 l 0,-6.222 c 0,-1.039 -0.25,-1.039 -1.813,-1.039 l 0,-0.723 c 0.914,0.023 2,0.074 2.653,0.074 0.925,0 2.015,0 2.949,-0.074 l 0,0.723 -0.488,0 c -1.715,0 -1.766,0.254 -1.766,1.09 l 0,3.574 c 0,2.293 0.973,4.359 2.742,4.359 0.16,0 0.199,0 0.254,-0.019 -0.07,-0.024 -0.539,-0.297 -0.539,-0.903 0,-0.656 0.484,-1 1.004,-1 0.414,0 0.996,0.278 0.996,1.024 0,0.738 -0.719,1.41 -1.715,1.41 -1.695,0 -2.535,-1.551 -2.859,-2.547 z" /><path
         inkscape:connector-curvature="0"
         id="path216"
         style="fill:#000000;fill-opacity:1;fill-rule:evenodd;stroke:none"
         d="m 165.53,247.47 -0.008,0.277 -0.024,0.274 -0.031,0.269 -0.043,0.266 -0.058,0.262 -0.071,0.253 -0.078,0.254 -0.094,0.246 -0.101,0.239 -0.117,0.238 -0.125,0.223 -0.133,0.222 -0.145,0.215 -0.152,0.207 -0.164,0.195 -0.172,0.192 -0.176,0.176 -0.187,0.172 -0.196,0.164 -0.199,0.152 -0.211,0.141 -0.215,0.128 -0.218,0.122 -0.231,0.113 -0.23,0.098 -0.238,0.082 -0.243,0.074 -0.246,0.062 -0.254,0.051 -0.254,0.031 -0.257,0.024 -0.262,0.008 -0.024,-0.508 c 1.024,0 2.02,-0.508 2.622,-1.508 0.605,-0.996 0.605,-2.348 0.605,-3.227 0,-0.836 0,-2.086 -0.508,-3.109 -0.512,-1.047 -1.527,-1.719 -2.695,-1.719 -1,0 -2.016,0.492 -2.645,1.551 -0.582,1.031 -0.582,2.441 -0.582,3.277 0,0.903 0,2.157 0.555,3.18 0.633,1.063 1.719,1.555 2.648,1.555 l 0.024,0.508 c -2.895,0 -5.156,-2.528 -5.156,-5.43 0,-2.992 2.418,-5.223 5.132,-5.223 2.813,0 5.157,2.274 5.157,5.223 z" /><path
         inkscape:connector-curvature="0"
         id="path218"
         style="fill:#000000;fill-opacity:1;fill-rule:evenodd;stroke:none"
         d="m 170.327,258.614 -3.34,-0.257 0,-0.715 c 1.621,0 1.812,-0.164 1.812,-1.305 l 0,-12.07 c 0,-1.039 -0.258,-1.039 -1.812,-1.039 l 0,-0.723 c 0.761,0.023 1.992,0.074 2.574,0.074 0.582,0 1.719,-0.051 2.578,-0.074 l 0,0.723 c -1.555,0 -1.812,0 -1.812,1.039 l 0,14.347 z" /><path
         inkscape:connector-curvature="0"
         id="path220"
         style="fill:#000000;fill-opacity:1;fill-rule:evenodd;stroke:none"
         d="m 484.102,171.021 0.211,0.058 0.207,0.055 0.203,0.066 0.199,0.071 0.195,0.074 0.196,0.078 0.187,0.082 0.188,0.09 0.179,0.09 0.176,0.097 0.172,0.102 0.16,0.101 0.16,0.11 0.153,0.109 0.148,0.117 0.141,0.122 0.136,0.125 0.125,0.128 0.121,0.129 0.114,0.137 0.105,0.133 0.098,0.144 0.09,0.141 0.082,0.148 0.07,0.149 0.066,0.156 0.055,0.152 0.043,0.165 0.035,0.156 0.031,0.164 0.012,0.168 0.004,0.168 c 0,2.226 -2.641,4.179 -6.055,4.179 l -7.285,0 0,-0.722 0.555,0 c 1.789,0 1.828,-0.254 1.828,-1.09 l 0,-12.23 c 0,-0.84 -0.039,-1.09 -1.828,-1.09 l -0.555,0 0,-0.723 c 0.828,0.074 2.481,0.074 3.379,0.074 0.906,0 2.559,0 3.399,-0.074 l 0,0.723 -0.563,0 c -1.785,0 -1.832,0.25 -1.832,1.09 l 0,12.386 c 0,0.543 0,0.817 0.508,0.891 0.234,0.043 0.906,0.043 1.375,0.043 2.082,0 4.687,-0.094 4.687,-3.457 0,-1.602 -0.562,-3.481 -3.996,-3.481 l -2.574,0 0,-0.515 2.668,0 c 0.375,0 1.348,0 2.152,-0.785 0.891,-0.84 0.891,-1.559 0.891,-3.114 0,-1.511 0,-2.433 0.945,-3.316 0.957,-0.836 2.227,-0.973 2.926,-0.973 1.813,0 2.207,1.895 2.207,2.555 0,0.137 0,0.391 -0.297,0.391 -0.254,0 -0.254,-0.211 -0.285,-0.368 -0.137,-1.656 -0.945,-2.07 -1.527,-2.07 -1.137,0 -1.328,1.188 -1.653,3.34 l -0.296,1.859 c -0.418,1.481 -1.559,2.254 -2.836,2.692 z" /><path
         inkscape:connector-curvature="0"
         id="path222"
         style="fill:#000000;fill-opacity:1;fill-rule:evenodd;stroke:none"
         d="m 493.691,168.493 0.024,0.489 c 0.133,3.457 2.086,4.035 2.879,4.035 2.39,0 2.621,-3.133 2.621,-4.035 l -5.5,0 -0.024,-0.489 6.481,0 c 0.508,0 0.574,0 0.574,0.489 0,2.293 -1.254,4.543 -4.152,4.543 -2.692,0 -4.832,-2.387 -4.832,-5.293 0,-3.11 2.437,-5.36 5.109,-5.36 2.836,0 3.875,2.578 3.875,3.016 0,0.234 -0.183,0.285 -0.301,0.285 -0.207,0 -0.254,-0.141 -0.308,-0.328 -0.805,-2.387 -2.895,-2.387 -3.129,-2.387 -1.164,0 -2.086,0.692 -2.617,1.551 -0.7,1.113 -0.7,2.648 -0.7,3.484 z" /><path
         inkscape:connector-curvature="0"
         id="path224"
         style="fill:#000000;fill-opacity:1;fill-rule:evenodd;stroke:none"
         d="m 510.219,164.403 0,-1.531 3.41,0.258 0,0.723 c -1.625,0 -1.805,0.156 -1.805,1.293 l 0,14.093 -3.34,-0.254 0,-0.722 c 1.621,0 1.801,-0.16 1.801,-1.301 l 0,-5.008 c -0.664,0.828 -1.664,1.43 -2.926,1.43 l 0.098,-0.508 c 0.816,0 1.789,-0.348 2.512,-1.387 0.25,-0.398 0.25,-0.449 0.25,-0.863 l 0,-4.762 c 0,-0.414 0,-0.464 -0.25,-0.855 -0.699,-1.113 -1.746,-1.621 -2.746,-1.621 -1.043,0 -1.879,0.597 -2.43,1.48 -0.605,0.953 -0.68,2.278 -0.68,3.227 0,0.859 0.047,2.258 0.723,3.297 0.488,0.718 1.367,1.484 2.621,1.484 l -0.098,0.508 c -2.734,0 -5.175,-2.27 -5.175,-5.258 0,-2.949 2.277,-5.254 4.925,-5.254 1.481,0 2.528,0.789 3.11,1.531 z" /><path
         inkscape:connector-curvature="0"
         id="path226"
         style="fill:#000000;fill-opacity:1;fill-rule:evenodd;stroke:none"
         d="m 523.391,164.966 0,-2.094 3.339,0.258 0,0.723 c -1.621,0 -1.812,0.156 -1.812,1.293 l 0,8.238 -3.414,-0.25 0,-0.723 c 1.629,0 1.812,-0.16 1.812,-1.297 l 0,-4.136 c 0,-2.012 -1.113,-3.59 -2.808,-3.59 -1.945,0 -2.035,1.09 -2.035,2.297 l 0,7.699 -3.418,-0.25 0,-0.723 c 1.812,0 1.812,-0.066 1.812,-2.133 l 0,-3.48 c 0,-1.813 0,-3.926 3.524,-3.926 1.304,0 2.324,0.649 3,2.094 z" /><path
         inkscape:connector-curvature="0"
         id="path228"
         style="fill:#000000;fill-opacity:1;fill-rule:evenodd;stroke:none"
         d="m 529.941,168.189 0,0.179 0.004,0.168 0.008,0.164 0.012,0.164 0.008,0.161 0.015,0.156 0.02,0.148 0.015,0.153 0.024,0.144 0.023,0.137 0.028,0.137 0.031,0.136 0.059,0.254 0.07,0.238 0.078,0.227 0.086,0.215 0.094,0.203 0.097,0.184 0.102,0.179 0.105,0.16 0.114,0.149 0.117,0.14 0.121,0.133 0.121,0.121 0.125,0.106 0.125,0.098 0.133,0.089 0.129,0.075 0.136,0.07 0.258,0.117 0.133,0.039 0.129,0.039 0.129,0.028 0.129,0.023 0.125,0.016 0.117,0.007 0.121,0.004 c 0.199,0 1.66,-0.023 2.477,-0.859 -0.95,-0.07 -1.09,-0.766 -1.09,-1.07 0,-0.606 0.414,-1.071 1.07,-1.071 0.598,0 1.063,0.403 1.063,1.09 0,1.578 -1.758,2.485 -3.555,2.485 -2.895,0 -5.035,-2.504 -5.035,-5.383 0,-2.965 2.301,-5.27 4.996,-5.27 3.105,0 3.847,2.793 3.847,3.016 0,0.234 -0.234,0.234 -0.292,0.234 -0.215,0 -0.258,-0.09 -0.309,-0.234 -0.672,-2.153 -2.176,-2.43 -3.039,-2.43 -1.231,0 -3.274,0.996 -3.274,4.731 z" /><path
         inkscape:connector-curvature="0"
         id="path230"
         style="fill:#000000;fill-opacity:1;fill-rule:evenodd;stroke:none"
         d="m 540.086,168.493 0.023,0.489 c 0.141,3.457 2.09,4.035 2.887,4.035 2.383,0 2.617,-3.133 2.617,-4.035 l -5.504,0 -0.023,-0.489 6.48,0 c 0.508,0 0.575,0 0.575,0.489 0,2.293 -1.25,4.543 -4.145,4.543 -2.695,0 -4.836,-2.387 -4.836,-5.293 0,-3.11 2.442,-5.36 5.11,-5.36 2.832,0 3.871,2.578 3.871,3.016 0,0.234 -0.18,0.285 -0.297,0.285 -0.211,0 -0.254,-0.141 -0.305,-0.328 -0.809,-2.387 -2.898,-2.387 -3.129,-2.387 -1.164,0 -2.094,0.692 -2.625,1.551 -0.699,1.113 -0.699,2.648 -0.699,3.484 z" /><path
         inkscape:connector-curvature="0"
         id="path232"
         style="fill:#000000;fill-opacity:1;fill-rule:evenodd;stroke:none"
         d="m 556.621,164.403 0,-1.531 3.406,0.258 0,0.723 c -1.625,0 -1.804,0.156 -1.804,1.293 l 0,14.093 -3.344,-0.254 0,-0.722 c 1.625,0 1.809,-0.16 1.809,-1.301 l 0,-5.008 c -0.672,0.828 -1.668,1.43 -2.926,1.43 l 0.093,-0.508 c 0.813,0 1.79,-0.348 2.512,-1.387 0.254,-0.398 0.254,-0.449 0.254,-0.863 l 0,-4.762 c 0,-0.414 0,-0.464 -0.254,-0.855 -0.699,-1.113 -1.75,-1.621 -2.746,-1.621 -1.043,0 -1.879,0.597 -2.43,1.48 -0.609,0.953 -0.675,2.278 -0.675,3.227 0,0.859 0.039,2.258 0.718,3.297 0.489,0.718 1.368,1.484 2.621,1.484 l -0.093,0.508 c -2.739,0 -5.176,-2.27 -5.176,-5.258 0,-2.949 2.277,-5.254 4.918,-5.254 1.488,0 2.535,0.789 3.117,1.531 z" /><path
         inkscape:connector-curvature="0"
         id="path234"
         style="fill:#000000;fill-opacity:1;fill-rule:evenodd;stroke:none"
         d="m 503.542,143.157 -0.008,0.442 -0.035,0.433 -0.047,0.43 -0.07,0.418 -0.086,0.418 -0.105,0.402 -0.125,0.399 -0.141,0.386 -0.152,0.372 -0.172,0.367 -0.192,0.359 -0.199,0.34 -0.219,0.336 -0.23,0.32 -0.246,0.309 -0.254,0.293 -0.273,0.281 -0.278,0.266 -0.293,0.25 -0.304,0.234 -0.313,0.223 -0.324,0.199 -0.332,0.187 -0.344,0.172 -0.352,0.149 -0.355,0.133 -0.367,0.117 -0.371,0.09 -0.379,0.074 -0.379,0.054 -0.395,0.032 -0.39,0.015 0,-0.586 c 2.023,0 5.343,-1.644 5.343,-7.582 0,-6.156 -3.179,-8.105 -5.324,-8.105 -2.226,0 -5.336,2.039 -5.336,8.105 0,6.004 3.395,7.582 5.317,7.582 l 0,0.586 c -4.157,0 -7.699,-3.714 -7.699,-8.5 0,-4.761 3.574,-8.375 7.699,-8.375 4.222,0 7.73,3.688 7.73,8.375 z" /><path
         inkscape:connector-curvature="0"
         id="path236"
         style="fill:#000000;fill-opacity:1;fill-rule:evenodd;stroke:none"
         d="m 508.738,143.001 0,2.547 -3.227,-0.258 0,-0.719 c 1.621,0 1.812,-0.16 1.812,-1.296 l 0,-6.223 c 0,-1.039 -0.253,-1.039 -1.812,-1.039 l 0,-0.723 c 0.91,0.024 1.996,0.074 2.648,0.074 0.926,0 2.016,0 2.95,-0.074 l 0,0.723 -0.485,0 c -1.719,0 -1.769,0.254 -1.769,1.09 l 0,3.57 c 0,2.297 0.972,4.363 2.742,4.363 0.16,0 0.203,0 0.258,-0.019 -0.075,-0.024 -0.543,-0.297 -0.543,-0.903 0,-0.66 0.488,-1 1.008,-1 0.414,0 0.996,0.278 0.996,1.024 0,0.738 -0.723,1.41 -1.719,1.41 -1.695,0 -2.535,-1.551 -2.859,-2.547 z" /><path
         inkscape:connector-curvature="0"
         id="path238"
         style="fill:#000000;fill-opacity:1;fill-rule:evenodd;stroke:none"
         d="m 522.796,136.568 0,-1.536 3.41,0.258 0,0.723 c -1.625,0 -1.808,0.156 -1.808,1.293 l 0,14.094 -3.34,-0.258 0,-0.715 c 1.621,0 1.805,-0.164 1.805,-1.305 l 0,-5.008 c -0.668,0.829 -1.665,1.434 -2.926,1.434 l 0.097,-0.512 c 0.817,0 1.789,-0.351 2.512,-1.39 0.25,-0.391 0.25,-0.442 0.25,-0.856 l 0,-4.762 c 0,-0.414 0,-0.464 -0.25,-0.863 -0.699,-1.113 -1.75,-1.621 -2.746,-1.621 -1.043,0 -1.883,0.606 -2.43,1.488 -0.605,0.95 -0.679,2.278 -0.679,3.223 0,0.859 0.043,2.254 0.718,3.301 0.493,0.715 1.371,1.48 2.625,1.48 l -0.097,0.512 c -2.735,0 -5.176,-2.273 -5.176,-5.266 0,-2.949 2.277,-5.25 4.922,-5.25 1.484,0 2.531,0.789 3.113,1.536 z" /><path
         inkscape:connector-curvature="0"
         id="path240"
         style="fill:#000000;fill-opacity:1;fill-rule:evenodd;stroke:none"
         d="m 529.468,140.657 0.02,0.485 c 0.14,3.461 2.089,4.035 2.882,4.035 2.387,0 2.618,-3.133 2.618,-4.035 l -5.5,0 -0.02,-0.485 6.477,0 c 0.511,0 0.578,0 0.578,0.485 0,2.297 -1.254,4.543 -4.153,4.543 -2.691,0 -4.836,-2.387 -4.836,-5.293 0,-3.11 2.442,-5.36 5.11,-5.36 2.836,0 3.879,2.582 3.879,3.016 0,0.23 -0.184,0.285 -0.301,0.285 -0.215,0 -0.254,-0.137 -0.305,-0.328 -0.812,-2.391 -2.898,-2.391 -3.133,-2.391 -1.164,0 -2.086,0.696 -2.617,1.551 -0.699,1.113 -0.699,2.653 -0.699,3.492 z" /><path
         inkscape:connector-curvature="0"
         id="path242"
         style="fill:#000000;fill-opacity:1;fill-rule:evenodd;stroke:none"
         d="m 541.046,143.001 0,2.547 -3.226,-0.258 0,-0.719 c 1.628,0 1.812,-0.16 1.812,-1.296 l 0,-6.223 c 0,-1.039 -0.25,-1.039 -1.812,-1.039 l 0,-0.723 c 0.914,0.024 1.996,0.074 2.652,0.074 0.922,0 2.016,0 2.949,-0.074 l 0,0.723 -0.488,0 c -1.719,0 -1.77,0.254 -1.77,1.09 l 0,3.57 c 0,2.297 0.977,4.363 2.746,4.363 0.161,0 0.204,0 0.254,-0.019 -0.07,-0.024 -0.539,-0.297 -0.539,-0.903 0,-0.66 0.489,-1 1.004,-1 0.414,0 0.996,0.278 0.996,1.024 0,0.738 -0.719,1.41 -1.715,1.41 -1.699,0 -2.535,-1.551 -2.863,-2.547 z" /><path
         inkscape:connector-curvature="0"
         id="path244"
         style="fill:#000000;fill-opacity:1;fill-rule:evenodd;stroke:none"
         d="m 490.742,115.318 -0.008,0.441 -0.035,0.434 -0.047,0.429 -0.07,0.418 -0.086,0.414 -0.105,0.403 -0.125,0.394 -0.141,0.387 -0.152,0.379 -0.172,0.367 -0.192,0.355 -0.199,0.344 -0.219,0.336 -0.23,0.316 -0.246,0.309 -0.254,0.297 -0.273,0.281 -0.278,0.262 -0.293,0.254 -0.304,0.234 -0.313,0.223 -0.324,0.199 -0.332,0.188 -0.344,0.168 -0.352,0.152 -0.355,0.129 -0.367,0.117 -0.371,0.094 -0.379,0.074 -0.379,0.051 -0.395,0.035 -0.39,0.008 0,-0.582 c 2.023,0 5.343,-1.645 5.343,-7.586 0,-6.149 -3.179,-8.102 -5.324,-8.102 -2.226,0 -5.336,2.043 -5.336,8.102 0,6.008 3.395,7.586 5.317,7.586 l 0,0.582 c -4.157,0 -7.699,-3.707 -7.699,-8.492 0,-4.762 3.574,-8.379 7.699,-8.379 4.222,0 7.73,3.691 7.73,8.379 z" /><path
         inkscape:connector-curvature="0"
         id="path246"
         style="fill:#000000;fill-opacity:1;fill-rule:evenodd;stroke:none"
         d="m 496.055,116.196 0,7.364 -3.344,-0.258 0,-0.723 c 1.621,0 1.812,-0.156 1.812,-1.301 l 0,-13.832 0.582,0 c 0.02,0.024 0.208,0.352 0.833,1.442 0.347,-0.535 1.32,-1.695 3.042,-1.695 l -0.093,0.511 c -1.043,0 -1.879,0.559 -2.434,1.418 -0.324,0.488 -0.324,0.555 -0.324,0.969 l 0,4.785 c 0,0.442 0,0.465 0.25,0.832 0.902,1.305 2.184,1.488 2.738,1.488 1.051,0 1.883,-0.609 2.438,-1.488 0.605,-0.949 0.675,-2.269 0.675,-3.223 0,-0.859 -0.046,-2.25 -0.718,-3.3 -0.489,-0.715 -1.367,-1.481 -2.625,-1.481 l 0.093,-0.511 c 2.766,0 5.176,2.273 5.176,5.273 0,2.945 -2.273,5.242 -4.922,5.242 -1.808,0 -2.808,-1.098 -3.179,-1.512 z" /><path
         inkscape:connector-curvature="0"
         id="path248"
         style="fill:#000000;fill-opacity:1;fill-rule:evenodd;stroke:none"
         d="m 509.801,111.954 0.054,-0.011 0.059,-0.008 0.07,-0.016 0.067,-0.016 0.164,-0.039 0.09,-0.023 0.187,-0.055 0.098,-0.035 0.101,-0.035 0.102,-0.039 0.102,-0.047 0.105,-0.043 0.203,-0.109 0.098,-0.067 0.101,-0.062 0.094,-0.071 0.094,-0.074 0.09,-0.086 0.082,-0.086 0.078,-0.089 0.074,-0.102 0.066,-0.106 0.028,-0.054 0.035,-0.055 0.027,-0.062 0.024,-0.055 0.023,-0.066 0.02,-0.059 0.015,-0.066 0.02,-0.067 0.016,-0.066 0.023,-0.141 0.004,-0.074 0.004,-0.082 0,-0.074 c 0,-1.176 -0.817,-2.11 -2.617,-2.11 -1.954,0 -2.793,1.324 -3.235,3.293 -0.066,0.305 -0.09,0.399 -0.32,0.399 -0.305,0 -0.305,-0.164 -0.305,-0.582 l 0,-3.067 c 0,-0.39 0,-0.554 0.254,-0.554 0.113,0 0.137,0.023 0.582,0.464 0.047,0.047 0.047,0.09 0.465,0.532 1.02,-0.973 2.07,-0.996 2.559,-0.996 2.664,0 3.73,1.558 3.73,3.222 0,1.235 -0.699,1.934 -0.973,2.211 -0.765,0.738 -1.671,0.93 -2.652,1.113 -1.293,0.254 -2.852,0.559 -2.852,1.903 0,0.812 0.602,1.761 2.598,1.761 2.555,0 2.672,-2.085 2.715,-2.808 0.031,-0.211 0.234,-0.211 0.285,-0.211 0.297,0 0.297,0.117 0.297,0.559 l 0,2.343 c 0,0.399 0,0.555 -0.25,0.555 -0.117,0 -0.164,0 -0.469,-0.273 -0.062,-0.094 -0.297,-0.297 -0.394,-0.372 -0.879,0.645 -1.836,0.645 -2.184,0.645 -2.828,0 -3.711,-1.551 -3.711,-2.852 0,-0.808 0.367,-1.461 0.996,-1.972 0.742,-0.602 1.399,-0.742 3.063,-1.063 z" /><path
         inkscape:connector-curvature="0"
         id="path250"
         style="fill:#000000;fill-opacity:1;fill-rule:evenodd;stroke:none"
         d="m 516.723,112.814 0.019,0.484 c 0.141,3.457 2.094,4.035 2.883,4.035 2.391,0 2.625,-3.129 2.625,-4.035 l -5.508,0 -0.019,-0.484 6.476,0 c 0.512,0 0.578,0 0.578,0.484 0,2.293 -1.254,4.543 -4.152,4.543 -2.691,0 -4.828,-2.383 -4.828,-5.293 0,-3.105 2.433,-5.355 5.105,-5.355 2.832,0 3.875,2.574 3.875,3.015 0,0.231 -0.183,0.281 -0.297,0.281 -0.214,0 -0.257,-0.14 -0.308,-0.324 -0.805,-2.39 -2.899,-2.39 -3.133,-2.39 -1.164,0 -2.086,0.695 -2.617,1.55 -0.699,1.114 -0.699,2.653 -0.699,3.489 z" /><path
         inkscape:connector-curvature="0"
         id="path252"
         style="fill:#000000;fill-opacity:1;fill-rule:evenodd;stroke:none"
         d="m 528.305,115.157 0,2.551 -3.227,-0.258 0,-0.722 c 1.625,0 1.813,-0.157 1.813,-1.293 l 0,-6.227 c 0,-1.039 -0.254,-1.039 -1.813,-1.039 l 0,-0.723 c 0.91,0.024 1.996,0.079 2.649,0.079 0.929,0 2.019,0 2.949,-0.079 l 0,0.723 -0.488,0 c -1.715,0 -1.766,0.254 -1.766,1.09 l 0,3.574 c 0,2.293 0.973,4.363 2.746,4.363 0.156,0 0.199,0 0.25,-0.023 -0.07,-0.02 -0.535,-0.301 -0.535,-0.902 0,-0.657 0.484,-0.996 1,-0.996 0.414,0 0.996,0.273 0.996,1.015 0,0.746 -0.715,1.418 -1.711,1.418 -1.699,0 -2.535,-1.551 -2.863,-2.551 z" /><path
         inkscape:connector-curvature="0"
         id="path254"
         style="fill:#000000;fill-opacity:1;fill-rule:evenodd;stroke:none"
         d="m 543.195,115.177 0.02,0.051 0.023,0.058 0.047,0.11 0.028,0.062 0.027,0.059 0.031,0.062 0.035,0.063 0.032,0.062 0.039,0.067 0.039,0.062 0.043,0.067 0.046,0.058 0.051,0.067 0.055,0.062 0.059,0.059 0.058,0.054 0.067,0.063 0.07,0.055 0.074,0.05 0.078,0.055 0.172,0.086 0.094,0.043 0.097,0.035 0.11,0.039 0.105,0.027 0.118,0.024 0.121,0.023 0.066,0.004 0.059,0.012 0.07,0.004 0.133,0.008 0.07,0 0,0.722 c -0.535,-0.047 -1.207,-0.066 -1.734,-0.066 -0.563,0 -1.633,0.043 -2.024,0.066 l 0,-0.722 c 0.856,-0.024 1.114,-0.555 1.114,-0.996 0,-0.204 -0.047,-0.297 -0.141,-0.555 l -2.367,-5.918 -2.598,6.473 c -0.137,0.308 -0.137,0.347 -0.137,0.402 0,0.594 0.899,0.594 1.321,0.594 l 0,0.722 c -0.696,-0.023 -2,-0.066 -2.532,-0.066 -0.625,0 -1.554,0.019 -2.246,0.066 l 0,-0.722 c 1.453,0 1.547,-0.141 1.856,-0.856 l 3.34,-8.234 c 0.14,-0.328 0.183,-0.445 0.488,-0.445 0.301,0 0.391,0.214 0.492,0.445 l 3.031,7.539 z" /><path
         inkscape:connector-curvature="0"
         id="path256"
         style="fill:#000000;fill-opacity:1;fill-rule:evenodd;stroke:none"
         d="m 547.691,112.814 0.024,0.484 c 0.14,3.457 2.086,4.035 2.883,4.035 2.386,0 2.617,-3.129 2.617,-4.035 l -5.5,0 -0.024,-0.484 6.481,0 c 0.508,0 0.574,0 0.574,0.484 0,2.293 -1.25,4.543 -4.148,4.543 -2.692,0 -4.836,-2.383 -4.836,-5.293 0,-3.105 2.441,-5.355 5.109,-5.355 2.836,0 3.875,2.574 3.875,3.015 0,0.231 -0.183,0.281 -0.301,0.281 -0.207,0 -0.25,-0.14 -0.3,-0.324 -0.813,-2.39 -2.899,-2.39 -3.133,-2.39 -1.164,0 -2.09,0.695 -2.621,1.55 -0.7,1.114 -0.7,2.653 -0.7,3.489 z" /><path
         inkscape:connector-curvature="0"
         id="path258"
         style="fill:#000000;fill-opacity:1;fill-rule:evenodd;stroke:none"
         d="m 559.273,115.157 0,2.551 -3.226,-0.258 0,-0.722 c 1.629,0 1.812,-0.157 1.812,-1.293 l 0,-6.227 c 0,-1.039 -0.254,-1.039 -1.812,-1.039 l 0,-0.723 c 0.91,0.024 1.996,0.079 2.652,0.079 0.922,0 2.02,0 2.949,-0.079 l 0,0.723 -0.488,0 c -1.719,0 -1.769,0.254 -1.769,1.09 l 0,3.574 c 0,2.293 0.976,4.363 2.742,4.363 0.164,0 0.207,0 0.258,-0.023 -0.075,-0.02 -0.543,-0.301 -0.543,-0.902 0,-0.657 0.492,-0.996 1.007,-0.996 0.415,0 0.997,0.273 0.997,1.015 0,0.746 -0.723,1.418 -1.719,1.418 -1.695,0 -2.535,-1.551 -2.86,-2.551 z" /><path
         inkscape:connector-curvature="0"
         id="path260"
         style="fill:#000000;fill-opacity:1;fill-rule:evenodd;stroke:none"
         d="m 640.871,113.017 0.524,0.527 -3.907,3.992 -3.929,-3.992 0.523,-0.527 3.406,2.996 3.383,-2.996 z" /><path
         inkscape:connector-curvature="0"
         id="path262"
         style="fill:#000000;fill-opacity:1;fill-rule:evenodd;stroke:none"
         d="m 638.75,103.958 3.434,3.817 c 0.39,0.418 0.562,0.617 3.007,0.617 l 0,1.379 c -1.031,-0.063 -2.562,-0.086 -2.711,-0.086 -0.738,0 -2.199,0.062 -3.015,0.086 l 0,-1.379 c 0.398,0 0.758,-0.063 1.113,-0.266 -0.125,-0.176 -0.125,-0.226 -0.242,-0.351 l -2.457,-2.758 -2.883,3.375 1.18,0 0,1.379 c -0.766,-0.024 -2.617,-0.086 -3.555,-0.086 -0.941,0 -2.269,0.062 -3.234,0.086 l 0,-1.379 2.082,0 4.59,-5.403 -3.856,-4.32 c -0.496,-0.551 -1.555,-0.551 -2.965,-0.551 l 0,-1.379 c 1.032,0.051 2.567,0.094 2.7,0.094 0.738,0 2.441,-0.066 3.031,-0.094 l 0,1.379 c -0.528,0 -1.086,0.145 -1.086,0.325 0,0.027 0,0.05 0.199,0.292 l 2.859,3.196 3.219,-3.813 -1.14,0 0,-1.379 c 0.761,0.028 2.546,0.094 3.523,0.094 0.937,0 2.258,-0.066 3.227,-0.094 l 0,1.379 -2.082,0 -4.938,5.84 z" /><path
         inkscape:connector-curvature="0"
         id="path264"
         style="fill:#000000;fill-opacity:1;fill-rule:evenodd;stroke:none"
         d="m 670.02,281.896 0.039,0.07 0.035,0.066 0.023,0.036 0.016,0.027 0.023,0.027 0.02,0.028 0.027,0.031 0.024,0.027 0.035,0.02 0.031,0.023 0.035,0.024 0.039,0.023 0.043,0.02 0.051,0.019 0.051,0.016 0.054,0.015 0.063,0.016 0.074,0.012 0.07,0.019 0.079,0.008 0.046,0.008 0.043,0.004 0.047,0.008 0.051,0.003 0.047,0 0.051,0.008 0.058,0.004 0.055,0 0.055,0.004 0.062,0 0.063,0.008 0.058,0 0.067,0.004 0.14,0 0.075,0.008 0.312,0 0,1.304 c -0.664,-0.058 -1.504,-0.082 -2.199,-0.082 -0.688,0 -1.945,0.063 -2.531,0.082 l 0,-1.304 c 0.062,0 1.304,0 1.304,-0.332 0,-0.04 -0.109,-0.305 -0.136,-0.34 l -3.192,-6.84 -3.535,7.512 1.504,0 0,1.304 c -0.922,-0.058 -3.426,-0.082 -3.457,-0.082 -0.777,0 -2.027,0.063 -3.168,0.082 l 0,-1.304 1.777,0 5.203,-11.051 -0.636,-1.332 c -0.614,-1.336 -1.5,-3.231 -3.485,-3.231 -0.386,0 -0.445,0.024 -0.664,0.114 0.246,0.109 0.895,0.496 0.895,1.472 0,0.918 -0.676,1.586 -1.617,1.586 -0.774,0 -1.59,-0.527 -1.59,-1.613 0,-1.418 1.312,-2.563 2.976,-2.563 2.145,0 3.766,1.727 4.512,3.317 l 5.977,12.715 z" /><path
         inkscape:connector-curvature="0"
         id="path266"
         style="fill:#000000;fill-opacity:1;fill-rule:evenodd;stroke:none"
         d="m 377.629,272.275 0,-2.172 4.922,0.168 0,1.304 c -1.727,0 -1.922,0 -1.922,1.086 l 0,10.129 -5.094,-0.226 0,-1.309 c 1.727,0 1.914,0 1.914,-1.082 l 0,-5.313 c 0,-2.277 -1.41,-3.753 -3.445,-3.753 -2.137,0 -2.223,0.687 -2.223,2.203 l 0,9.48 -5.097,-0.226 0,-1.309 c 1.73,0 1.918,0 1.918,-1.082 l 0,-6.484 c 0,-2.973 2.265,-3.586 5.011,-3.586 0.727,0 2.731,0 4.016,2.172 z" /><path
         inkscape:connector-curvature="0"
         id="path268"
         style="fill:#000000;fill-opacity:1;fill-rule:evenodd;stroke:none"
         d="m 21.68,281.22 0,3.137 -4.617,-0.227 0,-1.309 c 1.73,0 1.917,0 1.917,-1.082 l 0,-8.597 -1.917,0 0,-1.305 c 0.976,0.027 2.226,0.09 3.507,0.09 1.055,0 2.836,0 3.84,-0.09 l 0,1.305 -2.422,0 0,4.871 c 0,1.949 0.696,5.34 3.481,5.34 -0.031,-0.024 -0.531,-0.469 -0.531,-1.278 0,-1.136 0.886,-1.695 1.695,-1.695 0.805,0 1.695,0.582 1.695,1.695 0,1.473 -1.5,2.282 -2.949,2.282 -1.945,0 -3.055,-1.395 -3.699,-3.137 z" /><g
         transform="matrix(0.89285529,0,0,-0.89285521,346.28044,695.53896)"
         id="g4524"><g
           style="font-style:normal;font-variant:normal;font-weight:normal;font-stretch:normal;letter-spacing:normal;word-spacing:normal;text-anchor:start;fill:none;fill-opacity:1;fill-rule:evenodd;stroke:#000000;stroke-width:1.12000239;stroke-linecap:butt;stroke-linejoin:miter;stroke-miterlimit:10.43299961;stroke-dasharray:none;stroke-dashoffset:0;stroke-opacity:1"
           word-spacing="normal"
           letter-spacing="normal"
           font-size-adjust="none"
           font-stretch="normal"
           font-weight="normal"
           font-variant="normal"
           font-style="normal"
           stroke-miterlimit="10.433"
           xml:space="preserve"
           transform="matrix(0.52736664,0,0,-0.52736664,-92.289163,697.55127)"
           id="content"><path
             style="fill:#000000;stroke-width:0"
             inkscape:connector-curvature="0"
             id="path4527"
             d="m 475.35,440.87 -0.03,0.06 -0.02,0.06 -0.02,0.06 -0.02,0.05 -0.02,0.06 -0.02,0.05 -0.02,0.05 -0.02,0.04 -0.03,0.05 -0.02,0.04 -0.02,0.05 -0.02,0.04 -0.03,0.03 -0.02,0.04 -0.03,0.03 -0.03,0.04 -0.03,0.03 -0.03,0.03 -0.03,0.02 -0.04,0.03 -0.04,0.02 -0.04,0.02 -0.04,0.02 -0.04,0.02 -0.05,0.01 -0.05,0.01 -0.06,0.02 -0.06,0 -0.06,0.01 -0.06,0.01 -0.07,0 -0.04,0 -0.03,0 c -0.8,0 -0.96,-0.3 -1.21,-1 l -10.31,-29.8 c -0.89,-2.53 -2.89,-3.28 -5.58,-3.32 l 0,-1.55 c 1.14,0.05 3.28,0.16 5.08,0.16 1.55,0 4.14,-0.11 5.74,-0.16 l 0,1.55 c -2.49,0 -3.74,1.25 -3.74,2.53 0,0.15 0.05,0.65 0.1,0.75 l 2.29,6.53 0.55,1.55 5.58,16.18 5.62,-16.18 -11.2,0 -0.55,-1.55 12.3,0 2.64,-7.63 c 0.06,-0.2 0.16,-0.5 0.16,-0.68 0,-1.5 -2.8,-1.5 -4.14,-1.5 l 0,-1.55 c 1.79,0.16 5.28,0.16 7.18,0.16 2.14,0 4.42,-0.07 6.52,-0.16 l 0,1.55 -0.89,0 c -3,0 -3.69,0.34 -4.24,1.98 z" /><path
             style="fill:#000000;stroke-width:0"
             inkscape:connector-curvature="0"
             id="path4529"
             d="m 500.02,426.12 7.12,0 0,1.55 -7.12,0 0,9.17 -1.25,0 c -0.05,-4.08 -1.55,-9.42 -6.42,-9.61 l 0,-1.11 4.23,0 0,-13.75 c 0,-6.12 4.63,-6.72 6.42,-6.72 3.54,0 4.94,3.53 4.94,6.72 l 0,2.84 -1.25,0 0,-2.73 c 0,-3.69 -1.5,-5.58 -3.34,-5.58 -3.33,0 -3.33,4.53 -3.33,5.38 z" /><path
             style="fill:#000000;stroke-width:0"
             inkscape:connector-curvature="0"
             id="path4531"
             d="m 519.34,426.12 7.12,0 0,1.55 -7.12,0 0,9.17 -1.25,0 c -0.05,-4.08 -1.55,-9.42 -6.43,-9.61 l 0,-1.11 4.24,0 0,-13.75 c 0,-6.12 4.62,-6.72 6.42,-6.72 3.53,0 4.94,3.53 4.94,6.72 l 0,2.84 -1.25,0 0,-2.73 c 0,-3.69 -1.5,-5.58 -3.35,-5.58 -3.32,0 -3.32,4.53 -3.32,5.38 z" /><path
             style="fill:#000000;stroke-width:0"
             inkscape:connector-curvature="0"
             id="path4533"
             d="m 538.84,428.21 -6.97,-0.54 0,-1.55 c 3.23,0 3.69,-0.3 3.69,-2.73 l 0,-13.41 c 0,-2.23 -0.55,-2.23 -3.89,-2.23 l 0,-1.55 c 1.59,0.05 4.28,0.16 5.48,0.16 1.75,0 3.49,-0.11 5.19,-0.16 l 0,1.55 c -3.3,0 -3.5,0.25 -3.5,2.18 z" /><path
             style="fill:#000000;stroke-width:0"
             inkscape:connector-curvature="0"
             id="path4535"
             d="m 539.04,436.89 0,0.14 -0.01,0.15 -0.02,0.14 -0.02,0.14 -0.03,0.13 -0.04,0.13 -0.04,0.13 -0.05,0.12 -0.06,0.12 -0.06,0.12 -0.07,0.11 -0.07,0.1 -0.07,0.1 -0.08,0.1 -0.09,0.1 -0.09,0.08 -0.09,0.09 -0.1,0.08 -0.1,0.07 -0.1,0.07 -0.11,0.07 -0.11,0.06 -0.11,0.05 -0.12,0.05 -0.12,0.04 -0.12,0.04 -0.12,0.03 -0.13,0.03 -0.12,0.02 -0.13,0.01 -0.13,0.01 -0.13,0.01 c -1.55,0 -2.64,-1.35 -2.64,-2.64 0,-1.35 1.09,-2.64 2.64,-2.64 1.39,0 2.64,1.04 2.64,2.64 z" /><path
             style="fill:#000000;stroke-width:0"
             inkscape:connector-curvature="0"
             id="path4537"
             d="m 552.45,426.12 7.12,0 0,1.55 -7.12,0 0,9.17 -1.25,0 c -0.05,-4.08 -1.55,-9.42 -6.42,-9.61 l 0,-1.11 4.23,0 0,-13.75 c 0,-6.12 4.63,-6.72 6.42,-6.72 3.54,0 4.94,3.53 4.94,6.72 l 0,2.84 -1.25,0 0,-2.73 c 0,-3.69 -1.5,-5.58 -3.34,-5.58 -3.33,0 -3.33,4.53 -3.33,5.38 z" /><path
             style="fill:#000000;stroke-width:0"
             inkscape:connector-curvature="0"
             id="path4539"
             d="m 582.63,410.14 0,-4.49 7.17,0.55 0,1.55 c -3.49,0 -3.89,0.34 -3.89,2.78 l 0,17.68 -7.33,-0.54 0,-1.55 c 3.5,0 3.89,-0.34 3.89,-2.78 l 0,-8.88 c 0,-4.32 -2.39,-7.71 -6.03,-7.71 -4.17,0 -4.38,2.34 -4.38,4.93 l 0,16.53 -7.33,-0.54 0,-1.55 c 3.9,0 3.9,-0.14 3.9,-4.58 l 0,-7.47 c 0,-3.89 0,-8.42 7.56,-8.42 2.79,0 4.98,1.39 6.44,4.49 z" /><path
             style="fill:#000000;stroke-width:0"
             inkscape:connector-curvature="0"
             id="path4541"
             d="m 609.8,408.93 0,-3.28 7.31,0.55 0,1.55 c -3.48,0 -3.88,0.34 -3.88,2.78 l 0,30.25 -7.17,-0.55 0,-1.55 c 3.49,0 3.88,-0.34 3.88,-2.79 l 0,-10.75 c -1.44,1.78 -3.58,3.07 -6.28,3.07 l 0.2,-1.09 c 1.75,0 3.84,-0.75 5.39,-2.98 0.55,-0.85 0.55,-0.96 0.55,-1.85 l 0,0 0,-10.22 c 0,-0.89 0,-1 -0.55,-1.84 -1.5,-2.39 -3.75,-3.48 -5.89,-3.48 -2.23,0 -4.03,1.29 -5.22,3.18 -1.3,2.05 -1.45,4.89 -1.45,6.93 0,1.84 0.09,4.84 1.54,7.07 1.05,1.55 2.94,3.19 5.63,3.19 l -0.2,1.09 c -5.88,0 -11.11,-4.87 -11.11,-11.29 0,-6.33 4.89,-11.27 10.56,-11.27 3.19,0 5.44,1.69 6.69,3.28 z" /><path
             style="fill:#000000;stroke-width:0"
             inkscape:connector-curvature="0"
             id="path4543"
             d="m 624.11,417.71 0.05,1.05 c 0.29,7.42 4.48,8.66 6.18,8.66 5.13,0 5.63,-6.72 5.63,-8.66 l -11.81,0 -0.05,-1.05 13.91,0 c 1.09,0 1.23,0 1.23,1.05 0,4.92 -2.69,9.75 -8.91,9.75 -5.78,0 -10.37,-5.12 -10.37,-11.36 0,-6.67 5.23,-11.5 10.97,-11.5 6.08,0 8.31,5.53 8.31,6.47 0,0.5 -0.39,0.61 -0.64,0.61 -0.45,0 -0.55,-0.3 -0.66,-0.7 -1.73,-5.13 -6.22,-5.13 -6.72,-5.13 -2.5,0 -4.48,1.49 -5.62,3.33 -1.5,2.39 -1.5,5.69 -1.5,7.48 z" /></g></g><g
         transform="matrix(0.84153761,0,0,-0.84153757,365.99005,650.36341)"
         id="g4821"><g
           style="font-style:normal;font-variant:normal;font-weight:normal;font-stretch:normal;letter-spacing:normal;word-spacing:normal;text-anchor:start;fill:none;fill-opacity:1;fill-rule:evenodd;stroke:#000000;stroke-width:1.18830109;stroke-linecap:butt;stroke-linejoin:miter;stroke-miterlimit:10.43299961;stroke-dasharray:none;stroke-dashoffset:0;stroke-opacity:1"
           id="g4823"
           transform="matrix(0.52736664,0,0,-0.52736664,-92.289163,697.55127)"
           xml:space="preserve"
           stroke-miterlimit="10.433"
           font-style="normal"
           font-variant="normal"
           font-weight="normal"
           font-stretch="normal"
           font-size-adjust="none"
           letter-spacing="normal"
           word-spacing="normal"><path
             style="fill:#000000;stroke-width:0"
             inkscape:connector-curvature="0"
             d="m 467.52,439.14 -0.02,0.05 -0.02,0.05 -0.02,0.04 -0.02,0.05 -0.04,0.09 -0.03,0.08 -0.04,0.07 -0.03,0.07 -0.04,0.07 -0.04,0.06 -0.03,0.05 -0.04,0.05 -0.03,0.05 -0.04,0.04 -0.04,0.04 -0.04,0.04 -0.04,0.03 -0.04,0.02 -0.05,0.03 -0.05,0.02 -0.05,0.02 -0.05,0.01 -0.06,0.02 -0.06,0.01 -0.06,0.01 -0.06,0 -0.07,0.01 -0.08,0 -0.08,0.01 -0.08,0 -0.09,0 -0.09,0 -0.1,0 -0.1,0 -8.43,0 0,-1.55 1.21,0 c 3.82,0 3.92,-0.54 3.92,-2.34 l 0,-24.91 c 0,-1.34 0,-3.68 -5.13,-3.68 l 0,-1.55 c 1.75,0.05 4.19,0.16 5.83,0.16 1.64,0 4.1,-0.11 5.83,-0.16 l 0,1.55 c -5.13,0 -5.13,2.34 -5.13,3.68 l 0,26.85 0.05,0 12,-30.99 c 0.25,-0.64 0.5,-1.09 1,-1.09 0.55,0 0.7,0.41 0.89,0.95 l 12.27,31.53 0.04,0 0,-28.59 c 0,-1.8 -0.09,-2.34 -3.93,-2.34 l -1.19,0 0,-1.55 c 1.84,0.16 5.22,0.16 7.17,0.16 1.94,0 5.28,0 7.13,-0.16 l 0,1.55 -1.21,0 c -3.82,0 -3.93,0.54 -3.93,2.34 l 0,26.25 c 0,1.8 0.11,2.34 3.93,2.34 l 1.21,0 0,1.55 -8.43,0 c -1.29,0 -1.29,-0.05 -1.64,-0.95 l -10.92,-28.05 z"
             id="path4825" /><path
             style="fill:#000000;stroke-width:0"
             inkscape:connector-curvature="0"
             d="m 524.71,416.86 -0.02,0.59 -0.04,0.59 -0.07,0.58 -0.1,0.57 -0.12,0.56 -0.15,0.55 -0.18,0.54 -0.2,0.53 -0.22,0.51 -0.24,0.5 -0.27,0.49 -0.29,0.47 -0.31,0.46 -0.33,0.44 -0.34,0.43 -0.37,0.4 -0.38,0.39 -0.4,0.37 -0.42,0.35 -0.43,0.32 -0.45,0.31 -0.46,0.28 -0.48,0.26 -0.48,0.24 -0.5,0.21 -0.51,0.18 -0.52,0.16 -0.53,0.13 -0.54,0.11 -0.55,0.07 -0.56,0.05 -0.56,0.01 -0.04,-1.09 c 2.18,0 4.32,-1.1 5.62,-3.24 1.3,-2.14 1.3,-5.03 1.3,-6.92 0,-1.8 0,-4.48 -1.1,-6.67 -1.09,-2.25 -3.28,-3.69 -5.78,-3.69 l 0,0 c -2.14,0 -4.33,1.05 -5.67,3.33 -1.25,2.2 -1.25,5.23 -1.25,7.03 0,1.94 0,4.63 1.19,6.83 1.36,2.28 3.68,3.33 5.69,3.33 l 0.04,1.09 c -6.22,0 -11.06,-5.42 -11.06,-11.65 0,-6.43 5.19,-11.21 11.02,-11.21 6.03,0 11.06,4.88 11.06,11.21 z"
             id="path4827" /><path
             style="fill:#000000;stroke-width:0"
             inkscape:connector-curvature="0"
             d="m 546.57,408.93 0,-3.28 7.32,0.55 0,1.55 c -3.49,0 -3.88,0.34 -3.88,2.78 l 0,30.25 -7.17,-0.55 0,-1.55 c 3.48,0 3.88,-0.34 3.88,-2.79 l 0,-10.75 c -1.44,1.78 -3.58,3.07 -6.29,3.07 l 0.21,-1.09 c 1.75,0 3.84,-0.75 5.39,-2.98 0.54,-0.85 0.54,-0.96 0.54,-1.85 l 0,0 0,-10.22 c 0,-0.89 0,-1 -0.54,-1.84 -1.5,-2.39 -3.75,-3.48 -5.89,-3.48 -2.24,0 -4.04,1.29 -5.22,3.18 -1.3,2.05 -1.45,4.89 -1.45,6.93 0,1.84 0.09,4.84 1.54,7.07 1.05,1.55 2.94,3.19 5.63,3.19 l -0.21,1.09 c -5.87,0 -11.11,-4.87 -11.11,-11.29 0,-6.33 4.9,-11.27 10.57,-11.27 3.18,0 5.43,1.69 6.68,3.28 z"
             id="path4829" /><path
             style="fill:#000000;stroke-width:0"
             inkscape:connector-curvature="0"
             d="m 560.89,417.71 0.04,1.05 c 0.3,7.42 4.49,8.66 6.19,8.66 5.13,0 5.63,-6.72 5.63,-8.66 l -11.82,0 -0.04,-1.05 13.9,0 c 1.1,0 1.24,0 1.24,1.05 0,4.92 -2.69,9.75 -8.91,9.75 -5.78,0 -10.37,-5.12 -10.37,-11.36 0,-6.67 5.23,-11.5 10.97,-11.5 6.07,0 8.31,5.53 8.31,6.47 0,0.5 -0.39,0.61 -0.64,0.61 -0.46,0 -0.55,-0.3 -0.66,-0.7 -1.73,-5.13 -6.22,-5.13 -6.72,-5.13 -2.5,0 -4.48,1.49 -5.62,3.33 -1.5,2.39 -1.5,5.69 -1.5,7.48 z"
             id="path4831" /><path
             style="fill:#000000;stroke-width:0"
             inkscape:connector-curvature="0"
             d="m 586.25,440.78 -7.18,-0.55 0,-1.55 c 3.49,0 3.9,-0.34 3.9,-2.79 l 0,-25.91 c 0,-2.23 -0.55,-2.23 -3.9,-2.23 l 0,-1.55 c 1.65,0.05 4.28,0.16 5.53,0.16 1.25,0 3.69,-0.11 5.54,-0.16 l 0,1.55 c -3.35,0 -3.89,0 -3.89,2.23 z"
             id="path4833" /></g></g><g
         id="g5191"
         transform="matrix(0.64303576,0,0,-0.64303568,552.82734,407.96915)"><g
           word-spacing="normal"
           letter-spacing="normal"
           font-size-adjust="none"
           font-stretch="normal"
           font-weight="normal"
           font-variant="normal"
           font-style="normal"
           stroke-miterlimit="10.433"
           xml:space="preserve"
           transform="matrix(0.52736664,0,0,-0.52736664,-92.289163,697.55127)"
           id="g5193"
           style="font-style:normal;font-variant:normal;font-weight:normal;font-stretch:normal;letter-spacing:normal;word-spacing:normal;text-anchor:start;fill:none;fill-opacity:1;fill-rule:evenodd;stroke:#000000;stroke-width:1.55512357;stroke-linecap:butt;stroke-linejoin:miter;stroke-miterlimit:10.43299961;stroke-dasharray:none;stroke-dashoffset:0;stroke-opacity:1"><path
             id="path5195"
             d="m 473.96,404.48 0,1.25 -3.88,0 0,15.55 c 0,0.72 0,0.97 -0.76,0.97 -0.43,0 -0.57,0 -0.91,-0.49 l -11.53,-16.03 0,-1.25 10.25,0 0.23,1.25 -9.2,0 9.2,12.75 0,-12.75 -0.23,-1.25 0,-2.86 c 0,-1.19 0,-1.61 -2.83,-1.61 l -0.94,0 0,-1.25 c 1.74,0.06 3.97,0.14 5.22,0.14 1.3,0 3.52,-0.08 5.27,-0.14 l 0,1.25 -0.94,0 c -2.83,0 -2.83,0.42 -2.83,1.61 l 0,2.86 z"
             inkscape:connector-curvature="0"
             style="fill:#000000;stroke-width:0" /><path
             id="path5197"
             d="m 482.94,411.76 0,0.11 -0.01,0.12 -0.01,0.1 -0.02,0.11 -0.03,0.1 -0.03,0.1 -0.03,0.1 -0.04,0.09 -0.04,0.09 -0.04,0.09 -0.05,0.08 -0.06,0.08 -0.06,0.08 -0.06,0.08 -0.06,0.07 -0.07,0.07 -0.07,0.06 -0.07,0.06 -0.08,0.06 -0.08,0.05 -0.08,0.05 -0.08,0.04 -0.09,0.05 -0.08,0.03 -0.09,0.04 -0.09,0.03 -0.09,0.02 -0.1,0.02 -0.09,0.02 -0.09,0.01 -0.1,0 -0.09,0.01 c -1.22,0 -2.02,-0.97 -2.02,-1.99 0,-1.22 0.97,-2.01 1.99,-2.01 1.21,0 2.01,0.97 2.01,1.98 z"
             inkscape:connector-curvature="0"
             style="fill:#000000;stroke-width:0" /><path
             id="path5199"
             d="m 482.94,400.75 0,0.11 -0.01,0.11 -0.01,0.11 -0.02,0.1 -0.03,0.11 -0.03,0.09 -0.03,0.1 -0.04,0.1 -0.04,0.09 -0.04,0.08 -0.05,0.09 -0.06,0.08 -0.06,0.08 -0.06,0.07 -0.06,0.07 -0.07,0.07 -0.07,0.07 -0.07,0.06 -0.08,0.05 -0.08,0.06 -0.08,0.04 -0.08,0.05 -0.09,0.04 -0.08,0.04 -0.09,0.03 -0.09,0.03 -0.09,0.03 -0.1,0.02 -0.09,0.01 -0.09,0.01 -0.1,0.01 -0.09,0 c -1.22,0 -2.02,-0.97 -2.02,-1.98 0,-1.22 0.97,-2.02 1.99,-2.02 1.21,0 2.01,0.97 2.01,1.99 z"
             inkscape:connector-curvature="0"
             style="fill:#000000;stroke-width:0" /><path
             id="path5201"
             d="m 491.83,410.15 0,0.53 0.01,0.53 0.02,0.52 0.03,0.51 0.03,0.51 0.05,0.49 0.06,0.49 0.08,0.48 0.09,0.47 0.11,0.46 0.13,0.46 0.15,0.44 0.08,0.22 0.08,0.21 0.1,0.22 0.09,0.21 0.11,0.21 0.1,0.2 0.12,0.2 0.12,0.2 c 1.19,1.9 3.06,3.18 5.3,3.18 1.04,0 2.44,-0.28 3.14,-1.22 -0.88,-0.06 -1.61,-0.66 -1.61,-1.67 0,-0.88 0.59,-1.64 1.64,-1.64 1.05,0 1.67,0.7 1.67,1.7 0,2.03 -1.47,3.84 -4.92,3.84 -5.02,0 -10.14,-4.61 -10.14,-12.09 0,-9.03 4.25,-11.75 8.09,-11.75 4.25,0 7.94,3.25 7.94,7.81 0,4.42 -3.52,7.7 -7.59,7.7 l -0.18,-0.98 c 1.61,0 2.69,-0.63 3.55,-1.91 0.85,-1.32 0.88,-2.79 0.88,-4.81 0,-1.98 0,-3.45 -0.94,-4.81 -0.84,-1.22 -1.95,-1.88 -3.66,-1.88 l 0,0 c -1.75,0 -3.11,1 -3.84,2.55 -0.52,1.03 -0.8,2.78 -0.8,4.88 0,3.37 2.03,5.98 4.81,5.98 l 0.18,0.98 c -2.78,0 -4.32,-1.84 -5.08,-3.42 z"
             inkscape:connector-curvature="0"
             style="fill:#000000;stroke-width:0" /></g></g></g></g></svg>