<?xml version="1.0" encoding="UTF-8" standalone="no"?>
<!-- Created with Inkscape (http://www.inkscape.org/) -->

<svg
   xmlns:dc="http://purl.org/dc/elements/1.1/"
   xmlns:cc="http://creativecommons.org/ns#"
   xmlns:rdf="http://www.w3.org/1999/02/22-rdf-syntax-ns#"
   xmlns:svg="http://www.w3.org/2000/svg"
   xmlns="http://www.w3.org/2000/svg"
   xmlns:sodipodi="http://sodipodi.sourceforge.net/DTD/sodipodi-0.dtd"
   xmlns:inkscape="http://www.inkscape.org/namespaces/inkscape"
   id="svg2"
   version="1.1"
   inkscape:version="0.91 r13725"
   xml:space="preserve"
   width="766.07098"
   height="720.74371"
   viewBox="0 0 766.07098 720.74371"
   sodipodi:docname="droneDiagramforcesuptiltedwithdecomposition.svg"><sodipodi:namedview
     pagecolor="#ffffff"
     bordercolor="#666666"
     borderopacity="1"
     objecttolerance="10"
     gridtolerance="10"
     guidetolerance="10"
     inkscape:pageopacity="0"
     inkscape:pageshadow="2"
     inkscape:window-width="1366"
     inkscape:window-height="705"
     id="namedview4"
     showgrid="false"
     inkscape:zoom="1.4142136"
     inkscape:cx="352.17636"
     inkscape:cy="347.69041"
     inkscape:window-x="-8"
     inkscape:window-y="-8"
     inkscape:window-maximized="1"
     inkscape:current-layer="g10" /><metadata
     id="metadata8"><rdf:RDF><cc:Work
         rdf:about=""><dc:format>image/svg+xml</dc:format><dc:type
           rdf:resource="http://purl.org/dc/dcmitype/StillImage" /><dc:title></dc:title></cc:Work></rdf:RDF></metadata><defs
     id="defs6"><marker
       inkscape:stockid="Arrow2Lend"
       orient="auto"
       refY="0.0"
       refX="0.0"
       id="Arrow2Lend"
       style="overflow:visible;"
       inkscape:isstock="true"><path
         id="path4484"
         style="fill-rule:evenodd;stroke-width:0.625;stroke-linejoin:round;stroke:#ff0000;stroke-opacity:1;fill:#ff0000;fill-opacity:1"
         d="M 8.7185878,4.0337352 L -2.2072895,0.016013256 L 8.7185884,-4.0017078 C 6.9730900,-1.6296469 6.9831476,1.6157441 8.7185878,4.0337352 z "
         transform="scale(1.1) rotate(180) translate(1,0)" /></marker><marker
       inkscape:isstock="true"
       style="overflow:visible;"
       id="marker8429"
       refX="0.0"
       refY="0.0"
       orient="auto"
       inkscape:stockid="Arrow2Mend"><path
         transform="scale(0.6) rotate(180) translate(0,0)"
         d="M 8.7185878,4.0337352 L -2.2072895,0.016013256 L 8.7185884,-4.0017078 C 6.9730900,-1.6296469 6.9831476,1.6157441 8.7185878,4.0337352 z "
         style="fill-rule:evenodd;stroke-width:0.625;stroke-linejoin:round;stroke:#ff0000;stroke-opacity:1;fill:#ff0000;fill-opacity:1"
         id="path8431" /></marker><marker
       inkscape:stockid="Arrow2Lstart"
       orient="auto"
       refY="0.0"
       refX="0.0"
       id="Arrow2Lstart"
       style="overflow:visible"
       inkscape:isstock="true"><path
         id="path5184"
         style="fill-rule:evenodd;stroke-width:0.62500000;stroke-linejoin:round"
         d="M 8.7185878,4.0337352 L -2.2072895,0.016013256 L 8.7185884,-4.0017078 C 6.9730900,-1.6296469 6.9831476,1.6157441 8.7185878,4.0337352 z "
         transform="scale(1.1) translate(1,0)" /></marker><marker
       inkscape:isstock="true"
       style="overflow:visible;"
       id="marker8068"
       refX="0.0"
       refY="0.0"
       orient="auto"
       inkscape:stockid="Arrow2Mend"><path
         transform="scale(0.6) rotate(180) translate(0,0)"
         d="M 8.7185878,4.0337352 L -2.2072895,0.016013256 L 8.7185884,-4.0017078 C 6.9730900,-1.6296469 6.9831476,1.6157441 8.7185878,4.0337352 z "
         style="fill-rule:evenodd;stroke-width:0.625;stroke-linejoin:round;stroke:#ff0000;stroke-opacity:1;fill:#ff0000;fill-opacity:1"
         id="path8070" /></marker><marker
       inkscape:isstock="true"
       style="overflow:visible;"
       id="marker8058"
       refX="0.0"
       refY="0.0"
       orient="auto"
       inkscape:stockid="Arrow2Mend"><path
         transform="scale(0.6) rotate(180) translate(0,0)"
         d="M 8.7185878,4.0337352 L -2.2072895,0.016013256 L 8.7185884,-4.0017078 C 6.9730900,-1.6296469 6.9831476,1.6157441 8.7185878,4.0337352 z "
         style="fill-rule:evenodd;stroke-width:0.625;stroke-linejoin:round;stroke:#ff0000;stroke-opacity:1;fill:#ff0000;fill-opacity:1"
         id="path8060" /></marker><marker
       inkscape:isstock="true"
       style="overflow:visible"
       id="marker7988"
       refX="0.0"
       refY="0.0"
       orient="auto"
       inkscape:stockid="Arrow2Lstart"><path
         transform="scale(1.1) translate(1,0)"
         d="M 8.7185878,4.0337352 L -2.2072895,0.016013256 L 8.7185884,-4.0017078 C 6.9730900,-1.6296469 6.9831476,1.6157441 8.7185878,4.0337352 z "
         style="fill-rule:evenodd;stroke-width:0.625;stroke-linejoin:round;stroke:#ff0000;stroke-opacity:1;fill:#ff0000;fill-opacity:1"
         id="path7990" /></marker><marker
       inkscape:isstock="true"
       style="overflow:visible"
       id="marker7978"
       refX="0.0"
       refY="0.0"
       orient="auto"
       inkscape:stockid="Arrow2Lstart"><path
         transform="scale(1.1) translate(1,0)"
         d="M 8.7185878,4.0337352 L -2.2072895,0.016013256 L 8.7185884,-4.0017078 C 6.9730900,-1.6296469 6.9831476,1.6157441 8.7185878,4.0337352 z "
         style="fill-rule:evenodd;stroke-width:0.625;stroke-linejoin:round;stroke:#ff0000;stroke-opacity:1;fill:#ff0000;fill-opacity:1"
         id="path7980" /></marker><marker
       inkscape:stockid="Arrow2Lstart"
       orient="auto"
       refY="0.0"
       refX="0.0"
       id="marker6659"
       style="overflow:visible"
       inkscape:isstock="true"><path
         id="path6661"
         style="fill-rule:evenodd;stroke-width:0.625;stroke-linejoin:round;stroke:#ff0000;stroke-opacity:1;fill:#ff0000;fill-opacity:1"
         d="M 8.7185878,4.0337352 L -2.2072895,0.016013256 L 8.7185884,-4.0017078 C 6.9730900,-1.6296469 6.9831476,1.6157441 8.7185878,4.0337352 z "
         transform="scale(1.1) translate(1,0)" /></marker><marker
       inkscape:stockid="Arrow1Mstart"
       orient="auto"
       refY="0.0"
       refX="0.0"
       id="marker6038"
       style="overflow:visible"
       inkscape:isstock="true"><path
         id="path6040"
         d="M 0.0,0.0 L 5.0,-5.0 L -12.5,0.0 L 5.0,5.0 L 0.0,0.0 z "
         style="fill-rule:evenodd;stroke:#ff0000;stroke-width:1pt;stroke-opacity:1;fill:#ff0000;fill-opacity:1"
         transform="scale(0.4) translate(10,0)" /></marker><marker
       inkscape:stockid="Arrow1Mstart"
       orient="auto"
       refY="0.0"
       refX="0.0"
       id="marker6028"
       style="overflow:visible"
       inkscape:isstock="true"><path
         id="path6030"
         d="M 0.0,0.0 L 5.0,-5.0 L -12.5,0.0 L 5.0,5.0 L 0.0,0.0 z "
         style="fill-rule:evenodd;stroke:#ff0000;stroke-width:1pt;stroke-opacity:1;fill:#ff0000;fill-opacity:1"
         transform="scale(0.4) translate(10,0)" /></marker><marker
       inkscape:isstock="true"
       style="overflow:visible"
       id="marker5804"
       refX="0.0"
       refY="0.0"
       orient="auto"
       inkscape:stockid="Arrow2Lstart"><path
         transform="scale(1.1) translate(1,0)"
         d="M 8.7185878,4.0337352 L -2.2072895,0.016013256 L 8.7185884,-4.0017078 C 6.9730900,-1.6296469 6.9831476,1.6157441 8.7185878,4.0337352 z "
         style="fill-rule:evenodd;stroke-width:0.625;stroke-linejoin:round;stroke:#ff00ff;stroke-opacity:1;fill:#ff00ff;fill-opacity:1"
         id="path5806" /></marker><marker
       inkscape:isstock="true"
       style="overflow:visible"
       id="marker5746"
       refX="0.0"
       refY="0.0"
       orient="auto"
       inkscape:stockid="Arrow1Sstart"><path
         transform="scale(0.2) translate(6,0)"
         style="fill-rule:evenodd;stroke:#ff00ff;stroke-width:1pt;stroke-opacity:1;fill:#ff00ff;fill-opacity:1"
         d="M 0.0,0.0 L 5.0,-5.0 L -12.5,0.0 L 5.0,5.0 L 0.0,0.0 z "
         id="path5748" /></marker><marker
       inkscape:isstock="true"
       style="overflow:visible"
       id="marker5736"
       refX="0.0"
       refY="0.0"
       orient="auto"
       inkscape:stockid="Arrow1Sstart"><path
         transform="scale(0.2) translate(6,0)"
         style="fill-rule:evenodd;stroke:#ff00ff;stroke-width:1pt;stroke-opacity:1;fill:#ff00ff;fill-opacity:1"
         d="M 0.0,0.0 L 5.0,-5.0 L -12.5,0.0 L 5.0,5.0 L 0.0,0.0 z "
         id="path5738" /></marker><marker
       inkscape:isstock="true"
       style="overflow:visible"
       id="marker5542"
       refX="0.0"
       refY="0.0"
       orient="auto"
       inkscape:stockid="Arrow1Mstart"><path
         transform="scale(0.4) translate(10,0)"
         style="fill-rule:evenodd;stroke:#ff00ff;stroke-width:1pt;stroke-opacity:1;fill:#ff00ff;fill-opacity:1"
         d="M 0.0,0.0 L 5.0,-5.0 L -12.5,0.0 L 5.0,5.0 L 0.0,0.0 z "
         id="path5544" /></marker><marker
       inkscape:isstock="true"
       style="overflow:visible"
       id="marker5492"
       refX="0.0"
       refY="0.0"
       orient="auto"
       inkscape:stockid="Arrow1Lstart"><path
         transform="scale(0.8) translate(12.5,0)"
         style="fill-rule:evenodd;stroke:#ff00ff;stroke-width:1pt;stroke-opacity:1;fill:#3c3c3c;fill-opacity:1"
         d="M 0.0,0.0 L 5.0,-5.0 L -12.5,0.0 L 5.0,5.0 L 0.0,0.0 z "
         id="path5494" /></marker><marker
       inkscape:isstock="true"
       style="overflow:visible"
       id="marker5482"
       refX="0.0"
       refY="0.0"
       orient="auto"
       inkscape:stockid="Arrow1Lstart"><path
         transform="scale(0.8) translate(12.5,0)"
         style="fill-rule:evenodd;stroke:#ff00ff;stroke-width:1pt;stroke-opacity:1;fill:#3c3c3c;fill-opacity:1"
         d="M 0.0,0.0 L 5.0,-5.0 L -12.5,0.0 L 5.0,5.0 L 0.0,0.0 z "
         id="path5484" /></marker><marker
       inkscape:isstock="true"
       style="overflow:visible"
       id="marker5446"
       refX="0.0"
       refY="0.0"
       orient="auto"
       inkscape:stockid="Arrow1Lstart"><path
         transform="scale(0.8) translate(12.5,0)"
         style="fill-rule:evenodd;stroke:#ff00ff;stroke-width:1pt;stroke-opacity:1;fill:#3c3c3c;fill-opacity:1"
         d="M 0.0,0.0 L 5.0,-5.0 L -12.5,0.0 L 5.0,5.0 L 0.0,0.0 z "
         id="path5448" /></marker><marker
       inkscape:isstock="true"
       style="overflow:visible"
       id="marker5436"
       refX="0.0"
       refY="0.0"
       orient="auto"
       inkscape:stockid="Arrow1Lstart"><path
         transform="scale(0.8) translate(12.5,0)"
         style="fill-rule:evenodd;stroke:#ff00ff;stroke-width:1pt;stroke-opacity:1;fill:#3c3c3c;fill-opacity:1"
         d="M 0.0,0.0 L 5.0,-5.0 L -12.5,0.0 L 5.0,5.0 L 0.0,0.0 z "
         id="path5438" /></marker><marker
       inkscape:stockid="Arrow2Lstart"
       orient="auto"
       refY="0"
       refX="0"
       id="marker6669-4"
       style="overflow:visible"
       inkscape:isstock="true"><path
         inkscape:connector-curvature="0"
         id="path6671-9"
         style="fill:#ff0000;fill-opacity:1;fill-rule:evenodd;stroke:#ff0000;stroke-width:0.625;stroke-linejoin:round;stroke-opacity:1"
         d="M 8.7185878,4.0337352 -2.2072895,0.01601326 8.7185884,-4.0017078 c -1.7454984,2.3720609 -1.7354408,5.6174519 -6e-7,8.035443 z"
         transform="matrix(1.1,0,0,1.1,1.1,0)" /></marker><marker
       inkscape:stockid="Arrow2Lstart"
       orient="auto"
       refY="0"
       refX="0"
       id="marker6659-5"
       style="overflow:visible"
       inkscape:isstock="true"><path
         inkscape:connector-curvature="0"
         id="path6661-7"
         style="fill:#ff0000;fill-opacity:1;fill-rule:evenodd;stroke:#ff0000;stroke-width:0.625;stroke-linejoin:round;stroke-opacity:1"
         d="M 8.7185878,4.0337352 -2.2072895,0.01601326 8.7185884,-4.0017078 c -1.7454984,2.3720609 -1.7354408,5.6174519 -6e-7,8.035443 z"
         transform="matrix(1.1,0,0,1.1,1.1,0)" /></marker><marker
       inkscape:stockid="Arrow2Lstart"
       orient="auto"
       refY="0"
       refX="0"
       id="marker6669-48"
       style="overflow:visible"
       inkscape:isstock="true"><path
         inkscape:connector-curvature="0"
         id="path6671-3"
         style="fill:#ff0000;fill-opacity:1;fill-rule:evenodd;stroke:#ff0000;stroke-width:0.625;stroke-linejoin:round;stroke-opacity:1"
         d="M 8.7185878,4.0337352 -2.2072895,0.01601326 8.7185884,-4.0017078 c -1.7454984,2.3720609 -1.7354408,5.6174519 -6e-7,8.035443 z"
         transform="matrix(1.1,0,0,1.1,1.1,0)" /></marker><marker
       inkscape:stockid="Arrow2Lstart"
       orient="auto"
       refY="0"
       refX="0"
       id="marker6669-5"
       style="overflow:visible"
       inkscape:isstock="true"><path
         inkscape:connector-curvature="0"
         id="path6671-32"
         style="fill:#ff0000;fill-opacity:1;fill-rule:evenodd;stroke:#ff0000;stroke-width:0.625;stroke-linejoin:round;stroke-opacity:1"
         d="M 8.7185878,4.0337352 -2.2072895,0.01601326 8.7185884,-4.0017078 c -1.7454984,2.3720609 -1.7354408,5.6174519 -6e-7,8.035443 z"
         transform="matrix(1.1,0,0,1.1,1.1,0)" /></marker><marker
       inkscape:stockid="Arrow2Lstart"
       orient="auto"
       refY="0"
       refX="0"
       id="marker6659-6"
       style="overflow:visible"
       inkscape:isstock="true"><path
         inkscape:connector-curvature="0"
         id="path6661-6"
         style="fill:#ff0000;fill-opacity:1;fill-rule:evenodd;stroke:#ff0000;stroke-width:0.625;stroke-linejoin:round;stroke-opacity:1"
         d="M 8.7185878,4.0337352 -2.2072895,0.01601326 8.7185884,-4.0017078 c -1.7454984,2.3720609 -1.7354408,5.6174519 -6e-7,8.035443 z"
         transform="matrix(1.1,0,0,1.1,1.1,0)" /></marker><marker
       inkscape:stockid="Arrow2Lstart"
       orient="auto"
       refY="0"
       refX="0"
       id="marker6669-48-8"
       style="overflow:visible"
       inkscape:isstock="true"><path
         inkscape:connector-curvature="0"
         id="path6671-3-5"
         style="fill:#ff0000;fill-opacity:1;fill-rule:evenodd;stroke:#ff0000;stroke-width:0.625;stroke-linejoin:round;stroke-opacity:1"
         d="M 8.7185878,4.0337352 -2.2072895,0.01601326 8.7185884,-4.0017078 c -1.7454984,2.3720609 -1.7354408,5.6174519 -6e-7,8.035443 z"
         transform="matrix(1.1,0,0,1.1,1.1,0)" /></marker><marker
       inkscape:isstock="true"
       style="overflow:visible"
       id="marker8058-7"
       refX="0"
       refY="0"
       orient="auto"
       inkscape:stockid="Arrow2Mend"><path
         inkscape:connector-curvature="0"
         transform="scale(-0.6,-0.6)"
         d="M 8.7185878,4.0337352 -2.2072895,0.01601326 8.7185884,-4.0017078 c -1.7454984,2.3720609 -1.7354408,5.6174519 -6e-7,8.035443 z"
         style="fill:#ff0000;fill-opacity:1;fill-rule:evenodd;stroke:#ff0000;stroke-width:0.625;stroke-linejoin:round;stroke-opacity:1"
         id="path8060-6" /></marker><marker
       inkscape:isstock="true"
       style="overflow:visible"
       id="marker8068-3"
       refX="0"
       refY="0"
       orient="auto"
       inkscape:stockid="Arrow2Mend"><path
         inkscape:connector-curvature="0"
         transform="scale(-0.6,-0.6)"
         d="M 8.7185878,4.0337352 -2.2072895,0.01601326 8.7185884,-4.0017078 c -1.7454984,2.3720609 -1.7354408,5.6174519 -6e-7,8.035443 z"
         style="fill:#ff0000;fill-opacity:1;fill-rule:evenodd;stroke:#ff0000;stroke-width:0.625;stroke-linejoin:round;stroke-opacity:1"
         id="path8070-6" /></marker><marker
       inkscape:isstock="true"
       style="overflow:visible"
       id="marker8429-7"
       refX="0"
       refY="0"
       orient="auto"
       inkscape:stockid="Arrow2Mend"><path
         inkscape:connector-curvature="0"
         transform="scale(-0.6,-0.6)"
         d="M 8.7185878,4.0337352 -2.2072895,0.01601326 8.7185884,-4.0017078 c -1.7454984,2.3720609 -1.7354408,5.6174519 -6e-7,8.035443 z"
         style="fill:#ff0000;fill-opacity:1;fill-rule:evenodd;stroke:#ff0000;stroke-width:0.625;stroke-linejoin:round;stroke-opacity:1"
         id="path8431-1" /></marker></defs><g
     id="g10"
     inkscape:groupmode="layer"
     inkscape:label="droneDiagram5"
     transform="matrix(1.25,0,0,-1.25,0,720.74371)"><g
       style="fill:#ff0000;fill-opacity:1;stroke:#ff0000;stroke-width:0.66992414;stroke-opacity:1"
       transform="matrix(0.61803837,-1.3609618,1.3572969,0.61637407,-239.33252,871.80626)"
       id="g4469-3-64-7"
       inkscape:transform-center-x="36.413588"
       inkscape:transform-center-y="-6.2101286"><path
         d="m 498.895,288.845 -40.043,55.352"
         style="fill:#ff0000;fill-opacity:1;stroke:#ff0000;stroke-width:1.60781801;stroke-linecap:butt;stroke-linejoin:miter;stroke-miterlimit:4;stroke-dasharray:none;stroke-opacity:1"
         id="path116-3-9-3"
         inkscape:connector-curvature="0" /><g
         id="g118-4-36-77"
         transform="matrix(0.723434,-1,-1,-0.723434,0,576.59497)"
         style="fill:#ff0000;fill-opacity:1;stroke:#ff0000;stroke-width:0.66992414;stroke-opacity:1"><path
           d="m 381.907,-184.797 -15.579,-5.728 15.581,-5.732 c -2.492,3.385 -2.477,8.013 -0.002,11.46 z"
           style="fill:#ff0000;fill-opacity:1;fill-rule:evenodd;stroke:#ff0000;stroke-width:0.59705919;stroke-linecap:butt;stroke-linejoin:round;stroke-miterlimit:4;stroke-dasharray:none;stroke-opacity:1"
           id="path120-0-58-4"
           inkscape:connector-curvature="0" /></g></g><g
       style="fill:#ff0000;fill-opacity:1;stroke:#ff0000;stroke-width:0.66992414;stroke-opacity:1"
       transform="matrix(0.61803837,-1.3609618,1.3572969,0.61637407,-507.46742,629.6929)"
       id="g4469-3-64-6"
       inkscape:transform-center-x="36.413588"
       inkscape:transform-center-y="-6.2101286"><path
         d="m 498.895,288.845 -40.043,55.352"
         style="fill:#ff0000;fill-opacity:1;stroke:#ff0000;stroke-width:1.60781801;stroke-linecap:butt;stroke-linejoin:miter;stroke-miterlimit:4;stroke-dasharray:none;stroke-opacity:1"
         id="path116-3-9-0"
         inkscape:connector-curvature="0" /><g
         id="g118-4-36-0"
         transform="matrix(0.723434,-1,-1,-0.723434,0,576.59497)"
         style="fill:#ff0000;fill-opacity:1;stroke:#ff0000;stroke-width:0.66992414;stroke-opacity:1"><path
           d="m 381.907,-184.797 -15.579,-5.728 15.581,-5.732 c -2.492,3.385 -2.477,8.013 -0.002,11.46 z"
           style="fill:#ff0000;fill-opacity:1;fill-rule:evenodd;stroke:#ff0000;stroke-width:0.59705919;stroke-linecap:butt;stroke-linejoin:round;stroke-miterlimit:4;stroke-dasharray:none;stroke-opacity:1"
           id="path120-0-58-6"
           inkscape:connector-curvature="0" /></g></g><path
       inkscape:connector-curvature="0"
       id="path58"
       style="fill:#3c3c3c;fill-opacity:1;fill-rule:nonzero;stroke:#3c3c3c;stroke-width:1.60000014;stroke-linecap:butt;stroke-linejoin:miter;stroke-miterlimit:4;stroke-dasharray:none;stroke-opacity:1"
       d="m 157.16387,356.51314 395.45628,0.88273" /><path
       inkscape:connector-curvature="0"
       id="path138"
       style="fill:none;stroke:#009bd5;stroke-width:1.60000002;stroke-linecap:butt;stroke-linejoin:miter;stroke-miterlimit:4;stroke-dasharray:none;stroke-opacity:1"
       d="M 336.26671,258.35425 336.47126,66.676427" /><g
       transform="matrix(0.00223289,1,1,-0.00223289,-0.52010099,572.79497)"
       id="g140"><path
         inkscape:connector-curvature="0"
         id="path142"
         style="fill:#009bd5;fill-opacity:1;fill-rule:evenodd;stroke:#009bd5;stroke-width:1.09999704;stroke-linecap:butt;stroke-linejoin:round;stroke-miterlimit:4;stroke-dasharray:none;stroke-opacity:1"
         d="m -492.202,344.986 -19.231,-7.071 19.23,-7.066 c -3.072,4.175 -3.052,9.882 10e-4,14.137 z" /></g><g
       transform="matrix(0.8971,-0.446264,-0.062771,-1,60,552.99497)"
       id="g14"><path
         inkscape:connector-curvature="0"
         id="path16"
         style="fill:none;stroke:#00b700;stroke-width:1.66349995;stroke-linecap:butt;stroke-linejoin:miter;stroke-miterlimit:4;stroke-dasharray:none;stroke-opacity:1"
         d="m 513.341,-78.675 c -6.648,3.307 -14.119,-0.414 -17.478,-8.712 -3.363,-8.296 -1.576,-18.609 4.172,-24.135 5.753,-5.525 13.698,-4.558 18.599,2.262" /></g><g
       transform="matrix(0.35546932,-0.93669322,-0.97901703,0.21278844,482.69739,694.77929)"
       id="g18"><path
         inkscape:connector-curvature="0"
         id="path20"
         style="fill:none;stroke:#00b700;stroke-width:2.18036509;stroke-linecap:butt;stroke-linejoin:miter;stroke-miterlimit:4;stroke-dasharray:none;stroke-opacity:1"
         d="m 660.86,456.574 c -5.488,2.568 -11.51,-0.318 -14.756,-7.074 -3.242,-6.757 -2.92,-15.736 0.795,-21.988 3.715,-6.253 9.917,-8.258 15.187,-4.912 5.269,3.345 8.327,11.227 7.486,19.304" /></g><g
       transform="matrix(0.96096183,-0.27669584,0.35125112,0.93628584,100.60283,624.0875)"
       id="g22"><path
         inkscape:connector-curvature="0"
         id="path24"
         style="fill:none;stroke:#00b700;stroke-width:2.00308204;stroke-linecap:butt;stroke-linejoin:miter;stroke-miterlimit:4;stroke-dasharray:none;stroke-opacity:1"
         d="m 555.023,-316.814 c -1.48,9.917 -5.823,16.454 -10.606,15.961 -4.783,-0.49 -8.822,-7.884 -9.867,-18.061 -1.044,-10.172 1.167,-20.61 5.397,-25.49 4.23,-4.875 9.441,-2.991 12.716,4.614" /></g><path
       inkscape:connector-curvature="0"
       id="path26"
       style="fill:#3c3c3c;fill-opacity:1;fill-rule:evenodd;stroke:#3c3c3c;stroke-width:1;stroke-linecap:butt;stroke-linejoin:miter;stroke-miterlimit:4;stroke-dasharray:none;stroke-opacity:1"
       d="m 571.225,386.678 0.008,0.035 0.008,0.023 0.007,0.051 0.016,0.043 0.012,0.051 0.008,0.043 0.015,0.035 0.008,0.043 0.008,0.031 0.012,0.035 0,0.036 0.007,0.035 0.008,0.031 0.008,0.027 0,0.024 0.008,0.027 0,0.024 0.012,0.027 0,0.027 0.007,0.039 0,0.137 0.008,0.043 0,0.102 c 0,0.773 -0.586,1.148 -1.226,1.148 -0.422,0 -1.106,-0.254 -1.489,-0.891 -0.082,-0.214 -0.422,-1.515 -0.586,-2.289 -0.304,-1.097 -0.593,-2.246 -0.847,-3.386 l -1.914,-7.625 c -0.164,-0.641 -1.985,-3.598 -4.782,-3.598 -2.16,0 -2.636,1.851 -2.636,3.426 0,1.949 0.734,4.586 2.168,8.3 0.683,1.743 0.851,2.211 0.851,3.063 0,1.895 -1.351,3.461 -3.476,3.461 -4.032,0 -5.598,-6.133 -5.598,-6.524 0,-0.425 0.426,-0.425 0.52,-0.425 0.425,0 0.46,0.093 0.671,0.773 1.149,3.988 2.832,5.246 4.278,5.246 0.34,0 1.062,0 1.062,-1.351 0,-1.063 -0.426,-2.153 -0.722,-2.969 -1.692,-4.488 -2.465,-6.902 -2.465,-8.902 0,-3.758 2.679,-5.036 5.168,-5.036 1.668,0 3.097,0.723 4.281,1.907 -0.547,-2.196 -1.047,-4.278 -2.75,-6.532 -1.105,-1.429 -2.711,-2.671 -4.66,-2.671 -0.586,0 -2.5,0.136 -3.223,1.789 0.68,0 1.242,0 1.82,0.515 0.426,0.367 0.852,0.93 0.852,1.727 0,1.32 -1.141,1.488 -1.566,1.488 -0.969,0 -2.379,-0.68 -2.379,-2.754 0,-2.125 1.879,-3.691 4.496,-3.691 4.371,0 8.726,3.871 9.926,8.648 l 4.066,16.184 z" /><path
       inkscape:connector-curvature="0"
       id="path28"
       style="fill:#3c3c3c;fill-opacity:1;fill-rule:evenodd;stroke:#3c3c3c;stroke-width:1;stroke-linecap:butt;stroke-linejoin:miter;stroke-miterlimit:4;stroke-dasharray:none;stroke-opacity:1"
       d="m 583.682,382.111 0.023,0.094 0.028,0.086 0.015,0.082 0.028,0.078 0.023,0.078 0.028,0.075 0.023,0.07 0.027,0.058 0.036,0.067 0.031,0.051 0.035,0.062 0.043,0.051 0.043,0.043 0.051,0.039 0.05,0.043 0.118,0.07 0.078,0.032 0.078,0.035 0.082,0.027 0.086,0.023 0.051,0.008 0.05,0.012 0.051,0.008 0.063,0.008 0.175,0.023 0.063,0.012 0.066,0.008 0.067,0 0.078,0.007 0.066,0 0.078,0.008 0.086,0 0.075,0.008 0.171,0 0.094,0.012 0.391,0 c 0.75,0 1.09,0 1.09,0.617 0,0.273 -0.196,0.445 -0.461,0.445 -0.629,0 -1.367,-0.094 -2,-0.094 -0.645,0 -1.352,-0.027 -2.004,-0.027 l -2.043,0.027 c -0.652,0 -1.395,0.094 -2.047,0.094 -0.188,0 -0.621,0 -0.621,-0.656 0,-0.406 0.332,-0.406 0.976,-0.406 0.024,0 0.614,0 1.114,-0.071 0.605,-0.05 0.816,-0.074 0.816,-0.406 0,-0.18 -0.066,-0.394 -0.117,-0.629 l -3.945,-15.734 c -0.25,-0.969 -0.332,-1.274 -2.555,-1.274 -0.797,0 -1.094,0 -1.094,-0.648 0,-0.035 0,-0.418 0.465,-0.418 0.895,0 3.121,0.121 4,0.121 l 2.047,-0.027 c 0.656,0 1.394,-0.094 2.051,-0.094 0.187,0 0.621,0 0.621,0.656 0,0.41 -0.36,0.41 -0.946,0.41 -0.066,0 -0.687,0 -1.273,0.067 -0.691,0.051 -0.691,0.168 -0.691,0.441 0,0.028 0,0.215 0.121,0.649 l 3.945,15.679 z" /><path
       inkscape:connector-curvature="0"
       id="path30"
       style="fill:#3c3c3c;fill-opacity:1;fill-rule:evenodd;stroke:#3c3c3c;stroke-width:1;stroke-linecap:butt;stroke-linejoin:miter;stroke-miterlimit:4;stroke-dasharray:none;stroke-opacity:1"
       d="m 327.41,570.177 0.028,0.109 0.031,0.129 0.035,0.137 0.035,0.152 0.051,0.161 0.051,0.179 0.05,0.188 0.059,0.187 0.07,0.196 0.075,0.203 0.085,0.211 0.086,0.207 0.094,0.211 0.102,0.21 0.109,0.215 0.121,0.211 0.125,0.207 0.129,0.203 0.145,0.196 0.304,0.375 0.172,0.168 0.18,0.164 0.187,0.152 0.196,0.137 0.211,0.117 0.101,0.059 0.113,0.05 0.118,0.043 0.109,0.043 0.121,0.043 0.117,0.035 0.129,0.024 0.129,0.027 0.125,0.016 0.137,0.019 0.137,0.008 0.136,0 c 0.211,0 1.223,0 2.11,-0.547 -1.184,-0.211 -2.035,-1.273 -2.035,-2.285 0,-0.672 0.468,-1.488 1.609,-1.488 0.933,0 2.285,0.758 2.285,2.457 0,2.211 -2.5,2.789 -3.937,2.789 -2.457,0 -3.946,-2.246 -4.446,-3.215 -1.062,2.789 -3.351,3.215 -4.566,3.215 -4.414,0 -6.84,-5.461 -6.84,-6.523 0,-0.426 0.426,-0.426 0.52,-0.426 0.332,0 0.468,0.094 0.546,0.469 1.438,4.492 4.243,5.554 5.68,5.554 0.809,0 2.277,-0.375 2.277,-2.832 0,-1.308 -0.714,-4.16 -2.277,-10.086 -0.68,-2.629 -2.16,-4.406 -4.031,-4.406 -0.254,0 -1.227,0 -2.11,0.555 1.063,0.203 1.989,1.086 1.989,2.285 0,1.14 -0.926,1.472 -1.563,1.472 -1.277,0 -2.34,-1.097 -2.34,-2.457 0,-1.941 2.125,-2.789 3.981,-2.789 2.805,0 4.32,2.965 4.457,3.215 0.5,-1.566 2.031,-3.215 4.566,-3.215 4.371,0 6.793,5.457 6.793,6.52 0,0.426 -0.383,0.426 -0.519,0.426 -0.371,0 -0.465,-0.168 -0.543,-0.457 -1.395,-4.535 -4.278,-5.555 -5.637,-5.555 -1.66,0 -2.34,1.352 -2.34,2.797 0,0.937 0.254,1.863 0.731,3.726 l 1.437,5.809 z" /><path
       inkscape:connector-curvature="0"
       id="path32"
       style="fill:#3c3c3c;fill-opacity:1;fill-rule:evenodd;stroke:#3c3c3c;stroke-width:1;stroke-linecap:butt;stroke-linejoin:miter;stroke-miterlimit:4;stroke-dasharray:none;stroke-opacity:1"
       d="m 349.684,568.95 0.023,0.094 0.027,0.086 0.024,0.086 0.019,0.074 0.024,0.078 0.027,0.079 0.024,0.066 0.035,0.059 0.027,0.07 0.031,0.051 0.035,0.058 0.043,0.051 0.043,0.043 0.102,0.086 0.059,0.031 0.07,0.035 0.066,0.035 0.078,0.036 0.082,0.023 0.094,0.027 0.043,0.008 0.102,0.016 0.062,0.008 0.059,0.007 0.058,0.012 0.059,0.008 0.063,0.008 0.066,0.008 0.066,0 0.078,0.007 0.067,0 0.078,0.012 0.086,0 0.074,0.008 0.18,0 0.086,0.008 0.39,0 c 0.75,0 1.09,0 1.09,0.621 0,0.269 -0.195,0.441 -0.461,0.441 -0.629,0 -1.367,-0.093 -2,-0.093 -0.644,0 -1.351,-0.024 -2.004,-0.024 l -2.043,0.024 c -0.652,0 -1.394,0.093 -2.046,0.093 -0.188,0 -0.622,0 -0.622,-0.656 0,-0.406 0.332,-0.406 0.977,-0.406 0.023,0 0.613,0 1.113,-0.071 0.606,-0.05 0.817,-0.074 0.817,-0.406 0,-0.179 -0.067,-0.39 -0.117,-0.629 l -3.946,-15.734 c -0.238,-0.969 -0.332,-1.273 -2.554,-1.273 -0.797,0 -1.086,0 -1.086,-0.649 0,-0.031 0,-0.414 0.457,-0.414 0.894,0 3.121,0.117 4.007,0.117 l 2.039,-0.023 c 0.657,0 1.395,-0.094 2.051,-0.094 0.188,0 0.621,0 0.621,0.652 0,0.411 -0.359,0.411 -0.945,0.411 -0.066,0 -0.687,0 -1.273,0.066 -0.692,0.051 -0.692,0.172 -0.692,0.441 0,0.028 0,0.215 0.121,0.649 l 3.946,15.679 z" /><path
       inkscape:connector-curvature="0"
       id="path34"
       style="fill:#3c3c3c;fill-opacity:1;fill-rule:evenodd;stroke:#3c3c3c;stroke-width:1;stroke-linecap:butt;stroke-linejoin:miter;stroke-miterlimit:4;stroke-dasharray:none;stroke-opacity:1"
       d="m 110.898,15.161 0.211,0.231 0.204,0.219 0.207,0.211 0.195,0.203 0.375,0.382 0.176,0.184 0.172,0.184 0.167,0.168 0.172,0.164 0.325,0.32 0.152,0.148 0.16,0.149 0.297,0.281 0.289,0.274 0.281,0.253 0.282,0.25 0.273,0.247 0.551,0.472 0.281,0.246 0.281,0.243 c 0,0.042 2.617,2.285 4.149,3.812 4.023,3.945 4.957,5.98 4.957,6.133 0,0.43 -0.391,0.43 -0.465,0.43 -0.297,0 -0.426,-0.083 -0.641,-0.461 -1.265,-2.036 -2.148,-2.711 -3.179,-2.711 -1.02,0 -1.52,0.632 -2.161,1.347 -0.796,0.989 -1.511,1.825 -2.925,1.825 -3.172,0 -5.118,-3.934 -5.118,-4.829 0,-0.211 0.118,-0.457 0.508,-0.457 0.383,0 0.461,0.211 0.547,0.457 0.809,1.957 3.266,2 3.598,2 0.89,0 1.699,-0.3 2.668,-0.632 1.703,-0.645 2.168,-0.645 3.273,-0.645 -1.527,-1.812 -5.094,-4.879 -5.883,-5.551 l -3.82,-3.551 c -2.883,-2.839 -4.371,-5.257 -4.371,-5.558 0,-0.426 0.426,-0.426 0.504,-0.426 0.348,0 0.426,0.086 0.68,0.547 0.988,1.488 2.246,2.641 3.605,2.641 0.977,0 1.402,-0.399 2.457,-1.614 0.734,-0.886 1.488,-1.574 2.707,-1.574 4.199,0 6.656,5.383 6.656,6.527 0,0.211 -0.168,0.422 -0.5,0.422 -0.39,0 -0.468,-0.246 -0.605,-0.547 -0.969,-2.757 -3.672,-3.546 -5.086,-3.546 -0.832,0 -1.606,0.246 -2.5,0.543 -1.426,0.543 -2.066,0.71 -2.957,0.71 -0.086,0 -0.758,0 -1.149,-0.121 z" /><path
       inkscape:connector-curvature="0"
       id="path36"
       style="fill:#3c3c3c;fill-opacity:1;fill-rule:evenodd;stroke:#3c3c3c;stroke-width:1;stroke-linecap:butt;stroke-linejoin:miter;stroke-miterlimit:4;stroke-dasharray:none;stroke-opacity:1"
       d="m 137.199,23.216 0.028,0.094 0.023,0.09 0.02,0.086 0.023,0.07 0.027,0.078 0.024,0.074 0.027,0.074 0.024,0.055 0.035,0.07 0.035,0.047 0.031,0.063 0.043,0.055 0.043,0.043 0.051,0.042 0.051,0.04 0.062,0.035 0.059,0.031 0.074,0.035 0.078,0.031 0.086,0.032 0.086,0.019 0.051,0.008 0.05,0.016 0.051,0.003 0.059,0.008 0.051,0.008 0.058,0.008 0.071,0.016 0.058,0.003 0.067,0.008 0.07,0 0.066,0.008 0.078,0 0.075,0.008 0.078,0 0.086,0.012 0.168,0 0.093,0.007 0.391,0 c 0.75,0 1.09,0 1.09,0.625 0,0.266 -0.195,0.438 -0.469,0.438 -0.621,0 -1.359,-0.094 -1.988,-0.094 -0.649,0 -1.352,-0.027 -2.008,-0.027 l -2.039,0.027 c -0.656,0 -1.406,0.094 -2.051,0.094 -0.187,0 -0.629,0 -0.629,-0.652 0,-0.411 0.34,-0.411 0.985,-0.411 0.027,0 0.613,0 1.117,-0.07 0.601,-0.051 0.816,-0.074 0.816,-0.406 0,-0.18 -0.07,-0.391 -0.121,-0.629 L 130.508,7.657 c -0.246,-0.972 -0.34,-1.277 -2.551,-1.277 -0.801,0 -1.098,0 -1.098,-0.644 0,-0.036 0,-0.418 0.469,-0.418 0.891,0 3.121,0.117 3.996,0.117 l 2.051,-0.028 c 0.652,0 1.395,-0.089 2.047,-0.089 0.187,0 0.621,0 0.621,0.652 0,0.41 -0.355,0.41 -0.941,0.41 -0.071,0 -0.692,0 -1.278,0.07 -0.687,0.047 -0.687,0.168 -0.687,0.438 0,0.027 0,0.219 0.117,0.648 l 3.945,15.68 z" /><path
       inkscape:connector-curvature="0"
       id="path38"
       style="fill:#3c3c3c;fill-opacity:1;fill-rule:evenodd;stroke:#3c3c3c;stroke-width:1;stroke-linecap:butt;stroke-linejoin:miter;stroke-miterlimit:4;stroke-dasharray:none;stroke-opacity:1"
       d="m 551.963,490.449 0.028,0.113 0.031,0.125 0.035,0.137 0.035,0.152 0.051,0.164 0.055,0.176 0.05,0.188 0.055,0.187 0.07,0.195 0.079,0.207 0.086,0.211 0.082,0.203 0.089,0.215 0.106,0.211 0.109,0.215 0.117,0.211 0.258,0.406 0.149,0.196 0.3,0.375 0.172,0.171 0.176,0.161 0.192,0.152 0.191,0.137 0.219,0.121 0.097,0.058 0.114,0.051 0.121,0.043 0.105,0.043 0.117,0.043 0.121,0.031 0.129,0.028 0.125,0.023 0.129,0.02 0.137,0.015 0.137,0.008 0.136,0 c 0.211,0 1.223,0 2.106,-0.543 -1.18,-0.211 -2.027,-1.277 -2.027,-2.289 0,-0.672 0.464,-1.488 1.601,-1.488 0.942,0 2.289,0.758 2.289,2.461 0,2.211 -2.5,2.789 -3.933,2.789 -2.457,0 -3.95,-2.246 -4.454,-3.215 -1.062,2.789 -3.343,3.215 -4.566,3.215 -4.41,0 -6.836,-5.461 -6.836,-6.524 0,-0.425 0.426,-0.425 0.524,-0.425 0.332,0 0.464,0.093 0.543,0.468 1.433,4.489 4.246,5.551 5.675,5.551 0.809,0 2.285,-0.371 2.285,-2.832 0,-1.309 -0.714,-4.156 -2.285,-10.086 -0.675,-2.625 -2.16,-4.402 -4.027,-4.402 -0.258,0 -1.227,0 -2.106,0.551 1.059,0.203 1.985,1.089 1.985,2.289 0,1.14 -0.926,1.468 -1.567,1.468 -1.273,0 -2.332,-1.093 -2.332,-2.457 0,-1.937 2.125,-2.789 3.977,-2.789 2.809,0 4.32,2.969 4.453,3.215 0.504,-1.562 2.035,-3.215 4.57,-3.215 4.372,0 6.793,5.461 6.793,6.524 0,0.425 -0.379,0.425 -0.519,0.425 -0.375,0 -0.469,-0.171 -0.543,-0.46 -1.395,-4.532 -4.274,-5.551 -5.641,-5.551 -1.656,0 -2.336,1.351 -2.336,2.797 0,0.933 0.254,1.863 0.735,3.722 l 1.433,5.809 z" /><path
       inkscape:connector-curvature="0"
       id="path40"
       style="fill:#3c3c3c;fill-opacity:1;fill-rule:evenodd;stroke:#3c3c3c;stroke-width:1;stroke-linecap:butt;stroke-linejoin:miter;stroke-miterlimit:4;stroke-dasharray:none;stroke-opacity:1"
       d="m 567.635,473.636 -0.019,-0.089 -0.032,-0.086 -0.023,-0.086 -0.023,-0.078 -0.02,-0.075 -0.023,-0.078 -0.04,-0.066 -0.023,-0.059 -0.035,-0.062 -0.031,-0.059 -0.036,-0.051 -0.039,-0.05 -0.043,-0.043 -0.105,-0.086 -0.059,-0.032 -0.07,-0.035 -0.074,-0.027 -0.074,-0.031 -0.086,-0.028 -0.098,-0.015 -0.051,-0.02 -0.097,-0.015 -0.118,-0.016 -0.066,-0.012 -0.062,0 -0.063,-0.008 -0.066,-0.007 -0.079,0 -0.07,-0.008 -0.074,-0.008 -0.164,0 -0.082,-0.008 -0.274,0 -0.089,-0.012 -0.309,0 c -0.496,0 -0.879,0 -0.879,-0.617 0,-0.445 0.34,-0.445 0.879,-0.445 l 11.461,0 c 4.984,0 8.812,3.402 8.812,6.336 0,2.117 -1.918,3.922 -5.078,4.242 3.59,0.648 6.59,2.91 6.59,5.453 0,2.254 -2.273,4.211 -6.137,4.211 l -0.48,-1.066 c 3.027,0 3.711,-1.996 3.711,-3.11 0,-2.406 -2.695,-5.129 -6.668,-5.129 l -4.856,0 -0.21,-0.832 6.285,0 c 2.777,0 3.855,-1.839 3.855,-3.554 0,-2.934 -3.008,-5.489 -6.582,-5.489 l -4.773,0 c -0.918,0 -0.95,0.043 -0.95,0.309 0,0.023 0,0.168 0.125,0.613 l 2.04,8.121 0.21,0.832 1.809,7.227 c 0.227,0.922 0.27,1.012 1.5,1.012 l 4.504,0 0.48,1.066 -10.785,0 c -0.558,0 -0.945,0 -0.945,-0.656 0,-0.41 0.359,-0.41 0.945,-0.41 0.028,0 0.594,0 1.121,-0.067 0.629,-0.051 0.68,-0.117 0.68,-0.406 0,-0.062 0,-0.207 -0.117,-0.656 l -3.93,-15.735 z" /><path
       inkscape:connector-curvature="0"
       id="path42"
       style="fill:#3c3c3c;fill-opacity:1;fill-rule:evenodd;stroke:#3c3c3c;stroke-width:1;stroke-linecap:butt;stroke-linejoin:miter;stroke-miterlimit:4;stroke-dasharray:none;stroke-opacity:1"
       d="m 556.78099,195.88028 0.008,0.035 0.012,0.028 0.007,0.05 0.012,0.043 0.012,0.051 0.012,0.039 0.011,0.035 0.008,0.043 0.012,0.036 0.012,0.031 0,0.035 0.011,0.07 0.008,0.024 0,0.027 0.008,0.023 0,0.028 0.016,0.023 0,0.028 0.003,0.043 0,0.136 0.008,0.039 0,0.106 c 0,0.773 -0.586,1.144 -1.222,1.144 -0.426,0 -1.11,-0.254 -1.493,-0.89 -0.082,-0.215 -0.418,-1.516 -0.582,-2.289 -0.304,-1.098 -0.593,-2.246 -0.851,-3.383 l -1.91,-7.629 c -0.164,-0.637 -1.989,-3.598 -4.782,-3.598 -2.164,0 -2.636,1.856 -2.636,3.426 0,1.949 0.73,4.586 2.172,8.301 0.675,1.746 0.843,2.211 0.843,3.062 0,1.895 -1.347,3.461 -3.472,3.461 -4.032,0 -5.602,-6.133 -5.602,-6.523 0,-0.426 0.426,-0.426 0.524,-0.426 0.421,0 0.461,0.094 0.671,0.774 1.145,3.988 2.832,5.25 4.274,5.25 0.344,0 1.062,0 1.062,-1.352 0,-1.066 -0.421,-2.152 -0.718,-2.969 -1.696,-4.492 -2.469,-6.906 -2.469,-8.906 0,-3.758 2.683,-5.031 5.176,-5.031 1.664,0 3.093,0.722 4.273,1.902 -0.547,-2.191 -1.047,-4.277 -2.75,-6.531 -1.101,-1.426 -2.711,-2.668 -4.66,-2.668 -0.586,0 -2.5,0.137 -3.223,1.785 0.68,0 1.242,0 1.825,0.52 0.421,0.363 0.847,0.925 0.847,1.726 0,1.316 -1.137,1.488 -1.562,1.488 -0.973,0 -2.383,-0.683 -2.383,-2.757 0,-2.125 1.883,-3.692 4.496,-3.692 4.371,0 8.73,3.871 9.93,8.649 l 4.062,16.183 z" /><path
       inkscape:connector-curvature="0"
       id="path44"
       style="fill:#3c3c3c;fill-opacity:1;fill-rule:evenodd;stroke:#3c3c3c;stroke-width:1;stroke-linecap:butt;stroke-linejoin:miter;stroke-miterlimit:4;stroke-dasharray:none;stroke-opacity:1"
       d="m 562.64399,175.72828 -0.031,-0.094 -0.023,-0.086 -0.028,-0.086 -0.027,-0.074 -0.019,-0.078 -0.02,-0.074 -0.031,-0.071 -0.063,-0.117 -0.035,-0.062 -0.035,-0.051 -0.043,-0.051 -0.043,-0.043 -0.051,-0.039 -0.051,-0.043 -0.054,-0.035 -0.071,-0.035 -0.078,-0.024 -0.078,-0.035 -0.082,-0.027 -0.094,-0.016 -0.046,-0.015 -0.051,-0.008 -0.067,-0.012 -0.047,-0.008 -0.121,-0.015 -0.07,0 -0.059,-0.008 -0.066,-0.008 -0.078,0 -0.063,-0.012 -0.082,-0.008 -0.16,0 -0.086,-0.007 -0.273,0 -0.094,-0.008 -0.305,0 c -0.492,0 -0.875,0 -0.875,-0.621 0,-0.442 0.34,-0.442 0.875,-0.442 l 11.465,0 c 4.985,0 8.809,3.399 8.809,6.336 0,2.117 -1.922,3.918 -5.074,4.242 3.589,0.645 6.589,2.907 6.589,5.45 0,2.254 -2.289,4.211 -6.14,4.211 l -0.477,-1.063 c 3.032,0 3.707,-2 3.707,-3.113 0,-2.406 -2.695,-5.129 -6.668,-5.129 l -4.855,0 -0.211,-0.832 6.285,0 c 2.777,0 3.859,-1.836 3.859,-3.555 0,-2.933 -3.007,-5.484 -6.582,-5.484 l -4.781,0 c -0.918,0 -0.937,0.043 -0.937,0.305 0,0.027 0,0.171 0.113,0.613 l 2.043,8.121 0.211,0.832 1.812,7.23 c 0.219,0.918 0.262,1.012 1.496,1.012 l 4.508,0 0.477,1.063 -10.781,0 c -0.563,0 -0.946,0 -0.946,-0.657 0,-0.406 0.36,-0.406 0.946,-0.406 0.023,0 0.593,0 1.125,-0.07 0.629,-0.051 0.675,-0.117 0.675,-0.406 0,-0.059 0,-0.204 -0.121,-0.657 l -3.922,-15.73 z" /><path
       inkscape:connector-curvature="0"
       id="path46"
       style="fill:#3c3c3c;fill-opacity:1;fill-rule:evenodd;stroke:#3c3c3c;stroke-width:1;stroke-linecap:butt;stroke-linejoin:miter;stroke-miterlimit:4;stroke-dasharray:none;stroke-opacity:1"
       d="m 255.67504,95.507347 0.21,0.227 0.207,0.214 0.204,0.211 0.191,0.207 0.191,0.196 0.184,0.187 0.184,0.184 0.168,0.179 0.171,0.172 0.168,0.16 0.164,0.161 0.161,0.164 0.148,0.144 0.164,0.153 0.297,0.281 0.289,0.269 0.281,0.258 0.285,0.246 0.266,0.246 0.559,0.477 0.277,0.246003 0.277,0.238 c 0,0.043 2.621,2.289 4.157,3.821 4.015,3.945 4.957,5.976 4.957,6.129 0,0.425 -0.395,0.425 -0.473,0.425 -0.297,0 -0.426,-0.078 -0.637,-0.461 -1.261,-2.031 -2.152,-2.711 -3.175,-2.711 -1.024,0 -1.528,0.637 -2.165,1.352 -0.796,0.988 -1.511,1.82 -2.921,1.82 -3.172,0 -5.122,-3.929 -5.122,-4.82 0,-0.215 0.122,-0.461 0.508,-0.461 0.383,0 0.461,0.211 0.543,0.461 0.809,1.953 3.266,1.996 3.598,1.996 0.894,0 1.703,-0.305 2.676,-0.637 1.695,-0.636 2.168,-0.636 3.269,-0.636 -1.531,-1.821 -5.094,-4.883 -5.883,-5.555 l -3.82,-3.555003 c -2.883,-2.84 -4.371,-5.254 -4.371,-5.554 0,-0.422 0.43,-0.422 0.5,-0.422 0.355,0 0.43,0.082 0.688,0.543 0.98,1.488 2.242,2.636 3.601,2.636 0.981,0 1.402,-0.39 2.457,-1.609 0.734,-0.891 1.488,-1.57 2.703,-1.57 4.199,0 6.66,5.383 6.66,6.519 0,0.215 -0.168,0.426 -0.504,0.426 -0.39,0 -0.464,-0.246 -0.601,-0.551 -0.973,-2.758 -3.676,-3.547 -5.086,-3.547 -0.836,0 -1.605,0.246 -2.5,0.543 -1.43,0.547 -2.063,0.715 -2.961,0.715 -0.086,0 -0.758,0 -1.144,-0.117 z" /><path
       inkscape:connector-curvature="0"
       id="path48"
       style="fill:#3c3c3c;fill-opacity:1;fill-rule:evenodd;stroke:#3c3c3c;stroke-width:1;stroke-linecap:butt;stroke-linejoin:miter;stroke-miterlimit:4;stroke-dasharray:none;stroke-opacity:1"
       d="m 275.36604,87.972347 -0.016,-0.094 -0.027,-0.086 -0.02,-0.086 -0.031,-0.074 -0.019,-0.078 -0.032,-0.074 -0.023,-0.071 -0.023,-0.058 -0.04,-0.059 -0.031,-0.062 -0.035,-0.051 -0.043,-0.051 -0.043,-0.043 -0.051,-0.039 -0.047,-0.043 -0.062,-0.035 -0.066,-0.035 -0.079,-0.024 -0.078,-0.035 -0.086,-0.027 -0.086,-0.016 -0.054,-0.015 -0.055,-0.008 -0.059,-0.012 -0.046,-0.008 -0.122,-0.015 -0.07,0 -0.055,-0.008 -0.07,-0.008 -0.078,0 -0.062,-0.012 -0.079,-0.008 -0.164,0 -0.086,-0.007 -0.273,0 -0.094,-0.008 -0.301,0 c -0.496,0 -0.875,0 -0.875,-0.621 0,-0.442 0.336,-0.442 0.875,-0.442 l 11.457,0 c 4.985,0 8.813,3.399 8.813,6.336 0,2.117 -1.93,3.918 -5.078,4.242 3.594,0.645 6.594,2.907 6.594,5.450003 0,2.254 -2.286,4.211 -6.141,4.211 l -0.477,-1.063 c 3.032,0 3.707,-2 3.707,-3.113 0,-2.406003 -2.695,-5.129003 -6.668,-5.129003 l -4.855,0 -0.211,-0.832 6.281,0 c 2.785,0 3.86,-1.836 3.86,-3.555 0,-2.933 -3.008,-5.484 -6.575,-5.484 l -4.785,0 c -0.918,0 -0.941,0.043 -0.941,0.305 0,0.027 0,0.171 0.117,0.613 l 2.043,8.121 0.211,0.832 1.816,7.230003 c 0.215,0.918 0.258,1.012 1.497,1.012 l 4.503,0 0.477,1.063 -10.781,0 c -0.567,0 -0.946,0 -0.946,-0.657 0,-0.406 0.356,-0.406 0.946,-0.406 0.023,0 0.593,0 1.117,-0.07 0.637,-0.051 0.687,-0.117 0.687,-0.406 0,-0.059 0,-0.204 -0.125,-0.657 l -3.937,-15.730003 z" /><path
       inkscape:connector-curvature="0"
       id="path50"
       style="fill:#3c3c3c;fill-opacity:1;fill-rule:evenodd;stroke:#3c3c3c;stroke-width:1.60000002;stroke-linecap:butt;stroke-linejoin:miter;stroke-miterlimit:4;stroke-dasharray:none;stroke-opacity:1"
       d="m 261.26636,131.75144 78.47337,131.40244"
       inkscape:transform-center-y="76.666504"
       inkscape:transform-center-x="45.389944" /><path
       inkscape:connector-curvature="0"
       id="path52"
       style="fill:#3c3c3c;fill-opacity:1;fill-rule:nonzero;stroke:#3c3c3c;stroke-width:1.60000002;stroke-linecap:butt;stroke-linejoin:miter;stroke-miterlimit:4;stroke-dasharray:none;stroke-opacity:1"
       d="M 345.7166,263.95831 551.8464,452.01869" /><path
       inkscape:connector-curvature="0"
       id="path54"
       style="fill:#3c3c3c;fill-opacity:1;fill-rule:evenodd;stroke:#3c3c3c;stroke-width:1.60000002;stroke-linecap:butt;stroke-linejoin:miter;stroke-miterlimit:4;stroke-dasharray:none;stroke-opacity:1"
       d="M 337.51863,249.47129 537.66759,155.25037" /><path
       inkscape:connector-curvature="0"
       id="path56"
       style="fill:#3c3c3c;fill-opacity:1;fill-rule:nonzero;stroke:#3c3c3c;stroke-width:1.60000002;stroke-linecap:butt;stroke-linejoin:miter;stroke-miterlimit:4;stroke-dasharray:6.4, 3.2;stroke-dashoffset:0;stroke-opacity:1"
       d="M 151.1403,89.796793 338.2967,256.61121" /><g
       transform="matrix(-1,-0.00223284,-0.00223284,1,51.2,576.59497)"
       id="g60"><path
         inkscape:connector-curvature="0"
         id="path62"
         style="fill:#3c3c3c;fill-opacity:1;fill-rule:evenodd;stroke:#3c3c3c;stroke-width:1.09999704;stroke-linecap:butt;stroke-linejoin:round;stroke-miterlimit:4;stroke-dasharray:none;stroke-opacity:1"
         d="m -494.223,-213.287 -19.23,-7.066 19.226,-7.071 c -3.071,4.169 -3.049,9.88 0.004,14.137 z" /></g><path
       inkscape:connector-curvature="0"
       id="path64"
       style="fill:#3c3c3c;fill-opacity:1;fill-rule:nonzero;stroke:#3c3c3c;stroke-width:1.60000002;stroke-linecap:butt;stroke-linejoin:miter;stroke-miterlimit:4;stroke-dasharray:none;stroke-opacity:1"
       d="M 157.93,357.325 157.141,2.673" /><g
       transform="matrix(0.00223284,1,1,-0.00223284,0,576.59497)"
       id="g66"><path
         inkscape:connector-curvature="0"
         id="path68"
         style="fill:#3c3c3c;fill-opacity:1;fill-rule:evenodd;stroke:#3c3c3c;stroke-width:1.09999704;stroke-linecap:butt;stroke-linejoin:round;stroke-miterlimit:4;stroke-dasharray:none;stroke-opacity:1"
         d="m -556.462,165.52 -19.231,-7.074 19.23,-7.071 c -3.069,4.175 -3.056,9.886 10e-4,14.145 z" /></g><path
       inkscape:connector-curvature="0"
       id="path70"
       style="fill:#3c3c3c;fill-opacity:1;fill-rule:nonzero;stroke:#3c3c3c;stroke-width:1.60000002;stroke-linecap:butt;stroke-linejoin:miter;stroke-miterlimit:4;stroke-dasharray:none;stroke-opacity:1"
       d="M 157.598,356.657 375.387,564.181" /><g
       transform="matrix(-1,-0.952879,-0.952879,1,0,576.59497)"
       id="g72"><path
         inkscape:connector-curvature="0"
         id="path74"
         style="fill:#3c3c3c;fill-opacity:1;fill-rule:evenodd;stroke:#3c3c3c;stroke-width:0.79635298;stroke-linecap:butt;stroke-linejoin:round;stroke-miterlimit:4;stroke-dasharray:none;stroke-opacity:1"
         d="m -178.162,-188.837 -13.92,-5.123 13.919,-5.117 c -2.222,3.02 -2.214,7.157 0.001,10.24 z" /></g><path
       inkscape:connector-curvature="0"
       id="path76"
       style="fill:#3c3c3c;fill-opacity:1;fill-rule:nonzero;stroke:#3c3c3c;stroke-width:1.60000002;stroke-linecap:butt;stroke-linejoin:miter;stroke-miterlimit:4;stroke-dasharray:6.4, 3.2;stroke-dashoffset:0;stroke-opacity:1"
       d="m 0,356.337 158.934,0.36" /><path
       inkscape:connector-curvature="0"
       id="path78"
       style="fill:#3c3c3c;fill-opacity:1;fill-rule:nonzero;stroke:#3c3c3c;stroke-width:1.60000002;stroke-linecap:butt;stroke-linejoin:miter;stroke-miterlimit:4;stroke-dasharray:6.4, 3.2;stroke-dashoffset:0;stroke-opacity:1"
       d="m 157.492,490.251 0.321,-141.957" /><path
       inkscape:connector-curvature="0"
       id="path80"
       style="fill:#3c3c3c;fill-opacity:1;fill-rule:nonzero;stroke:#3c3c3c;stroke-width:1.60000002;stroke-linecap:butt;stroke-linejoin:miter;stroke-miterlimit:4;stroke-dasharray:6.4, 3.2;stroke-dashoffset:0;stroke-opacity:1"
       d="M 158.777,358.372 32.773,238.497" /><g
       transform="matrix(-0.92156096,0.42406991,0.42406991,0.92156096,197.97935,714.60311)"
       id="g82"
       inkscape:transform-center-x="-0.27488084"
       inkscape:transform-center-y="-2.5238471"><path
         inkscape:connector-curvature="0"
         id="path84"
         style="fill:#3c3c3c;fill-opacity:1;fill-rule:evenodd;stroke:#3c3c3c;stroke-width:1.08433104;stroke-linecap:butt;stroke-linejoin:round;stroke-miterlimit:4;stroke-dasharray:none;stroke-opacity:1"
         d="m -527.047,-354.688 -18.956,-6.969 18.959,-6.968 c -3.03,4.112 -3.014,9.743 -0.003,13.937 z" /></g><g
       transform="matrix(-0.83129416,-0.90610972,-0.90610972,0.83129416,76.647735,600.66454)"
       id="g86"><path
         inkscape:connector-curvature="0"
         id="path88"
         style="fill:#3c3c3c;fill-opacity:1;fill-rule:evenodd;stroke:#3c3c3c;stroke-width:0.89455003;stroke-linecap:butt;stroke-linejoin:round;stroke-miterlimit:4;stroke-dasharray:none;stroke-opacity:1"
         d="m -167.934,-360.139 -15.636,-5.752 15.632,-5.749 c -2.494,3.398 -2.48,8.036 0.004,11.501 z" /></g><g
       transform="matrix(0.71748583,1.0179731,1.0179731,-0.71748583,536.31659,663.73193)"
       id="g90"
       inkscape:transform-center-x="-6.0025047"
       inkscape:transform-center-y="0.3923843"><path
         inkscape:connector-curvature="0"
         id="path92"
         style="fill:#3c3c3c;fill-opacity:1;fill-rule:evenodd;stroke:#3c3c3c;stroke-width:0.883241;stroke-linecap:butt;stroke-linejoin:round;stroke-miterlimit:4;stroke-dasharray:none;stroke-opacity:1"
         d="m -473.925,71.285 -15.438,-5.683 15.44,-5.675 c -2.468,3.351 -2.451,7.938 -0.002,11.358 z" /></g><g
       transform="matrix(1.8697847,-0.3664969,-0.37368124,-2.0720407,87.41924,1047.2)"
       id="g94"><path
         inkscape:connector-curvature="0"
         id="path96"
         style="fill:#646464;fill-opacity:1;fill-rule:nonzero;stroke:#646464;stroke-width:0.7988801;stroke-linecap:butt;stroke-linejoin:miter;stroke-miterlimit:4;stroke-dasharray:3.19551996, 1.59775974;stroke-dashoffset:0;stroke-opacity:1"
         d="M 59.912,369.859 349.063,320.527" /></g><path
       inkscape:connector-curvature="0"
       id="path98"
       style="fill:none;stroke:#000000;stroke-width:4;stroke-linecap:butt;stroke-linejoin:miter;stroke-miterlimit:4;stroke-dasharray:none;stroke-opacity:1"
       d="M 160.5692,331.61795 483.6938,180.81405" /><path
       inkscape:connector-curvature="0"
       id="path100"
       style="fill:none;stroke:#000000;stroke-width:4;stroke-linecap:butt;stroke-linejoin:miter;stroke-miterlimit:4;stroke-dasharray:none;stroke-opacity:1"
       d="m 196.21975,129.852 264.6355,239.924" /><path
       inkscape:connector-curvature="0"
       id="path122"
       style="fill:#ff0000;fill-opacity:1;fill-rule:evenodd;stroke:#ff0000;stroke-opacity:1"
       d="m 451.63627,433.4633 4.105,0 c 3.191,0 3.523,-0.68 3.523,-1.906 0,-0.305 0,-0.809 -0.289,-2.07 -0.093,-0.215 -0.136,-0.387 -0.136,-0.481 0,-0.332 0.254,-0.5 0.508,-0.5 0.425,0 0.425,0.125 0.64,0.891 l 2.336,9.195 c 0.121,0.457 0.121,0.551 0.121,0.668 0,0.086 -0.086,0.469 -0.512,0.469 -0.425,0 -0.457,-0.211 -0.636,-0.891 -0.887,-3.293 -1.856,-4.066 -5.461,-4.066 l -3.852,0 2.711,10.765 c 0.367,1.493 0.426,1.649 2.281,1.649 l 5.594,0 c 5.215,0 6.184,-1.395 6.184,-4.649 0,-0.988 0,-1.148 -0.117,-2.297 -0.094,-0.554 -0.094,-0.628 -0.094,-0.765 0,-0.215 0.125,-0.504 0.515,-0.504 0.461,0 0.504,0.258 0.59,1.066 l 0.848,7.325 c 0.129,1.136 -0.082,1.136 -1.148,1.136 l -20.747,0 c -0.851,0 -1.277,0 -1.277,-0.851 0,-0.461 0.383,-0.461 1.184,-0.461 1.562,0 2.746,0 2.746,-0.754 0,-0.18 0,-0.258 -0.215,-1.027 l -5.578,-22.403 c -0.426,-1.656 -0.52,-1.988 -3.867,-1.988 -0.715,0 -1.184,0 -1.184,-0.816 0,-0.504 0.504,-0.504 0.637,-0.504 1.226,0 4.363,0.136 5.597,0.136 1.395,0 4.914,-0.136 6.309,-0.136 0.383,0 0.895,0 0.895,0.808 0,0.332 -0.258,0.418 -0.258,0.469 -0.133,0.043 -0.211,0.043 -1.18,0.043 -0.945,0 -1.156,0 -2.203,0.074 -1.242,0.137 -1.359,0.309 -1.359,0.856 0,0.074 0,0.343 0.16,0.964 l 2.629,10.555 z" /><path
       inkscape:connector-curvature="0"
       id="path124"
       style="fill:#ff0000;fill-opacity:1;fill-rule:evenodd;stroke:#ff0000;stroke-opacity:1"
       d="m 472.77227,430.6133 0,0.262 -0.008,0.035 0,0.102 -0.008,0.027 0,0.023 -0.008,0.016 0,0.043 -0.008,0.027 0,0.016 -0.019,0.035 -0.008,0.035 -0.016,0.028 -0.019,0.023 -0.016,0.023 -0.015,0.028 -0.028,0.015 -0.023,0.016 -0.035,0.02 -0.028,0.007 -0.031,0.008 -0.043,0.02 -0.043,0 -0.016,0.008 -0.027,0 -0.016,0.007 -0.113,0 -0.023,0.008 -0.34,0 c -1.899,-1.871 -4.586,-1.89 -5.801,-1.89 l 0,-1.071 c 0.715,0 2.672,0 4.285,0.828 l 0,-15.113 c 0,-0.98 0,-1.367 -2.957,-1.367 l -1.117,0 0,-1.067 c 0.527,0.028 4.168,0.122 5.273,0.122 0.918,0 4.653,-0.094 5.301,-0.122 l 0,1.067 -1.133,0 c -2.96,0 -2.96,0.387 -2.96,1.367 l 0,16.414 z" /><path
       inkscape:connector-curvature="0"
       id="path126"
       style="fill:#ff0000;fill-opacity:1;fill-rule:evenodd;stroke:#ff0000;stroke-opacity:1"
       d="m 462.84737,229.78409 4.106,0 c 3.187,0 3.519,-0.68 3.519,-1.902 0,-0.309 0,-0.809 -0.289,-2.078 -0.089,-0.211 -0.132,-0.383 -0.132,-0.477 0,-0.328 0.253,-0.5 0.507,-0.5 0.426,0 0.426,0.129 0.637,0.895 l 2.34,9.191 c 0.117,0.457 0.117,0.551 0.117,0.672 0,0.086 -0.086,0.469 -0.508,0.469 -0.422,0 -0.461,-0.215 -0.636,-0.895 -0.887,-3.289 -1.856,-4.066 -5.457,-4.066 l -3.86,0 2.715,10.769 c 0.363,1.488 0.43,1.649 2.277,1.649 l 5.598,0 c 5.211,0 6.184,-1.395 6.184,-4.653 0,-0.984 0,-1.148 -0.118,-2.297 -0.093,-0.55 -0.093,-0.629 -0.093,-0.765 0,-0.211 0.129,-0.5 0.515,-0.5 0.457,0 0.5,0.254 0.586,1.062 l 0.856,7.321 c 0.125,1.14 -0.09,1.14 -1.153,1.14 l -20.75,0 c -0.847,0 -1.277,0 -1.277,-0.851 0,-0.457 0.387,-0.457 1.188,-0.457 1.562,0 2.746,0 2.746,-0.758 0,-0.18 0,-0.254 -0.211,-1.028 l -5.578,-22.402 c -0.43,-1.656 -0.524,-1.988 -3.872,-1.988 -0.714,0 -1.183,0 -1.183,-0.817 0,-0.5 0.5,-0.5 0.64,-0.5 1.219,0 4.36,0.133 5.59,0.133 1.395,0 4.918,-0.133 6.317,-0.133 0.383,0 0.886,0 0.886,0.805 0,0.332 -0.25,0.418 -0.25,0.469 -0.136,0.043 -0.214,0.043 -1.187,0.043 -0.938,0 -1.152,0 -2.199,0.078 -1.239,0.133 -1.364,0.305 -1.364,0.848 0,0.078 0,0.351 0.165,0.972 l 2.628,10.551 z" /><path
       inkscape:connector-curvature="0"
       id="path128"
       style="fill:#ff0000;fill-opacity:1;fill-rule:evenodd;stroke:#ff0000;stroke-opacity:1"
       d="m 489.02237,211.88909 -1.019,0 c -0.07,-0.653 -0.379,-2.407 -0.762,-2.703 -0.226,-0.172 -2.512,-0.172 -2.926,-0.172 l -5.461,0 c 3.118,2.75 4.141,3.574 5.926,4.968 2.199,1.762 4.242,3.59 4.242,6.411 0,3.582 -3.144,5.777 -6.937,5.777 -3.672,0 -6.164,-2.578 -6.164,-5.301 0,-1.512 1.273,-1.664 1.582,-1.664 0.695,0 1.562,0.508 1.562,1.57 0,0.528 -0.211,1.567 -1.75,1.567 0.914,2.101 2.934,2.754 4.332,2.754 2.957,0 4.504,-2.305 4.504,-4.703 0,-2.582 -1.836,-4.625 -2.789,-5.688 l -7.133,-7.058 c -0.308,-0.262 -0.308,-0.332 -0.308,-1.157 l 12.215,0 0.886,5.399 z" /><path
       inkscape:connector-curvature="0"
       id="path130"
       style="fill:#ff0000;fill-opacity:1;fill-rule:evenodd;stroke:#ff0000;stroke-opacity:1"
       d="m 182.4295,188.7958 4.105,0 c 3.191,0 3.523,-0.679 3.523,-1.906 0,-0.305 0,-0.809 -0.289,-2.074 -0.093,-0.215 -0.136,-0.383 -0.136,-0.477 0,-0.332 0.254,-0.504 0.511,-0.504 0.418,0 0.418,0.129 0.633,0.895 l 2.34,9.191 c 0.117,0.461 0.117,0.555 0.117,0.672 0,0.086 -0.086,0.469 -0.508,0.469 -0.421,0 -0.457,-0.211 -0.636,-0.891 -0.887,-3.293 -1.856,-4.066 -5.465,-4.066 l -3.852,0 2.715,10.766 c 0.363,1.488 0.426,1.648 2.281,1.648 l 5.594,0 c 5.211,0 6.18,-1.395 6.18,-4.648 0,-0.989 0,-1.149 -0.113,-2.297 -0.098,-0.555 -0.098,-0.629 -0.098,-0.766 0,-0.215 0.133,-0.504 0.519,-0.504 0.457,0 0.5,0.258 0.586,1.067 l 0.852,7.32 c 0.125,1.14 -0.086,1.14 -1.145,1.14 l -20.75,0 c -0.855,0 -1.281,0 -1.281,-0.851 0,-0.461 0.383,-0.461 1.188,-0.461 1.558,0 2.742,0 2.742,-0.754 0,-0.18 0,-0.258 -0.211,-1.031 l -5.574,-22.399 c -0.43,-1.66 -0.524,-1.988 -3.871,-1.988 -0.719,0 -1.188,0 -1.188,-0.816 0,-0.504 0.504,-0.504 0.645,-0.504 1.218,0 4.355,0.136 5.589,0.136 1.395,0 4.918,-0.136 6.309,-0.136 0.383,0 0.899,0 0.899,0.808 0,0.332 -0.254,0.418 -0.254,0.469 -0.141,0.043 -0.219,0.043 -1.188,0.043 -0.937,0 -1.156,0 -2.203,0.074 -1.238,0.137 -1.355,0.309 -1.355,0.852 0,0.074 0,0.348 0.16,0.969 l 2.629,10.554 z" /><path
       inkscape:connector-curvature="0"
       id="path132"
       style="fill:#ff0000;fill-opacity:1;fill-rule:evenodd;stroke:#ff0000;stroke-opacity:1"
       d="m 203.3295,176.9968 0.218,0 0.203,-0.016 0.215,-0.023 0.203,-0.035 0.2,-0.043 0.183,-0.051 0.199,-0.058 0.176,-0.071 0.176,-0.086 0.172,-0.082 0.168,-0.101 0.164,-0.106 0.152,-0.117 0.149,-0.129 0.14,-0.137 0.137,-0.144 0.129,-0.152 0.117,-0.161 0.117,-0.172 0.11,-0.183 0.097,-0.188 0.094,-0.207 0.082,-0.203 0.078,-0.219 0.071,-0.23 0.058,-0.238 0.051,-0.246 0.043,-0.258 0.031,-0.262 0.024,-0.273 0.011,-0.282 0.008,-0.296 c 0,-3.684 -2.137,-4.77 -3.855,-4.77 -1.188,0 -3.793,0.324 -5.035,2.074 1.382,0.051 1.714,1.039 1.714,1.66 0,0.942 -0.718,1.621 -1.629,1.621 -0.828,0 -1.668,-0.5 -1.668,-1.714 0,-2.789 3.086,-4.594 6.672,-4.594 4.121,0 6.957,2.766 6.957,5.723 0,2.312 -1.879,4.625 -5.152,5.308 3.109,1.129 4.242,3.34 4.242,5.152 0,2.34 -2.703,4.09 -5.972,4.09 -3.305,0 -5.813,-1.605 -5.813,-3.972 0,-1.012 0.649,-1.563 1.539,-1.563 0.918,0 1.504,0.672 1.504,1.496 0,0.867 -0.586,1.489 -1.504,1.539 1.035,1.317 3.07,1.641 4.176,1.641 1.324,0 3.195,-0.656 3.195,-3.231 0,-1.25 -0.406,-2.601 -1.176,-3.519 -0.992,-1.133 -1.808,-1.199 -3.293,-1.277 -0.75,-0.067 -0.8,-0.067 -0.949,-0.094 -0.066,0 -0.301,-0.051 -0.301,-0.383 0,-0.418 0.262,-0.418 0.762,-0.418 l 1.61,0 z" /><path
       inkscape:connector-curvature="0"
       id="path134"
       style="fill:#ff0000;fill-opacity:1;fill-rule:evenodd;stroke:#ff0000;stroke-opacity:1"
       d="m 191.12536,345.8152 4.106,0 c 3.191,0 3.519,-0.684 3.519,-1.906 0,-0.309 0,-0.813 -0.289,-2.078 -0.09,-0.207 -0.133,-0.379 -0.133,-0.473 0,-0.332 0.254,-0.5 0.508,-0.5 0.426,0 0.426,0.125 0.641,0.891 l 2.336,9.195 c 0.121,0.457 0.121,0.551 0.121,0.672 0,0.082 -0.086,0.465 -0.512,0.465 -0.426,0 -0.457,-0.211 -0.637,-0.891 -0.886,-3.293 -1.855,-4.066 -5.461,-4.066 l -3.851,0 2.711,10.761 c 0.367,1.489 0.426,1.657 2.281,1.657 l 5.594,0 c 5.215,0 6.183,-1.395 6.183,-4.657 0,-0.984 0,-1.144 -0.117,-2.297 -0.094,-0.55 -0.094,-0.628 -0.094,-0.761 0,-0.211 0.125,-0.5 0.516,-0.5 0.461,0 0.504,0.254 0.59,1.058 l 0.848,7.321 c 0.129,1.14 -0.082,1.14 -1.149,1.14 l -20.746,0 c -0.851,0 -1.277,0 -1.277,-0.847 0,-0.457 0.383,-0.457 1.183,-0.457 1.563,0 2.746,0 2.746,-0.758 0,-0.184 0,-0.254 -0.214,-1.035 l -5.579,-22.399 c -0.425,-1.652 -0.519,-1.984 -3.867,-1.984 -0.715,0 -1.183,0 -1.183,-0.82 0,-0.504 0.504,-0.504 0.636,-0.504 1.227,0 4.364,0.136 5.598,0.136 1.395,0 4.914,-0.136 6.309,-0.136 0.382,0 0.894,0 0.894,0.808 0,0.332 -0.258,0.422 -0.258,0.473 -0.132,0.043 -0.211,0.043 -1.179,0.043 -0.946,0 -1.157,0 -2.203,0.074 -1.243,0.137 -1.36,0.309 -1.36,0.852 0,0.078 0,0.343 0.16,0.964 l 2.629,10.559 z" /><path
       inkscape:connector-curvature="0"
       id="path136"
       style="fill:#ff0000;fill-opacity:1;fill-rule:evenodd;stroke:#ff0000;stroke-opacity:1"
       d="m 218.01936,330.5812 0,1.066 -3.301,0 0,13.223 c 0,0.613 0,0.824 -0.644,0.824 -0.368,0 -0.485,0 -0.774,-0.414 l -9.804,-13.633 0,-1.066 8.714,0 0.196,1.066 -7.825,0 7.825,10.844 0,-10.844 -0.196,-1.066 0,-2.43 c 0,-1.016 0,-1.367 -2.406,-1.367 l -0.797,0 0,-1.067 c 1.477,0.055 3.375,0.118 4.438,0.118 1.105,0 2.992,-0.063 4.48,-0.118 l 0,1.067 -0.797,0 c -2.41,0 -2.41,0.351 -2.41,1.367 l 0,2.43 3.301,0 z" /><path
       inkscape:connector-curvature="0"
       id="path144"
       style="fill:#009eff;fill-opacity:1;fill-rule:evenodd;stroke:none"
       d="m 352.563,60.087 4.109,0 c 3.187,0 3.519,-0.676 3.519,-1.906 0,-0.305 0,-0.809 -0.289,-2.074 -0.093,-0.215 -0.136,-0.383 -0.136,-0.477 0,-0.332 0.254,-0.504 0.511,-0.504 0.426,0 0.426,0.129 0.637,0.895 l 2.34,9.191 c 0.117,0.461 0.117,0.555 0.117,0.672 0,0.086 -0.086,0.469 -0.508,0.469 -0.425,0 -0.461,-0.211 -0.64,-0.891 -0.883,-3.293 -1.852,-4.066 -5.457,-4.066 l -3.852,0 2.711,10.769 c 0.367,1.485 0.426,1.645 2.277,1.645 l 5.598,0 c 5.211,0 6.184,-1.395 6.184,-4.645 0,-0.992 0,-1.152 -0.121,-2.3 -0.094,-0.555 -0.094,-0.629 -0.094,-0.766 0,-0.215 0.129,-0.504 0.519,-0.504 0.457,0 0.5,0.258 0.586,1.07 l 0.852,7.317 c 0.129,1.14 -0.086,1.14 -1.149,1.14 l -20.75,0 c -0.851,0 -1.273,0 -1.273,-0.851 0,-0.461 0.379,-0.461 1.18,-0.461 1.566,0 2.746,0 2.746,-0.754 0,-0.18 0,-0.258 -0.211,-1.031 l -5.578,-22.399 c -0.426,-1.66 -0.52,-1.988 -3.871,-1.988 -0.715,0 -1.18,0 -1.18,-0.816 0,-0.504 0.5,-0.504 0.637,-0.504 1.222,0 4.363,0.14 5.593,0.14 1.395,0 4.918,-0.14 6.313,-0.14 0.383,0 0.89,0 0.89,0.808 0,0.332 -0.253,0.418 -0.253,0.469 -0.137,0.043 -0.211,0.043 -1.184,0.043 -0.941,0 -1.156,0 -2.199,0.074 -1.242,0.137 -1.364,0.309 -1.364,0.852 0,0.074 0,0.351 0.165,0.972 l 2.625,10.551 z" /><path
       inkscape:connector-curvature="0"
       id="path146"
       style="fill:#009eff;fill-opacity:1;fill-rule:evenodd;stroke:none"
       d="m 382.734,50.927 0.008,0.043 0.012,0.035 0.016,0.043 0.007,0.035 0.008,0.032 0,0.035 0.012,0.023 0.008,0.035 0.008,0.024 0,0.027 0.007,0.027 0.008,0.024 0,0.019 0.008,0.024 0,0.035 0.012,0.016 0,0.058 0.007,0.02 0,0.074 c 0,0.652 -0.527,0.941 -1.011,0.941 -0.672,0 -1.235,-0.558 -1.352,-1.125 -0.504,0.805 -1.515,1.68 -3.054,1.68 l 0,-0.824 c 2.066,0 2.636,-2.219 2.636,-2.52 0,-0.058 0,-0.109 -0.086,-0.437 l -1.336,-5.332 c -0.117,-0.453 -0.117,-0.504 -0.621,-1.098 -1.035,-1.25 -2.457,-2.023 -3.586,-2.023 -1.515,0 -2.222,1.273 -2.222,2.812 0,1.301 0.8,4.625 1.566,5.93 1.25,2.074 2.637,2.668 3.649,2.668 l 0,0.824 c -3.708,0 -7.594,-3.961 -7.594,-8.195 0,-3.055 2.074,-4.867 4.508,-4.867 1.367,0 2.668,0.683 3.707,1.601 l -0.657,-2.664 c -0.332,-1.25 -0.527,-2.039 -1.656,-3.051 -1.301,-1.086 -2.578,-1.086 -3.324,-1.086 -1.356,0 -1.738,0.075 -2.274,0.192 0.735,0.359 0.946,1.062 0.946,1.488 0,0.707 -0.555,1.09 -1.156,1.09 -0.825,0 -1.684,-0.672 -1.684,-1.805 0,-1.785 2.551,-1.808 4.207,-1.808 4.652,0 6.637,2.363 7.043,4.062 l 3.23,12.918 z" /><g
       transform="matrix(-0.387871,1,0.726935,0.245534,60,552.99497)"
       id="g152"><path
         inkscape:connector-curvature="0"
         id="path154"
         style="fill:#00b700;fill-opacity:1;fill-rule:evenodd;stroke:#00b700;stroke-width:1.36136603;stroke-linecap:butt;stroke-linejoin:round;stroke-miterlimit:4;stroke-dasharray:none;stroke-opacity:1"
         d="m -240.967,520.766 -15.341,-5.643 15.342,-5.641 c -2.454,3.328 -2.437,7.889 -0.001,11.284 z" /></g><g
       transform="matrix(0.30671016,0.9531441,-0.71471846,0.46952349,100.60283,624.0875)"
       id="g156"><path
         inkscape:connector-curvature="0"
         id="path158"
         style="fill:#00b700;fill-opacity:1;fill-rule:evenodd;stroke:#00b700;stroke-width:1.35883498;stroke-linecap:butt;stroke-linejoin:round;stroke-miterlimit:4;stroke-dasharray:none;stroke-opacity:1"
         d="m -147.904,-647.428 -17.6,-6.469 17.6,-6.476 c -2.813,3.821 -2.795,9.052 0,12.945 z" /></g><path
       inkscape:connector-curvature="0"
       id="path160"
       style="fill:#00b700;fill-opacity:1;fill-rule:evenodd;stroke:none"
       d="m 556.272,433.375 0,0.054 0.008,0.016 0,0.043 0.008,0.019 0.007,0.024 0,0.027 0.008,0.016 0,0.027 0.012,0.028 0.008,0.023 0.007,0.055 0.016,0.05 0,0.024 0.012,0.019 0.008,0.024 0,0.027 0.007,0.02 0.008,0.015 0,0.016 0.012,0.02 0,0.035 0.008,0 0,0.035 c 0,0.031 0,0.43 -0.512,0.43 -0.43,0 -0.473,-0.137 -0.648,-0.864 l -2.496,-9.933 c -6.84,-0.215 -13.172,-5.946 -13.172,-11.801 0,-4.086 3.004,-7.488 8.257,-7.785 l 0.215,0.945 c -2.574,0.117 -5.683,1.629 -5.683,5.934 0,5.172 3.715,11.195 10.125,11.746 l -4.442,-17.68 -0.215,-0.945 c -0.335,-1.336 -0.628,-2.719 -0.984,-4.051 -0.512,-2.027 -0.941,-3.66 -0.941,-3.793 0,-0.422 0.293,-0.473 0.508,-0.473 0.218,0 0.312,0.051 0.433,0.172 0.078,0.086 0.356,1.125 0.477,1.727 l 1.629,6.418 0.218,0.945 4.438,17.68 c 3.265,-0.164 5.719,-2.149 5.719,-5.942 0,-5.07 -3.696,-11.23 -10.157,-11.738 l -0.218,-0.945 c 6.937,0.218 13.175,6.015 13.175,11.785 0,3.394 -2.281,7.367 -8.265,7.801 l 2.41,9.75 z" /><path
       inkscape:connector-curvature="0"
       id="path162"
       style="fill:#00b700;fill-opacity:1;fill-rule:evenodd;stroke:none"
       d="m 493.8256,148.11093 0,0.27 -0.008,0.293 -0.016,0.312 -0.019,0.321 -0.028,0.339 -0.031,0.336 -0.035,0.356 -0.055,0.355 -0.058,0.367 -0.063,0.372 -0.078,0.363 -0.086,0.375 -0.101,0.363 -0.106,0.363 -0.121,0.356 -0.141,0.355 -0.144,0.348 -0.156,0.328 -0.176,0.32 -0.191,0.313 -0.2,0.297 -0.215,0.277 -0.242,0.258 -0.254,0.234 -0.265,0.219 -0.141,0.102 -0.148,0.086 -0.145,0.089 -0.156,0.086 -0.156,0.071 -0.164,0.066 -0.168,0.063 -0.172,0.05 -0.184,0.043 -0.18,0.043 -0.191,0.028 -0.191,0.019 -0.2,0.016 -0.199,0 -0.043,-0.946 c 2.117,0 2.367,-2.765 2.367,-5.226 0,-2.117 -0.339,-4.328 -1.378,-8.602 l -9.024,0 c 0.734,2.778 1.602,6.227 3.32,9.293 1.18,2.11 2.766,4.535 4.715,4.535 l 0.043,0.946 c -6,0 -12.656,-12.172 -12.656,-22.063 0,-4.066 1.25,-8.859 5.191,-8.859 l 0,0.953 c -1.437,0 -2.347,1.258 -2.347,5.262 0,1.82 0.261,4.328 1.386,8.547 l 8.989,0 c -0.465,-1.977 -1.375,-5.641 -3.032,-8.762 -1.5,-2.941 -3.14,-5.047 -4.996,-5.047 l 0,-0.953 c 6.078,0 12.649,12.398 12.649,22.07 z" /><path
       inkscape:connector-curvature="0"
       id="path164"
       style="fill:#00b700;fill-opacity:1;fill-rule:evenodd;stroke:none"
       d="m 320.0656,167.8 0,0.035 0.011,0.031 0.016,0.035 0.008,0.043 0.008,0.032 0.015,0.085 0.012,0.043 0.008,0.04 0.023,0.128 0.008,0.039 0,0.079 0.012,0.023 0,0.02 c 0,0.418 -0.297,0.461 -0.508,0.461 -0.418,0 -0.453,-0.094 -0.629,-0.84 l -6.945,-27.692 c -3.176,0.375 -4.774,1.934 -4.774,4.699 0,0.833 0,1.915 2.262,7.793 0.176,0.497 0.461,1.211 0.461,2.051 0,1.875 -1.336,3.422 -3.437,3.422 -3.985,0 -5.532,-6.062 -5.532,-6.449 0,-0.422 0.422,-0.422 0.512,-0.422 0.422,0 0.453,0.094 0.664,0.766 1.137,3.976 2.801,5.187 4.231,5.187 0.335,0 1.05,0 1.05,-1.336 0,-1.094 -0.422,-2.129 -0.968,-3.597 -2.008,-5.29 -2.008,-6.375 -2.008,-7.086 0,-3.977 3.269,-5.704 7.289,-5.946 -0.344,-1.504 -0.344,-1.59 -0.918,-3.816 -0.133,-0.453 -0.973,-3.844 -0.973,-3.977 0,-0.043 0,-0.422 0.512,-0.422 0.074,0 0.285,0 0.371,0.168 0.125,0.086 0.375,1.137 0.512,1.727 l 1.59,6.234 c 1.546,0 5.226,0 9.16,4.485 1.726,1.933 2.609,3.765 3.062,5.027 0.387,1.039 1.301,4.688 1.301,6.531 0,2.352 -1.125,2.926 -1.848,2.926 -1.043,0 -2.093,-1.086 -2.093,-2.012 0,-0.535 0.253,-0.781 0.628,-1.125 0.465,-0.461 1.516,-1.546 1.516,-3.554 0,-2.684 -2.18,-6.114 -3.648,-7.625 -3.684,-3.727 -6.364,-3.727 -7.871,-3.727 l 6.91,27.516 z" /><g
       transform="matrix(1.1656924,-0.57108604,-0.50102932,-1.2575788,482.06849,693.54783)"
       id="g166"><path
         inkscape:connector-curvature="0"
         id="path168"
         style="fill:#00b700;fill-opacity:1;fill-rule:evenodd;stroke:#00b700;stroke-width:0.60446101;stroke-linecap:butt;stroke-linejoin:round;stroke-miterlimit:4;stroke-dasharray:none;stroke-opacity:1"
         d="m 14.395,420.715 -10.899,-4.008 10.899,-4.01 c -1.741,2.367 -1.73,5.605 0,8.018 z" /></g><g
       transform="matrix(1.0670149,0.25056003,0.14800528,-1.0860002,103.55932,658.39332)"
       id="g170"><path
         inkscape:connector-curvature="0"
         id="path172"
         style="fill:#000000;fill-opacity:1;fill-rule:nonzero;stroke:#000000;stroke-width:1.77401102;stroke-linecap:butt;stroke-linejoin:miter;stroke-miterlimit:4;stroke-dasharray:none;stroke-opacity:1"
         d="m 132.947,408.625 c -2.424,-10.567 8.209,-20.472 23.76,-22.137 15.55,-1.663 30.149,5.546 32.621,16.107 2.471,10.562 -8.116,20.491 -23.661,22.187 -15.544,1.694 -30.17,-5.483 -32.693,-16.041" /></g><g
       style="fill:#ff0000;fill-opacity:1;stroke:#ff0000;stroke-width:0.66992414;stroke-opacity:1"
       transform="matrix(0.61803837,-1.3609618,1.3572969,0.61637407,-540.08724,831.59928)"
       id="g4469-3-64"
       inkscape:transform-center-x="36.413588"
       inkscape:transform-center-y="-6.2101286"><path
         d="m 498.895,288.845 -40.043,55.352"
         style="fill:#ff0000;fill-opacity:1;stroke:#ff0000;stroke-width:1.60781801;stroke-linecap:butt;stroke-linejoin:miter;stroke-miterlimit:4;stroke-dasharray:none;stroke-opacity:1"
         id="path116-3-9"
         inkscape:connector-curvature="0" /><g
         id="g118-4-36"
         transform="matrix(0.723434,-1,-1,-0.723434,0,576.59497)"
         style="fill:#ff0000;fill-opacity:1;stroke:#ff0000;stroke-width:0.66992414;stroke-opacity:1"><path
           d="m 381.907,-184.797 -15.579,-5.728 15.581,-5.732 c -2.492,3.385 -2.477,8.013 -0.002,11.46 z"
           style="fill:#ff0000;fill-opacity:1;fill-rule:evenodd;stroke:#ff0000;stroke-width:0.59705919;stroke-linecap:butt;stroke-linejoin:round;stroke-miterlimit:4;stroke-dasharray:none;stroke-opacity:1"
           id="path120-0-58"
           inkscape:connector-curvature="0" /></g></g><g
       transform="matrix(1,0.181433,0.181433,-1,13.57645,684.0752)"
       id="g174"><path
         inkscape:connector-curvature="0"
         id="path176"
         style="fill:#000000;fill-opacity:1;fill-rule:evenodd;stroke:#000000;stroke-width:3.93574595;stroke-linecap:butt;stroke-linejoin:miter;stroke-miterlimit:4;stroke-dasharray:none;stroke-opacity:1"
         d="m 87.109,366.894 c 0.002,3.477 -2.822,6.297 -6.298,6.295 -3.477,0.002 -6.294,-2.818 -6.292,-6.294 -0.002,-3.477 2.815,-6.298 6.291,-6.3 3.477,0.002 6.297,2.822 6.299,6.299 z" /></g><g
       transform="matrix(0.678005,1,1,-0.678005,-33.941125,602.6165)"
       id="g178"><path
         inkscape:connector-curvature="0"
         id="path180"
         style="fill:#000000;fill-opacity:1;fill-rule:evenodd;stroke:#000000;stroke-width:3.31077409;stroke-linecap:butt;stroke-linejoin:miter;stroke-miterlimit:4;stroke-dasharray:none;stroke-opacity:1"
         d="m -213.908,376.855 c 0.002,2.924 -2.374,5.297 -5.296,5.297 -2.926,0 -5.301,-2.374 -5.297,-5.295 -0.004,-2.927 2.374,-5.297 5.294,-5.3 2.928,0.003 5.299,2.372 5.299,5.298 z" /></g><g
       style="fill:#ff0000;fill-opacity:1;stroke:#ff0000;stroke-width:0.66992414;stroke-opacity:1"
       transform="matrix(0.61803837,-1.3609618,1.3572969,0.61637407,-216.70511,681.73596)"
       id="g4469-3-64-2"
       inkscape:transform-center-x="36.413588"
       inkscape:transform-center-y="-6.2101286"><path
         d="m 498.895,288.845 -40.043,55.352"
         style="fill:#ff0000;fill-opacity:1;stroke:#ff0000;stroke-width:1.60781801;stroke-linecap:butt;stroke-linejoin:miter;stroke-miterlimit:4;stroke-dasharray:none;stroke-opacity:1"
         id="path116-3-9-00"
         inkscape:connector-curvature="0" /><g
         id="g118-4-36-7"
         transform="matrix(0.723434,-1,-1,-0.723434,0,576.59497)"
         style="fill:#ff0000;fill-opacity:1;stroke:#ff0000;stroke-width:0.66992414;stroke-opacity:1"><path
           d="m 381.907,-184.797 -15.579,-5.728 15.581,-5.732 c -2.492,3.385 -2.477,8.013 -0.002,11.46 z"
           style="fill:#ff0000;fill-opacity:1;fill-rule:evenodd;stroke:#ff0000;stroke-width:0.59705919;stroke-linecap:butt;stroke-linejoin:round;stroke-miterlimit:4;stroke-dasharray:none;stroke-opacity:1"
           id="path120-0-58-7"
           inkscape:connector-curvature="0" /></g></g><g
       transform="matrix(1,0.181433,0.181433,-1,-13.57645,471.37749)"
       id="g182"><path
         inkscape:connector-curvature="0"
         id="path184"
         style="fill:#000000;fill-opacity:1;fill-rule:evenodd;stroke:#000000;stroke-width:3.93574595;stroke-linecap:butt;stroke-linejoin:miter;stroke-miterlimit:4;stroke-dasharray:none;stroke-opacity:1"
         d="m 437.968,366.895 c -0.001,3.473 -2.822,6.297 -6.298,6.295 -3.477,0.002 -6.3,-2.823 -6.299,-6.295 0.005,-3.476 2.826,-6.3 6.299,-6.299 3.476,0.002 6.296,2.823 6.298,6.299 z" /></g><g
       transform="matrix(0.678005,1,1,-0.678005,31.678384,549.44207)"
       id="g186"><path
         inkscape:connector-curvature="0"
         id="path188"
         style="fill:#000000;fill-opacity:1;fill-rule:evenodd;stroke:#000000;stroke-width:3.31077409;stroke-linecap:butt;stroke-linejoin:miter;stroke-miterlimit:4;stroke-dasharray:none;stroke-opacity:1"
         d="m 81.75,376.858 c -0.001,2.919 -2.375,5.294 -5.299,5.292 -2.924,0.002 -5.295,-2.371 -5.297,-5.295 0,-2.926 2.374,-5.297 5.3,-5.296 2.921,-0.001 5.297,2.373 5.296,5.299 z" /></g><g
       transform="matrix(0.80510335,-0.58638766,-0.58873495,-0.80832615,250.25455,711.40538)"
       id="g190"><path
         inkscape:connector-curvature="0"
         id="path192"
         style="fill:#646464;fill-opacity:1;fill-rule:nonzero;stroke:#646464;stroke-width:1.60319996;stroke-linecap:butt;stroke-linejoin:miter;stroke-miterlimit:4;stroke-dasharray:6.412798, 3.206399;stroke-dashoffset:0;stroke-opacity:1"
         d="m 257.613,209.188 77.065,103.82" /></g><g
       transform="matrix(0.8971,-0.446264,-0.062771,-1,60,552.99497)"
       id="g194"><path
         inkscape:connector-curvature="0"
         id="path196"
         style="fill:none;stroke:#00b700;stroke-width:1.66349995;stroke-linecap:butt;stroke-linejoin:miter;stroke-miterlimit:4;stroke-dasharray:none;stroke-opacity:1"
         d="m 496.94,-85.129 c -4.443,-7.99 -3.433,-19.187 2.304,-25.571 5.736,-6.381 14.223,-5.75 19.39,1.44" /></g><path
       style="color:#000000;clip-rule:nonzero;display:inline;overflow:visible;visibility:visible;opacity:1;isolation:auto;mix-blend-mode:normal;color-interpolation:sRGB;color-interpolation-filters:linearRGB;solid-color:#000000;solid-opacity:1;fill:none;fill-opacity:1;fill-rule:nonzero;stroke:#ff0000;stroke-width:1.60000002;stroke-linecap:butt;stroke-linejoin:miter;stroke-miterlimit:4;stroke-dasharray:none;stroke-dashoffset:0;stroke-opacity:1;marker-end:url(#marker8429);color-rendering:auto;image-rendering:auto;shape-rendering:auto;text-rendering:auto;enable-background:accumulate"
       id="path4455"
       transform="matrix(-0.85941635,0.51127639,0.51127639,0.85941635,0,0)"
       sodipodi:type="arc"
       sodipodi:cx="-143.98065"
       sodipodi:cy="391.69696"
       sodipodi:rx="90.510666"
       sodipodi:ry="87.930634"
       sodipodi:start="5.6675915"
       sodipodi:end="6.0537231"
       d="m -70.084965,340.92199 a 90.510666,87.930634 0 0 1 14.242591,30.77481"
       sodipodi:open="true" /><path
       inkscape:connector-curvature="0"
       id="path160-0"
       style="fill:#ff0000;fill-opacity:1;fill-rule:evenodd;stroke:none"
       d="m 252.86377,283.34948 0,0.0404 0.006,0.0123 0,0.0322 0.006,0.0143 0.005,0.0179 0,0.0203 0.006,0.0123 0,0.0203 0.009,0.021 0.006,0.0172 0.005,0.0412 0.0123,0.0375 0,0.0179 0.009,0.0143 0.006,0.0179 0,0.0203 0.005,0.015 0.006,0.0111 0,0.0123 0.009,0.015 0,0.0262 0.006,0 0,0.0262 c 0,0.0232 0,0.32223 -0.38368,0.32223 -0.32221,0 -0.35445,-0.10273 -0.48558,-0.64745 l -1.8704,-7.44339 c -5.12571,-0.16112 -9.87065,-4.4557 -9.87065,-8.8432 0,-3.06189 2.25108,-5.61121 6.18747,-5.83377 l 0.16111,0.70814 c -1.92885,0.0877 -4.25862,1.22071 -4.25862,4.44671 0,3.87569 2.78387,8.38909 7.58727,8.80198 l -3.32865,-13.24869 -0.16111,-0.70814 c -0.25103,-1.00115 -0.4706,-2.03751 -0.73737,-3.03567 -0.38367,-1.51894 -0.70516,-2.74265 -0.70516,-2.84231 0,-0.31623 0.21957,-0.35445 0.38069,-0.35445 0.16336,0 0.23379,0.0382 0.32447,0.12889 0.0585,0.0644 0.26677,0.84303 0.35745,1.29415 l 1.2207,4.80939 0.16336,0.70814 3.32566,13.24869 c 2.44666,-0.1229 4.28559,-1.61037 4.28559,-4.4527 0,-3.79925 -2.76964,-8.41531 -7.61125,-8.79599 l -0.16336,-0.70814 c 5.19831,0.16336 9.87282,4.5074 9.87282,8.83121 0,2.54333 -1.70929,5.52053 -6.19347,5.84576 l 1.80596,7.30626 z" /><g
       style="fill:#ff0000;fill-opacity:1;stroke:#ff0000;stroke-width:0.66992414;stroke-opacity:1"
       transform="matrix(0.61803837,-1.3609618,1.3572969,0.61637407,-365.32328,758.35864)"
       id="g4469-3-64-6-7"
       inkscape:transform-center-x="36.413588"
       inkscape:transform-center-y="-6.2101286"><path
         d="m 498.895,288.845 -40.043,55.352"
         style="fill:#ff0000;fill-opacity:1;stroke:#ff0000;stroke-width:1.60781801;stroke-linecap:butt;stroke-linejoin:miter;stroke-miterlimit:4;stroke-dasharray:none;stroke-opacity:1"
         id="path116-3-9-0-2"
         inkscape:connector-curvature="0" /><g
         id="g118-4-36-0-8"
         transform="matrix(0.723434,-1,-1,-0.723434,0,576.59497)"
         style="fill:#ff0000;fill-opacity:1;stroke:#ff0000;stroke-width:0.66992414;stroke-opacity:1" /></g><path
       inkscape:connector-curvature="0"
       id="path116-3-9-0-2-9"
       style="fill:#ff0000;fill-opacity:1;stroke:#ff0000;stroke-width:2.4000001;stroke-linecap:butt;stroke-linejoin:miter;stroke-miterlimit:4;stroke-dasharray:none;stroke-opacity:1"
       d="m 334.67784,256.83429 0.21876,90.85862" /><g
       style="fill:#ff0000;fill-opacity:1;stroke:#ff0000;stroke-width:0.75292927;stroke-opacity:1"
       transform="matrix(-0.00394213,-1.6414769,-1.6370173,0.00816708,23.937894,956.13777)"
       id="g118-4-36-0-8-2"><path
         inkscape:connector-curvature="0"
         id="path120-0-58-6-0-2"
         style="fill:#ff0000;fill-opacity:1;fill-rule:evenodd;stroke:#ff0000;stroke-width:0.67103618;stroke-linecap:butt;stroke-linejoin:round;stroke-miterlimit:4;stroke-dasharray:none;stroke-opacity:1"
         d="m 375.08923,-186.73548 -11.65166,-4.26216 11.65338,-4.26543 c -1.86387,2.51887 -1.85274,5.96264 -0.002,8.52759 z" /></g><g
       style="fill:#ff0000;fill-opacity:1;stroke:#ff0000;stroke-width:0.5216924;stroke-opacity:1"
       transform="matrix(0.78996022,-1.7558134,1.7348608,0.79520074,-489.50489,876.58193)"
       id="g4469-3-64-6-7-65"
       inkscape:transform-center-x="46.54289"
       inkscape:transform-center-y="-8.0118349"><path
         d="m 470.68731,260.41136 9.57629,21.14039"
         style="fill:#ff0000;fill-opacity:1;stroke:#ff0000;stroke-width:1.25206184;stroke-linecap:butt;stroke-linejoin:miter;stroke-miterlimit:4;stroke-dasharray:none;stroke-opacity:1"
         id="path116-3-9-0-2-1"
         inkscape:connector-curvature="0"
         inkscape:transform-center-x="-64.007898"
         inkscape:transform-center-y="1.7287352"
         sodipodi:nodetypes="cc" /></g><g
       style="fill:#ff0000;fill-opacity:1;stroke:#ff0000;stroke-width:0.75292927;stroke-opacity:1"
       transform="matrix(-0.76712706,-1.4511989,-1.4452857,0.76879231,394.16032,1032.2112)"
       id="g118-4-36-0-8-2-5"
       inkscape:transform-center-x="2.745701"
       inkscape:transform-center-y="0.91367961"><path
         inkscape:connector-curvature="0"
         id="path120-0-58-6-0-2-5"
         style="fill:#ff0000;fill-opacity:1;fill-rule:evenodd;stroke:#ff0000;stroke-width:0.67103618;stroke-linecap:butt;stroke-linejoin:round;stroke-miterlimit:4;stroke-dasharray:none;stroke-opacity:1"
         d="m 375.08923,-186.73548 -11.65166,-4.26216 11.65338,-4.26543 c -1.86387,2.51887 -1.85274,5.96264 -0.002,8.52759 z" /></g><g
       style="fill:#ff0000;fill-opacity:1;stroke:#ff0000;stroke-width:0.75292927;stroke-opacity:1"
       transform="matrix(-1.6384653,0.09946625,0.10342452,1.6337673,1006.5992,532.37807)"
       id="g118-4-36-0-8-2-5-0"
       inkscape:transform-center-x="-1.214433"
       inkscape:transform-center-y="-0.18497603"><path
         inkscape:connector-curvature="0"
         id="path120-0-58-6-0-2-5-7"
         style="fill:#ff0000;fill-opacity:1;fill-rule:evenodd;stroke:#ff0000;stroke-width:0.67103618;stroke-linecap:butt;stroke-linejoin:round;stroke-miterlimit:4;stroke-dasharray:none;stroke-opacity:1"
         d="m 375.08923,-186.73548 -11.65166,-4.26216 11.65338,-4.26543 c -1.86387,2.51887 -1.85274,5.96264 -0.002,8.52759 z" /></g></g></svg>