<?xml version="1.0" encoding="UTF-8" standalone="no"?>
<!-- Created with Inkscape (http://www.inkscape.org/) -->

<svg
   xmlns:dc="http://purl.org/dc/elements/1.1/"
   xmlns:cc="http://creativecommons.org/ns#"
   xmlns:rdf="http://www.w3.org/1999/02/22-rdf-syntax-ns#"
   xmlns:svg="http://www.w3.org/2000/svg"
   xmlns="http://www.w3.org/2000/svg"
   xmlns:sodipodi="http://sodipodi.sourceforge.net/DTD/sodipodi-0.dtd"
   xmlns:inkscape="http://www.inkscape.org/namespaces/inkscape"
   width="210.01268mm"
   height="141.49651mm"
   viewBox="0 0 744.13942 501.36557"
   id="svg2"
   version="1.1"
   inkscape:version="0.91 r13725"
   sodipodi:docname="tasks.svg">
  <sodipodi:namedview
     id="base"
     pagecolor="#ffffff"
     bordercolor="#666666"
     borderopacity="1.0"
     inkscape:pageopacity="0.0"
     inkscape:pageshadow="2"
     inkscape:zoom="1.28"
     inkscape:cx="429.55607"
     inkscape:cy="241.86102"
     inkscape:document-units="px"
     inkscape:current-layer="layer1"
     showgrid="false"
     fit-margin-top="0"
     fit-margin-left="0"
     fit-margin-right="0"
     fit-margin-bottom="0"
     inkscape:snap-object-midpoints="false"
     inkscape:window-width="1600"
     inkscape:window-height="847"
     inkscape:window-x="-8"
     inkscape:window-y="-8"
     inkscape:window-maximized="1" />
  <defs
     id="defs4">
    <inkscape:perspective
       sodipodi:type="inkscape:persp3d"
       inkscape:vp_x="307.14952 : 393.59857 : 1"
       inkscape:vp_y="0 : 999.99999 : 0"
       inkscape:vp_z="744.0945 : 526.18108 : 1"
       inkscape:persp3d-origin="372.04725 : 350.78739 : 1"
       id="perspective4198" />
  </defs>
  <metadata
     id="metadata7">
    <rdf:RDF>
      <cc:Work
         rdf:about="">
        <dc:format>image/svg+xml</dc:format>
        <dc:type
           rdf:resource="http://purl.org/dc/dcmitype/StillImage" />
        <dc:title></dc:title>
      </cc:Work>
    </rdf:RDF>
  </metadata>
  <g
     inkscape:label="Layer 1"
     inkscape:groupmode="layer"
     id="layer1"
     transform="translate(-76.382947,-153.07401)">
    <path
       style="fill:none;fill-rule:evenodd;stroke:#00944a;stroke-width:9.99999905;stroke-linecap:butt;stroke-linejoin:miter;stroke-miterlimit:4;stroke-dasharray:none;stroke-opacity:0.48627451"
       d="m 315.67512,343.533 c 0,0 -0.0276,8.57265 6.38282,11.81902 26.69993,13.52149 107.92303,49.10432 234.66407,55.95071"
       id="path4447"
       inkscape:connector-curvature="0"
       sodipodi:nodetypes="csc" />
    <path
       style="fill:none;fill-rule:evenodd;stroke:#000000;stroke-width:6;stroke-linecap:butt;stroke-linejoin:miter;stroke-miterlimit:4;stroke-dasharray:none;stroke-opacity:0.82248523"
       d="m 756.23703,267.52037 c -4.82331,3.32403 -317.5508,327.5177 -317.5508,327.5177"
       id="path4450"
       inkscape:connector-curvature="0" />
    <path
       inkscape:connector-curvature="0"
       id="path4452"
       d="M 760.65,590.26347 C 757.33027,585.434 433.55161,272.30564 433.55161,272.30564"
       style="fill:none;fill-rule:evenodd;stroke:#000000;stroke-width:6;stroke-linecap:butt;stroke-linejoin:miter;stroke-miterlimit:4;stroke-dasharray:none;stroke-opacity:0.82248523" />
    <ellipse
       style="fill:#000000;fill-opacity:1;stroke:#000000;stroke-width:0.80000031;stroke-linecap:round;stroke-linejoin:miter;stroke-miterlimit:4;stroke-dasharray:none;stroke-dashoffset:0;stroke-opacity:1"
       id="circle4458"
       cx="-333.3436"
       cy="-728.00446"
       transform="matrix(-0.69609823,0.71794655,-0.7170546,-0.697017,0,0)"
       rx="12.707748"
       ry="12.707266" />
    <ellipse
       cy="-728.00446"
       cx="333.3436"
       id="circle4468"
       style="fill:#646464;fill-opacity:0.81176471;stroke:#000000;stroke-width:0.80000031;stroke-linecap:round;stroke-linejoin:miter;stroke-miterlimit:4;stroke-dasharray:none;stroke-dashoffset:0;stroke-opacity:0.70414201"
       transform="matrix(0.69609823,-0.71794655,-0.7170546,-0.697017,0,0)"
       rx="61.376621"
       ry="61.374294" />
    <path
       style="fill:#000000;fill-opacity:0.36686389;stroke:none;stroke-width:0.80000001;stroke-linecap:round;stroke-linejoin:miter;stroke-miterlimit:4;stroke-dasharray:none;stroke-dashoffset:0;stroke-opacity:1"
       id="circle4470"
       transform="matrix(-0.69609823,0.71794655,-0.7170546,-0.697017,0,0)"
       sodipodi:type="arc"
       sodipodi:cx="-333.3436"
       sodipodi:cy="-728.0047"
       sodipodi:rx="61.376621"
       sodipodi:ry="61.374294"
       sodipodi:start="3.7390815"
       sodipodi:end="4.1276759"
       d="m -384.08678,-762.53192 a 61.376621,61.374294 0 0 1 16.86573,-16.65099 l 33.87745,51.17821 z" />
    <path
       d="m -384.08678,693.47748 a 61.376621,61.374294 0 0 1 16.86573,-16.65099 l 33.87745,51.17821 z"
       sodipodi:end="4.1276759"
       sodipodi:start="3.7390815"
       sodipodi:ry="61.374294"
       sodipodi:rx="61.376621"
       sodipodi:cy="728.0047"
       sodipodi:cx="-333.3436"
       sodipodi:type="arc"
       transform="matrix(-0.69609823,0.71794655,0.7170546,0.697017,0,0)"
       id="path4476"
       style="fill:#000000;fill-opacity:0.36686389;stroke:none;stroke-width:0.80000001;stroke-linecap:round;stroke-linejoin:miter;stroke-miterlimit:4;stroke-dasharray:none;stroke-dashoffset:0;stroke-opacity:1" />
    <path
       style="fill:#000000;fill-opacity:0.36686389;stroke:none;stroke-width:0.80000001;stroke-linecap:round;stroke-linejoin:miter;stroke-miterlimit:4;stroke-dasharray:none;stroke-dashoffset:0;stroke-opacity:1"
       id="path4484"
       sodipodi:type="arc"
       sodipodi:cx="333.3436"
       sodipodi:cy="728.0047"
       sodipodi:rx="61.376621"
       sodipodi:ry="61.374294"
       sodipodi:start="3.7390815"
       sodipodi:end="4.1276759"
       d="m 282.60042,693.47748 a 61.376621,61.374294 0 0 1 16.86573,-16.65099 l 33.87745,51.17821 z"
       transform="matrix(0.69609823,-0.71794655,0.7170546,0.697017,0,0)" />
    <path
       d="m 282.60042,-762.53168 a 61.376621,61.374294 0 0 1 16.86573,-16.65099 l 33.87745,51.17821 z"
       sodipodi:end="4.1276759"
       sodipodi:start="3.7390815"
       sodipodi:ry="61.374294"
       sodipodi:rx="61.376621"
       sodipodi:cy="-728.00446"
       sodipodi:cx="333.3436"
       sodipodi:type="arc"
       id="path4486"
       style="fill:#000000;fill-opacity:0.36686389;stroke:none;stroke-width:0.80000001;stroke-linecap:round;stroke-linejoin:miter;stroke-miterlimit:4;stroke-dasharray:none;stroke-dashoffset:0;stroke-opacity:1"
       transform="matrix(0.69609823,-0.71794655,-0.7170546,-0.697017,0,0)" />
    <ellipse
       transform="matrix(-0.69609823,0.71794655,-0.7170546,-0.697017,0,0)"
       cy="-728.00446"
       cx="118.66561"
       id="circle4505"
       style="fill:#000000;fill-opacity:1;stroke:#000000;stroke-width:0.80000031;stroke-linecap:round;stroke-linejoin:miter;stroke-miterlimit:4;stroke-dasharray:none;stroke-dashoffset:0;stroke-opacity:1"
       rx="12.707748"
       ry="12.707266" />
    <ellipse
       transform="matrix(0.69609823,-0.71794655,-0.7170546,-0.697017,0,0)"
       style="fill:#646464;fill-opacity:0.81176471;stroke:#000000;stroke-width:0.80000031;stroke-linecap:round;stroke-linejoin:miter;stroke-miterlimit:4;stroke-dasharray:none;stroke-dashoffset:0;stroke-opacity:0.70414201"
       id="circle4507"
       cx="-118.66561"
       cy="-728.00446"
       rx="61.376621"
       ry="61.374294" />
    <path
       d="m 67.922449,-762.53192 a 61.376621,61.374294 0 0 1 16.865728,-16.65099 l 33.877453,51.17821 z"
       sodipodi:end="4.1276759"
       sodipodi:start="3.7390815"
       sodipodi:ry="61.374294"
       sodipodi:rx="61.376621"
       sodipodi:cy="-728.0047"
       sodipodi:cx="118.66563"
       sodipodi:type="arc"
       transform="matrix(-0.69609823,0.71794655,-0.7170546,-0.697017,0,0)"
       id="path4509"
       style="fill:#000000;fill-opacity:0.36686389;stroke:none;stroke-width:0.80000001;stroke-linecap:round;stroke-linejoin:miter;stroke-miterlimit:4;stroke-dasharray:none;stroke-dashoffset:0;stroke-opacity:1" />
    <path
       style="fill:#000000;fill-opacity:0.36686389;stroke:none;stroke-width:0.80000001;stroke-linecap:round;stroke-linejoin:miter;stroke-miterlimit:4;stroke-dasharray:none;stroke-dashoffset:0;stroke-opacity:1"
       id="path4511"
       transform="matrix(-0.69609823,0.71794655,0.7170546,0.697017,0,0)"
       sodipodi:type="arc"
       sodipodi:cx="118.66563"
       sodipodi:cy="728.0047"
       sodipodi:rx="61.376621"
       sodipodi:ry="61.374294"
       sodipodi:start="3.7390815"
       sodipodi:end="4.1276759"
       d="M 67.922449,693.47748 A 61.376621,61.374294 0 0 1 84.788177,676.82649 L 118.66563,728.0047 Z" />
    <path
       d="m -169.4088,693.47748 a 61.376621,61.374294 0 0 1 16.86572,-16.65099 l 33.87745,51.17821 z"
       sodipodi:end="4.1276759"
       sodipodi:start="3.7390815"
       sodipodi:ry="61.374294"
       sodipodi:rx="61.376621"
       sodipodi:cy="728.0047"
       sodipodi:cx="-118.66563"
       sodipodi:type="arc"
       id="path4513"
       style="fill:#000000;fill-opacity:0.36686389;stroke:none;stroke-width:0.80000001;stroke-linecap:round;stroke-linejoin:miter;stroke-miterlimit:4;stroke-dasharray:none;stroke-dashoffset:0;stroke-opacity:1"
       transform="matrix(0.69609823,-0.71794655,0.7170546,0.697017,0,0)" />
    <path
       transform="matrix(0.69609823,-0.71794655,-0.7170546,-0.697017,0,0)"
       style="fill:#000000;fill-opacity:0.36686389;stroke:none;stroke-width:0.80000001;stroke-linecap:round;stroke-linejoin:miter;stroke-miterlimit:4;stroke-dasharray:none;stroke-dashoffset:0;stroke-opacity:1"
       id="path4515"
       sodipodi:type="arc"
       sodipodi:cx="-118.66563"
       sodipodi:cy="-728.00446"
       sodipodi:rx="61.376621"
       sodipodi:ry="61.374294"
       sodipodi:start="3.7390815"
       sodipodi:end="4.1276759"
       d="m -169.4088,-762.53168 a 61.376621,61.374294 0 0 1 16.86572,-16.65099 l 33.87745,51.17821 z" />
    <ellipse
       transform="matrix(0.7170546,0.697017,-0.69609823,0.71794655,0,0)"
       cy="-107.33896"
       cx="502.00839"
       id="circle4517"
       style="fill:#000000;fill-opacity:1;stroke:#000000;stroke-width:0.80000031;stroke-linecap:round;stroke-linejoin:miter;stroke-miterlimit:4;stroke-dasharray:none;stroke-dashoffset:0;stroke-opacity:1"
       rx="12.707266"
       ry="12.707748" />
    <ellipse
       transform="matrix(-0.7170546,-0.697017,-0.69609823,0.71794655,0,0)"
       style="fill:#646464;fill-opacity:0.81176471;stroke:#000000;stroke-width:0.80000031;stroke-linecap:round;stroke-linejoin:miter;stroke-miterlimit:4;stroke-dasharray:none;stroke-dashoffset:0;stroke-opacity:0.70414201"
       id="circle4519"
       cx="-502.00839"
       cy="-107.33905"
       rx="61.374294"
       ry="61.376621" />
    <path
       d="m 451.26717,-141.86774 a 61.374294,61.376621 0 0 1 16.86509,-16.65162 l 33.87616,51.18016 z"
       sodipodi:end="4.1276759"
       sodipodi:start="3.7390815"
       sodipodi:ry="61.376621"
       sodipodi:rx="61.374294"
       sodipodi:cy="-107.3392"
       sodipodi:cx="502.00842"
       sodipodi:type="arc"
       transform="matrix(0.7170546,0.697017,-0.69609823,0.71794655,0,0)"
       id="path4521"
       style="fill:#000000;fill-opacity:0.36686389;stroke:none;stroke-width:0.80000001;stroke-linecap:round;stroke-linejoin:miter;stroke-miterlimit:4;stroke-dasharray:none;stroke-dashoffset:0;stroke-opacity:1" />
    <path
       style="fill:#000000;fill-opacity:0.36686389;stroke:none;stroke-width:0.80000001;stroke-linecap:round;stroke-linejoin:miter;stroke-miterlimit:4;stroke-dasharray:none;stroke-dashoffset:0;stroke-opacity:1"
       id="path4523"
       transform="matrix(0.7170546,0.697017,0.69609823,-0.71794655,0,0)"
       sodipodi:type="arc"
       sodipodi:cx="502.00842"
       sodipodi:cy="107.33912"
       sodipodi:rx="61.374294"
       sodipodi:ry="61.376621"
       sodipodi:start="3.7390815"
       sodipodi:end="4.1276759"
       d="m 451.26717,72.810587 a 61.374294,61.376621 0 0 1 16.86509,-16.651621 l 33.87616,51.180154 z" />
    <path
       d="m -552.74968,72.810587 a 61.374294,61.376621 0 0 1 16.86509,-16.651621 l 33.87617,51.180154 z"
       sodipodi:end="4.1276759"
       sodipodi:start="3.7390815"
       sodipodi:ry="61.376621"
       sodipodi:rx="61.374294"
       sodipodi:cy="107.33912"
       sodipodi:cx="-502.00842"
       sodipodi:type="arc"
       id="path4525"
       style="fill:#000000;fill-opacity:0.36686389;stroke:none;stroke-width:0.80000001;stroke-linecap:round;stroke-linejoin:miter;stroke-miterlimit:4;stroke-dasharray:none;stroke-dashoffset:0;stroke-opacity:1"
       transform="matrix(-0.7170546,-0.697017,0.69609823,-0.71794655,0,0)" />
    <path
       transform="matrix(-0.7170546,-0.697017,-0.69609823,0.71794655,0,0)"
       style="fill:#000000;fill-opacity:0.36686389;stroke:none;stroke-width:0.80000001;stroke-linecap:round;stroke-linejoin:miter;stroke-miterlimit:4;stroke-dasharray:none;stroke-dashoffset:0;stroke-opacity:1"
       id="path4527"
       sodipodi:type="arc"
       sodipodi:cx="-502.00842"
       sodipodi:cy="-107.33903"
       sodipodi:rx="61.374294"
       sodipodi:ry="61.376621"
       sodipodi:start="3.7390815"
       sodipodi:end="4.1276759"
       d="m -552.74968,-141.86756 a 61.374294,61.376621 0 0 1 16.86509,-16.65162 l 33.87617,51.18015 z" />
    <ellipse
       style="fill:#000000;fill-opacity:1;stroke:#000000;stroke-width:0.80000031;stroke-linecap:round;stroke-linejoin:miter;stroke-miterlimit:4;stroke-dasharray:none;stroke-dashoffset:0;stroke-opacity:1"
       id="circle4529"
       cx="954.00049"
       cy="-107.33896"
       transform="matrix(0.7170546,0.697017,-0.69609823,0.71794655,0,0)"
       rx="12.707266"
       ry="12.707748" />
    <ellipse
       cy="-107.33905"
       cx="-954.00049"
       id="circle4531"
       style="fill:#646464;fill-opacity:0.81176471;stroke:#000000;stroke-width:0.80000031;stroke-linecap:round;stroke-linejoin:miter;stroke-miterlimit:4;stroke-dasharray:none;stroke-dashoffset:0;stroke-opacity:0.70414201"
       transform="matrix(-0.7170546,-0.697017,-0.69609823,0.71794655,0,0)"
       rx="61.374294"
       ry="61.376621" />
    <path
       style="fill:#000000;fill-opacity:0.36686389;stroke:none;stroke-width:0.80000001;stroke-linecap:round;stroke-linejoin:miter;stroke-miterlimit:4;stroke-dasharray:none;stroke-dashoffset:0;stroke-opacity:1"
       id="path4533"
       transform="matrix(0.7170546,0.697017,-0.69609823,0.71794655,0,0)"
       sodipodi:type="arc"
       sodipodi:cx="954.00055"
       sodipodi:cy="-107.3392"
       sodipodi:rx="61.374294"
       sodipodi:ry="61.376621"
       sodipodi:start="3.7390815"
       sodipodi:end="4.1276759"
       d="m 903.2593,-141.86774 a 61.374294,61.376621 0 0 1 16.86508,-16.65162 l 33.87617,51.18016 z" />
    <path
       d="m 903.2593,72.810587 a 61.374294,61.376621 0 0 1 16.86508,-16.651621 l 33.87617,51.180154 z"
       sodipodi:end="4.1276759"
       sodipodi:start="3.7390815"
       sodipodi:ry="61.376621"
       sodipodi:rx="61.374294"
       sodipodi:cy="107.33912"
       sodipodi:cx="954.00055"
       sodipodi:type="arc"
       transform="matrix(0.7170546,0.697017,0.69609823,-0.71794655,0,0)"
       id="path4535"
       style="fill:#000000;fill-opacity:0.36686389;stroke:none;stroke-width:0.80000001;stroke-linecap:round;stroke-linejoin:miter;stroke-miterlimit:4;stroke-dasharray:none;stroke-dashoffset:0;stroke-opacity:1" />
    <path
       style="fill:#000000;fill-opacity:0.36686389;stroke:none;stroke-width:0.80000001;stroke-linecap:round;stroke-linejoin:miter;stroke-miterlimit:4;stroke-dasharray:none;stroke-dashoffset:0;stroke-opacity:1"
       id="path4537"
       sodipodi:type="arc"
       sodipodi:cx="-954.00055"
       sodipodi:cy="107.33912"
       sodipodi:rx="61.374294"
       sodipodi:ry="61.376621"
       sodipodi:start="3.7390815"
       sodipodi:end="4.1276759"
       d="m -1004.7418,72.810587 a 61.374294,61.376621 0 0 1 16.86509,-16.651621 l 33.87616,51.180154 z"
       transform="matrix(-0.7170546,-0.697017,0.69609823,-0.71794655,0,0)" />
    <path
       d="m -1004.7418,-141.86756 a 61.374294,61.376621 0 0 1 16.86509,-16.65162 l 33.87616,51.18015 z"
       sodipodi:end="4.1276759"
       sodipodi:start="3.7390815"
       sodipodi:ry="61.376621"
       sodipodi:rx="61.374294"
       sodipodi:cy="-107.33903"
       sodipodi:cx="-954.00055"
       sodipodi:type="arc"
       id="path4539"
       style="fill:#000000;fill-opacity:0.36686389;stroke:none;stroke-width:0.80000001;stroke-linecap:round;stroke-linejoin:miter;stroke-miterlimit:4;stroke-dasharray:none;stroke-dashoffset:0;stroke-opacity:1"
       transform="matrix(-0.7170546,-0.697017,-0.69609823,0.71794655,0,0)" />
    <rect
       style="fill:#0a0a0a;fill-opacity:1;stroke:#000000;stroke-width:8;stroke-linecap:round;stroke-linejoin:miter;stroke-miterlimit:4;stroke-dasharray:none;stroke-dashoffset:0;stroke-opacity:0.75739644"
       id="rect4591"
       width="82.161446"
       height="82.266716"
       x="549.42267"
       y="398.7449"
       transform="matrix(0.99988566,-0.0151217,0.015083,0.99988625,0,0)" />
    <path
       style="fill:none;fill-opacity:0.59171597;fill-rule:evenodd;stroke:#000000;stroke-width:0.99999994px;stroke-linecap:butt;stroke-linejoin:miter;stroke-opacity:1"
       d="m 76.432999,424.73376 229.724461,-23.11251 -16.49305,31.40932 193.79314,-7.70412 -224.42309,23.70513 15.31499,-28.44619 z"
       id="path5198"
       inkscape:connector-curvature="0" />
    <rect
       style="fill:#00944a;fill-opacity:0.48520711;stroke:none;stroke-width:2;stroke-linecap:round;stroke-linejoin:miter;stroke-miterlimit:4;stroke-dasharray:none;stroke-dashoffset:0;stroke-opacity:1"
       id="rect4196"
       width="190.49294"
       height="190.49294"
       x="130.1727"
       y="153.07401" />
    <rect
       y="198.54681"
       x="130.1727"
       height="43.547306"
       width="190.49294"
       id="rect4198"
       style="fill:#00944a;fill-opacity:0.48520711;stroke:none;stroke-width:2;stroke-linecap:round;stroke-linejoin:miter;stroke-miterlimit:4;stroke-dasharray:none;stroke-dashoffset:0;stroke-opacity:1" />
    <rect
       style="fill:#00944a;fill-opacity:0.48520711;stroke:none;stroke-width:2;stroke-linecap:round;stroke-linejoin:miter;stroke-miterlimit:4;stroke-dasharray:none;stroke-dashoffset:0;stroke-opacity:1"
       id="rect4200"
       width="190.49294"
       height="43.547306"
       x="130.1727"
       y="254.54681" />
    <g
       id="g4239"
       transform="matrix(0.67896219,0,0,0.67896212,78.22742,86.90042)">
      <g
         id="content"
         transform="matrix(0.76034415,0,0,-0.76034415,-133.06023,520.07583)"
         xml:space="preserve"
         stroke-miterlimit="10.433"
         font-style="normal"
         font-variant="normal"
         font-weight="normal"
         font-stretch="normal"
         font-size-adjust="none"
         letter-spacing="normal"
         word-spacing="normal"
         style="font-style:normal;font-variant:normal;font-weight:normal;font-stretch:normal;letter-spacing:normal;word-spacing:normal;text-anchor:start;fill:none;fill-opacity:1;fill-rule:evenodd;stroke:#000000;stroke-width:1.47283614;stroke-linecap:butt;stroke-linejoin:miter;stroke-miterlimit:10.43299961;stroke-dasharray:none;stroke-dashoffset:0;stroke-opacity:1"><path
           d="m 383.68,423.23 0.02,-0.96 0.07,-0.94 0.11,-0.93 0.16,-0.91 0.2,-0.89 0.24,-0.87 0.28,-0.85 0.32,-0.83 0.36,-0.81 0.39,-0.78 0.43,-0.76 0.46,-0.74 0.49,-0.7 0.52,-0.68 0.55,-0.66 0.59,-0.62 0.6,-0.59 0.64,-0.56 0.66,-0.53 0.68,-0.5 0.7,-0.46 0.73,-0.43 0.74,-0.39 0.77,-0.35 0.78,-0.32 0.79,-0.28 0.81,-0.23 0.83,-0.2 0.84,-0.15 0.84,-0.11 0.86,-0.07 0.86,-0.02 c 8.13,0 13,6.92 13,12.7 0,0.5 0,0.84 -0.64,0.84 -0.54,0 -0.54,-0.29 -0.59,-0.79 -0.41,-7.13 -5.73,-11.21 -11.17,-11.21 -3.03,0 -12.8,1.69 -12.8,16.53 0,14.91 9.72,16.6 12.75,16.6 5.44,0 9.88,-4.53 10.86,-11.82 0.11,-0.68 0.11,-0.84 0.8,-0.84 0.79,0 0.79,0.16 0.79,1.2 l 0,11.8 c 0,0.86 0,1.2 -0.54,1.2 -0.19,0 -0.39,0 -0.8,-0.59 l -2.48,-3.69 c -1.85,1.8 -4.39,4.28 -9.18,4.28 -9.31,0 -17.32,-7.92 -17.32,-18.09 z"
           id="path4242"
           inkscape:connector-curvature="0"
           style="fill:#000000;stroke-width:0" /><path
           d="m 440.35,416.86 -0.02,0.59 -0.04,0.59 -0.07,0.58 -0.1,0.57 -0.12,0.56 -0.15,0.55 -0.18,0.54 -0.2,0.53 -0.22,0.51 -0.24,0.5 -0.27,0.49 -0.29,0.47 -0.31,0.46 -0.32,0.44 -0.35,0.43 -0.37,0.4 -0.38,0.39 -0.4,0.37 -0.42,0.35 -0.43,0.32 -0.45,0.31 -0.46,0.28 -0.48,0.26 -0.48,0.24 -0.5,0.21 -0.51,0.18 -0.52,0.16 -0.53,0.13 -0.54,0.11 -0.55,0.07 -0.56,0.05 -0.56,0.01 -0.04,-1.09 c 2.18,0 4.32,-1.1 5.62,-3.24 1.3,-2.14 1.3,-5.03 1.3,-6.92 0,-1.8 0,-4.48 -1.1,-6.67 -1.09,-2.25 -3.28,-3.69 -5.78,-3.69 l 0,0 c -2.14,0 -4.33,1.05 -5.67,3.33 -1.25,2.2 -1.25,5.23 -1.25,7.03 0,1.94 0,4.63 1.19,6.83 1.36,2.28 3.69,3.33 5.69,3.33 l 0.04,1.09 c -6.22,0 -11.06,-5.42 -11.06,-11.65 0,-6.43 5.19,-11.21 11.02,-11.21 6.03,0 11.06,4.88 11.06,11.21 z"
           id="path4244"
           inkscape:connector-curvature="0"
           style="fill:#000000;stroke-width:0" /><path
           d="m 447.32,423.34 0,-13.36 c 0,-2.23 -0.55,-2.23 -3.89,-2.23 l 0,-1.55 c 1.75,0.05 4.28,0.16 5.62,0.16 1.3,0 3.9,-0.11 5.58,-0.16 l 0,1.55 c -3.33,0 -3.87,0 -3.87,2.23 l 0,9.17 c 0,5.19 3.53,7.97 6.72,7.97 3.14,0 3.68,-2.69 3.68,-5.53 l 0,-11.61 c 0,-2.23 -0.54,-2.23 -3.89,-2.23 l 0,-1.55 c 1.75,0.05 4.3,0.16 5.64,0.16 1.3,0 3.88,-0.11 5.58,-0.16 l 0,1.55 c -2.59,0 -3.84,0 -3.89,1.5 l 0,9.51 c 0,4.28 0,5.83 -1.55,7.61 -0.68,0.86 -2.34,1.84 -5.21,1.84 -3.64,0 -5.99,-2.14 -7.38,-5.21 l 0,5.21 -7.03,-0.54 0,-1.55 c 3.48,0 3.89,-0.34 3.89,-2.78 z"
           id="path4246"
           inkscape:connector-curvature="0"
           style="fill:#000000;stroke-width:0" /><path
           d="m 476.74,426.12 7.13,0 0,1.55 -7.13,0 0,9.17 -1.25,0 c -0.04,-4.08 -1.54,-9.42 -6.42,-9.61 l 0,-1.11 4.23,0 0,-13.75 c 0,-6.12 4.63,-6.72 6.43,-6.72 3.53,0 4.93,3.53 4.93,6.72 l 0,2.84 -1.25,0 0,-2.73 c 0,-3.69 -1.5,-5.58 -3.34,-5.58 -3.33,0 -3.33,4.53 -3.33,5.38 z"
           id="path4248"
           inkscape:connector-curvature="0"
           style="fill:#000000;stroke-width:0" /><path
           d="m 495.75,422.75 0,5.46 -6.93,-0.54 0,-1.55 c 3.49,0 3.89,-0.34 3.89,-2.78 l 0,-13.36 c 0,-2.23 -0.54,-2.23 -3.89,-2.23 l 0,-1.55 c 1.96,0.05 4.29,0.16 5.69,0.16 1.99,0 4.33,0 6.33,-0.16 l 0,1.55 -1.05,0 c -3.68,0 -3.79,0.54 -3.79,2.34 l 0,7.67 c 0,4.92 2.09,9.36 5.89,9.36 0.34,0 0.43,0 0.54,-0.05 -0.15,-0.04 -1.15,-0.64 -1.15,-1.93 0,-1.41 1.04,-2.14 2.15,-2.14 0.89,0 2.14,0.59 2.14,2.18 0,1.6 -1.54,3.03 -3.68,3.03 -3.64,0 -5.44,-3.32 -6.14,-5.46 z"
           id="path4250"
           inkscape:connector-curvature="0"
           style="fill:#000000;stroke-width:0" /><path
           d="m 530.46,416.86 -0.01,0.59 -0.05,0.59 -0.07,0.58 -0.09,0.57 -0.13,0.56 -0.15,0.55 -0.17,0.54 -0.2,0.53 -0.22,0.51 -0.25,0.5 -0.27,0.49 -0.28,0.47 -0.31,0.46 -0.33,0.44 -0.35,0.43 -0.37,0.4 -0.38,0.39 -0.4,0.37 -0.42,0.35 -0.43,0.32 -0.45,0.31 -0.46,0.28 -0.47,0.26 -0.49,0.24 -0.5,0.21 -0.51,0.18 -0.52,0.16 -0.53,0.13 -0.54,0.11 -0.55,0.07 -0.55,0.05 -0.56,0.01 -0.05,-1.09 c 2.19,0 4.33,-1.1 5.62,-3.24 1.3,-2.14 1.3,-5.03 1.3,-6.92 0,-1.8 0,-4.48 -1.09,-6.67 -1.1,-2.25 -3.28,-3.69 -5.78,-3.69 l 0,0 c -2.15,0 -4.33,1.05 -5.68,3.33 -1.25,2.2 -1.25,5.23 -1.25,7.03 0,1.94 0,4.63 1.19,6.83 1.36,2.28 3.69,3.33 5.69,3.33 l 0.05,1.09 c -6.22,0 -11.07,-5.42 -11.07,-11.65 0,-6.43 5.19,-11.21 11.02,-11.21 6.03,0 11.06,4.88 11.06,11.21 z"
           id="path4252"
           inkscape:connector-curvature="0"
           style="fill:#000000;stroke-width:0" /><path
           d="m 540.76,440.78 -7.17,-0.55 0,-1.55 c 3.48,0 3.89,-0.34 3.89,-2.79 l 0,-25.91 c 0,-2.23 -0.55,-2.23 -3.89,-2.23 l 0,-1.55 c 1.64,0.05 4.28,0.16 5.53,0.16 1.25,0 3.69,-0.11 5.53,-0.16 l 0,1.55 c -3.34,0 -3.89,0 -3.89,2.23 z"
           id="path4254"
           inkscape:connector-curvature="0"
           style="fill:#000000;stroke-width:0" /></g>    </g>
    <g
       id="g4346"
       transform="matrix(0.59870275,0,0,0.59870265,51.27601,156.95267)">
      <g
         word-spacing="normal"
         letter-spacing="normal"
         font-size-adjust="none"
         font-stretch="normal"
         font-weight="normal"
         font-variant="normal"
         font-style="normal"
         stroke-miterlimit="10.433"
         xml:space="preserve"
         transform="matrix(0.76034415,0,0,-0.76034415,-133.06023,520.07583)"
         id="g4348"
         style="font-style:normal;font-variant:normal;font-weight:normal;font-stretch:normal;letter-spacing:normal;word-spacing:normal;text-anchor:start;fill:none;fill-opacity:1;fill-rule:evenodd;stroke:#000000;stroke-width:1.67027807;stroke-linecap:butt;stroke-linejoin:miter;stroke-miterlimit:10.43299961;stroke-dasharray:none;stroke-dashoffset:0;stroke-opacity:1"><path
           id="path4350"
           d="m 383.68,423.23 0.02,-0.96 0.07,-0.94 0.11,-0.93 0.16,-0.91 0.2,-0.89 0.24,-0.87 0.28,-0.85 0.32,-0.83 0.36,-0.81 0.39,-0.78 0.43,-0.76 0.46,-0.74 0.49,-0.7 0.52,-0.68 0.55,-0.66 0.59,-0.62 0.6,-0.59 0.64,-0.56 0.66,-0.53 0.68,-0.5 0.7,-0.46 0.73,-0.43 0.74,-0.39 0.77,-0.35 0.78,-0.32 0.79,-0.28 0.81,-0.23 0.83,-0.2 0.84,-0.15 0.84,-0.11 0.86,-0.07 0.86,-0.02 c 8.13,0 13,6.92 13,12.7 0,0.5 0,0.84 -0.64,0.84 -0.54,0 -0.54,-0.29 -0.59,-0.79 -0.41,-7.13 -5.73,-11.21 -11.17,-11.21 -3.03,0 -12.8,1.69 -12.8,16.53 0,14.91 9.72,16.6 12.75,16.6 5.44,0 9.88,-4.53 10.86,-11.82 0.11,-0.68 0.11,-0.84 0.8,-0.84 0.79,0 0.79,0.16 0.79,1.2 l 0,11.8 c 0,0.86 0,1.2 -0.54,1.2 -0.19,0 -0.39,0 -0.8,-0.59 l -2.48,-3.69 c -1.85,1.8 -4.39,4.28 -9.18,4.28 -9.31,0 -17.32,-7.92 -17.32,-18.09 z"
           inkscape:connector-curvature="0"
           style="fill:#000000;stroke-width:0" /><path
           id="path4352"
           d="m 440.35,416.86 -0.02,0.59 -0.04,0.59 -0.07,0.58 -0.1,0.57 -0.12,0.56 -0.15,0.55 -0.18,0.54 -0.2,0.53 -0.22,0.51 -0.24,0.5 -0.27,0.49 -0.29,0.47 -0.31,0.46 -0.32,0.44 -0.35,0.43 -0.37,0.4 -0.38,0.39 -0.4,0.37 -0.42,0.35 -0.43,0.32 -0.45,0.31 -0.46,0.28 -0.48,0.26 -0.48,0.24 -0.5,0.21 -0.51,0.18 -0.52,0.16 -0.53,0.13 -0.54,0.11 -0.55,0.07 -0.56,0.05 -0.56,0.01 -0.04,-1.09 c 2.18,0 4.32,-1.1 5.62,-3.24 1.3,-2.14 1.3,-5.03 1.3,-6.92 0,-1.8 0,-4.48 -1.1,-6.67 -1.09,-2.25 -3.28,-3.69 -5.78,-3.69 l 0,0 c -2.14,0 -4.33,1.05 -5.67,3.33 -1.25,2.2 -1.25,5.23 -1.25,7.03 0,1.94 0,4.63 1.19,6.83 1.36,2.28 3.69,3.33 5.69,3.33 l 0.04,1.09 c -6.22,0 -11.06,-5.42 -11.06,-11.65 0,-6.43 5.19,-11.21 11.02,-11.21 6.03,0 11.06,4.88 11.06,11.21 z"
           inkscape:connector-curvature="0"
           style="fill:#000000;stroke-width:0" /><path
           id="path4354"
           d="m 447.32,423.34 0,-13.36 c 0,-2.23 -0.55,-2.23 -3.89,-2.23 l 0,-1.55 c 1.75,0.05 4.28,0.16 5.62,0.16 1.3,0 3.9,-0.11 5.58,-0.16 l 0,1.55 c -3.33,0 -3.87,0 -3.87,2.23 l 0,9.17 c 0,5.19 3.53,7.97 6.72,7.97 3.14,0 3.68,-2.69 3.68,-5.53 l 0,-11.61 c 0,-2.23 -0.54,-2.23 -3.89,-2.23 l 0,-1.55 c 1.75,0.05 4.3,0.16 5.64,0.16 1.3,0 3.88,-0.11 5.58,-0.16 l 0,1.55 c -3.34,0 -3.89,0 -3.89,2.23 l 0,9.17 c 0,5.19 3.55,7.97 6.74,7.97 3.14,0 3.68,-2.69 3.68,-5.53 l 0,-11.61 c 0,-2.23 -0.54,-2.23 -3.89,-2.23 l 0,-1.55 c 1.74,0.05 4.28,0.16 5.63,0.16 1.29,0 3.89,-0.11 5.58,-0.16 l 0,1.55 c -2.58,0 -3.83,0 -3.88,1.5 l 0,9.51 c 0,4.28 0,5.83 -1.55,7.61 -0.7,0.86 -2.34,1.84 -5.23,1.84 -4.19,0 -6.38,-2.98 -7.22,-4.87 -0.7,4.33 -4.39,4.87 -6.62,4.87 -3.64,0 -5.99,-2.14 -7.38,-5.21 l 0,5.21 -7.03,-0.54 0,-1.55 c 3.48,0 3.89,-0.34 3.89,-2.78 z"
           inkscape:connector-curvature="0"
           style="fill:#000000;stroke-width:0" /><path
           id="path4356"
           d="m 488.84,423.34 0,-13.36 c 0,-2.23 -0.55,-2.23 -3.89,-2.23 l 0,-1.55 c 1.75,0.05 4.28,0.16 5.62,0.16 1.3,0 3.89,-0.11 5.58,-0.16 l 0,1.55 c -3.33,0 -3.87,0 -3.87,2.23 l 0,9.17 c 0,5.19 3.53,7.97 6.72,7.97 3.14,0 3.68,-2.69 3.68,-5.53 l 0,-11.61 c 0,-2.23 -0.54,-2.23 -3.89,-2.23 l 0,-1.55 c 1.75,0.05 4.3,0.16 5.64,0.16 1.3,0 3.88,-0.11 5.58,-0.16 l 0,1.55 c -3.34,0 -3.89,0 -3.89,2.23 l 0,9.17 c 0,5.19 3.55,7.97 6.73,7.97 3.15,0 3.69,-2.69 3.69,-5.53 l 0,-11.61 c 0,-2.23 -0.54,-2.23 -3.89,-2.23 l 0,-1.55 c 1.74,0.05 4.28,0.16 5.63,0.16 1.29,0 3.89,-0.11 5.57,-0.16 l 0,1.55 c -2.57,0 -3.82,0 -3.87,1.5 l 0,9.51 c 0,4.28 0,5.83 -1.55,7.61 -0.7,0.86 -2.34,1.84 -5.23,1.84 -4.19,0 -6.38,-2.98 -7.22,-4.87 -0.7,4.33 -4.39,4.87 -6.62,4.87 -3.65,0 -5.99,-2.14 -7.38,-5.21 l 0,5.21 -7.03,-0.54 0,-1.55 c 3.48,0 3.89,-0.34 3.89,-2.78 z"
           inkscape:connector-curvature="0"
           style="fill:#000000;stroke-width:0" /><path
           id="path4358"
           d="m 542.92,410.14 0,-4.49 7.17,0.55 0,1.55 c -3.48,0 -3.89,0.34 -3.89,2.78 l 0,17.68 -7.32,-0.54 0,-1.55 c 3.5,0 3.89,-0.34 3.89,-2.78 l 0,-8.88 c 0,-4.32 -2.39,-7.71 -6.04,-7.71 -4.17,0 -4.37,2.34 -4.37,4.93 l 0,16.53 -7.33,-0.54 0,-1.55 c 3.89,0 3.89,-0.14 3.89,-4.58 l 0,-7.47 c 0,-3.89 0,-8.42 7.56,-8.42 2.8,0 4.99,1.39 6.44,4.49 z"
           inkscape:connector-curvature="0"
           style="fill:#000000;stroke-width:0" /><path
           id="path4360"
           d="m 556.64,423.34 0,-13.36 c 0,-2.23 -0.55,-2.23 -3.89,-2.23 l 0,-1.55 c 1.75,0.05 4.28,0.16 5.63,0.16 1.29,0 3.89,-0.11 5.57,-0.16 l 0,1.55 c -3.32,0 -3.87,0 -3.87,2.23 l 0,9.17 c 0,5.19 3.53,7.97 6.72,7.97 3.14,0 3.68,-2.69 3.68,-5.53 l 0,-11.61 c 0,-2.23 -0.54,-2.23 -3.89,-2.23 l 0,-1.55 c 1.75,0.05 4.3,0.16 5.64,0.16 1.3,0 3.88,-0.11 5.58,-0.16 l 0,1.55 c -2.59,0 -3.84,0 -3.89,1.5 l 0,9.51 c 0,4.28 0,5.83 -1.54,7.61 -0.69,0.86 -2.35,1.84 -5.22,1.84 -3.64,0 -5.99,-2.14 -7.38,-5.21 l 0,5.21 -7.03,-0.54 0,-1.55 c 3.48,0 3.89,-0.34 3.89,-2.78 z"
           inkscape:connector-curvature="0"
           style="fill:#000000;stroke-width:0" /><path
           id="path4362"
           d="m 587.69,428.21 -6.97,-0.54 0,-1.55 c 3.23,0 3.69,-0.3 3.69,-2.73 l 0,-13.41 c 0,-2.23 -0.55,-2.23 -3.89,-2.23 l 0,-1.55 c 1.59,0.05 4.28,0.16 5.48,0.16 1.75,0 3.48,-0.11 5.19,-0.16 l 0,1.55 c -3.3,0 -3.5,0.25 -3.5,2.18 z"
           inkscape:connector-curvature="0"
           style="fill:#000000;stroke-width:0" /><path
           id="path4364"
           d="m 587.89,436.89 0,0.14 -0.01,0.15 -0.02,0.14 -0.03,0.14 -0.03,0.13 -0.03,0.13 -0.05,0.13 -0.05,0.12 -0.05,0.12 -0.06,0.12 -0.07,0.11 -0.07,0.1 -0.07,0.1 -0.08,0.1 -0.09,0.1 -0.09,0.08 -0.09,0.09 -0.1,0.08 -0.1,0.07 -0.1,0.07 -0.11,0.07 -0.11,0.06 -0.11,0.05 -0.12,0.05 -0.12,0.04 -0.12,0.04 -0.12,0.03 -0.13,0.03 -0.12,0.02 -0.13,0.01 -0.13,0.01 -0.13,0.01 c -1.55,0 -2.64,-1.35 -2.64,-2.64 0,-1.35 1.09,-2.64 2.64,-2.64 1.39,0 2.64,1.04 2.64,2.64 z"
           inkscape:connector-curvature="0"
           style="fill:#000000;stroke-width:0" /><path
           id="path4366"
           d="m 598.5,417.06 0,0.38 0.01,0.36 0.02,0.36 0.02,0.35 0.02,0.34 0.03,0.34 0.04,0.32 0.04,0.32 0.05,0.31 0.05,0.3 0.05,0.29 0.07,0.29 0.13,0.55 0.15,0.51 0.17,0.49 0.18,0.46 0.2,0.43 0.2,0.4 0.23,0.38 0.23,0.35 0.24,0.32 0.25,0.3 0.25,0.28 0.27,0.26 0.27,0.23 0.27,0.21 0.28,0.19 0.28,0.16 0.28,0.15 0.29,0.13 0.28,0.12 0.28,0.09 0.28,0.08 0.28,0.06 0.27,0.05 0.26,0.03 0.26,0.02 0.25,0.01 c 0.44,0 3.58,-0.05 5.33,-1.85 -2.04,-0.15 -2.34,-1.64 -2.34,-2.29 0,-1.3 0.89,-2.3 2.3,-2.3 1.28,0 2.28,0.86 2.28,2.34 0,3.39 -3.78,5.33 -7.63,5.33 -6.22,0 -10.81,-5.37 -10.81,-11.55 0,-6.37 4.94,-11.31 10.72,-11.31 6.67,0 8.26,5.99 8.26,6.47 0,0.5 -0.5,0.5 -0.64,0.5 -0.45,0 -0.54,-0.19 -0.65,-0.5 -1.44,-4.62 -4.67,-5.22 -6.52,-5.22 -2.64,0 -7.03,2.14 -7.03,10.16 z"
           inkscape:connector-curvature="0"
           style="fill:#000000;stroke-width:0" /><path
           id="path4368"
           d="m 631.34,409.98 0.03,-0.19 0.03,-0.18 0.03,-0.19 0.04,-0.18 0.05,-0.19 0.06,-0.18 0.06,-0.18 0.07,-0.18 0.07,-0.18 0.08,-0.17 0.09,-0.18 0.1,-0.16 0.1,-0.16 0.1,-0.16 0.12,-0.16 0.12,-0.14 0.12,-0.14 0.13,-0.14 0.14,-0.13 0.15,-0.12 0.15,-0.12 0.15,-0.1 0.17,-0.1 0.17,-0.09 0.17,-0.08 0.18,-0.07 0.19,-0.06 0.19,-0.05 0.2,-0.04 0.21,-0.03 0.21,-0.02 0.21,-0.01 c 1.04,0 4.08,0.71 4.08,4.74 l 0,2.78 -1.25,0 0,-2.78 c 0,-2.89 -1.23,-3.19 -1.79,-3.19 -1.64,0 -1.85,2.23 -1.85,2.48 l 0,9.97 c 0,2.1 0,4.03 -1.78,5.88 -1.95,1.93 -4.44,2.73 -6.83,2.73 -4.09,0 -7.53,-2.33 -7.53,-5.62 0,-1.49 1,-2.35 2.3,-2.35 1.39,0 2.3,1 2.3,2.3 0,0.59 -0.25,2.23 -2.55,2.3 1.34,1.73 3.78,2.28 5.37,2.28 2.46,0 5.28,-1.94 5.28,-6.38 l 0,-1.84 0,-1.05 0,-4.98 c 0,-4.74 -3.57,-6.42 -5.82,-6.42 -2.44,0 -4.49,1.75 -4.49,4.23 0,2.73 2.1,6.88 10.31,7.17 l 0,0 0,1.05 c -2.53,-0.14 -6.01,-0.3 -9.15,-1.8 -3.74,-1.69 -4.99,-4.28 -4.99,-6.47 0,-4.03 4.83,-5.28 7.97,-5.28 3.3,0 5.58,1.99 6.53,4.33 z"
           inkscape:connector-curvature="0"
           style="fill:#000000;stroke-width:0" /><path
           id="path4370"
           d="m 648.33,426.12 7.13,0 0,1.55 -7.13,0 0,9.17 -1.25,0 c -0.05,-4.08 -1.55,-9.42 -6.42,-9.61 l 0,-1.11 4.24,0 0,-13.75 c 0,-6.12 4.62,-6.72 6.42,-6.72 3.53,0 4.93,3.53 4.93,6.72 l 0,2.84 -1.25,0 0,-2.73 c 0,-3.69 -1.5,-5.58 -3.34,-5.58 -3.33,0 -3.33,4.53 -3.33,5.38 z"
           inkscape:connector-curvature="0"
           style="fill:#000000;stroke-width:0" /><path
           id="path4372"
           d="m 667.84,428.21 -6.97,-0.54 0,-1.55 c 3.23,0 3.68,-0.3 3.68,-2.73 l 0,-13.41 c 0,-2.23 -0.54,-2.23 -3.89,-2.23 l 0,-1.55 c 1.6,0.05 4.29,0.16 5.49,0.16 1.75,0 3.48,-0.11 5.19,-0.16 l 0,1.55 c -3.3,0 -3.5,0.25 -3.5,2.18 z"
           inkscape:connector-curvature="0"
           style="fill:#000000;stroke-width:0" /><path
           id="path4374"
           d="m 668.04,436.89 0,0.14 -0.02,0.15 -0.01,0.14 -0.03,0.14 -0.03,0.13 -0.04,0.13 -0.04,0.13 -0.05,0.12 -0.05,0.12 -0.06,0.12 -0.07,0.11 -0.07,0.1 -0.08,0.1 -0.08,0.1 -0.08,0.1 -0.09,0.08 -0.09,0.09 -0.1,0.08 -0.1,0.07 -0.11,0.07 -0.1,0.07 -0.11,0.06 -0.12,0.05 -0.11,0.05 -0.12,0.04 -0.12,0.04 -0.12,0.03 -0.13,0.03 -0.13,0.02 -0.12,0.01 -0.13,0.01 -0.13,0.01 c -1.55,0 -2.64,-1.35 -2.64,-2.64 0,-1.35 1.09,-2.64 2.64,-2.64 1.39,0 2.64,1.04 2.64,2.64 z"
           inkscape:connector-curvature="0"
           style="fill:#000000;stroke-width:0" /><path
           id="path4376"
           d="m 696.29,416.86 -0.02,0.59 -0.04,0.59 -0.07,0.58 -0.1,0.57 -0.12,0.56 -0.15,0.55 -0.18,0.54 -0.19,0.53 -0.23,0.51 -0.24,0.5 -0.27,0.49 -0.29,0.47 -0.3,0.46 -0.33,0.44 -0.35,0.43 -0.37,0.4 -0.38,0.39 -0.4,0.37 -0.42,0.35 -0.43,0.32 -0.45,0.31 -0.46,0.28 -0.47,0.26 -0.49,0.24 -0.5,0.21 -0.51,0.18 -0.52,0.16 -0.53,0.13 -0.54,0.11 -0.55,0.07 -0.55,0.05 -0.57,0.01 -0.04,-1.09 c 2.18,0 4.32,-1.1 5.62,-3.24 1.3,-2.14 1.3,-5.03 1.3,-6.92 0,-1.8 0,-4.48 -1.1,-6.67 -1.09,-2.25 -3.28,-3.69 -5.78,-3.69 l 0,0 c -2.14,0 -4.32,1.05 -5.67,3.33 -1.25,2.2 -1.25,5.23 -1.25,7.03 0,1.94 0,4.63 1.19,6.83 1.36,2.28 3.69,3.33 5.69,3.33 l 0.04,1.09 c -6.22,0 -11.06,-5.42 -11.06,-11.65 0,-6.43 5.19,-11.21 11.02,-11.21 6.03,0 11.06,4.88 11.06,11.21 z"
           inkscape:connector-curvature="0"
           style="fill:#000000;stroke-width:0" /><path
           id="path4378"
           d="m 703.26,423.34 0,-13.36 c 0,-2.23 -0.54,-2.23 -3.89,-2.23 l 0,-1.55 c 1.75,0.05 4.28,0.16 5.63,0.16 1.29,0 3.89,-0.11 5.57,-0.16 l 0,1.55 c -3.32,0 -3.87,0 -3.87,2.23 l 0,9.17 c 0,5.19 3.53,7.97 6.72,7.97 3.14,0 3.68,-2.69 3.68,-5.53 l 0,-11.61 c 0,-2.23 -0.54,-2.23 -3.88,-2.23 l 0,-1.55 c 1.75,0.05 4.29,0.16 5.63,0.16 1.3,0 3.88,-0.11 5.58,-0.16 l 0,1.55 c -2.59,0 -3.84,0 -3.89,1.5 l 0,9.51 c 0,4.28 0,5.83 -1.54,7.61 -0.69,0.86 -2.35,1.84 -5.22,1.84 -3.64,0 -5.99,-2.14 -7.38,-5.21 l 0,5.21 -7.03,-0.54 0,-1.55 c 3.48,0 3.89,-0.34 3.89,-2.78 z"
           inkscape:connector-curvature="0"
           style="fill:#000000;stroke-width:0" /></g>    </g>
  </g>
</svg>
